<svg width="34" height="34" viewBox="0 0 34 34" fill="none" xmlns="http://www.w3.org/2000/svg">
<path fill-rule="evenodd" clip-rule="evenodd" d="M6.00635 6.00781V10.103L10.1019 10.103L10.1019 6.00781L6.00635 6.00781Z" fill="white"/>
<path fill-rule="evenodd" clip-rule="evenodd" d="M6.00635 23.207V27.3023L10.1019 27.3023L10.1019 23.207L6.00635 23.207Z" fill="white"/>
<path fill-rule="evenodd" clip-rule="evenodd" d="M23.2062 6.00781V10.103L27.3017 10.103L27.3017 6.00781L23.2062 6.00781Z" fill="white"/>
<path fill-rule="evenodd" clip-rule="evenodd" d="M23.2059 23.207V27.3023L27.3014 27.3023L27.3014 23.207L23.2059 23.207Z" fill="white"/>
<path d="M16.6538 24.2988L19.657 27.3021L16.6538 30.3054L13.6506 27.3021L16.6538 24.2988Z" fill="white"/>
<path d="M16.6538 3.00391L19.657 6.0072L16.6538 9.0105L13.6506 6.0072L16.6538 3.00391Z" fill="white"/>
<path d="M16.6538 13.6523L19.657 16.6556L16.6538 19.6589L13.6506 16.6556L16.6538 13.6523Z" fill="white"/>
<path d="M27.3014 13.6523L30.3046 16.6556L27.3014 19.6589L24.2982 16.6556L27.3014 13.6523Z" fill="white"/>
<path d="M6.00622 13.6523L9.00938 16.6556L6.00622 19.6589L3.00305 16.6556L6.00622 13.6523Z" fill="white"/>
</svg>
