<svg width="16" height="16" viewBox="0 0 16 16" fill="none" xmlns="http://www.w3.org/2000/svg">
<rect width="16" height="16" fill="white" fill-opacity="0.01"/>
<path fill-rule="evenodd" clip-rule="evenodd" d="M7.99922 0.266602C3.72937 0.266602 0.266602 3.72893 0.266602 8.00019C0.266602 11.4165 2.48223 14.3152 5.55524 15.3383C5.94216 15.409 6.08316 15.1703 6.08316 14.9652C6.08316 14.7814 6.07651 14.2953 6.07271 13.6501C3.92165 14.1173 3.4678 12.6133 3.4678 12.6133C3.11601 11.7198 2.60899 11.482 2.60899 11.482C1.90685 11.0025 2.66216 11.012 2.66216 11.012C3.43837 11.0666 3.84664 11.8091 3.84664 11.8091C4.53645 12.9907 5.65684 12.6493 6.09741 12.4513C6.16767 11.9519 6.36753 11.611 6.58829 11.4179C4.87113 11.2222 3.06569 10.5591 3.06569 7.59571C3.06569 6.75113 3.36716 6.06134 3.86183 5.52061C3.78208 5.32501 3.5167 4.53883 3.93779 3.47397C3.93779 3.47397 4.58676 3.26603 6.06417 4.26631C6.68086 4.09493 7.34265 4.00948 8.00017 4.00615C8.65721 4.00948 9.31854 4.09493 9.93618 4.26631C11.4126 3.26603 12.0606 3.47397 12.0606 3.47397C12.4827 4.53883 12.2173 5.32501 12.1381 5.52061C12.6336 6.06134 12.9327 6.75113 12.9327 7.59571C12.9327 10.5667 11.1244 11.2204 9.40209 11.4117C9.67934 11.6505 9.92669 12.1224 9.92669 12.844C9.92669 13.8775 9.91718 14.7116 9.91718 14.9652C9.91718 15.1721 10.0568 15.4128 10.4489 15.3373C13.5195 14.3124 15.7333 11.4159 15.7333 8.00019C15.7333 3.72893 12.2704 0.266602 7.99922 0.266602Z" fill="#B0B4BA"/>
</svg>
