<svg width="16" height="16" viewBox="0 0 16 16" fill="none" xmlns="http://www.w3.org/2000/svg">
<g clip-path="url(#clip0_2245_28941)">
<path d="M14.8164 6.55655C15.1766 5.47601 15.0529 4.29333 14.4777 3.30955C13.6122 1.8043 11.8704 1.03017 10.1717 1.39036C9.79681 0.970274 9.33696 0.634653 8.82259 0.405738C8.30822 0.176822 7.75107 0.0598408 7.18806 0.0625459C5.45169 0.0625459 3.90881 1.1807 3.37122 2.83108C2.25306 3.06223 1.29078 3.76108 0.726312 4.75026C-0.144563 6.25548 0.0543431 8.14777 1.22087 9.43798C0.860718 10.5185 0.984343 11.7012 1.55956 12.6796C2.42506 14.1903 4.16684 14.9644 5.871 14.6042C6.62362 15.4535 7.70953 15.9428 8.84922 15.9374C10.5856 15.9374 12.1285 14.8192 12.6661 13.1688C13.7843 12.9377 14.7465 12.2388 15.3056 11.2497C16.1818 9.74442 15.983 7.85211 14.8164 6.56192V6.55655ZM13.5799 3.83098C13.924 4.43308 14.053 5.13733 13.9347 5.82005C13.9132 5.80392 13.8702 5.78242 13.8434 5.7663L10.6824 3.93848C10.6028 3.89355 10.513 3.86994 10.4216 3.86994C10.3303 3.86994 10.2405 3.89355 10.1609 3.93848L6.45697 6.07811V4.50836L9.51581 2.7397C10.9404 1.9172 12.7574 2.40639 13.5799 3.83098ZM6.45697 7.09411L8.01597 6.19098L9.57494 7.09411V8.89505L8.01597 9.79817L6.45697 8.89505V7.09411ZM7.18269 1.10005C7.88156 1.10005 8.55353 1.34198 9.09112 1.78817C9.06962 1.79892 9.02662 1.8258 8.99434 1.84192L5.83337 3.66436C5.67209 3.75576 5.57531 3.9278 5.57531 4.11592V8.39511L4.21522 7.61023V4.07289C4.21522 2.42789 5.54306 1.10008 7.18806 1.0947L7.18269 1.10005ZM1.62944 5.27176C1.97887 4.66964 2.52184 4.20733 3.17769 3.96542V7.72311C3.17769 7.91123 3.27447 8.07792 3.43575 8.17467L7.13431 10.3089L5.76884 11.0991L2.71537 9.33586C1.29616 8.51336 0.806937 6.69633 1.62944 5.27173V5.27176ZM2.46272 12.169C2.11328 11.5722 1.98962 10.8626 2.10791 10.1799C2.12941 10.196 2.17241 10.2175 2.19928 10.2336L5.36028 12.0615C5.43983 12.1064 5.52965 12.13 5.62102 12.13C5.71238 12.13 5.8022 12.1064 5.88175 12.0615L9.58031 9.92186V11.4916L6.52147 13.2549C5.09687 14.072 3.27984 13.5882 2.45734 12.169H2.46272ZM8.85459 14.8999C8.16109 14.8999 7.48375 14.658 6.95153 14.2118C6.98429 14.1948 7.01657 14.1768 7.04831 14.158L10.2093 12.3356C10.3706 12.2442 10.4727 12.0722 10.4673 11.884V7.6102L11.8274 8.39508V11.927C11.8274 13.572 10.4942 14.9052 8.85459 14.9052V14.8999V14.8999ZM14.4132 10.7282C14.0637 11.3303 13.5154 11.7926 12.8649 12.0291V8.27145C12.8649 8.0833 12.7682 7.91126 12.6069 7.81989L8.90297 5.6803L10.2631 4.89542L13.3219 6.65867C14.7465 7.48117 15.2303 9.29823 14.4078 10.7228L14.4132 10.7282H14.4132Z" fill="#EDEEF0"/>
</g>
<defs>
<clipPath id="clip0_2245_28941">
<rect width="16" height="16" fill="white"/>
</clipPath>
</defs>
</svg>
