<svg width="16" height="16" viewBox="0 0 16 16" fill="none" xmlns="http://www.w3.org/2000/svg">
<rect width="16" height="16" fill="white" fill-opacity="0.01"/>
<path fill-rule="evenodd" clip-rule="evenodd" d="M3.73379 5.3328C3.43924 5.3328 3.20046 5.57158 3.20046 5.86613V12.2662C3.20046 12.5607 3.43924 12.7995 3.73379 12.7995H12.2671C12.5616 12.7995 12.8005 12.5607 12.8005 12.2662V5.86613C12.8005 5.57158 12.5616 5.3328 12.2671 5.3328H10.9338C10.6392 5.3328 10.4005 5.09402 10.4005 4.79947C10.4005 4.50492 10.6392 4.26613 10.9338 4.26613H12.2671C13.1507 4.26613 13.8671 4.98247 13.8671 5.86613V12.2662C13.8671 13.1498 13.1507 13.8662 12.2671 13.8662H3.73379C2.85013 13.8662 2.13379 13.1498 2.13379 12.2662V5.86613C2.13379 4.98247 2.85013 4.26613 3.73379 4.26613H5.06712C5.36167 4.26613 5.60046 4.50492 5.60046 4.79947C5.60046 5.09402 5.36167 5.3328 5.06712 5.3328H3.73379ZM7.46712 1.7449L5.93987 3.27215C5.75241 3.45959 5.4485 3.45959 5.26104 3.27215C5.0736 3.08469 5.0736 2.78078 5.26104 2.59332L7.66104 0.193324C7.75106 0.103306 7.87315 0.0527344 8.00046 0.0527344C8.12776 0.0527344 8.24985 0.103306 8.33987 0.193324L10.7399 2.59332C10.9273 2.78078 10.9273 3.08469 10.7399 3.27215C10.5524 3.45959 10.2485 3.45959 10.061 3.27215L8.53379 1.7449V9.06607C8.53379 9.36062 8.29501 9.5994 8.00046 9.5994C7.70591 9.5994 7.46712 9.36062 7.46712 9.06607V1.7449Z" fill="#B0B4BA"/>
</svg>
