<svg width="614" height="614" viewBox="0 0 614 614" fill="none" xmlns="http://www.w3.org/2000/svg">
<path fill-rule="evenodd" clip-rule="evenodd" d="M110.72 110.72V186.212L186.217 186.212L186.217 110.72L110.72 110.72Z" fill="#047857"/>
<path fill-rule="evenodd" clip-rule="evenodd" d="M110.72 427.786V503.277L186.217 503.277L186.217 427.786L110.72 427.786Z" fill="#047857"/>
<path fill-rule="evenodd" clip-rule="evenodd" d="M427.783 110.72V186.212L503.28 186.212L503.28 110.72L427.783 110.72Z" fill="#047857"/>
<path fill-rule="evenodd" clip-rule="evenodd" d="M427.779 427.786V503.277L503.275 503.277L503.275 427.786L427.779 427.786Z" fill="#047857"/>
<path d="M306.998 447.914L362.358 503.277L306.998 558.64L251.637 503.277L306.998 447.914Z" fill="#047857"/>
<path d="M306.998 55.3602L362.358 110.723L306.998 166.085L251.637 110.723L306.998 55.3602Z" fill="#047857"/>
<path d="M306.998 251.642L362.358 307.005L306.998 362.367L251.637 307.005L306.998 251.642Z" fill="#047857"/>
<path d="M503.275 251.637L558.635 307L503.275 362.363L447.914 307L503.275 251.637Z" fill="#047857"/>
<path d="M110.72 251.637L166.081 307L110.72 362.363L55.3602 307L110.72 251.637Z" fill="#047857"/>
</svg>
