<?xml version="1.0" encoding="UTF-8"?>
<svg id="Capa_1" xmlns="http://www.w3.org/2000/svg" version="1.1" viewBox="0 0 548.3 69.9">
  <!-- Generator: Adobe Illustrator 29.8.2, SVG Export Plug-In . SVG Version: 2.1.1 Build 3)  -->
  <defs>
    <style>
      .st0 {
        fill: #4bad96;
      }
    </style>
  </defs>
  <polygon class="st0" points="0 0 21.5 0 21.5 26.4 43 26.4 43 0 64.5 0 64.5 68.5 43 68.5 43 42.1 21.5 42.1 21.5 68.5 0 68.5 0 0"/>
  <path class="st0" d="M103.2,8.4c18.5,0,30.8,12.3,30.8,30.8s-12.3,30.8-30.8,30.8-30.8-12.3-30.8-30.8,12.3-30.8,30.8-30.8M103.2,53.5c7.2,0,11.8-5.7,11.8-14.3s-4.6-14.3-11.8-14.3-11.8,5.7-11.8,14.3,4.6,14.3,11.8,14.3"/>
  <path class="st0" d="M174.8,44.8V9.7h18.6v36.7c0,13.7-8.3,23.6-26.8,23.6s-26.7-9.9-26.7-23.6V9.7h18.6v35.2c0,6.5,4.8,8.7,8.2,8.7s8.3-2.2,8.3-8.7"/>
  <path class="st0" d="M217.6,26.4c0,1.2.3,2.8,9.9,4.6,14.6,2.9,18.4,10.7,18.4,19.2,0,12.4-6.7,19.7-22.8,19.7s-16.2-2.1-23.8-5.2l5.4-13.8c5.7,2.6,11.1,4.3,16.1,4.3s7.8-.7,7.8-2.6-1.5-2.1-10.8-4.5c-13.4-3.5-17.4-10.6-17.4-20.2s7.5-19.6,22.1-19.6,15.9,2.1,23.4,5.2l-5.4,13.8c-5.7-2.6-10.2-4.3-15.9-4.3s-7,1.2-7,3.2"/>
  <polygon class="st0" points="252.6 9.7 293.6 9.7 293.6 25.7 271.2 25.7 271.2 32.4 289.2 32.4 289.2 45.9 271.2 45.9 271.2 52.7 295.3 52.7 295.3 68.7 252.6 68.7 252.6 9.7"/>
  <path class="st0" d="M352.6,18.6c15.4,0,25.7,10.3,25.7,25.7s-10.3,25.7-25.7,25.7-25.7-10.3-25.7-25.7,10.3-25.7,25.7-25.7M352.6,56.2c6,0,9.9-4.8,9.9-12s-3.9-12-9.9-12-9.9,4.8-9.9,12,3.9,12,9.9,12"/>
  <polygon class="st0" points="382.3 19.6 415.8 19.6 415.8 33 397.8 33 397.8 38.6 412.1 38.6 412.1 49.9 397.8 49.9 397.8 68.9 382.3 68.9 382.3 19.6 382.3 19.6"/>
  <rect class="st0" x="530.2" y="0" width="18.2" height="68.7"/>
  <path class="st0" d="M495.8,56.7h-26.1l-4.6,12h-23.5L471.6,0h22.8l30,68.7h-23.9l-4.6-12h0ZM489.5,40l-6.7-17.3-6.7,17.3h13.3Z"/>
</svg>