<?xml version="1.0" encoding="UTF-8"?>
<svg id="Capa_1" data-name="Capa 1" xmlns="http://www.w3.org/2000/svg" viewBox="0 0 224.05 67.65">
  <defs>
    <style>
      .cls-1 {
        fill: #4bad96;
      }
    </style>
  </defs>
  <rect class="cls-1" x="205.9" y=".04" width="18.15" height="67.61"/>
  <g>
    <path class="cls-1" d="M173.48,55.86h-25.71l-4.54,11.79h-23.19L149.62,0h22.42l29.57,67.65h-23.58l-4.54-11.79ZM167.2,39.43l-6.57-17.01-6.57,17.01h13.14Z"/>
    <polygon class="cls-1" points="0 0 21.25 0 21.25 26.1 42.51 26.1 42.51 0 63.77 0 63.77 67.65 42.51 67.65 42.51 41.55 21.25 41.55 21.25 67.65 0 67.65 0 0"/>
    <path class="cls-1" d="M96.76,16.91c15.22,0,25.37,10.15,25.37,25.37s-10.15,25.37-25.37,25.37-25.37-10.15-25.37-25.37,10.15-25.37,25.37-25.37M96.76,54.1c5.91,0,9.73-4.72,9.73-11.82s-3.82-11.82-9.73-11.82-9.73,4.72-9.73,11.82,3.82,11.82,9.73,11.82"/>
  </g>
</svg>