<svg width="16" height="16" viewBox="0 0 16 16" fill="none" xmlns="http://www.w3.org/2000/svg">
<g clip-path="url(#clip0_7152_30421)">
<path fill-rule="evenodd" clip-rule="evenodd" d="M1.01834 11.5854C0.472875 10.5091 0.160156 9.29453 0.160156 8C0.160156 6.70544 0.472875 5.49091 1.01834 4.41453C2.33469 1.79638 5.03288 0 8.16016 0C10.3202 0 12.1238 0.792719 13.5129 2.08728L11.2219 4.37819C10.3856 3.59272 9.33831 3.18544 8.16016 3.18544C6.08016 3.18544 4.31287 4.58909 3.68016 6.48C3.52016 6.96 3.42559 7.46906 3.42559 8C3.42559 8.53091 3.52016 9.04 3.68016 9.52L3.67069 9.52725H3.68016C4.31287 11.4182 6.08016 12.8218 8.16016 12.8218C9.2365 12.8218 10.1456 12.5309 10.8583 12.0509C11.7093 11.4836 12.2765 10.64 12.4656 9.64363H8.16016V6.54544H15.6947C15.7892 7.06909 15.8401 7.61453 15.8401 8.18181C15.8401 10.6182 14.9674 12.6691 13.4547 14.0654C12.1311 15.2872 10.3202 16 8.16016 16C5.03288 16 2.33469 14.2036 1.01834 11.5927V11.5854Z" fill="#B0B4BA"/>
</g>
<defs>
<clipPath id="clip0_7152_30421">
<rect width="16" height="16" fill="white"/>
</clipPath>
</defs>
</svg>
