<svg width="21" height="20" viewBox="0 0 21 20" fill="none" xmlns="http://www.w3.org/2000/svg">
<g clip-path="url(#clip0_5005_6065)">
<path d="M19.9756 2.95969H5.9054V0.682439C5.9054 0.300306 6.20079 0 6.56165 0H19.3062C19.4863 0 19.6589 0.0720079 19.7849 0.200477C19.9118 0.328945 19.9805 0.502419 19.9772 0.682439V2.95969H19.9756Z" fill="#0464B8"/>
<path d="M10.6023 2.625H5.9054V7.04449H10.6039V2.625H10.6023Z" fill="#0377D4"/>
<path d="M15.1962 2.625H10.4993V7.04449H15.1946V2.625H15.1962Z" fill="#29A7EB"/>
<path d="M19.7882 2.625H15.0921V7.04449H19.7882V2.625Z" fill="#4FD8FF"/>
<path d="M10.6023 7.2168H5.9054V11.6371H10.6039V7.2168H10.6023Z" fill="#1681D7"/>
<path d="M15.1962 7.2168H10.4993V11.6371H15.1946V7.2168H15.1962Z" fill="#0178D4"/>
<path d="M19.7882 7.2168H15.0921V11.6371H19.7882V7.2168Z" fill="#29A7EB"/>
<path d="M15.1962 11.1562H10.4993V15.5774H15.1946V11.1562H15.1962Z" fill="#0464B8"/>
<path d="M19.7882 11.1562H15.0921V15.5774H19.7882V11.1562Z" fill="#1681D7"/>
<path d="M20.7662 10.4002L19.6861 11.0483V9.1875L20.749 9.78566C20.9945 9.90103 20.9945 10.2504 20.7662 10.4002Z" fill="#042071"/>
<path d="M20.7948 10.1441L20.6966 10.2095L20.582 10.2758L19.7163 10.7921V10.7758L5.24927 19.1827H19.8301C20.4487 19.1761 20.9445 18.6705 20.9404 18.0527L20.9576 9.84375C20.9732 9.94358 20.9077 10.077 20.7932 10.1432L20.7948 10.1441Z" fill="#168FDE"/>
<path d="M20.2997 19.6357H5.70664C5.08721 19.6308 4.5897 19.1259 4.59297 18.5073V10.498L20.2997 19.6373V19.6357Z" fill="#29A7EB"/>
<path d="M9.71856 14.7398H1.04733C0.466354 14.7316 -6.10352e-05 14.2579 -6.10352e-05 13.6769V5.00239C-6.10352e-05 4.42142 0.466354 3.94764 1.04733 3.93945H9.71856C10.2987 3.94764 10.7651 4.42142 10.7651 5.00239V13.6769C10.7684 13.9567 10.6596 14.2268 10.4624 14.4264C10.266 14.6261 9.99841 14.739 9.71856 14.7398Z" fill="#1681D7"/>
<path d="M5.37276 12.7082C3.68794 12.7082 2.625 11.4129 2.625 9.68389C2.625 7.85587 3.78613 6.56055 5.4554 6.56055C7.18768 6.56055 8.20398 7.87306 8.20398 9.56606C8.22116 11.5782 7.0093 12.7082 5.37276 12.7082ZM5.43822 11.8441C6.48561 11.8441 7.07476 10.8638 7.07476 9.61761C7.07476 8.48758 6.51834 7.44101 5.43822 7.44101C4.3581 7.44101 3.78531 8.47121 3.78531 9.66753C3.78531 10.8638 4.37528 11.8441 5.43822 11.8441Z" fill="white"/>
<path opacity="0.2" d="M11.0557 5.25V14.0235C11.0557 14.6045 10.5901 15.0774 10.0099 15.0864H4.59296V16.034H10.8756C11.4566 16.0258 11.923 15.552 11.923 14.9711V6.29657C11.923 5.76469 11.5466 5.31628 11.0557 5.25Z" fill="#636363"/>
</g>
<defs>
<clipPath id="clip0_5005_6065">
<rect width="20.96" height="19.6385" fill="white"/>
</clipPath>
</defs>
</svg>
