<svg width="20" height="20" viewBox="0 0 20 20" fill="none" xmlns="http://www.w3.org/2000/svg">
<g clip-path="url(#clip0_5005_6053)">
<path d="M9.93064 11.2463C11.4232 11.2472 12.8551 10.6555 13.9115 9.60161C14.9671 8.54685 15.5612 7.1157 15.562 5.62317C15.5612 4.13064 14.9671 2.69948 13.9115 1.64473C12.8551 0.590796 11.4232 -0.00163316 9.93064 3.38164e-06C8.43811 -0.00081489 7.00695 0.590796 5.95056 1.64555C4.89499 2.7003 4.30093 4.13064 4.30011 5.62317C4.30093 7.1157 4.89499 8.54685 5.95138 9.60161C7.00695 10.6555 8.43893 11.2472 9.93146 11.2463H9.93064Z" fill="#036C70"/>
<path d="M14.4165 15.9173C15.7944 15.9181 17.1176 15.3723 18.093 14.3977C19.0692 13.424 19.6174 12.1025 19.6191 10.7237C19.6182 9.3449 19.0692 8.02339 18.0938 7.04883C17.1176 6.07509 15.7953 5.52848 14.4165 5.5293C13.0377 5.52848 11.7145 6.07509 10.7392 7.04965C9.76378 8.02339 9.21554 9.34572 9.21472 10.7237C9.21718 13.5942 11.546 15.9189 14.4165 15.9173Z" fill="#1A9BA1"/>
<path d="M10.7464 19.6394C11.8036 19.6402 12.8183 19.2213 13.5662 18.4742C14.3149 17.7271 14.7355 16.7141 14.7363 15.656C14.7363 14.5988 14.3149 13.585 13.567 12.8379C12.8183 12.0908 11.8036 11.6711 10.7464 11.6719C9.68919 11.6719 8.67454 12.0908 7.92664 12.8379C7.17873 13.585 6.75814 14.5988 6.75732 15.656C6.75896 17.858 8.54525 19.641 10.7464 19.6394Z" fill="#37C6D0"/>
<path d="M9.11479 14.8736H0.981987C0.44111 14.8695 0.00333412 14.4309 6.10352e-05 13.89V5.89631C6.10352e-05 5.35952 0.445201 4.91602 0.981987 4.91602H9.11479C9.65158 4.91602 10.0975 5.35788 10.0975 5.89631V13.8925C10.0975 14.4301 9.66794 14.8744 9.11479 14.8744V14.8736Z" fill="#04878B"/>
<path d="M3.30089 11.2469C3.62411 11.431 4.13062 11.5995 4.65104 11.5995C5.29666 11.5995 5.66488 11.2919 5.66488 10.8484C5.66488 10.4343 5.38831 10.1905 4.68214 9.92943C3.76076 9.60785 3.16342 9.11771 3.16342 8.33626C3.16342 7.43207 3.93014 6.75781 5.14119 6.75781C5.74098 6.75781 6.18612 6.8961 6.47824 7.03439L6.23276 7.84448C5.89072 7.67019 5.51186 7.58099 5.1281 7.5859C4.4833 7.5859 4.20672 7.92221 4.20672 8.24379C4.20672 8.67257 4.52994 8.8575 5.28193 9.14798C6.24749 9.51539 6.70654 9.9908 6.70654 10.7723C6.70654 11.6609 6.0331 12.4113 4.58967 12.4113C3.99152 12.4113 3.37863 12.2435 3.07178 12.0749L3.30089 11.2469Z" fill="white"/>
<path opacity="0.2" d="M10.3324 5.5293V13.6196C10.3283 14.1604 9.89049 14.5982 9.34961 14.6015H6.7876L6.75732 15.4738H10.1932C10.7317 15.4738 11.176 15.0303 11.176 14.4918V6.49486C11.1645 6.01208 10.8094 5.60621 10.3324 5.5293Z" fill="black"/>
</g>
<defs>
<clipPath id="clip0_5005_6053">
<rect width="19.6189" height="19.6385" fill="white"/>
</clipPath>
</defs>
</svg>
