<svg width="20" height="20" viewBox="0 0 20 20" fill="none" xmlns="http://www.w3.org/2000/svg">
<g clip-path="url(#clip0_5005_6034)">
<path d="M14.0078 7.24989H19.0967C19.5778 7.24989 19.9673 7.66721 19.9673 8.18354V13.1488C19.9673 15.0423 18.5345 16.5782 16.767 16.5782H16.7523C14.984 16.5782 13.5504 15.0439 13.5504 13.1488V7.73758C13.5504 7.60993 13.5979 7.48719 13.6838 7.39227C13.7656 7.30062 13.8835 7.24825 14.0062 7.24989H14.0078ZM17.447 6.26551C18.5861 6.26551 19.5091 5.27703 19.5091 4.05781C19.5091 2.83695 18.5861 1.84766 17.447 1.84766C16.3072 1.84766 15.3833 2.83695 15.3833 4.05781C15.3833 5.27703 16.3072 6.26551 17.447 6.26551Z" fill="#5059C9"/>
<path d="M10.8134 6.38252C12.4589 6.38252 13.7919 4.953 13.7919 3.19208C13.7919 1.4287 12.4605 0 10.8134 0C9.16619 0 7.83322 1.4287 7.83322 3.19208C7.83322 4.953 9.16782 6.38252 10.815 6.38252H10.8134ZM14.7885 7.36527H6.38488C5.90946 7.37754 5.53388 7.79895 5.54451 8.30873V13.9753C5.47823 17.0307 7.73503 19.5649 10.5867 19.6385C13.4384 19.5649 15.6952 17.0307 15.6289 13.9745V8.30873C15.6404 7.79895 15.2639 7.37918 14.7885 7.36527Z" fill="#7B83EB"/>
<path opacity="0.1" d="M11.0441 7.39062V15.3295C11.0441 15.5062 10.9933 15.6789 10.9001 15.8286C10.8092 15.9743 10.6775 16.0889 10.5212 16.1592C10.4222 16.2034 10.3142 16.2271 10.2053 16.228H5.94624C5.68112 15.5144 5.54447 14.76 5.54365 13.9998V8.33246C5.5322 7.82513 5.90778 7.40372 6.38238 7.39062H11.0441Z" fill="black"/>
<path opacity="0.2" d="M10.5858 7.39062V15.8205C10.585 16.1134 10.4476 16.3892 10.2135 16.5651C10.0777 16.6633 9.91486 16.7173 9.7463 16.7197H6.16226C6.00352 16.4055 5.87751 16.0766 5.78586 15.7378C5.6263 15.1724 5.54447 14.5873 5.54365 13.9998V8.33246C5.5322 7.82513 5.90778 7.40372 6.38238 7.39062H10.5858Z" fill="black"/>
<path opacity="0.2" d="M10.5867 7.39062V14.8369C10.5834 15.3336 10.2103 15.7337 9.74875 15.7362H5.78586C5.6263 15.1716 5.54447 14.5865 5.54365 13.9998V8.33246C5.5322 7.82513 5.90778 7.40372 6.38238 7.39062H10.5867Z" fill="black"/>
<path opacity="0.2" d="M10.1276 7.39062V14.8369C10.1235 15.3336 9.75039 15.7337 9.28806 15.7362H5.78586C5.6263 15.1716 5.54447 14.5865 5.54365 13.9998V8.33246C5.5322 7.82513 5.90778 7.40372 6.38238 7.39062H10.1276Z" fill="black"/>
<path opacity="0.1" d="M11.1324 4.59459V6.13949C11.0547 6.1444 10.981 6.15095 10.9033 6.15095C10.8255 6.15095 10.7519 6.1444 10.6742 6.13949C10.0408 6.08058 9.4443 5.81709 8.97379 5.38914C8.48283 4.93909 8.14488 4.34748 8.00659 3.69531H10.2937C10.7568 3.69695 11.1308 4.09954 11.1308 4.59459H11.1324Z" fill="black"/>
<path opacity="0.2" d="M10.5277 5.21096V6.26653C9.89435 6.2068 9.29783 5.94413 8.82732 5.51618C8.46482 5.18314 8.18416 4.77155 8.00659 4.3125H9.68814C10.1513 4.31495 10.5261 4.71509 10.5261 5.21096H10.5277Z" fill="black"/>
<path opacity="0.2" d="M10.5277 5.21096V6.26653C9.89435 6.2068 9.29783 5.94413 8.82732 5.51618C8.46482 5.18314 8.18416 4.77155 8.00659 4.3125H9.68814C10.1513 4.31495 10.5261 4.71509 10.5261 5.21096H10.5277Z" fill="black"/>
<path opacity="0.2" d="M10.0695 5.21096V6.18716C9.60631 6.06851 9.17999 5.83858 8.82732 5.51618C8.46482 5.18314 8.18416 4.77155 8.00659 4.3125H9.22991C9.69305 4.3125 10.0678 4.71509 10.0678 5.21096H10.0695Z" fill="black"/>
<path d="M0.840426 4.3125H9.24408C9.70886 4.3125 10.0844 4.71509 10.0844 5.21178V14.2144C10.0844 14.7111 9.70886 15.1137 9.24408 15.1137H0.840426C0.375648 15.1137 6.10352e-05 14.7111 6.10352e-05 14.2144V5.21342C6.10352e-05 4.71509 0.375648 4.3125 0.840426 4.3125Z" fill="url(#paint0_linear_5005_6034)"/>
<path d="M7.50102 7.7254H5.82029V12.6252H4.74917V7.7254H3.0799V6.77539H7.50184V7.72377L7.50102 7.7254Z" fill="white"/>
</g>
<defs>
<linearGradient id="paint0_linear_5005_6034" x1="1.91261" y1="4.3125" x2="8.81092" y2="14.6889" gradientUnits="userSpaceOnUse">
<stop stop-color="#5A62C3"/>
<stop offset="1" stop-color="#3940AB"/>
</linearGradient>
<clipPath id="clip0_5005_6034">
<rect width="19.9675" height="19.6385" fill="white"/>
</clipPath>
</defs>
</svg>
