<svg width="171" height="45" viewBox="0 0 171 45" fill="none" xmlns="http://www.w3.org/2000/svg">
<path fill-rule="evenodd" clip-rule="evenodd" d="M9.4809 9.48438V14.4532L14.4501 14.4532L14.4501 9.48438L9.4809 9.48438Z" fill="white"/>
<path fill-rule="evenodd" clip-rule="evenodd" d="M9.4809 30.3516V35.3204L14.4501 35.3204L14.4501 30.3516L9.4809 30.3516Z" fill="white"/>
<path fill-rule="evenodd" clip-rule="evenodd" d="M30.3499 9.48438V14.4532L35.3191 14.4532L35.3191 9.48438L30.3499 9.48438Z" fill="white"/>
<path fill-rule="evenodd" clip-rule="evenodd" d="M30.3496 30.3516V35.3204L35.3188 35.3204L35.3188 30.3516L30.3496 30.3516Z" fill="white"/>
<path d="M22.3998 31.6758L26.0436 35.3197L22.3998 38.9637L18.756 35.3197L22.3998 31.6758Z" fill="white"/>
<path d="M22.3998 5.83789L26.0436 9.48184L22.3998 13.1258L18.756 9.48185L22.3998 5.83789Z" fill="white"/>
<path d="M22.3998 18.7578L26.0436 22.4018L22.3998 26.0457L18.756 22.4018L22.3998 18.7578Z" fill="white"/>
<path d="M35.3187 18.7559L38.9625 22.3998L35.3187 26.0438L31.6749 22.3998L35.3187 18.7559Z" fill="white"/>
<path d="M9.48089 18.7559L13.1247 22.3998L9.48089 26.0438L5.8371 22.3998L9.48089 18.7559Z" fill="white"/>
<path d="M52.1511 11.6147C55.3599 11.6147 57.7082 12.2419 59.1959 13.4962C60.7128 14.7214 61.4713 16.6321 61.4713 19.2283C61.4713 21.7954 60.7128 23.6915 59.1959 24.9167C57.679 26.1127 55.3453 26.7107 52.1949 26.7107H48.4318V33.1254H44.8V11.6147H52.1511ZM52.5887 23.4727C54.514 23.4727 55.8558 23.1081 56.6143 22.3788C57.4019 21.6495 57.7957 20.4973 57.7957 18.922C57.7957 17.4635 57.3436 16.4279 56.4392 15.8153C55.5349 15.2027 54.0764 14.8964 52.0636 14.8964H48.4318V23.4727H52.5887Z" fill="white"/>
<path d="M65.9965 33.1259H62.5835V16.7346H65.9965V33.1259ZM62.1459 11.9214C62.1459 11.338 62.3501 10.8421 62.7585 10.4337C63.1961 9.99613 63.7212 9.77734 64.3338 9.77734C64.9172 9.77734 65.4131 9.99613 65.8215 10.4337C66.2591 10.8421 66.4778 11.338 66.4778 11.9214C66.4778 12.534 66.2591 13.0591 65.8215 13.4967C65.4131 13.9051 64.9172 14.1093 64.3338 14.1093C63.7212 14.1093 63.2107 13.8905 62.8023 13.4529C62.3647 13.0445 62.1459 12.534 62.1459 11.9214Z" fill="white"/>
<path d="M83.8046 24.8965C83.8046 27.3468 83.0462 29.3742 81.5293 30.9786C80.0124 32.583 78.2038 33.3852 76.1035 33.3852C74.0323 33.3852 72.18 32.4809 70.5464 30.6723V39.0736H67.1334V16.8452H70.5464V19.6894C71.9174 17.6183 73.6823 16.5827 75.8409 16.5827C78.0871 16.5827 79.9687 17.3557 81.4855 18.9018C83.0316 20.4479 83.8046 22.4461 83.8046 24.8965ZM75.3159 30.3223C76.7161 30.3223 77.8975 29.8264 78.8602 28.8346C79.852 27.8136 80.3479 26.53 80.3479 24.984C80.3479 23.4379 79.852 22.1544 78.8602 21.1334C77.8975 20.1124 76.7307 19.6019 75.3596 19.6019C73.9886 19.6019 72.8363 20.127 71.9028 21.1771C70.9694 22.1981 70.5026 23.4671 70.5026 24.984C70.5026 26.53 70.9694 27.8136 71.9028 28.8346C72.8363 29.8264 73.974 30.3223 75.3159 30.3223Z" fill="white"/>
<path d="M101.092 26.4686H88.3153C88.4028 27.6355 88.9424 28.5835 89.9343 29.3128C90.9261 30.0421 92.0783 30.4067 93.391 30.4067C95.4622 30.4067 97.0082 29.7649 98.0292 28.4814L99.9983 30.6255C98.248 32.4633 95.9581 33.3822 93.1285 33.3822C90.7948 33.3822 88.8403 32.6091 87.2651 31.0631C85.6899 29.517 84.9022 27.475 84.9022 24.9371C84.9022 22.4576 85.7044 20.4448 87.3089 18.8987C88.9133 17.3527 90.8531 16.5796 93.1285 16.5796C95.4038 16.5796 97.3 17.2651 98.8168 18.6362C100.334 20.0072 101.092 21.8304 101.092 24.1058V26.4686ZM97.6792 23.7557C97.6792 22.443 97.2562 21.4074 96.4102 20.649C95.5934 19.8905 94.5287 19.5113 93.216 19.5113C91.9033 19.5113 90.751 19.9051 89.7592 20.6927C88.7966 21.4804 88.3153 22.5013 88.3153 23.7557H97.6792Z" fill="white"/>
<path d="M108.29 33.1216C105.665 33.1216 103.302 32.3048 101.202 30.6712L102.864 28.002C104.731 29.4314 106.569 30.1461 108.378 30.1461C109.136 30.1461 109.734 29.9711 110.172 29.621C110.638 29.2418 110.872 28.775 110.872 28.2208C110.872 27.404 109.793 26.6747 107.634 26.033C107.576 26.0038 107.503 25.9746 107.415 25.9455C107.357 25.9163 107.313 25.9017 107.284 25.9017C103.9 24.9974 102.208 23.4659 102.208 21.3073C102.208 19.7904 102.777 18.5798 103.915 17.6755C105.081 16.7712 106.613 16.319 108.509 16.319C110.376 16.319 112.155 16.8733 113.847 17.9818L112.578 20.5196C111.266 19.6445 109.822 19.2069 108.246 19.2069C106.409 19.2069 105.49 19.7904 105.49 20.9572C105.49 21.4531 105.665 21.8177 106.015 22.0511C106.394 22.2553 107.007 22.4595 107.853 22.6637C109.136 23.0138 110.215 23.3638 111.091 23.7139C111.674 23.9764 112.185 24.2535 112.622 24.5452C113.731 25.3037 114.285 26.4559 114.285 28.002C114.285 29.5189 113.716 30.7587 112.578 31.7213C111.47 32.6548 110.04 33.1216 108.29 33.1216Z" fill="white"/>
<path d="M118.827 33.1261H115.414V9.77756H118.827V19.6665C119.323 18.6747 120.067 17.9017 121.059 17.3475C122.05 16.764 123.115 16.4723 124.253 16.4723C126.149 16.4723 127.651 17.0412 128.76 18.1788C129.868 19.3165 130.422 20.9355 130.422 23.0358V33.1261H126.966V24.086C126.966 21.0813 125.726 19.579 123.246 19.579C121.992 19.579 120.942 19.9874 120.096 20.8042C119.25 21.5918 118.827 22.7149 118.827 24.1735V33.1261Z" fill="white"/>
<path d="M143.09 16.8492H146.547V33.1266H143.09V30.1512C142.536 31.143 141.763 31.9306 140.771 32.514C139.809 33.0974 138.773 33.3892 137.665 33.3892C135.798 33.3892 134.31 32.8203 133.201 31.6826C132.093 30.545 131.539 28.926 131.539 26.8256V16.8492H134.952V25.7755C134.952 28.7801 136.191 30.2824 138.671 30.2824C139.925 30.2824 140.976 29.874 141.821 29.0573C142.667 28.2405 143.09 27.1028 143.09 25.6442V16.8492Z" fill="white"/>
<path d="M164.336 24.9004C164.336 27.3507 163.578 29.3781 162.061 30.9825C160.544 32.587 158.735 33.3892 156.635 33.3892C154.564 33.3892 152.712 32.4849 151.078 30.6762V33.1266H147.665V9.89184H151.078V19.6933C152.449 17.6222 154.214 16.5866 156.373 16.5866C158.619 16.5866 160.5 17.3596 162.017 18.9057C163.563 20.4518 164.336 22.45 164.336 24.9004ZM155.847 30.3262C157.248 30.3262 158.429 29.8303 159.392 28.8385C160.384 27.8175 160.879 26.5339 160.879 24.9879C160.879 23.4418 160.384 22.1583 159.392 21.1373C158.429 20.1163 157.262 19.6058 155.891 19.6058C154.52 19.6058 153.368 20.1309 152.434 21.181C151.501 22.202 151.034 23.471 151.034 24.9879C151.034 26.5339 151.501 27.8175 152.434 28.8385C153.368 29.8303 154.506 30.3262 155.847 30.3262Z" fill="white"/>
</svg>
