<svg xmlns="http://www.w3.org/2000/svg" viewBox="0 0 256 256">
  <defs>
    <linearGradient id="minioGradient" x1="0%" y1="0%" x2="100%" y2="100%">
      <stop offset="0%" style="stop-color:#C72C48;stop-opacity:1" />
      <stop offset="100%" style="stop-color:#ED3B50;stop-opacity:1" />
    </linearGradient>
  </defs>
  <rect width="256" height="256" rx="32" fill="url(#minioGradient)"/>
  <g fill="#FFFFFF">
    <!-- MinIO logo representation -->
    <path d="M128 48c-44.2 0-80 35.8-80 80s35.8 80 80 80 80-35.8 80-80-35.8-80-80-80zm0 144c-35.3 0-64-28.7-64-64s28.7-64 64-64 64 28.7 64 64-28.7 64-64 64z"/>
    <path d="M128 80c-26.5 0-48 21.5-48 48s21.5 48 48 48 48-21.5 48-48-21.5-48-48-48zm0 80c-17.7 0-32-14.3-32-32s14.3-32 32-32 32 14.3 32 32-14.3 32-32 32z"/>
    <circle cx="128" cy="128" r="16"/>
  </g>
</svg>
