<?xml version="1.0" encoding="UTF-8"?>
<svg version="1.1" xmlns="http://www.w3.org/2000/svg" width="1024" height="1024">
<path d="M0 0 C2.46110178 2.15859913 4.75079072 4.39182276 7.01171875 6.7578125 C7.95917969 7.67626953 7.95917969 7.67626953 8.92578125 8.61328125 C19.7706363 19.81644649 24.61506467 35.65011701 24.51171875 50.9453125 C24.50599854 51.94272461 24.50027832 52.94013672 24.49438477 53.96777344 C24.07800923 71.40227225 17.1111155 84.28305786 5.7109375 97.2734375 C-1.90371474 104.2820031 -11.01427585 109.21814391 -19.98828125 114.2578125 C-21.85477451 115.31376976 -23.72022789 116.37154961 -25.58569336 117.42932129 C-26.85570323 118.14923257 -28.12604941 118.86855088 -29.39672852 119.58728027 C-35.61594908 123.10606034 -41.8036805 126.67858062 -47.98828125 130.2578125 C-56.4229587 135.13356788 -64.87300312 139.9815415 -73.33642578 144.80715942 C-84.77911795 151.33171867 -96.18245037 157.92080282 -107.55078125 164.57421875 C-108.42734375 165.0861377 -109.30390625 165.59805664 -110.20703125 166.12548828 C-112.23235595 167.3141576 -114.25251158 168.51164746 -116.26953125 169.71435547 C-117.35234375 170.35646973 -118.43515625 170.99858398 -119.55078125 171.66015625 C-120.54207031 172.25175537 -121.53335938 172.84335449 -122.5546875 173.45288086 C-124.98828125 174.7578125 -124.98828125 174.7578125 -126.98828125 174.7578125 C-126.98828125 175.4178125 -126.98828125 176.0778125 -126.98828125 176.7578125 C-126.27381836 177.02787109 -125.55935547 177.29792969 -124.82324219 177.57617188 C-121.95964711 178.7697475 -119.33359232 180.14607773 -116.62890625 181.6640625 C-115.60498779 182.23753418 -114.58106934 182.81100586 -113.52612305 183.40185547 C-112.44113525 184.01432129 -111.35614746 184.62678711 -110.23828125 185.2578125 C-109.11010986 185.89219238 -107.98193848 186.52657227 -106.81958008 187.18017578 C-100.07380284 190.98415293 -93.36833144 194.84699313 -86.70922852 198.80029297 C-80.0720554 202.73221177 -73.37614823 206.5598605 -66.67578125 210.3828125 C-66.08105011 210.72226898 -65.48631897 211.06172546 -64.87356567 211.41146851 C-59.36533121 214.55509667 -53.85525288 217.695483 -48.34326172 220.83251953 C-41.31601327 224.83222598 -34.29488823 228.84218672 -27.28320312 232.86914062 C-25.1202182 234.10897846 -22.95492039 235.34479173 -20.78710938 236.57617188 C0.93842393 248.92614381 0.93842393 248.92614381 8.01171875 256.7578125 C8.64722656 257.46035156 9.28273438 258.16289063 9.9375 258.88671875 C19.85358304 270.75629139 24.61330758 284.71889067 24.44921875 300.0703125 C24.43785889 301.57416504 24.43785889 301.57416504 24.42626953 303.10839844 C24.03799513 320.68560911 17.34962927 334.35597498 5.01171875 346.7578125 C4.42003906 347.38429688 3.82835937 348.01078125 3.21875 348.65625 C-8.20410101 359.80172494 -24.45841034 364.59585668 -40.05078125 365.1328125 C-56.40801134 364.62782419 -70.28641782 358.07408739 -84.11328125 349.8828125 C-85.82486403 348.8822763 -87.53645361 347.8817515 -89.2484436 346.88191223 C-91.00746197 345.85338967 -92.76462114 344.82174951 -94.52148438 343.78955078 C-99.95122206 340.60286875 -105.40819975 337.46333959 -110.86328125 334.3203125 C-112.46260498 333.39726318 -112.46260498 333.39726318 -114.09423828 332.45556641 C-122.63499455 327.5285513 -131.19440256 322.63455679 -139.75823975 317.74783325 C-149.25525451 312.32810779 -158.73160751 306.87328699 -168.19921875 301.40234375 C-176.11561916 296.83076627 -184.04835655 292.28834317 -191.98828125 287.7578125 C-202.07561599 282.00196706 -212.14343078 276.21317013 -222.19921875 270.40234375 C-229.52871066 266.16969528 -236.87137432 261.96060717 -244.22244263 257.76559448 C-249.47916646 254.76552896 -254.73415833 251.76243044 -259.98828125 248.7578125 C-260.87401825 248.25130157 -260.87401825 248.25130157 -261.77764893 247.73455811 C-265.87134466 245.39274113 -269.96164968 243.04509012 -274.05078125 240.6953125 C-275.09041016 240.10041016 -276.13003906 239.50550781 -277.20117188 238.89257812 C-295.38454753 228.42622238 -310.48957862 218.40129973 -317.98828125 197.7578125 C-318.30667969 196.89414062 -318.62507812 196.03046875 -318.953125 195.140625 C-324.20086735 178.06732499 -321.66918352 159.81129273 -313.86328125 144.0703125 C-304.07147583 127.04827101 -288.63568723 118.59386682 -271.96484375 109.5078125 C-266.38636215 106.45234131 -260.90867743 103.23074629 -255.42578125 100.0078125 C-247.02118097 95.07502914 -238.56492909 90.2489684 -230.05078125 85.5078125 C-222.54939113 81.32957707 -215.0913093 77.09945869 -207.70898438 72.71459961 C-201.03215857 68.75875469 -194.29269316 64.91371454 -187.55078125 61.0703125 C-178.34903558 55.82386707 -169.15902743 50.5583677 -159.98828125 45.2578125 C-147.53263147 38.06134104 -135.04516951 30.92124357 -122.55126953 23.79150391 C-118.3418235 21.38914403 -114.13355654 18.98472214 -109.92578125 16.57943726 C-106.96188809 14.88523166 -103.9974836 13.19193816 -101.03173828 11.50097656 C-95.67012682 8.44219128 -90.31594581 5.37261532 -84.984375 2.26171875 C-57.29743832 -13.85448596 -27.88292745 -20.92130765 0 0 Z " fill="#239EDC" transform="translate(999.98828125,336.2421875)"/>
<path d="M0 0 C0.91185059 0.49967285 1.82370117 0.9993457 2.76318359 1.51416016 C15.21106351 8.3536321 27.51991618 15.42685669 39.77197266 22.61010742 C47.44325467 27.10506739 55.1508016 31.53432095 62.875 35.9375 C71.93089546 41.10054477 80.9746472 46.28365668 90 51.5 C98.98540831 56.69240439 107.98636877 61.85681108 117 67 C127.08733474 72.75584544 137.15514953 78.54464237 147.2109375 84.35546875 C154.54049953 88.58815772 161.88326664 92.79722 169.23443604 96.99221802 C172.73598694 98.99089945 176.23605994 100.99216868 179.73629761 102.9931488 C182.69037597 104.68154373 185.64549093 106.36808056 188.60253906 108.05126953 C190.97745958 109.40323342 193.35086747 110.75778382 195.72265625 112.11523438 C197.91323194 113.36896799 200.10579061 114.61924645 202.30078125 115.86523438 C208.78909039 119.5878283 214.94585585 123.60815596 221 128 C222.010625 128.721875 223.02125 129.44375 224.0625 130.1875 C231.87343383 136.95549664 237.50909134 146.37604398 241 156 C241.31839844 156.87527344 241.63679688 157.75054687 241.96484375 158.65234375 C246.95151812 175.03713097 244.98632018 193.75825204 237.1875 208.875 C236.15657218 210.60256964 235.09500181 212.31231517 234 214 C233.51015625 214.76699219 233.0203125 215.53398438 232.515625 216.32421875 C222.64258668 230.32731518 206.0918253 237.75869242 191.52452087 245.90118408 C185.27423869 249.39665915 179.07240531 252.97420563 172.875 256.5625 C170.72403673 257.80482324 168.57299512 259.04701086 166.421875 260.2890625 C164.28120611 261.52596571 162.14058106 262.76294479 160 264 C146.09571421 272.03537392 132.1796502 280.04902998 118.23205566 288.00897217 C105.4635186 295.29689554 92.72924124 302.64369169 80 310 C65.51648359 318.37011493 51.02148892 326.71902428 36.48779297 335.00170898 C30.64931238 338.3309044 24.82166174 341.67699088 19.015625 345.0625 C-26.833793 371.78069472 -26.833793 371.78069472 -54.3515625 365.1640625 C-65.90523981 361.47777145 -75.59055835 355.80021496 -84 347 C-84.63164063 346.38769531 -85.26328125 345.77539062 -85.9140625 345.14453125 C-96.75891755 333.94136601 -101.60334592 318.10769549 -101.5 302.8125 C-101.49141968 301.31638184 -101.49141968 301.31638184 -101.48266602 299.79003906 C-101.06629048 282.35554025 -94.09939675 269.47475464 -82.69921875 256.484375 C-75.12000466 249.50842687 -66.05610639 244.58192026 -57.125 239.5625 C-55.89569179 238.866504 -54.6666946 238.16995842 -53.43798828 237.47290039 C-50.89281076 236.02958873 -48.34633436 234.58861121 -45.79882812 233.14941406 C-40.39529133 230.09471661 -35.00613573 227.01489148 -29.61761475 223.93380737 C-27.86660045 222.93269772 -26.11520879 221.93225073 -24.36376953 220.93188477 C-15.50348866 215.86936338 -6.66258501 210.77368196 2.171875 205.66625977 C7.96218994 202.32116722 13.76034704 198.99049379 19.5703125 195.6796875 C20.51919342 195.13873444 20.51919342 195.13873444 21.48724365 194.58685303 C24.54489537 192.84403567 27.60360451 191.10311895 30.6640625 189.36523438 C35.39373215 186.67164331 40.0955968 183.97494081 44.6796875 181.0390625 C48 179 48 179 50 179 C50 178.34 50 177.68 50 177 C49.28046143 176.72704102 48.56092285 176.45408203 47.81958008 176.17285156 C45.0466198 175.01939229 42.5052063 173.70261313 39.88671875 172.234375 C38.89873291 171.68144775 37.91074707 171.12852051 36.89282227 170.55883789 C35.30618774 169.66346313 35.30618774 169.66346313 33.6875 168.75 C32.57882568 168.12665771 31.47015137 167.50331543 30.32788086 166.86108398 C20.85806448 161.51984179 11.46209018 156.05564527 2.08203125 150.55859375 C-4.18094432 146.88907921 -10.46230613 143.25196864 -16.75 139.625 C-17.81847168 139.00866699 -18.88694336 138.39233398 -19.98779297 137.75732422 C-26.95896561 133.74097226 -33.94165702 129.74520325 -40.93066406 125.76000977 C-43.33386339 124.38941627 -45.73554174 123.01621918 -48.13574219 121.64038086 C-53.11662479 118.78568178 -58.09852054 115.93705282 -63.12109375 113.15625 C-80.25557158 103.57713248 -93.79065264 90.8367154 -99.66162109 71.59936523 C-104.11966561 54.16663126 -101.81264932 35.09660337 -92.76171875 19.59375 C-89.61540508 14.96148331 -85.94195903 10.96238369 -82 7 C-81.40832031 6.37351562 -80.81664063 5.74703125 -80.20703125 5.1015625 C-57.86858272 -16.6944513 -25.3362724 -13.99289193 0 0 Z " fill="#239EDC" transform="translate(101,334)"/>
<path d="M0 0 C14.62420333 11.21794479 24.31582216 24.55032252 27.515625 42.9296875 C27.603601 44.52456612 27.64631979 46.1224177 27.64984608 47.71971703 C27.65430392 48.66093859 27.65876176 49.60216016 27.66335469 50.57190359 C27.66307815 52.11054364 27.66307815 52.11054364 27.66279602 53.68026733 C27.66647271 54.77651511 27.6701494 55.87276288 27.6739375 57.00223029 C27.68496801 60.68296945 27.68881717 64.36368038 27.69262695 68.04443359 C27.6988922 70.68089973 27.70552649 73.31736287 27.71253967 75.9538269 C27.73228001 83.87179225 27.74236844 91.78975883 27.75126746 99.70774263 C27.75565545 103.44154184 27.76102103 107.17533963 27.76625633 110.90913773 C27.78326825 123.33077131 27.79775982 135.75240403 27.80500507 148.17404747 C27.80691481 151.39581681 27.80883516 154.61758615 27.81079102 157.83935547 C27.81127476 158.64005929 27.8117585 159.44076312 27.8122569 160.26573069 C27.82054745 173.22070922 27.84586802 186.17559513 27.87837169 199.13053326 C27.91151078 212.44796197 27.92946012 225.76534373 27.93264931 239.08281386 C27.93480838 246.55315561 27.94346782 254.02336239 27.96911049 261.49366379 C27.99091153 267.85934623 27.99882215 274.22486092 27.98914371 280.59057645 C27.98462559 283.83304542 27.98855986 287.07509987 28.00590515 290.3175354 C28.12113518 313.14600054 25.73040115 331.49444433 9.515625 348.9296875 C-4.04184774 361.96753585 -20.80328968 367.50996466 -39.33032227 367.34521484 C-54.16716333 366.86341285 -65.91801545 361.1984641 -78.484375 353.9296875 C-79.35674805 353.42646973 -80.22912109 352.92325195 -81.12792969 352.40478516 C-86.09023451 349.53402311 -91.03812649 346.63934526 -95.98046875 343.734375 C-102.74279847 339.7664559 -109.54727016 335.87372303 -116.359375 331.9921875 C-126.48791611 326.21828113 -136.59641293 320.41077432 -146.69042969 314.57666016 C-155.23833307 309.63979927 -163.80931996 304.74409911 -172.38461304 299.85507202 C-181.54382978 294.63114628 -190.65999565 289.33678995 -199.75830078 284.00756836 C-207.40945349 279.53494929 -215.1160475 275.16695155 -222.84106445 270.82348633 C-230.76978441 266.35626844 -238.62933621 261.77646792 -246.47973633 257.17333984 C-253.50459048 253.06237617 -260.57578023 249.0411923 -267.671875 245.0546875 C-292.07987229 231.28261158 -292.07987229 231.28261158 -301.484375 221.9296875 C-302.03480469 221.4140625 -302.58523438 220.8984375 -303.15234375 220.3671875 C-313.70615387 209.50213901 -318.29434762 193.14213119 -318.859375 178.4296875 C-318.14361783 159.79247188 -310.81536273 142.60770306 -297.1796875 129.7578125 C-282.68934169 117.44333331 -265.26509827 112.62204885 -246.484375 113.9296875 C-228.02024019 116.83145844 -212.87702116 126.7383701 -197.0234375 136.08984375 C-190.25431231 140.07824425 -183.43625712 143.97890462 -176.609375 147.8671875 C-174.23671775 149.21959399 -171.86435187 150.57251043 -169.4921875 151.92578125 C-168.90659058 152.25983978 -168.32099365 152.59389832 -167.71765137 152.93807983 C-161.62787987 156.41450179 -155.55548082 159.9208059 -149.484375 163.4296875 C-136.8262293 170.74427975 -124.13519413 178.00052133 -111.43676758 185.24487305 C-108.11853026 187.13846072 -104.80145422 189.0340719 -101.484375 190.9296875 C-101.48290844 190.17984022 -101.48144188 189.42999294 -101.47993088 188.65742302 C-101.44277914 170.35971772 -101.38365413 152.06220202 -101.30047226 133.76464653 C-101.26076758 124.91584875 -101.22833175 116.0671388 -101.21337891 107.21826172 C-101.20031774 99.500008 -101.17324008 91.78194824 -101.12976193 84.06380379 C-101.10724686 79.98211391 -101.09145828 75.90066235 -101.09249115 71.81890488 C-101.09324371 67.9659192 -101.07505755 64.11345834 -101.04320717 60.26060867 C-101.03478637 58.85713857 -101.03290411 57.45360904 -101.03857231 56.05012512 C-101.10556372 36.88951545 -94.93740524 20.27648476 -81.375 6.58984375 C-59.62779255 -13.42346473 -24.52916091 -17.11166015 0 0 Z " fill="#239EDC" transform="translate(432.484375,10.0703125)"/>
<path d="M0 0 C12.62487194 10.95147212 20.84403351 25.95183108 22.46416175 42.66684508 C22.5722259 45.5857532 22.5926288 48.49075493 22.57518005 51.41159058 C22.58325836 53.06599205 22.58325836 53.06599205 22.59149987 54.75381577 C22.60570095 58.41525811 22.59869502 62.0763349 22.59155273 65.73779297 C22.59726041 68.37692389 22.6041266 71.0160294 22.61235046 73.65515137 C22.62947678 80.05911414 22.63039135 86.46297853 22.62513756 92.86695825 C22.62108303 98.0763254 22.62255459 103.28566366 22.62788582 108.49502945 C22.62863424 109.23870898 22.62938266 109.98238852 22.63015376 110.7486038 C22.63168537 112.25977516 22.63322372 113.77094651 22.63476873 115.28211786 C22.64847149 129.42821428 22.64307179 143.57425527 22.63158352 157.7203504 C22.62165376 170.63677111 22.63459129 183.55304851 22.65851771 196.46944712 C22.68295207 209.76111536 22.69250593 223.05271697 22.68586498 236.3444072 C22.68238234 243.79503493 22.68454139 251.24555253 22.70211601 258.69616318 C22.71689241 265.03866674 22.71740294 271.38098261 22.7000451 277.72348271 C22.69157699 280.9537111 22.69148025 284.18353887 22.70469666 287.41376114 C22.79884133 312.33596183 22.79884133 312.33596183 18.1875 323.8125 C17.91783637 324.49999266 17.64817274 325.18748531 17.37033749 325.89581108 C10.31443174 342.20555103 -2.7937789 352.27513286 -18.44140625 359.55078125 C-34.01314242 365.37890499 -53.30926929 364.8645109 -68.44140625 358.21875 C-83.85997069 350.8568209 -95.61029008 339.32670499 -102.21875 323.4296875 C-104.50964844 316.76971848 -105.93870286 310.61529967 -105.93275452 303.55461121 C-105.93481651 301.66373779 -105.93481651 301.66373779 -105.93692017 299.73466492 C-105.93338149 298.34548926 -105.92974669 296.95631385 -105.92602539 295.56713867 C-105.9257432 294.09843955 -105.92590188 292.6297403 -105.9264679 291.16104126 C-105.92675461 287.18004696 -105.9208782 283.19908283 -105.91389394 279.21809554 C-105.90763947 275.05541751 -105.90705494 270.89273877 -105.90586853 266.73005676 C-105.90276139 258.85016389 -105.89455632 250.9702849 -105.88451904 243.09039813 C-105.87333874 234.11826616 -105.86784262 225.14613353 -105.86282361 216.17399633 C-105.8523732 197.72015635 -105.8347857 179.26632929 -105.8125 160.8125 C-106.93304779 161.45923424 -106.93304779 161.45923424 -108.07623291 162.11903381 C-110.88248749 163.73860486 -113.6888106 165.35805709 -116.49517822 166.97743225 C-117.70329433 167.67459019 -118.91138415 168.3717937 -120.1194458 169.06904602 C-128.67164116 174.00502985 -137.23274524 178.92454086 -145.8125 183.8125 C-154.82694621 188.9542538 -163.82694343 194.12037415 -172.8125 199.3125 C-185.41244249 206.59021908 -198.03051889 213.83515506 -210.67919922 221.02783203 C-213.52041335 222.64613305 -216.35626464 224.2734397 -219.19140625 225.90234375 C-237.9909675 236.63218335 -256.17581119 242.27357968 -277.80371094 236.45068359 C-294.88960539 231.02256885 -308.83001584 219.70952124 -317.125 203.8125 C-324.64986883 187.88349777 -326.16103626 170.71961798 -320.8125 153.8125 C-312.3490102 132.18358162 -297.30543494 121.1936734 -277.625 110.1875 C-276.40258417 109.49747172 -275.18058822 108.80669915 -273.95898438 108.11523438 C-272.08212639 107.05295204 -270.20505575 105.99107309 -268.32669067 104.93145752 C-262.130152 101.43522628 -255.96997872 97.87700809 -249.8125 94.3125 C-240.86740204 89.14342044 -231.90886229 83.99833472 -222.9375 78.875 C-222.35778442 78.54389221 -221.77806885 78.21278442 -221.18078613 77.87164307 C-215.27233362 74.49728936 -209.36236911 71.12559538 -203.45082092 67.75666809 C-200.48759502 66.06773789 -197.52491688 64.37784878 -194.5625 62.6875 C-193.97973297 62.35503265 -193.39696594 62.02256531 -192.79653931 61.68002319 C-184.71040307 57.06480757 -176.65694921 52.3963856 -168.625 47.6875 C-159.53454419 42.35887186 -150.36674471 37.1833684 -141.16064453 32.05761719 C-134.06036563 28.09523552 -127.01492627 24.04893572 -120 19.9375 C-37.16930714 -28.56386085 -37.16930714 -28.56386085 0 0 Z " fill="#239EDC" transform="translate(437.8125,661.1875)"/>
<path d="M0 0 C1.30855957 0.75482666 1.30855957 0.75482666 2.64355469 1.52490234 C7.60585951 4.39566439 12.55375149 7.29034224 17.49609375 10.1953125 C24.25842347 14.1632316 31.06289516 18.05596447 37.875 21.9375 C46.93115823 27.10008058 55.97465066 32.28365868 65 37.5 C73.98540831 42.69240439 82.98636877 47.85681108 92 53 C102.08733474 58.75584544 112.15514953 64.54464237 122.2109375 70.35546875 C130.1273389 74.9270468 138.06014971 79.46933782 146 84 C156.12161683 89.77622071 166.23417022 95.56780079 176.31640625 101.41259766 C181.28625929 104.29216214 186.26246443 107.15694843 191.27536011 109.96086121 C193.04504813 110.95163457 194.81172771 111.94757738 196.57763672 112.94506836 C198.77924749 114.18659591 200.98622447 115.41868013 203.19970703 116.63891602 C210.30000748 120.6618892 216.16142044 125.30869629 222 131 C222.65645508 131.63534668 223.31291016 132.27069336 223.98925781 132.92529297 C235.07122292 144.01718222 239.62212741 160.23985178 240.375 175.5 C239.48320186 193.57606228 232.93974212 210.10233835 220 223 C206.66827727 234.66271317 190.00497699 240.76368391 172.29296875 240.2890625 C158.03179748 239.03719219 146.25016563 234.03453052 134.125 226.75 C131.9981173 225.49096793 129.87048225 224.23320614 127.7421875 222.9765625 C126.08654785 221.99671387 126.08654785 221.99671387 124.39746094 220.99707031 C118.71125464 217.65464666 112.98101325 214.38977561 107.25 211.125 C106.07059788 210.4523002 104.8912361 209.77952965 103.71191406 209.10668945 C101.3326473 207.74948972 98.95307304 206.39283145 96.57324219 205.03662109 C90.67198298 201.67347941 84.77313474 198.30611758 78.875 194.9375 C78.29862793 194.6083963 77.72225586 194.2792926 77.12841797 193.94021606 C67.47624196 188.42799689 57.84343512 182.88302994 48.22607422 177.31030273 C42.37526134 173.92555489 36.50179503 170.58509259 30.60839844 167.27514648 C29.87354218 166.86212029 29.13868591 166.44909409 28.38156128 166.02355194 C26.58785164 165.01544483 24.79394611 164.00768626 23 163 C22.99641747 164.1275363 22.99641747 164.1275363 22.99276257 165.2778511 C22.93350439 183.60821442 22.85788549 201.93844432 22.76428509 220.26866531 C22.71941007 229.13319964 22.67997648 237.99769453 22.65356445 246.86230469 C22.63051698 254.59296517 22.59704416 262.32350001 22.55129844 270.0540607 C22.52745681 274.14347336 22.50866892 278.23276227 22.50238609 282.32224274 C22.49629391 286.18007117 22.47614707 290.03758335 22.44572449 293.89529419 C22.43700992 295.30283147 22.43320784 296.7104102 22.43499184 298.11797333 C22.45108969 316.69798092 17.12200417 332.41328504 4.27929688 345.98852539 C-8.31195701 358.56034833 -24.56588224 364.40369153 -42.0625 364.4375 C-60.59623338 364.3886452 -75.24116384 358.42830234 -88.875 345.75 C-98.74938047 335.1768738 -106.10174299 320.92152331 -106.13422108 306.20997047 C-106.13867892 305.26874891 -106.14313676 304.32752734 -106.14772969 303.35778391 C-106.14754533 302.33202388 -106.14736097 301.30626384 -106.14717102 300.24942017 C-106.15084771 299.15317239 -106.1545244 298.05692462 -106.1583125 296.92745721 C-106.16934301 293.24671805 -106.17319217 289.56600712 -106.17700195 285.88525391 C-106.1832672 283.24878777 -106.18990149 280.61232463 -106.19691467 277.9758606 C-106.21665501 270.05789525 -106.22674344 262.13992867 -106.23564246 254.22194487 C-106.24003045 250.48814566 -106.24539603 246.75434787 -106.25063133 243.02054977 C-106.26764325 230.59891619 -106.28213482 218.17728347 -106.28938007 205.75564003 C-106.29128981 202.53387069 -106.29321016 199.31210135 -106.29516602 196.09033203 C-106.29564976 195.28962821 -106.2961335 194.48892438 -106.2966319 193.66395681 C-106.30492245 180.70897828 -106.33024302 167.75409237 -106.36274669 154.79915424 C-106.39588578 141.48172553 -106.41383512 128.16434377 -106.41702431 114.84687364 C-106.41918338 107.37653189 -106.42784282 99.90632511 -106.45348549 92.43602371 C-106.47528653 86.07034127 -106.48319715 79.70482658 -106.47351871 73.33911105 C-106.46900059 70.09664208 -106.47293486 66.85458763 -106.49028015 63.6121521 C-106.60860255 40.17105187 -103.96153163 21.64103829 -87 4 C-60.73929113 -19.6532626 -28.6116848 -16.54989611 0 0 Z " fill="#239EDC" transform="translate(670,660)"/>
<path d="M0 0 C14.52105625 11.17177238 24.22581674 24.71515498 27.5234375 42.94140625 C27.93336214 47.92459124 27.96214348 52.8929896 27.95581055 57.88964844 C27.96484924 59.34953631 27.97518154 60.80941665 27.98669434 62.26928711 C28.01404352 66.1940918 28.02351845 70.11875164 28.02954841 74.04363918 C28.03899019 78.1596229 28.06519782 82.27550084 28.08955383 86.39141846 C28.13306395 94.16834404 28.16170568 101.94524892 28.18487722 109.72225881 C28.21201239 118.58337308 28.25591844 127.44438013 28.30116594 136.30541754 C28.39379013 154.51735699 28.46557211 172.72932483 28.5234375 190.94140625 C31.39841739 189.34801118 34.27274948 187.753451 37.14697266 186.15869141 C37.95501846 185.71086807 38.76306427 185.26304474 39.59559631 184.801651 C45.74565686 181.38820625 51.83905304 177.88843378 57.8984375 174.31640625 C66.69984383 169.155705 75.53470577 164.05662758 84.3984375 159.00390625 C93.45434403 153.84086788 102.49738792 148.65654885 111.5234375 143.44140625 C113.64972292 142.21611692 115.77602513 140.99085672 117.90234375 139.765625 C121.97133098 137.41956987 126.03347303 135.06236681 130.08920288 132.69351196 C132.60109085 131.22853663 135.11719077 129.77089667 137.6340332 128.31445312 C138.82990906 127.62022825 140.02399865 126.92291496 141.21606445 126.22216797 C159.60458723 115.41776073 177.19807338 110.96382455 198.33984375 116.03125 C214.53784135 120.66208858 227.65435772 130.70323479 236.5234375 144.94140625 C245.69900423 162.17604375 247.55307079 179.13410046 242.5234375 197.94140625 C237.97060017 212.39022207 228.53765692 224.83684827 215.5859375 232.703125 C215.01845291 233.04810028 214.45096832 233.39307556 213.86628723 233.74850464 C207.71336268 237.46833093 201.46718974 241.02392346 195.2109375 244.56640625 C192.73473305 245.9736046 190.2597572 247.38295281 187.78515625 248.79296875 C187.16913544 249.14385559 186.55311462 249.49474243 185.91842651 249.85626221 C180.0960322 253.17692556 174.30673769 256.55316098 168.5234375 259.94140625 C156.43219731 267.01891031 144.26888038 273.96794965 132.09667969 280.90478516 C126.19542061 284.26792676 120.296514 287.63518692 114.3984375 291.00390625 C113.81807739 291.3353363 113.23771729 291.66676636 112.63977051 292.00823975 C103.18286371 297.40988553 93.7456969 302.84522832 84.31640625 308.29492188 C75.76890439 313.23175174 67.19817672 318.1271747 58.62319946 323.01602173 C50.4578647 327.67309052 42.32241458 332.37861916 34.2109375 337.12890625 C-25.63621447 372.13253118 -25.63621447 372.13253118 -53.4140625 365.31640625 C-71.2372 359.82205559 -84.92946176 349.58279084 -94.0390625 333.1171875 C-98.82496087 323.13232215 -100.93034616 313.44919562 -100.85751343 302.41114807 C-100.8621934 301.3035735 -100.86687337 300.19599892 -100.87169516 299.05486149 C-100.88358818 295.37181758 -100.87420998 291.68914969 -100.86474609 288.00610352 C-100.86881435 285.3540235 -100.87404984 282.70196873 -100.88067627 280.04989624 C-100.89397176 273.61103416 -100.8911545 267.17227736 -100.88243835 260.73341126 C-100.87564507 255.49683043 -100.87475217 250.26027897 -100.8780098 245.02369499 C-100.8784695 244.27652716 -100.87892919 243.52935933 -100.87940282 242.75955005 C-100.88036207 241.24136869 -100.88133471 239.72318734 -100.8823206 238.205006 C-100.89086239 223.98982145 -100.88105972 209.77469506 -100.8649195 195.55952006 C-100.85152017 183.38169193 -100.85384357 171.20394962 -100.86767578 159.02612305 C-100.8837578 144.86107613 -100.89003563 130.69608013 -100.88083899 116.53102535 C-100.87988341 115.018328 -100.8789403 113.50563064 -100.8780098 111.99293327 C-100.87754697 111.2487928 -100.87708414 110.50465233 -100.87660729 109.73796215 C-100.87402505 104.51264364 -100.87837187 99.28735762 -100.88544846 94.06204414 C-100.89389298 87.68690974 -100.89152175 81.31188604 -100.87560622 74.93676419 C-100.86776251 71.68862663 -100.86620016 68.44070964 -100.87455368 65.19256783 C-100.8827962 61.66107979 -100.87241434 58.13010382 -100.85751343 54.59864807 C-100.86420559 53.5866585 -100.87089776 52.57466892 -100.87779272 51.532013 C-100.73452236 33.93081308 -93.57826964 19.1709831 -81.31640625 6.75390625 C-59.49079009 -13.57047706 -24.88521546 -17.30008222 0 0 Z " fill="#239EDC" transform="translate(664.4765625,10.05859375)"/>
<path d="M0 0 C1.16662926 -0.00642769 1.16662926 -0.00642769 2.35682678 -0.01298523 C3.99658233 -0.01871055 5.63636327 -0.01924207 7.27612305 -0.01489258 C9.77371893 -0.01173322 12.27012851 -0.03521079 14.76757812 -0.06054688 C16.36588393 -0.06282025 17.9641929 -0.06352318 19.5625 -0.0625 C20.67370461 -0.07631462 20.67370461 -0.07631462 21.80735779 -0.09040833 C28.96567349 -0.02708758 33.28383526 2.40167016 38.31298828 7.40396118 C38.83989258 7.94322235 39.36679687 8.48248352 39.90966797 9.03808594 C40.48290802 9.6124942 41.05614807 10.18690247 41.64675903 10.77871704 C43.53069459 12.66980997 45.40387874 14.57119488 47.27734375 16.47265625 C48.59408472 17.79754325 49.91157136 19.12168955 51.22976685 20.44512939 C54.69537476 23.92782884 58.15232128 27.41899353 61.60705566 30.91247559 C67.12646331 36.4911187 72.65850848 42.05722059 78.19134903 47.62253571 C80.11279625 49.55782388 82.0303024 51.49694786 83.94723511 53.43670654 C89.21843703 58.75842492 94.46975502 64.0181182 100.18154907 68.87313843 C104.49195565 72.56661091 108.45852323 76.64661578 112.48535156 80.64331055 C113.56295499 81.7093286 114.64502733 82.77084746 115.73144531 83.82788086 C124.3312376 92.19625962 129.9759757 97.76513861 130.37890625 110.23828125 C130.40148764 112.49021485 130.39408712 114.73931032 130.36914062 116.99121094 C130.3477008 119.29599222 130.369 121.59765758 130.39453125 123.90234375 C130.42862513 135.65604972 128.72229995 141.56151361 120.48828125 150.0859375 C118.37779959 152.19887922 116.23807926 154.28075073 114.09765625 156.36328125 C113.02647275 157.42294839 111.95615351 158.48348991 110.88671875 159.54492188 C106.80086518 163.57843174 102.72767336 167.56431825 98.35131836 171.28173828 C92.56384185 176.31268386 87.24526975 181.8262441 81.85769081 187.27671242 C79.86355133 189.29308767 77.86528736 191.3052898 75.86576843 193.31632996 C70.18670019 199.02880805 64.51199481 204.74556714 58.84741211 210.47241211 C55.36925709 213.98820745 51.88383312 217.49665392 48.3936367 221.000494 C47.06919216 222.33298353 45.74752832 223.66824305 44.42873573 225.00632668 C42.58864294 226.87289331 40.73945505 228.72997845 38.88793945 230.58520508 C38.34808914 231.13741226 37.80823883 231.68961945 37.25202942 232.25856018 C31.71521736 237.76620804 27.29120771 238.61088224 19.6953125 238.6015625 C18.91755966 238.60584763 18.13980682 238.61013275 17.33848572 238.61454773 C15.69873017 238.62027305 14.05894923 238.62080457 12.41918945 238.61645508 C9.92159357 238.61329572 7.42518399 238.63677329 4.92773438 238.66210938 C3.32942857 238.66438275 1.7311196 238.66508568 0.1328125 238.6640625 C-0.60799057 238.67327225 -1.34879364 238.68248199 -2.11204529 238.69197083 C-9.81629782 238.62382085 -14.18377953 235.65188351 -19.47998047 230.29785156 C-19.97519196 229.80147186 -20.47040344 229.30509216 -20.98062134 228.79367065 C-22.60485306 227.16229274 -24.21829351 225.52065949 -25.83203125 223.87890625 C-26.96940846 222.7333801 -28.10753372 221.58859624 -29.24636841 220.44451904 C-32.2385205 217.4352885 -35.22199452 214.41760763 -38.20324707 211.39758301 C-42.96461812 206.57694575 -47.73863672 201.76884503 -52.51349258 196.96157074 C-54.16905027 195.29220402 -55.82063914 193.61899236 -57.47164917 191.94512939 C-62.27731301 187.08607682 -67.11646776 182.33855872 -72.31729126 177.89736938 C-75.60736305 175.03484114 -78.69257355 171.96338677 -81.79296875 168.8984375 C-82.82716949 167.87634438 -82.82716949 167.87634438 -83.88226318 166.83360291 C-85.32562687 165.40395757 -86.76752703 163.97283325 -88.20800781 162.5402832 C-89.67361927 161.08624923 -91.14370152 159.63670816 -92.61816406 158.19165039 C-94.76970846 156.08287881 -96.90759634 153.96106933 -99.04296875 151.8359375 C-99.69718811 151.19922623 -100.35140747 150.56251495 -101.02545166 149.9065094 C-106.70814191 144.19676626 -110.54776897 138.7371193 -110.70812988 130.41577148 C-110.70003296 129.73844971 -110.69193604 129.06112793 -110.68359375 128.36328125 C-110.68742065 127.63890869 -110.69124756 126.91453613 -110.69519043 126.16821289 C-110.69789148 124.6489115 -110.6906579 123.12956214 -110.67382812 121.61035156 C-110.6523883 119.30557028 -110.6736875 117.00390492 -110.69921875 114.69921875 C-110.69657515 113.21223281 -110.69144949 111.72524879 -110.68359375 110.23828125 C-110.69169067 109.56095947 -110.6997876 108.8836377 -110.70812988 108.18579102 C-110.48873251 96.80095974 -102.71400783 90.305632 -95.10546875 82.828125 C-94.00853322 81.73612416 -92.91241699 80.64329977 -91.81707764 79.54969788 C-89.52661019 77.26684036 -87.22987496 74.99056692 -84.92773438 72.71948242 C-81.99651528 69.82776462 -79.07609779 66.92545037 -76.15971756 64.01877499 C-73.35344982 61.2225495 -70.54232364 58.43123046 -67.73046875 55.640625 C-66.94106777 54.85631764 -66.94106777 54.85631764 -66.1357193 54.0561657 C-60.90361177 48.86471819 -55.63354993 43.77428387 -50.0383606 38.97257996 C-46.49030683 35.82752231 -43.20748772 32.41632378 -39.890625 29.03125 C-38.34468731 27.46781584 -36.79845478 25.90467317 -35.25195312 24.34179688 C-32.84589151 21.90466385 -30.44226293 19.46526781 -28.04370117 17.02075195 C-25.70773279 14.64250575 -23.36246032 12.27376672 -21.015625 9.90625 C-20.30094559 9.17294968 -19.58626617 8.43964935 -18.84992981 7.68412781 C-18.17540268 7.00614639 -17.50087555 6.32816498 -16.8059082 5.62963867 C-16.21936966 5.03342209 -15.63283112 4.43720551 -15.02851868 3.82292175 C-10.45406656 0.11166928 -5.67104022 -0.00695805 0 0 Z M-8.20703125 87.859375 C-8.83465363 88.48554214 -9.462276 89.11170929 -10.10891724 89.7568512 C-11.42283499 91.07241793 -12.73185874 92.39288934 -14.03613281 93.71801758 C-16.03053966 95.74152379 -18.04311204 97.74555404 -20.05859375 99.74804688 C-21.33835744 101.03404478 -22.61704195 102.32111773 -23.89453125 103.609375 C-24.79291214 104.50335243 -24.79291214 104.50335243 -25.70944214 105.41539001 C-30.55436728 110.37111688 -32.32611771 114.04139027 -32.515625 121.140625 C-31.43348875 127.57526311 -27.16038352 131.73605187 -22.7265625 136.125 C-22.10135208 136.7530806 -21.47614166 137.38116119 -20.83198547 138.02827454 C-19.5135012 139.34879228 -18.19125281 140.66556122 -16.86547852 141.97875977 C-14.84620685 143.98196876 -12.84343743 146.00067525 -10.84179688 148.02148438 C-9.55434616 149.30695253 -8.26596507 150.59148969 -6.9765625 151.875 C-6.38260178 152.47503342 -5.78864105 153.07506683 -5.17668152 153.69328308 C-0.86658735 157.93192976 3.04631868 160.9376449 9.22265625 161.73828125 C17.00675279 160.79882132 22.30651597 156.44484126 27.6484375 150.99609375 C28.55301949 150.09369461 28.55301949 150.09369461 29.47587585 149.17306519 C30.73851967 147.90877278 31.99627175 146.63957749 33.24926758 145.36572266 C35.16029181 143.42564363 37.08940264 141.50502262 39.02148438 139.5859375 C40.25241927 138.3487668 41.48227507 137.11052131 42.7109375 135.87109375 C43.28282303 135.30214386 43.85470856 134.73319397 44.44392395 134.14700317 C48.78431306 129.70361901 51.53188165 125.74803443 52.34765625 119.42578125 C52.03492146 111.79165538 45.83683514 105.82858184 40.69921875 100.71875 C40.12360199 100.13789139 39.54798523 99.55703278 38.95492554 98.95857239 C37.74682416 97.74409988 36.53490992 96.5334091 35.31933594 95.32641602 C33.47180405 93.487433 31.64378014 91.63047458 29.81640625 89.77148438 C28.63264192 88.58610854 27.44778246 87.40182512 26.26171875 86.21875 C25.72294098 85.66873825 25.18416321 85.1187265 24.62905884 84.55204773 C20.27299192 80.27398155 16.0724707 77.78107276 9.91015625 76.86328125 C2.30798127 77.94930625 -2.98894987 82.54139197 -8.20703125 87.859375 Z " fill="#239EDC" transform="translate(502.15234375,392.69921875)"/>
</svg>
