<svg width="148" height="124" viewBox="0 0 148 124" fill="none" xmlns="http://www.w3.org/2000/svg">
<path d="M66.0877 1.56551L10.9088 24.4323C7.8403 25.7041 7.87209 30.07 10.9598 31.2958L66.3688 53.3021C71.2371 55.2359 76.6587 55.2359 81.5271 53.3021L136.937 31.2949C140.024 30.07 140.057 25.705 136.987 24.4331L81.8098 1.56467C76.7758 -0.521558 71.1208 -0.521558 66.0868 1.56467" fill="#FCB400"/>
<path d="M78.864 65.3184V120.294C78.864 122.908 81.4966 124.699 83.9235 123.736L145.666 99.7338C146.355 99.4604 146.945 98.9861 147.361 98.3724C147.778 97.7587 148 97.0339 148 96.292V41.3172C148 38.7023 145.367 36.9119 142.94 37.8754L81.198 61.8774C80.5095 62.151 79.9189 62.6253 79.5028 63.239C79.0866 63.8527 78.8641 64.5766 78.864 65.3184Z" fill="#18BFFF"/>
<path d="M64.4462 68.1549L46.1224 77.0158L44.2619 77.9164L5.58147 96.4785C3.13037 97.6632 0 95.8736 0 93.1456V41.5472C0 40.5603 0.505277 39.7082 1.18288 39.0673C1.46087 38.79 1.77624 38.5531 2.11982 38.3635C3.04337 37.808 4.36178 37.6597 5.48276 38.1038L64.1384 61.3803C67.1198 62.5649 67.3541 66.7482 64.4462 68.1549Z" fill="#F82B60"/>
<path d="M64.4462 68.1549L46.1224 77.0158L1.18286 39.0664C1.4609 38.7895 1.77627 38.5529 2.1198 38.3635C3.04335 37.808 4.36176 37.6597 5.48273 38.1038L64.1383 61.3803C67.1198 62.5649 67.354 66.7482 64.4462 68.1549Z" fill="black" fill-opacity="0.25"/>
</svg>
