<svg width="148" height="142" viewBox="0 0 148 142" fill="none" xmlns="http://www.w3.org/2000/svg">
<path d="M5.36633 108.403C3.83565 110.895 2.11657 113.787 0.656532 116.092C0.0283215 117.152 -0.158325 118.416 0.136708 119.612C0.43174 120.807 1.1849 121.84 2.23432 122.488L32.848 141.299C33.38 141.627 33.972 141.846 34.5896 141.943C35.2072 142.04 35.838 142.013 36.4452 141.864C37.0523 141.716 37.6238 141.448 38.1261 141.076C38.6285 140.704 39.0517 140.236 39.3711 139.7C40.5956 137.654 42.1734 134.997 43.8925 132.152C56.0202 112.165 68.2186 114.61 90.2134 125.098L120.568 139.512C121.137 139.782 121.755 139.936 122.384 139.964C123.014 139.991 123.643 139.893 124.233 139.673C124.824 139.454 125.365 139.119 125.823 138.687C126.282 138.255 126.649 137.736 126.903 137.16L141.48 104.241C141.975 103.111 142.005 101.832 141.565 100.679C141.124 99.5268 140.248 98.5933 139.125 98.08C132.719 95.0702 119.979 89.0741 108.511 83.5483C67.2531 63.5379 32.1886 64.8311 5.36633 108.403Z" fill="url(#paint0_linear_6363_28178)"/>
<path d="M142.634 33.6984C144.164 31.2059 145.883 28.3136 147.344 26.0093C147.972 24.9493 148.158 23.6854 147.863 22.4895C147.568 21.2935 146.815 20.2609 145.766 19.6135L115.152 0.802238C114.616 0.441794 114.012 0.195328 113.376 0.078173C112.741 -0.0389821 112.088 -0.0243197 111.458 0.121248C110.829 0.266815 110.236 0.540173 109.717 0.924316C109.198 1.30846 108.763 1.79517 108.441 2.35416C107.216 4.39988 105.638 7.05697 103.919 9.90217C91.7914 29.8891 79.5931 27.4436 57.5983 16.9564L27.3378 2.61282C26.7688 2.34238 26.1512 2.18872 25.5216 2.16094C24.892 2.13316 24.2633 2.23182 23.6726 2.45109C23.0819 2.67035 22.5412 3.00576 22.0827 3.43744C21.6242 3.86912 21.2571 4.3883 21.0031 4.96422L6.42631 37.8839C5.93129 39.014 5.90074 40.293 6.34123 41.4454C6.78172 42.5977 7.65799 43.5312 8.78121 44.0445C15.1865 47.0543 27.9265 53.0504 39.3949 58.5762C80.747 78.5631 115.811 77.2228 142.634 33.6984Z" fill="url(#paint1_linear_6363_28178)"/>
<defs>
<linearGradient id="paint0_linear_6363_28178" x1="140.655" y1="151.01" x2="48.1055" y2="97.7495" gradientUnits="userSpaceOnUse">
<stop offset="0.18" stop-color="#0052CC"/>
<stop offset="1" stop-color="#2684FF"/>
</linearGradient>
<linearGradient id="paint1_linear_6363_28178" x1="7.34472" y1="-8.93257" x2="99.9181" y2="44.3515" gradientUnits="userSpaceOnUse">
<stop offset="0.18" stop-color="#0052CC"/>
<stop offset="1" stop-color="#2684FF"/>
</linearGradient>
</defs>
</svg>
