<svg width="20" height="20" viewBox="0 0 20 20" fill="none" xmlns="http://www.w3.org/2000/svg">
<g clip-path="url(#clip0_5300_112049)">
<path d="M3.98282 13.9548L4.55613 14.945C4.67526 15.1535 4.84651 15.3173 5.04754 15.4364L7.09507 11.8923H3C3 12.1231 3.05956 12.354 3.17869 12.5624L3.98282 13.9548Z" fill="#0066DA"/>
<path d="M9.5 7.72281L7.45246 4.17871C7.25143 4.29784 7.08018 4.46164 6.96105 4.67012L3.17869 11.2222C3.06176 11.4262 3.00016 11.6572 3 11.8923H7.09507L9.5 7.72281Z" fill="#00AC47"/>
<path d="M13.9525 15.4364C14.1535 15.3173 14.3248 15.1535 14.4439 14.945L14.6822 14.5355L15.8213 12.5624C15.9405 12.354 16 12.1231 16 11.8923H11.9047L12.7761 13.6048L13.9525 15.4364Z" fill="#EA4335"/>
<path d="M9.50005 7.72279L11.5476 4.17869C11.3466 4.05956 11.1157 4 10.8775 4H8.12262C7.88436 4 7.65355 4.06701 7.45251 4.17869L9.50005 7.72279Z" fill="#00832D"/>
<path d="M11.9049 11.8923H7.09502L5.04749 15.4364C5.24852 15.5556 5.47933 15.6151 5.71759 15.6151H13.2823C13.5206 15.6151 13.7514 15.5481 13.9524 15.4364L11.9049 11.8923Z" fill="#2684FC"/>
<path d="M13.9301 7.94618L12.0389 4.67012C11.9198 4.46164 11.7486 4.29784 11.5475 4.17871L9.5 7.72281L11.9049 11.8923H15.9926C15.9926 11.6615 15.933 11.4307 15.8139 11.2222L13.9301 7.94618Z" fill="#FFBA00"/>
</g>
<defs>
<clipPath id="clip0_5300_112049">
<rect width="13" height="11.6151" fill="white" transform="translate(3 4)"/>
</clipPath>
</defs>
</svg>
