<svg width="108" height="148" viewBox="0 0 108 148" fill="none" xmlns="http://www.w3.org/2000/svg">
<mask id="mask0_6363_28252" style="mask-type:luminance" maskUnits="userSpaceOnUse" x="0" y="0" width="108" height="148">
<path d="M67.2727 0H10.0909C4.54091 0 0 4.54091 0 10.0909V137.909C0 143.459 4.54091 148 10.0909 148H97.5454C103.095 148 107.636 143.459 107.636 137.909V40.3636L67.2727 0Z" fill="white"/>
</mask>
<g mask="url(#mask0_6363_28252)">
<path d="M67.2727 0H10.0909C4.54091 0 0 4.54091 0 10.0909V137.909C0 143.459 4.54091 148 10.0909 148H97.5454C103.095 148 107.636 143.459 107.636 137.909V40.3636L84.0909 23.5455L67.2727 0Z" fill="#673AB7"/>
</g>
<mask id="mask1_6363_28252" style="mask-type:luminance" maskUnits="userSpaceOnUse" x="0" y="0" width="108" height="148">
<path d="M67.2727 0H10.0909C4.54091 0 0 4.54091 0 10.0909V137.909C0 143.459 4.54091 148 10.0909 148H97.5454C103.095 148 107.636 143.459 107.636 137.909V40.3636L67.2727 0Z" fill="white"/>
</mask>
<g mask="url(#mask1_6363_28252)">
<path d="M43.7271 114.363H80.7271V107.636H43.7271V114.363ZM43.7271 73.9998V80.7271H80.7271V73.9998H43.7271ZM35.318 77.3634C35.318 80.1469 33.056 82.4089 30.2726 82.4089C27.4892 82.4089 25.2271 80.1469 25.2271 77.3634C25.2271 74.58 27.4892 72.318 30.2726 72.318C33.056 72.318 35.318 74.58 35.318 77.3634ZM35.318 94.1816C35.318 96.965 33.056 99.2271 30.2726 99.2271C27.4892 99.2271 25.2271 96.965 25.2271 94.1816C25.2271 91.3982 27.4892 89.1362 30.2726 89.1362C33.056 89.1362 35.318 91.3982 35.318 94.1816ZM35.318 111C35.318 113.783 33.056 116.045 30.2726 116.045C27.4892 116.045 25.2271 113.783 25.2271 111C25.2271 108.216 27.4892 105.954 30.2726 105.954C33.056 105.954 35.318 108.216 35.318 111ZM43.7271 97.5453H80.7271V90.818H43.7271V97.5453Z" fill="#F1F1F1"/>
</g>
<mask id="mask2_6363_28252" style="mask-type:luminance" maskUnits="userSpaceOnUse" x="0" y="0" width="108" height="148">
<path d="M67.2727 0H10.0909C4.54091 0 0 4.54091 0 10.0909V137.909C0 143.459 4.54091 148 10.0909 148H97.5454C103.095 148 107.636 143.459 107.636 137.909V40.3636L67.2727 0Z" fill="white"/>
</mask>
<g mask="url(#mask2_6363_28252)">
<path d="M70.2225 37.4123L107.635 74.8159V40.3639L70.2225 37.4123Z" fill="url(#paint0_linear_6363_28252)"/>
</g>
<mask id="mask3_6363_28252" style="mask-type:luminance" maskUnits="userSpaceOnUse" x="0" y="0" width="108" height="148">
<path d="M67.2727 0H10.0909C4.54091 0 0 4.54091 0 10.0909V137.909C0 143.459 4.54091 148 10.0909 148H97.5454C103.095 148 107.636 143.459 107.636 137.909V40.3636L67.2727 0Z" fill="white"/>
</mask>
<g mask="url(#mask3_6363_28252)">
<path d="M67.271 0V30.2727C67.271 35.848 71.7867 40.3636 77.3619 40.3636H107.635L67.271 0Z" fill="#B39DDB"/>
</g>
<mask id="mask4_6363_28252" style="mask-type:luminance" maskUnits="userSpaceOnUse" x="0" y="0" width="108" height="148">
<path d="M67.2727 0H10.0909C4.54091 0 0 4.54091 0 10.0909V137.909C0 143.459 4.54091 148 10.0909 148H97.5454C103.095 148 107.636 143.459 107.636 137.909V40.3636L67.2727 0Z" fill="white"/>
</mask>
<g mask="url(#mask4_6363_28252)">
<path d="M10.0909 0C4.54091 0 0 4.54091 0 10.0909V10.9318C0 5.38182 4.54091 0.840909 10.0909 0.840909H67.2727V0H10.0909Z" fill="white" fill-opacity="0.2"/>
</g>
<mask id="mask5_6363_28252" style="mask-type:luminance" maskUnits="userSpaceOnUse" x="0" y="0" width="108" height="148">
<path d="M67.2727 0H10.0909C4.54091 0 0 4.54091 0 10.0909V137.909C0 143.459 4.54091 148 10.0909 148H97.5454C103.095 148 107.636 143.459 107.636 137.909V40.3636L67.2727 0Z" fill="white"/>
</mask>
<g mask="url(#mask5_6363_28252)">
<path d="M97.5454 147.159H10.0908C4.54085 147.159 -6.10352e-05 142.618 -6.10352e-05 137.068V137.909C-6.10352e-05 143.459 4.54085 148 10.0908 148H97.5454C103.095 148 107.636 143.459 107.636 137.909V137.068C107.636 142.618 103.095 147.159 97.5454 147.159Z" fill="#311B92" fill-opacity="0.2"/>
</g>
<mask id="mask6_6363_28252" style="mask-type:luminance" maskUnits="userSpaceOnUse" x="0" y="0" width="108" height="148">
<path d="M67.2727 0H10.0909C4.54091 0 0 4.54091 0 10.0909V137.909C0 143.459 4.54091 148 10.0909 148H97.5454C103.095 148 107.636 143.459 107.636 137.909V40.3636L67.2727 0Z" fill="white"/>
</mask>
<g mask="url(#mask6_6363_28252)">
<path d="M77.3629 40.3637C71.7877 40.3637 67.272 35.848 67.272 30.2728V31.1137C67.272 36.6889 71.7877 41.2046 77.3629 41.2046H107.636V40.3637H77.3629Z" fill="#311B92" fill-opacity="0.1"/>
</g>
<path d="M67.2727 0H10.0909C4.54091 0 0 4.54091 0 10.0909V137.909C0 143.459 4.54091 148 10.0909 148H97.5454C103.095 148 107.636 143.459 107.636 137.909V40.3636L67.2727 0Z" fill="url(#paint1_radial_6363_28252)"/>
<defs>
<linearGradient id="paint0_linear_6363_28252" x1="1941.03" y1="358.572" x2="1941.03" y2="3778.3" gradientUnits="userSpaceOnUse">
<stop stop-color="#311B92" stop-opacity="0.2"/>
<stop offset="1" stop-color="#311B92" stop-opacity="0.02"/>
</linearGradient>
<radialGradient id="paint1_radial_6363_28252" cx="0" cy="0" r="1" gradientUnits="userSpaceOnUse" gradientTransform="translate(340.997 292.513) scale(17356.2 17356.2)">
<stop stop-color="white" stop-opacity="0.1"/>
<stop offset="1" stop-color="white" stop-opacity="0"/>
</radialGradient>
</defs>
</svg>
