<svg width="148" height="148" viewBox="0 0 148 148" fill="none" xmlns="http://www.w3.org/2000/svg">
<path d="M73.9999 133.644L97.8464 60.2591H50.1534L73.9999 133.644Z" fill="#E24329"/>
<path d="M74 133.644L50.1535 60.2591H16.7379L74 133.644Z" fill="#FC6D26"/>
<path d="M16.7379 60.2591L9.49052 82.5609C9.16861 83.5522 9.16885 84.6201 9.49123 85.6113C9.8136 86.6025 10.4415 87.4662 11.285 88.0785L74 133.662L16.7379 60.2591Z" fill="#FCA326"/>
<path d="M16.7379 60.2591H50.1535L35.7929 16.0626C35.6309 15.5678 35.3167 15.1369 34.8952 14.8313C34.4737 14.5258 33.9664 14.3612 33.4457 14.3612C32.9251 14.3612 32.4178 14.5258 31.9962 14.8313C31.5747 15.1369 31.2605 15.5678 31.0985 16.0626L16.7379 60.2591Z" fill="#E24329"/>
<path d="M74 133.644L97.8465 60.2591H131.262L74 133.644Z" fill="#FC6D26"/>
<path d="M131.262 60.2591L138.509 82.5609C138.831 83.5522 138.831 84.6201 138.509 85.6113C138.186 86.6025 137.558 87.4662 136.715 88.0785L74 133.662L131.262 60.2591Z" fill="#FCA326"/>
<path d="M131.262 60.2591H97.8466L112.207 16.058C112.369 15.5632 112.683 15.1322 113.105 14.8267C113.526 14.5211 114.034 14.3566 114.554 14.3566C115.075 14.3566 115.582 14.5211 116.004 14.8267C116.425 15.1322 116.74 15.5632 116.902 16.058L131.262 60.2591Z" fill="#E24329"/>
</svg>
