<svg width="148" height="133" viewBox="0 0 148 133" fill="none" xmlns="http://www.w3.org/2000/svg">
<path d="M88.8286 37.575L106.257 66.0481L128.928 28.9852L116.564 7.59284C113.85 2.89511 108.834 0 103.4 0H82.1716L59.166 37.575H88.8286Z" fill="#4286F5"/>
<path d="M88.8286 94.5349H59.166L82.1579 132.11H103.393C108.827 132.11 113.844 129.215 116.557 124.517L128.935 103.104L106.257 66.0481L88.8286 94.5349Z" fill="#4286F5"/>
<path d="M59.1662 37.575L82.1649 0H44.5946C39.1611 0 34.1444 2.89511 31.431 7.59284L14.1051 37.575H59.1662Z" fill="#1967D3"/>
<path d="M145.96 58.4553L128.928 28.9921L106.257 66.055L128.935 103.111L145.96 73.6547C148.68 68.9433 148.68 63.1531 145.96 58.4553Z" fill="#1967D3"/>
<path d="M59.1662 94.5349H14.1051L31.431 124.517C34.1444 129.215 39.1611 132.11 44.5946 132.11H82.1513L59.1662 94.5349Z" fill="#1967D3"/>
<path d="M41.7377 66.048L59.1662 37.5748H14.1051L2.03503 58.4551C-0.678343 63.1529 -0.678343 68.9431 2.03503 73.6476L14.1051 94.5416H59.1662L41.7377 66.048Z" fill="#4286F5"/>
</svg>
