<svg width="148" height="148" viewBox="0 0 148 148" fill="none" xmlns="http://www.w3.org/2000/svg">
<g clip-path="url(#clip0_6363_28165)">
<path d="M8.90516 6.38324L90.798 0.334475C100.858 -0.528365 103.442 0.053275 109.767 4.65164L135.908 23.0673C140.22 26.2345 141.655 27.0973 141.655 30.5457V131.545C141.655 137.875 139.357 141.62 131.31 142.191L36.2112 147.951C30.1728 148.237 27.2971 147.374 24.1344 143.344L4.884 118.311C1.43116 113.704 0 110.256 0 106.224V16.4472C0 11.2717 2.29844 6.956 8.90516 6.38324Z" fill="white"/>
<path fill-rule="evenodd" clip-rule="evenodd" d="M90.798 0.335955L8.90516 6.38472C2.29844 6.956 0 11.2732 0 16.4472V106.224C0 110.254 1.43116 113.702 4.884 118.311L24.1344 143.342C27.2971 147.372 30.1728 148.237 36.2112 147.95L131.312 142.192C139.352 141.62 141.657 137.875 141.657 131.547V30.5472C141.657 27.2764 140.365 26.3336 136.561 23.5424L109.767 4.65164C103.443 0.053275 100.858 -0.528365 90.798 0.334475V0.335955ZM38.3616 28.894C30.596 29.4165 28.8348 29.5349 24.4244 25.9488L13.212 17.0304C12.0724 15.876 12.6451 14.4359 15.5163 14.1488L94.242 8.39604C100.853 7.81883 104.296 10.1232 106.881 12.136L120.383 21.9188C120.96 22.2104 122.396 23.9316 120.669 23.9316L39.368 28.826L38.3616 28.894ZM29.3084 130.684V44.9432C29.3084 41.1988 30.4584 39.4716 33.9009 39.1815L127.28 33.7144C130.447 33.4288 131.878 35.4416 131.878 39.18V124.35C131.878 128.094 131.301 131.261 126.132 131.547L36.7736 136.727C31.6039 137.012 29.3099 135.291 29.3099 130.684H29.3084ZM117.516 49.54C118.089 52.13 117.516 54.72 114.926 55.016L110.62 55.87V119.174C106.88 121.187 103.437 122.337 100.56 122.337C95.9617 122.337 94.8132 120.897 91.3693 116.584L63.2049 72.2728V115.144L72.1145 117.161C72.1145 117.161 72.1145 122.341 64.9261 122.341L45.1089 123.491C44.5317 122.337 45.1089 119.461 47.1173 118.888L52.2928 117.453V60.7688L45.1104 60.1872C44.5332 57.5972 45.9688 53.8572 49.9944 53.5671L71.2576 52.136L100.562 97.0199V57.3115L93.092 56.4531C92.5148 53.2815 94.8132 50.9771 97.6844 50.6959L117.516 49.54Z" fill="black"/>
</g>
<defs>
<clipPath id="clip0_6363_28165">
<rect width="148" height="148" fill="white"/>
</clipPath>
</defs>
</svg>
