<svg width="148" height="119" viewBox="0 0 148 119" fill="none" xmlns="http://www.w3.org/2000/svg">
<path d="M45.8921 118.449H130.15C140.008 118.449 148 110.457 148 100.599V40.2253C148 34.9807 145.373 30.1654 140.818 27.5667L96.7347 2.4984C90.875 -0.844298 83.6829 -0.832002 77.8347 2.53072L27.8802 31.2545V100.437C27.8802 110.385 35.9444 118.449 45.8921 118.449Z" fill="#158FDA"/>
<path d="M62.5894 107.043C63.06 101.62 66.4885 96.9022 71.5002 94.7796C71.5002 94.7796 117.144 69.1448 139.775 55.8799C146.779 51.7743 148 43.4509 148 43.4509V100.407C148 110.371 139.922 118.449 129.958 118.449H75.2451C68.7281 118.449 63.2645 113.525 62.5894 107.043Z" fill="url(#paint0_linear_6363_28253)"/>
<path d="M138.362 25.9952L59.8838 69.3675L75.5322 78.851C81.3389 82.3702 89.7574 84.2745 95.6776 80.9498L137.454 57.4882C143.049 54.3459 148 49.1757 148 40.2253C148 31.1338 141.73 28.1333 138.362 25.9952Z" fill="#01459B"/>
<path d="M87.7475 0.129635C84.3085 0.121423 80.8674 0.990976 77.7718 2.73874L11.5088 40.1511L36.6414 55.3825L113.723 11.9282L97.7107 2.78637C94.6235 1.02383 91.1865 0.137853 87.7475 0.129635Z" fill="#26AEE9"/>
<path d="M113.723 11.9282L36.6412 55.3825L61.8491 70.6596L140.433 27.2873C139.809 26.8202 139.049 26.387 138.362 25.9952L113.723 11.9282Z" fill="#0078D3"/>
<path d="M7.19927 21.552L68.9801 21.5453C69.7824 21.5452 70.5768 21.7035 71.3177 22.0112C72.0586 22.3189 72.7315 22.7698 73.2977 23.3381C73.864 23.9065 74.3124 24.581 74.6173 25.3231C74.9222 26.0651 75.0776 26.8601 75.0746 27.6624L74.8454 87.8116C74.8391 89.4729 74.1747 91.064 72.9979 92.2365C71.821 93.409 70.2274 94.0675 68.5661 94.0677L7.47262 94.0743C6.62991 94.0744 5.79547 93.908 5.01719 93.5849C4.23891 93.2617 3.5321 92.788 2.93732 92.191C2.34254 91.5941 1.87149 90.8855 1.5512 90.106C1.23092 89.3266 1.0677 88.4915 1.07091 87.6488L1.30034 27.4291C1.30628 25.8684 1.93038 24.3737 3.03598 23.2722C4.14159 22.1707 5.6386 21.5521 7.19927 21.552Z" fill="url(#paint1_linear_6363_28253)"/>
<path d="M20.2302 47.51C21.7035 44.3205 24.1212 41.6321 27.1732 39.7904C30.5545 37.8317 34.424 36.8199 38.3559 36.8662C41.9971 36.7302 45.606 37.5716 48.7882 39.2985C51.781 40.9732 54.2098 43.4587 55.7799 46.4534C57.4904 49.7537 58.3753 53.4018 58.3626 57.1003C58.5055 60.9629 57.7181 64.8052 56.0635 68.3195C54.5569 71.4721 52.1356 74.1262 49.0989 75.9539C48.4078 76.3555 47.6956 76.7161 46.966 77.0348C44.2695 78.2128 41.3366 78.818 38.3639 78.7985C34.645 78.9463 30.9568 78.096 27.7016 76.3403C24.6831 74.6638 22.2243 72.1759 20.6186 69.1736C18.8991 65.9216 18.005 62.3149 18.0111 58.6555C17.8795 54.8256 18.6382 51.0155 20.2302 47.51ZM28.0516 65.2415C28.8969 67.229 30.3034 68.9419 32.1079 70.1813C33.9451 71.3893 36.1313 71.9924 38.3466 71.9022C40.7082 71.9549 43.0239 71.257 44.9437 69.914C46.6845 68.6211 47.9985 66.8594 48.723 64.8471C49.5329 62.5998 49.9121 60.2269 49.8415 57.8468C49.8287 55.443 49.3975 53.0591 48.5661 50.7966C47.831 48.7535 46.5028 46.963 44.7426 45.6425C42.8279 44.2995 40.4965 43.6405 38.1404 43.7762C35.8752 43.7558 33.6611 44.4353 31.816 45.7172C30.0224 47.0203 28.6463 48.7936 27.8483 50.8298C26.0807 55.4962 26.1544 60.6345 28.055 65.248L28.0516 65.2415Z" fill="white"/>
<defs>
<linearGradient id="paint0_linear_6363_28253" x1="90.5899" y1="105.132" x2="148" y2="80.9498" gradientUnits="userSpaceOnUse">
<stop stop-color="#4DE2FB"/>
<stop offset="1" stop-color="#28AEE8"/>
</linearGradient>
<linearGradient id="paint1_linear_6363_28253" x1="38.0897" y1="21.5486" x2="38.0194" y2="94.071" gradientUnits="userSpaceOnUse">
<stop stop-color="#1582D8"/>
<stop offset="1" stop-color="#0A64CC"/>
</linearGradient>
</defs>
</svg>
