<svg width="148" height="177" viewBox="0 0 148 177" fill="none" xmlns="http://www.w3.org/2000/svg">
<path fill-rule="evenodd" clip-rule="evenodd" d="M130.71 34.2246L102.009 88.8457L130.71 143.467L142.467 136.898V40.793L130.71 34.2246Z" fill="#E25444"/>
<path fill-rule="evenodd" clip-rule="evenodd" d="M130.71 34.2246L73.3084 40.793L44.0887 88.8457L73.3084 136.898L130.71 143.467V34.2246Z" fill="#7B1D13"/>
<path fill-rule="evenodd" clip-rule="evenodd" d="M14.8692 34.2246L5.53271 38.373V139.318L14.8692 143.467L73.3084 88.8457L14.8692 34.2246Z" fill="#58150D"/>
<path fill-rule="evenodd" clip-rule="evenodd" d="M14.7437 34.1095L73.3859 50.3959V128.755L14.7437 143.505V34.1095Z" fill="#E25444"/>
<path fill-rule="evenodd" clip-rule="evenodd" d="M73.4167 59.0001L48.5167 55.0052L73.4167 26.7343L98.2551 55.0052L73.4167 59.0001Z" fill="#58150D"/>
<path fill-rule="evenodd" clip-rule="evenodd" d="M98.2551 55.0052L73.3859 59.0613L48.5167 55.0052V26.7343" fill="#58150D"/>
<path fill-rule="evenodd" clip-rule="evenodd" d="M73.4167 118.307L48.5167 122.917L73.4167 147.193L98.2551 122.917L73.4167 118.307Z" fill="#58150D"/>
<path fill-rule="evenodd" clip-rule="evenodd" d="M73.3085 5.53125L48.4113 18.668V54.9668L73.3859 47.9376L73.3085 5.53125Z" fill="#7B1D13"/>
<path fill-rule="evenodd" clip-rule="evenodd" d="M73.3859 67.9113L48.5167 70.6157V106.859L73.3859 109.703V67.9113Z" fill="#7B1D13"/>
<path fill-rule="evenodd" clip-rule="evenodd" d="M73.3859 129.062L48.5167 122.828V158.458L73.3859 171.469V129.062Z" fill="#7B1D13"/>
<path fill-rule="evenodd" clip-rule="evenodd" d="M98.2551 122.828L73.3859 129.064V171.469L98.2551 158.458V122.828Z" fill="#E25444"/>
<path fill-rule="evenodd" clip-rule="evenodd" d="M73.3859 67.9113L98.2551 70.6157V106.859L73.3859 109.703V67.9113Z" fill="#E25444"/>
<path fill-rule="evenodd" clip-rule="evenodd" d="M73.3083 5.53125L98.2055 18.668V54.9668L73.3083 48.0527V5.53125Z" fill="#E25444"/>
</svg>
