<svg width="148" height="132" viewBox="0 0 148 132" fill="none" xmlns="http://www.w3.org/2000/svg">
<g clip-path="url(#clip0_6363_28195)">
<path fill-rule="evenodd" clip-rule="evenodd" d="M74.5204 0C33.5134 0 0 33 0 73.8868C0 94.2264 8.3263 113.943 23.3136 127.849C28.5176 132.83 36.6357 133.245 42.4641 128.887C61.1983 114.981 87.0098 114.981 105.744 128.887C111.572 133.245 119.691 132.83 124.895 127.849C154.661 99.6226 155.91 52.717 127.601 23.0377C113.862 8.50944 94.5035 0.207547 74.5204 0ZM74.1041 111.038C54.121 111.66 37.4684 95.8868 37.052 76.1698C37.052 75.5472 37.052 74.9245 37.052 74.3019C37.052 53.9623 53.7046 37.3585 74.1041 37.3585C94.5035 37.3585 111.156 53.9623 111.156 74.3019C111.781 94.2264 95.9606 110.623 76.1857 111.245C75.353 111.038 74.7286 111.038 74.1041 111.038Z" fill="#62D84E"/>
</g>
<defs>
<clipPath id="clip0_6363_28195">
<rect width="148" height="132" fill="white"/>
</clipPath>
</defs>
</svg>
