<svg width="148" height="165" viewBox="0 0 148 165" fill="none" xmlns="http://www.w3.org/2000/svg">
<path d="M61.7617 98.6667C89.0505 98.6667 111.171 76.5784 111.171 49.3333C111.171 22.0882 89.0467 0 61.7617 0C34.4768 0 12.3526 22.0882 12.3526 49.3333C12.3526 76.5784 34.4742 98.6667 61.7617 98.6667Z" fill="url(#paint0_linear_6363_28259)"/>
<path d="M61.7617 98.6667C89.0505 98.6667 111.171 76.5784 111.171 49.3333C111.171 22.0882 89.0467 0 61.7617 0C34.4768 0 12.3526 22.0882 12.3526 49.3333C12.3526 76.5784 34.4742 98.6667 61.7617 98.6667Z" fill="url(#paint1_radial_6363_28259)"/>
<path d="M61.7617 98.6667C89.0505 98.6667 111.171 76.5784 111.171 49.3333C111.171 22.0882 89.0467 0 61.7617 0C34.4768 0 12.3526 22.0882 12.3526 49.3333C12.3526 76.5784 34.4742 98.6667 61.7617 98.6667Z" fill="url(#paint2_radial_6363_28259)"/>
<path d="M61.7617 98.6667C89.0505 98.6667 111.171 76.5784 111.171 49.3333C111.171 22.0882 89.0467 0 61.7617 0C34.4768 0 12.3526 22.0882 12.3526 49.3333C12.3526 76.5784 34.4742 98.6667 61.7617 98.6667Z" fill="url(#paint3_radial_6363_28259)"/>
<path d="M106.826 131.556C129.566 131.556 148 113.151 148 90.4445C148 67.7383 129.566 49.3334 106.826 49.3334C84.0877 49.3334 65.6532 67.7383 65.6532 90.4445C65.6532 113.151 84.0877 131.556 106.826 131.556Z" fill="url(#paint4_linear_6363_28259)"/>
<path d="M106.826 131.556C129.566 131.556 148 113.151 148 90.4445C148 67.7383 129.566 49.3334 106.826 49.3334C84.0877 49.3334 65.6532 67.7383 65.6532 90.4445C65.6532 113.151 84.0877 131.556 106.826 131.556Z" fill="url(#paint5_radial_6363_28259)"/>
<path d="M106.826 131.556C129.566 131.556 148 113.151 148 90.4445C148 67.7383 129.566 49.3334 106.826 49.3334C84.0877 49.3334 65.6532 67.7383 65.6532 90.4445C65.6532 113.151 84.0877 131.556 106.826 131.556Z" fill="url(#paint6_radial_6363_28259)"/>
<path d="M67.9349 164.444C87.2635 164.444 102.932 148.799 102.932 129.5C102.932 110.201 87.2635 94.5555 67.9349 94.5555C48.6062 94.5555 32.9377 110.201 32.9377 129.5C32.9377 148.799 48.6062 164.444 67.9349 164.444Z" fill="url(#paint7_linear_6363_28259)"/>
<path d="M67.9349 164.444C87.2635 164.444 102.932 148.799 102.932 129.5C102.932 110.201 87.2635 94.5555 67.9349 94.5555C48.6062 94.5555 32.9377 110.201 32.9377 129.5C32.9377 148.799 48.6062 164.444 67.9349 164.444Z" fill="url(#paint8_linear_6363_28259)"/>
<path d="M13.3727 78.1111H52.504C59.8899 78.1111 65.8767 84.0979 65.8767 91.4838V130.516C65.8767 137.902 59.8899 143.889 52.504 143.889H13.3727C5.98681 143.889 0 137.902 0 130.516V91.4838C0 84.0979 5.98681 78.1111 13.3727 78.1111Z" fill="url(#paint9_radial_6363_28259)"/>
<path d="M13.3727 78.1111H52.504C59.8899 78.1111 65.8767 84.0979 65.8767 91.4838V130.516C65.8767 137.902 59.8899 143.889 52.504 143.889H13.3727C5.98681 143.889 0 137.902 0 130.516V91.4838C0 84.0979 5.98681 78.1111 13.3727 78.1111Z" fill="url(#paint10_radial_6363_28259)"/>
<path d="M18.7466 122.396L25.8897 118.672C26.6965 120.298 27.7448 121.495 29.0411 122.264C30.3528 123.034 31.7904 123.419 33.3462 123.419C35.0793 123.419 36.4013 123.07 37.3096 122.37C38.2205 121.653 38.674 120.578 38.674 119.146C38.674 118.029 38.2372 117.084 37.3623 116.315C36.4874 115.529 34.938 114.934 32.7141 114.532C28.4784 113.762 25.3964 112.417 23.4731 110.494C21.5653 108.569 20.6121 106.175 20.6121 103.311C20.6121 99.7459 21.8711 96.8976 24.3943 94.7624C26.9123 92.6311 30.2411 91.566 34.3727 91.566C37.1541 91.566 39.6054 92.1352 41.7226 93.2696C43.8411 94.404 45.5215 96.0317 46.7652 98.1477L39.7827 101.738C39.0131 100.551 38.1806 99.6932 37.289 99.1703C36.3949 98.6269 35.2772 98.3571 33.9282 98.3571C32.3172 98.3571 31.0928 98.7065 30.2513 99.4067C29.4291 100.107 29.018 101.015 29.018 102.133C29.018 103.094 29.4124 103.942 30.1987 104.675C31.0042 105.392 32.6126 105.978 35.0305 106.432C39.0915 107.201 42.1209 108.599 44.1135 110.629C46.1266 112.638 47.1326 115.181 47.1326 118.259C47.1326 121.999 45.9326 124.961 43.5354 127.145C41.1368 129.329 37.7143 130.421 33.2704 130.421C30.0509 130.421 27.1436 129.721 24.5549 128.323C21.9829 126.909 20.0494 124.932 18.7531 122.396H18.7466Z" fill="white"/>
<defs>
<linearGradient id="paint0_linear_6363_28259" x1="30.317" y1="8.06435" x2="96.1309" y2="94.4437" gradientUnits="userSpaceOnUse">
<stop stop-color="#00E3DF"/>
<stop offset="0.41" stop-color="#0097A8"/>
<stop offset="1" stop-color="#007791"/>
</linearGradient>
<radialGradient id="paint1_radial_6363_28259" cx="0" cy="0" r="1" gradientTransform="matrix(-29.0145 -70.1165 -126.26 52.0895 78.5774 113.829)" gradientUnits="userSpaceOnUse">
<stop offset="0.29" stop-color="#003B5D" stop-opacity="0.2"/>
<stop offset="0.61" stop-color="#004A6C" stop-opacity="0.138039"/>
<stop offset="0.97" stop-color="#006F94" stop-opacity="0"/>
</radialGradient>
<radialGradient id="paint2_radial_6363_28259" cx="0" cy="0" r="1" gradientTransform="matrix(-24.0851 -59.3442 -106.733 43.1852 71.6355 85.0984)" gradientUnits="userSpaceOnUse">
<stop offset="0.26" stop-color="#002A42" stop-opacity="0.309804"/>
<stop offset="0.61" stop-color="#004261" stop-opacity="0.213825"/>
<stop offset="0.97" stop-color="#006F94" stop-opacity="0"/>
</radialGradient>
<radialGradient id="paint3_radial_6363_28259" cx="0" cy="0" r="1" gradientTransform="matrix(-30.3498 44.1758 44.2425 30.3049 90.7234 9.18879)" gradientUnits="userSpaceOnUse">
<stop stop-color="#78EDFF" stop-opacity="0.698039"/>
<stop offset="1" stop-color="#2CCFCA" stop-opacity="0"/>
</radialGradient>
<linearGradient id="paint4_linear_6363_28259" x1="80.6239" y1="56.0526" x2="135.469" y2="128.036" gradientUnits="userSpaceOnUse">
<stop stop-color="#00E3DF"/>
<stop offset="0.48" stop-color="#00A2B8"/>
<stop offset="0.95" stop-color="#00637C"/>
</linearGradient>
<radialGradient id="paint5_radial_6363_28259" cx="0" cy="0" r="1" gradientTransform="matrix(16.7558 -48.035 -86.6806 -30.1422 80.9374 120.4)" gradientUnits="userSpaceOnUse">
<stop stop-color="#003B5D" stop-opacity="0.501961"/>
<stop offset="0.49" stop-color="#004C6C" stop-opacity="0.362199"/>
<stop offset="0.97" stop-color="#007A86" stop-opacity="0"/>
</radialGradient>
<radialGradient id="paint6_radial_6363_28259" cx="0" cy="0" r="1" gradientTransform="matrix(-25.2912 36.8127 36.8676 25.2532 129.298 56.1883)" gradientUnits="userSpaceOnUse">
<stop stop-color="#78EDFF" stop-opacity="0.698039"/>
<stop offset="1" stop-color="#2CCFCA" stop-opacity="0"/>
</radialGradient>
<linearGradient id="paint7_linear_6363_28259" x1="50.4582" y1="94.5457" x2="85.4158" y2="164.454" gradientUnits="userSpaceOnUse">
<stop offset="0.05" stop-color="#75FFF6"/>
<stop offset="0.51" stop-color="#00C7D1"/>
<stop offset="0.96" stop-color="#0096AD"/>
</linearGradient>
<linearGradient id="paint8_linear_6363_28259" x1="96.1803" y1="169.138" x2="77.4961" y2="142.919" gradientUnits="userSpaceOnUse">
<stop offset="0.26" stop-color="#0E5A5D" stop-opacity="0.321569"/>
<stop offset="0.54" stop-color="#126C6B" stop-opacity="0.221945"/>
<stop offset="0.97" stop-color="#1C948A" stop-opacity="0"/>
</linearGradient>
<radialGradient id="paint9_radial_6363_28259" cx="0" cy="0" r="1" gradientTransform="matrix(65.9746 65.8825 65.9861 -65.8711 9.97874 80.4931)" gradientUnits="userSpaceOnUse">
<stop offset="0.06" stop-color="#00B6BD"/>
<stop offset="0.89" stop-color="#00495C"/>
</radialGradient>
<radialGradient id="paint10_radial_6363_28259" cx="0" cy="0" r="1" gradientUnits="userSpaceOnUse" gradientTransform="translate(32.0188 118.005) rotate(90) scale(46.1138 52.5755)">
<stop offset="0.57" stop-color="#1E8581" stop-opacity="0"/>
<stop offset="0.97" stop-color="#1ECBE6" stop-opacity="0.6"/>
</radialGradient>
</defs>
</svg>
