<svg width="108" height="148" viewBox="0 0 108 148" fill="none" xmlns="http://www.w3.org/2000/svg">
<g clip-path="url(#clip0_6363_28020)">
<path d="M70.416 0L107.3 37L88.8582 40.3636L70.416 37L67.0629 18.5L70.416 0Z" fill="#188038"/>
<path d="M70.416 37V0H10.0597C4.50194 0 0.000366211 4.51568 0.000366211 10.0909V137.909C0.000366211 143.484 4.50194 148 10.0597 148H97.241C102.799 148 107.3 143.484 107.3 137.909V37H70.416Z" fill="#34A853"/>
<path d="M20.1191 57.1818V105.955H87.1816V57.1818H20.1191ZM49.459 97.5455H28.502V85.7727H49.459V97.5455ZM49.459 77.3636H28.502V65.5909H49.459V77.3636ZM78.7988 97.5455H57.8418V85.7727H78.7988V97.5455ZM78.7988 77.3636H57.8418V65.5909H78.7988V77.3636Z" fill="white"/>
</g>
<defs>
<clipPath id="clip0_6363_28020">
<rect width="107.3" height="148" fill="white"/>
</clipPath>
</defs>
</svg>
