<svg width="141" height="141" viewBox="0 0 141 141" fill="none" xmlns="http://www.w3.org/2000/svg">
<path d="M120.417 107.056L90.7658 89.9264C86.6002 87.5281 81.2733 88.9545 78.8623 93.1201C77.9282 94.761 77.5621 96.5661 77.7388 98.3207V131.797C77.7388 136.581 81.6267 140.469 86.4235 140.469C91.2076 140.469 95.0955 136.581 95.0955 131.797V112.547L111.707 122.14C115.873 124.551 121.212 123.112 123.611 118.947C126.022 114.781 124.595 109.454 120.417 107.056Z" fill="#29B5E8"/>
<path d="M46.6738 70.348C46.7243 67.2554 45.0959 64.3773 42.4198 62.8247L12.7684 45.7079C11.4809 44.9632 10.004 44.5718 8.52708 44.5718C5.48493 44.5718 2.65738 46.2002 1.14262 48.8258C-1.20526 52.8904 0.195898 58.1037 4.2605 60.4516L21.352 70.3101L4.2605 80.1813C2.29131 81.3174 0.877538 83.1477 0.296882 85.3441C-0.2964 87.5405 0.00655188 89.8379 1.14262 91.8071C2.65738 94.4327 5.48493 96.0611 8.51445 96.0611C10.004 96.0611 11.4809 95.6697 12.7684 94.925L42.4198 77.8082C45.0707 76.2682 46.699 73.4154 46.6738 70.348Z" fill="#29B5E8"/>
<path d="M19.4965 33.5772L49.1479 50.694C52.6066 52.701 56.8732 52.0446 59.5998 49.3812C61.3291 47.7907 62.4021 45.5185 62.4021 42.9939V8.68462C62.4021 3.88788 58.5142 0 53.7301 0C48.9333 0 45.0455 3.88788 45.0455 8.68462V28.2124L28.2064 18.4927C24.0408 16.0817 18.7139 17.5081 16.3029 21.6737C13.8919 25.8393 15.3309 31.1662 19.4965 33.5772Z" fill="#29B5E8"/>
<path d="M86.1713 71.7365C86.1713 72.3929 85.7927 73.3017 85.3256 73.7814L73.5736 85.5334C73.1065 86.0005 72.1851 86.3792 71.5287 86.3792H68.537C67.8806 86.3792 66.9591 86.0005 66.4921 85.5334L54.7275 73.7814C54.2604 73.3017 53.8817 72.3929 53.8817 71.7365V68.7448C53.8817 68.0758 54.2604 67.167 54.7275 66.6999L66.4921 54.9353C66.9591 54.4682 67.8806 54.0895 68.537 54.0895H71.5287C72.1851 54.0895 73.1065 54.4682 73.5736 54.9353L85.3256 66.6999C85.7927 67.167 86.1713 68.0758 86.1713 68.7448V71.7365ZM75.6816 70.2975V70.1712C75.6816 69.6916 75.4039 69.0225 75.0631 68.6691L71.5918 65.2104C71.251 64.857 70.5819 64.5793 70.0896 64.5793H69.9634C69.4837 64.5793 68.8147 64.857 68.4613 65.2104L65.0026 68.6691C64.6618 69.0099 64.384 69.6789 64.384 70.1712V70.2975C64.384 70.7898 64.6618 71.4588 65.0026 71.7996L68.4613 75.2709C68.8147 75.6118 69.4837 75.8895 69.9634 75.8895H70.0896C70.5819 75.8895 71.251 75.6118 71.5918 75.2709L75.0631 71.7996C75.4039 71.4588 75.6816 70.7898 75.6816 70.2975Z" fill="#29B5E8"/>
<path d="M90.7659 50.694L120.417 33.5772C124.583 31.1788 126.022 25.8393 123.611 21.6737C121.2 17.5081 115.873 16.0817 111.707 18.4927L95.0955 28.0862V8.68462C95.0955 3.88788 91.2077 0 86.4235 0C81.6268 0 77.7389 3.88788 77.7389 8.68462V42.3123C77.5748 44.0543 77.9156 45.872 78.8624 47.513C81.2734 51.6786 86.6003 53.105 90.7659 50.694Z" fill="#29B5E8"/>
<path d="M55.0934 88.9162C53.1242 88.5375 51.0161 88.8531 49.1479 89.9261L19.4965 107.055C15.3309 109.454 13.8919 114.781 16.3029 118.946C18.7139 123.125 24.0408 124.551 28.2064 122.14L45.0455 112.42V131.797C45.0455 136.581 48.9333 140.469 53.7301 140.469C58.5142 140.469 62.4021 136.581 62.4021 131.797V97.4873C62.4021 93.1576 59.2337 89.5726 55.0934 88.9162Z" fill="#29B5E8"/>
<path d="M138.948 48.7247C136.55 44.5465 131.21 43.1201 127.045 45.531L97.3931 62.6478C94.5529 64.2888 92.9877 67.2931 93.0382 70.3479C93.0129 73.39 94.5782 76.3564 97.3931 77.9722L127.045 95.1016C131.21 97.4999 136.537 96.0735 138.948 91.908C141.359 87.7424 139.92 82.4155 135.754 80.0045L118.966 70.31L135.754 60.6155C139.933 58.2172 141.359 52.8903 138.948 48.7247Z" fill="#29B5E8"/>
</svg>
