<svg width="21" height="24" viewBox="0 0 21 24" fill="none" xmlns="http://www.w3.org/2000/svg">
<g clip-path="url(#clip0_1030_40747)">
<path d="M6.2002 0.599609H13.252L20.4004 7.74805V20.7998C20.4004 22.2357 19.2357 23.4004 17.7998 23.4004H6.2002C4.76425 23.4004 3.59961 22.2357 3.59961 20.7998V3.2002C3.59961 1.76425 4.76426 0.599609 6.2002 0.599609Z" fill="white" stroke="#C8D2E1" stroke-width="1.2"/>
<path d="M13.2 0.6V5.4C13.2 6.72548 14.2745 7.8 15.6 7.8H20.4" stroke="#C8D2E1" stroke-width="1.2" stroke-linecap="round"/>
</g>
<rect y="11.1" width="15" height="9.9" rx="1.6" fill="#6E45F0"/>
<path d="M2.76659 18.2318H1.77795L3.28435 13.8682H4.47327L5.97753 18.2318H4.98889L3.89585 14.8653H3.86176L2.76659 18.2318ZM2.7048 16.5166H5.04003V17.2368H2.7048V16.5166Z" fill="white"/>
<path d="M6.38274 18.2318V13.8682H9.32308V14.6288H7.30533V15.6686H9.1718V16.4293H7.30533V17.4712H9.3316V18.2318H6.38274Z" fill="white"/>
<path d="M9.93657 18.2318V13.8682H11.6582C11.9891 13.8682 12.2711 13.9314 12.504 14.0578C12.737 14.1828 12.9146 14.3568 13.0367 14.5798C13.1603 14.8014 13.2221 15.0571 13.2221 15.3469C13.2221 15.6366 13.1596 15.8923 13.0346 16.1139C12.9096 16.3355 12.7285 16.5081 12.4913 16.6317C12.2555 16.7553 11.97 16.817 11.6347 16.817H10.5374V16.0777H11.4856C11.6631 16.0777 11.8094 16.0472 11.9245 15.9861C12.041 15.9236 12.1276 15.8376 12.1844 15.7283C12.2427 15.6175 12.2718 15.4903 12.2718 15.3469C12.2718 15.202 12.2427 15.0756 12.1844 14.9676C12.1276 14.8582 12.041 14.7737 11.9245 14.7141C11.808 14.653 11.6603 14.6224 11.4813 14.6224H10.8592V18.2318H9.93657Z" fill="white"/>
<defs>
<clipPath id="clip0_1030_40747">
<rect width="18" height="24" fill="white" transform="translate(3)"/>
</clipPath>
</defs>
</svg>
