<svg width="18" height="24" viewBox="0 0 18 24" fill="none" xmlns="http://www.w3.org/2000/svg">
<g clip-path="url(#clip0_1030_41158)">
<path d="M0 3.2C0 1.43269 1.43269 0 3.2 0H10.2L18 7.8V20.8C18 22.5673 16.5673 24 14.8 24H3.2C1.43269 24 0 22.5673 0 20.8V3.2Z" fill="#6E45F0"/>
<path d="M12.6 7.8H18L10.2 0V5.4C10.2 6.72548 11.2745 7.8 12.6 7.8Z" fill="white" fill-opacity="0.5"/>
</g>
<path d="M4.22789 19.8H3.23926L4.74565 15.4364H5.93457L7.43883 19.8H6.4502L5.35716 16.4335H5.32306L4.22789 19.8ZM4.1661 18.0848H6.50133V18.805H4.1661V18.0848Z" fill="white"/>
<path d="M7.84404 19.8V15.4364H10.7844V16.197H8.76663V17.2368H10.6331V17.9975H8.76663V19.0394H10.7929V19.8H7.84404Z" fill="white"/>
<path d="M11.3979 19.8V15.4364H13.1195C13.4504 15.4364 13.7324 15.4996 13.9653 15.626C14.1983 15.751 14.3759 15.925 14.498 16.148C14.6216 16.3696 14.6834 16.6253 14.6834 16.9151C14.6834 17.2048 14.6209 17.4605 14.4959 17.6821C14.3709 17.9037 14.1898 18.0763 13.9526 18.1999C13.7168 18.3234 13.4313 18.3852 13.096 18.3852H11.9987V17.6459H12.9469C13.1244 17.6459 13.2707 17.6153 13.3858 17.5543C13.5023 17.4918 13.5889 17.4058 13.6457 17.2965C13.704 17.1857 13.7331 17.0585 13.7331 16.9151C13.7331 16.7702 13.704 16.6438 13.6457 16.5358C13.5889 16.4264 13.5023 16.3419 13.3858 16.2823C13.2693 16.2212 13.1216 16.1906 12.9426 16.1906H12.3205V19.8H11.3979Z" fill="white"/>
<defs>
<clipPath id="clip0_1030_41158">
<rect width="18" height="24" fill="white"/>
</clipPath>
</defs>
</svg>
