<svg width="21" height="24" viewBox="0 0 21 24" fill="none" xmlns="http://www.w3.org/2000/svg">
<g clip-path="url(#clip0_1030_40675)">
<path d="M6.2002 0.599609H13.252L20.4004 7.74805V20.7998C20.4004 22.2357 19.2357 23.4004 17.7998 23.4004H6.2002C4.76425 23.4004 3.59961 22.2357 3.59961 20.7998V3.2002C3.59961 1.76425 4.76426 0.599609 6.2002 0.599609Z" fill="white" stroke="#C8D2E1" stroke-width="1.2"/>
<path d="M13.2 0.6V5.4C13.2 6.72548 14.2745 7.8 15.6 7.8H20.4" stroke="#C8D2E1" stroke-width="1.2" stroke-linecap="round"/>
</g>
<rect y="11.1" width="13.5" height="9.9" rx="1.6" fill="#6E45F0"/>
<path d="M3.06322 18.2318H2.07458L3.58098 13.8682H4.7699L6.27416 18.2318H5.28552L4.19248 14.8653H4.15839L3.06322 18.2318ZM3.00143 16.5166H5.33666V17.2368H3.00143V16.5166Z" fill="white"/>
<path d="M6.9228 13.8682L7.97749 17.1835H8.01797L9.07479 13.8682H10.0975L8.59326 18.2318H7.40434L5.89794 13.8682H6.9228Z" fill="white"/>
<path d="M11.4253 13.8682V18.2318H10.5027V13.8682H11.4253Z" fill="white"/>
<defs>
<clipPath id="clip0_1030_40675">
<rect width="18" height="24" fill="white" transform="translate(3)"/>
</clipPath>
</defs>
</svg>
