<svg width="18" height="24" viewBox="0 0 18 24" fill="none" xmlns="http://www.w3.org/2000/svg">
<g clip-path="url(#clip0_1030_41168)">
<path d="M0 3.2C0 1.43269 1.43269 0 3.2 0H10.2L18 7.8V20.8C18 22.5673 16.5673 24 14.8 24H3.2C1.43269 24 0 22.5673 0 20.8V3.2Z" fill="#0DB664"/>
<path d="M12.6 7.8H18L10.2 0V5.4C10.2 6.72548 11.2745 7.8 12.6 7.8Z" fill="white" fill-opacity="0.5"/>
</g>
<path d="M7.01718 16.9641H6.08394C6.06689 16.8433 6.03209 16.7361 5.97954 16.6423C5.92698 16.5472 5.85951 16.4662 5.77712 16.3994C5.69474 16.3327 5.59957 16.2815 5.49161 16.246C5.38508 16.2105 5.26931 16.1928 5.14431 16.1928C4.91846 16.1928 4.72172 16.2489 4.55411 16.3611C4.3865 16.4719 4.25653 16.6338 4.1642 16.8469C4.07187 17.0585 4.0257 17.3156 4.0257 17.6182C4.0257 17.9293 4.07187 18.1906 4.1642 18.4023C4.25795 18.6139 4.38863 18.7737 4.55624 18.8817C4.72385 18.9896 4.91775 19.0436 5.13792 19.0436C5.2615 19.0436 5.37584 19.0273 5.48096 18.9946C5.58749 18.9619 5.68195 18.9144 5.76434 18.8519C5.84672 18.7879 5.91491 18.7105 5.96888 18.6196C6.02428 18.5287 6.06263 18.425 6.08394 18.3085L7.01718 18.3128C6.99303 18.5131 6.93266 18.7063 6.83607 18.8923C6.7409 19.077 6.61235 19.2425 6.45042 19.3888C6.28991 19.5337 6.09814 19.6487 5.87513 19.734C5.65354 19.8178 5.40283 19.8597 5.123 19.8597C4.7338 19.8597 4.38579 19.7716 4.07897 19.5955C3.77357 19.4193 3.53209 19.1644 3.35454 18.8305C3.1784 18.4967 3.09033 18.0926 3.09033 17.6182C3.09033 17.1423 3.17982 16.7375 3.3588 16.4037C3.53778 16.0699 3.78067 15.8156 4.08749 15.6409C4.39431 15.4648 4.73948 15.3767 5.123 15.3767C5.37584 15.3767 5.61022 15.4122 5.82613 15.4832C6.04346 15.5543 6.23593 15.658 6.40354 15.7943C6.57116 15.9293 6.70752 16.0947 6.81263 16.2908C6.91917 16.4868 6.98735 16.7112 7.01718 16.9641Z" fill="white"/>
<path d="M9.10563 19.8H7.55876V15.4364H9.11841C9.55733 15.4364 9.93518 15.5237 10.2519 15.6984C10.5687 15.8717 10.8123 16.121 10.9828 16.4463C11.1546 16.7716 11.2406 17.1608 11.2406 17.6139C11.2406 18.0685 11.1546 18.4591 10.9828 18.7858C10.8123 19.1125 10.5673 19.3632 10.2477 19.5379C9.92949 19.7126 9.54881 19.8 9.10563 19.8ZM8.48134 19.0095H9.06728C9.34001 19.0095 9.56941 18.9612 9.75549 18.8646C9.94299 18.7666 10.0836 18.6153 10.1774 18.4108C10.2725 18.2048 10.3201 17.9392 10.3201 17.6139C10.3201 17.2915 10.2725 17.028 10.1774 16.8234C10.0836 16.6189 9.9437 16.4683 9.75762 16.3717C9.57154 16.2751 9.34214 16.2269 9.06941 16.2269H8.48134V19.0095Z" fill="white"/>
<path d="M11.804 19.8V15.4364H13.5256C13.8551 15.4364 14.1364 15.4953 14.3693 15.6132C14.6037 15.7297 14.782 15.8952 14.9041 16.1097C15.0277 16.3227 15.0895 16.5734 15.0895 16.8618C15.0895 17.1516 15.027 17.4009 14.902 17.6097C14.777 17.8171 14.5959 17.9761 14.3587 18.0869C14.1229 18.1977 13.8374 18.2531 13.5021 18.2531H12.3494V17.5117H13.353C13.5291 17.5117 13.6754 17.4875 13.7919 17.4392C13.9084 17.3909 13.995 17.3185 14.0519 17.2219C14.1101 17.1253 14.1392 17.0053 14.1392 16.8618C14.1392 16.7169 14.1101 16.5947 14.0519 16.4953C13.995 16.3959 13.9077 16.3206 13.7898 16.2695C13.6733 16.2169 13.5263 16.1906 13.3487 16.1906H12.7266V19.8H11.804ZM14.1605 17.8142L15.245 19.8H14.2266L13.1655 17.8142H14.1605Z" fill="white"/>
<defs>
<clipPath id="clip0_1030_41168">
<rect width="18" height="24" fill="white"/>
</clipPath>
</defs>
</svg>
