<svg width="21" height="24" viewBox="0 0 21 24" fill="none" xmlns="http://www.w3.org/2000/svg">
<g clip-path="url(#clip0_1030_40609)">
<path d="M6.2002 0.599609H13.252L20.4004 7.74805V20.7998C20.4004 22.2357 19.2357 23.4004 17.7998 23.4004H6.2002C4.76425 23.4004 3.59961 22.2357 3.59961 20.7998V3.2002C3.59961 1.76425 4.76426 0.599609 6.2002 0.599609Z" fill="white" stroke="#C8D2E1" stroke-width="1.2"/>
<path d="M13.2 0.6V5.4C13.2 6.72548 14.2745 7.8 15.6 7.8H20.4" stroke="#C8D2E1" stroke-width="1.2" stroke-linecap="round"/>
</g>
<rect y="11.1" width="15.75" height="9.9" rx="1.6" fill="#0DB664"/>
<path d="M6.00625 15.3948H5.07301C5.05597 15.2741 5.02117 15.1668 4.96861 15.0731C4.91605 14.9779 4.84858 14.8969 4.7662 14.8302C4.68381 14.7634 4.58864 14.7123 4.48069 14.6768C4.37415 14.6413 4.25838 14.6235 4.13338 14.6235C3.90753 14.6235 3.7108 14.6796 3.54319 14.7918C3.37557 14.9026 3.2456 15.0646 3.15327 15.2776C3.06094 15.4893 3.01478 15.7464 3.01478 16.0489C3.01478 16.36 3.06094 16.6214 3.15327 16.833C3.24702 17.0447 3.3777 17.2045 3.54532 17.3124C3.71293 17.4204 3.90682 17.4744 4.12699 17.4744C4.25057 17.4744 4.36492 17.458 4.47003 17.4254C4.57657 17.3927 4.67103 17.3451 4.75341 17.2826C4.8358 17.2187 4.90398 17.1413 4.95796 17.0504C5.01336 16.9594 5.05171 16.8558 5.07301 16.7393L6.00625 16.7435C5.98211 16.9438 5.92174 17.137 5.82515 17.3231C5.72998 17.5077 5.60142 17.6732 5.43949 17.8195C5.27898 17.9644 5.08722 18.0795 4.86421 18.1647C4.64262 18.2485 4.39191 18.2904 4.11208 18.2904C3.72287 18.2904 3.37486 18.2023 3.06804 18.0262C2.76265 17.8501 2.52117 17.5951 2.34361 17.2613C2.16747 16.9275 2.07941 16.5234 2.07941 16.0489C2.07941 15.5731 2.1689 15.1683 2.34787 14.8344C2.52685 14.5006 2.76975 14.2464 3.07657 14.0717C3.38338 13.8955 3.72855 13.8075 4.11208 13.8075C4.36492 13.8075 4.59929 13.843 4.8152 13.914C5.03253 13.985 5.225 14.0887 5.39262 14.2251C5.56023 14.36 5.69659 14.5255 5.80171 14.7215C5.90824 14.9175 5.97642 15.142 6.00625 15.3948Z" fill="white"/>
<path d="M8.91502 15.1221C8.89797 14.9502 8.82482 14.8167 8.69556 14.7215C8.5663 14.6263 8.39087 14.5788 8.16928 14.5788C8.01871 14.5788 7.89158 14.6001 7.78789 14.6427C7.68419 14.6839 7.60465 14.7414 7.54925 14.8153C7.49527 14.8891 7.46828 14.9729 7.46828 15.0667C7.46544 15.1448 7.48178 15.213 7.51729 15.2712C7.55422 15.3295 7.60465 15.3799 7.66857 15.4225C7.73249 15.4637 7.80635 15.4999 7.89016 15.5312C7.97397 15.561 8.06346 15.5866 8.15863 15.6079L8.55067 15.7016C8.74101 15.7442 8.91573 15.8011 9.07482 15.8721C9.23391 15.9431 9.37169 16.0305 9.48817 16.1342C9.60465 16.2379 9.69485 16.36 9.75877 16.5006C9.82411 16.6413 9.85749 16.8025 9.85891 16.9843C9.85749 17.2513 9.78931 17.4829 9.65436 17.6789C9.52084 17.8735 9.32766 18.0248 9.07482 18.1327C8.8234 18.2393 8.52013 18.2925 8.16502 18.2925C7.81275 18.2925 7.50593 18.2386 7.24456 18.1306C6.98462 18.0227 6.7815 17.8629 6.63519 17.6512C6.4903 17.4381 6.41431 17.1746 6.40721 16.8607H7.29996C7.3099 17.007 7.35181 17.1292 7.42567 17.2272C7.50096 17.3238 7.6011 17.3969 7.7261 17.4467C7.85252 17.495 7.99527 17.5191 8.15436 17.5191C8.31061 17.5191 8.44627 17.4964 8.56132 17.4509C8.6778 17.4055 8.768 17.3423 8.83192 17.2613C8.89584 17.1803 8.9278 17.0873 8.9278 16.9822C8.9278 16.8842 8.89868 16.8018 8.84044 16.735C8.78363 16.6683 8.69982 16.6114 8.58902 16.5646C8.47965 16.5177 8.34542 16.4751 8.18632 16.4367L7.71118 16.3174C7.34328 16.2279 7.0528 16.088 6.83973 15.8977C6.62667 15.7073 6.52084 15.4509 6.52226 15.1285C6.52084 14.8643 6.59115 14.6335 6.7332 14.436C6.87667 14.2386 7.0734 14.0844 7.3234 13.9737C7.5734 13.8629 7.85749 13.8075 8.17567 13.8075C8.49953 13.8075 8.78221 13.8629 9.02368 13.9737C9.26658 14.0844 9.4555 14.2386 9.59044 14.436C9.72539 14.6335 9.79499 14.8621 9.79925 15.1221H8.91502Z" fill="white"/>
<path d="M12.7267 15.1221C12.7096 14.9502 12.6365 14.8167 12.5072 14.7215C12.3779 14.6263 12.2025 14.5788 11.9809 14.5788C11.8304 14.5788 11.7032 14.6001 11.5995 14.6427C11.4958 14.6839 11.4163 14.7414 11.3609 14.8153C11.3069 14.8891 11.2799 14.9729 11.2799 15.0667C11.2771 15.1448 11.2934 15.213 11.3289 15.2712C11.3659 15.3295 11.4163 15.3799 11.4802 15.4225C11.5441 15.4637 11.618 15.4999 11.7018 15.5312C11.7856 15.561 11.8751 15.5866 11.9703 15.6079L12.3623 15.7016C12.5527 15.7442 12.7274 15.8011 12.8865 15.8721C13.0456 15.9431 13.1833 16.0305 13.2998 16.1342C13.4163 16.2379 13.5065 16.36 13.5704 16.5006C13.6357 16.6413 13.6691 16.8025 13.6706 16.9843C13.6691 17.2513 13.6009 17.4829 13.466 17.6789C13.3325 17.8735 13.1393 18.0248 12.8865 18.1327C12.635 18.2393 12.3318 18.2925 11.9767 18.2925C11.6244 18.2925 11.3176 18.2386 11.0562 18.1306C10.7963 18.0227 10.5931 17.8629 10.4468 17.6512C10.3019 17.4381 10.2259 17.1746 10.2188 16.8607H11.1116C11.1215 17.007 11.1634 17.1292 11.2373 17.2272C11.3126 17.3238 11.4127 17.3969 11.5377 17.4467C11.6642 17.495 11.8069 17.5191 11.966 17.5191C12.1223 17.5191 12.2579 17.4964 12.373 17.4509C12.4894 17.4055 12.5796 17.3423 12.6436 17.2613C12.7075 17.1803 12.7394 17.0873 12.7394 16.9822C12.7394 16.8842 12.7103 16.8018 12.6521 16.735C12.5953 16.6683 12.5115 16.6114 12.4007 16.5646C12.2913 16.5177 12.1571 16.4751 11.998 16.4367L11.5228 16.3174C11.1549 16.2279 10.8644 16.088 10.6514 15.8977C10.4383 15.7073 10.3325 15.4509 10.3339 15.1285C10.3325 14.8643 10.4028 14.6335 10.5448 14.436C10.6883 14.2386 10.885 14.0844 11.135 13.9737C11.385 13.8629 11.6691 13.8075 11.9873 13.8075C12.3112 13.8075 12.5938 13.8629 12.8353 13.9737C13.0782 14.0844 13.2671 14.2386 13.4021 14.436C13.537 14.6335 13.6066 14.8621 13.6109 15.1221H12.7267Z" fill="white"/>
<defs>
<clipPath id="clip0_1030_40609">
<rect width="18" height="24" fill="white" transform="translate(3)"/>
</clipPath>
</defs>
</svg>
