<svg width="21" height="24" viewBox="0 0 21 24" fill="none" xmlns="http://www.w3.org/2000/svg">
<g clip-path="url(#clip0_1030_40663)">
<path d="M6.2002 0.599609H13.252L20.4004 7.74805V20.7998C20.4004 22.2357 19.2357 23.4004 17.7998 23.4004H6.2002C4.76425 23.4004 3.59961 22.2357 3.59961 20.7998V3.2002C3.59961 1.76425 4.76426 0.599609 6.2002 0.599609Z" fill="white" stroke="#C8D2E1" stroke-width="1.2"/>
<path d="M13.2 0.6V5.4C13.2 6.72548 14.2745 7.8 15.6 7.8H20.4" stroke="#C8D2E1" stroke-width="1.2" stroke-linecap="round"/>
</g>
<rect y="11.1" width="16.5" height="9.9" rx="1.6" fill="#3873FF"/>
<path d="M3.46252 18.2318H1.91565V13.8682H3.47531C3.91423 13.8682 4.29207 13.9555 4.60883 14.1303C4.92559 14.3035 5.1692 14.5528 5.33966 14.8781C5.51153 15.2034 5.59747 15.5926 5.59747 16.0457C5.59747 16.5003 5.51153 16.8909 5.33966 17.2176C5.1692 17.5443 4.92417 17.795 4.60457 17.9697C4.28639 18.1445 3.90571 18.2318 3.46252 18.2318ZM2.83823 17.4413H3.42417C3.6969 17.4413 3.9263 17.393 4.11238 17.2964C4.29988 17.1984 4.44051 17.0472 4.53426 16.8426C4.62943 16.6366 4.67701 16.371 4.67701 16.0457C4.67701 15.7233 4.62943 15.4598 4.53426 15.2553C4.44051 15.0507 4.30059 14.9001 4.11451 14.8035C3.92843 14.707 3.69903 14.6587 3.4263 14.6587H2.83823V17.4413Z" fill="white"/>
<path d="M10.1708 16.05C10.1708 16.5259 10.0806 16.9307 9.90023 17.2645C9.72125 17.5983 9.47694 17.8533 9.16728 18.0294C8.85904 18.2041 8.51245 18.2915 8.1275 18.2915C7.73972 18.2915 7.39171 18.2034 7.08347 18.0273C6.77523 17.8511 6.53162 17.5962 6.35265 17.2624C6.17367 16.9285 6.08418 16.5244 6.08418 16.05C6.08418 15.5741 6.17367 15.1693 6.35265 14.8355C6.53162 14.5017 6.77523 14.2474 7.08347 14.0727C7.39171 13.8966 7.73972 13.8085 8.1275 13.8085C8.51245 13.8085 8.85904 13.8966 9.16728 14.0727C9.47694 14.2474 9.72125 14.5017 9.90023 14.8355C10.0806 15.1693 10.1708 15.5741 10.1708 16.05ZM9.23546 16.05C9.23546 15.7418 9.18929 15.4818 9.09696 15.2702C9.00605 15.0585 8.8775 14.898 8.71131 14.7886C8.54512 14.6793 8.35051 14.6246 8.1275 14.6246C7.90449 14.6246 7.70989 14.6793 7.5437 14.7886C7.3775 14.898 7.24824 15.0585 7.15591 15.2702C7.065 15.4818 7.01955 15.7418 7.01955 16.05C7.01955 16.3582 7.065 16.6182 7.15591 16.8298C7.24824 17.0415 7.3775 17.202 7.5437 17.3114C7.70989 17.4207 7.90449 17.4754 8.1275 17.4754C8.35051 17.4754 8.54512 17.4207 8.71131 17.3114C8.8775 17.202 9.00605 17.0415 9.09696 16.8298C9.18929 16.6182 9.23546 16.3582 9.23546 16.05Z" fill="white"/>
<path d="M14.5844 15.3959H13.6511C13.6341 15.2751 13.5993 15.1679 13.5467 15.0741C13.4942 14.979 13.4267 14.898 13.3443 14.8312C13.2619 14.7645 13.1668 14.7134 13.0588 14.6778C12.9523 14.6423 12.8365 14.6246 12.7115 14.6246C12.4857 14.6246 12.2889 14.6807 12.1213 14.7929C11.9537 14.9037 11.8237 15.0656 11.7314 15.2787C11.6391 15.4903 11.5929 15.7474 11.5929 16.05C11.5929 16.3611 11.6391 16.6224 11.7314 16.8341C11.8252 17.0457 11.9558 17.2055 12.1234 17.3135C12.2911 17.4214 12.485 17.4754 12.7051 17.4754C12.8287 17.4754 12.9431 17.4591 13.0482 17.4264C13.1547 17.3937 13.2492 17.3462 13.3315 17.2837C13.4139 17.2197 13.4821 17.1423 13.5361 17.0514C13.5915 16.9605 13.6298 16.8568 13.6511 16.7403L14.5844 16.7446C14.5602 16.9449 14.4999 17.1381 14.4033 17.3241C14.3081 17.5088 14.1796 17.6743 14.0176 17.8206C13.8571 17.9655 13.6654 18.0805 13.4423 18.1658C13.2207 18.2496 12.97 18.2915 12.6902 18.2915C12.301 18.2915 11.953 18.2034 11.6462 18.0273C11.3408 17.8511 11.0993 17.5962 10.9217 17.2624C10.7456 16.9285 10.6575 16.5244 10.6575 16.05C10.6575 15.5741 10.747 15.1693 10.926 14.8355C11.105 14.5017 11.3479 14.2474 11.6547 14.0727C11.9615 13.8966 12.3067 13.8085 12.6902 13.8085C12.9431 13.8085 13.1774 13.844 13.3933 13.9151C13.6107 13.9861 13.8031 14.0898 13.9707 14.2261C14.1384 14.3611 14.2747 14.5266 14.3798 14.7226C14.4864 14.9186 14.5546 15.143 14.5844 15.3959Z" fill="white"/>
<defs>
<clipPath id="clip0_1030_40663">
<rect width="18" height="24" fill="white" transform="translate(3)"/>
</clipPath>
</defs>
</svg>
