<svg width="21" height="24" viewBox="0 0 21 24" fill="none" xmlns="http://www.w3.org/2000/svg">
<g clip-path="url(#clip0_1030_40669)">
<path d="M6.2002 0.599609H13.252L20.4004 7.74805V20.7998C20.4004 22.2357 19.2357 23.4004 17.7998 23.4004H6.2002C4.76425 23.4004 3.59961 22.2357 3.59961 20.7998V3.2002C3.59961 1.76425 4.76426 0.599609 6.2002 0.599609Z" fill="white" stroke="#C8D2E1" stroke-width="1.2"/>
<path d="M13.2 0.6V5.4C13.2 6.72548 14.2745 7.8 15.6 7.8H20.4" stroke="#C8D2E1" stroke-width="1.2" stroke-linecap="round"/>
</g>
<rect y="11.1" width="12.75" height="9.9" rx="1.6" fill="#3873FF"/>
<path d="M4.85921 15.2787C4.82938 15.175 4.78748 15.0834 4.7335 15.0038C4.67952 14.9229 4.61347 14.8547 4.53535 14.7993C4.45864 14.7425 4.37057 14.6991 4.27114 14.6693C4.17313 14.6395 4.06446 14.6246 3.94515 14.6246C3.72213 14.6246 3.52611 14.68 3.35708 14.7908C3.18946 14.9016 3.05878 15.0628 2.96503 15.2744C2.87128 15.4847 2.82441 15.7418 2.82441 16.0457C2.82441 16.3497 2.87057 16.6082 2.9629 16.8213C3.05523 17.0344 3.18591 17.197 3.35495 17.3092C3.52398 17.42 3.72356 17.4754 3.95367 17.4754C4.16248 17.4754 4.34074 17.4385 4.48847 17.3646C4.63762 17.2893 4.75125 17.1835 4.82938 17.0472C4.90892 16.9108 4.9487 16.7496 4.9487 16.5635L5.1362 16.5912H4.0112V15.8966H5.83719V16.4463C5.83719 16.8298 5.75623 17.1594 5.59429 17.4349C5.43236 17.7091 5.20935 17.9207 4.92526 18.0699C4.64117 18.2176 4.31588 18.2915 3.94941 18.2915C3.54032 18.2915 3.18094 18.2013 2.87128 18.0209C2.56162 17.8391 2.32015 17.5812 2.14685 17.2474C1.97498 16.9122 1.88904 16.5145 1.88904 16.0543C1.88904 15.7006 1.94017 15.3852 2.04245 15.1082C2.14614 14.8298 2.29103 14.594 2.47711 14.4009C2.66319 14.2077 2.87981 14.0607 3.12696 13.9598C3.37412 13.8589 3.64188 13.8085 3.93023 13.8085C4.17739 13.8085 4.4075 13.8447 4.62057 13.9172C4.83364 13.9882 5.02256 14.0891 5.18733 14.2197C5.35353 14.3504 5.48918 14.506 5.59429 14.6864C5.69941 14.8653 5.76688 15.0628 5.79671 15.2787H4.85921Z" fill="white"/>
<path d="M7.33278 13.8682V18.2318H6.4102V13.8682H7.33278Z" fill="white"/>
<path d="M7.97184 18.2318V13.8682H10.861V14.6288H8.89442V15.6686H10.6693V16.4293H8.89442V18.2318H7.97184Z" fill="white"/>
<defs>
<clipPath id="clip0_1030_40669">
<rect width="18" height="24" fill="white" transform="translate(3)"/>
</clipPath>
</defs>
</svg>
