<svg width="18" height="24" viewBox="0 0 18 24" fill="none" xmlns="http://www.w3.org/2000/svg">
<g clip-path="url(#clip0_1030_40891)">
<path d="M0 3.2C0 1.43269 1.43269 0 3.2 0H10.2L18 7.8V20.8C18 22.5673 16.5673 24 14.8 24H3.2C1.43269 24 0 22.5673 0 20.8V3.2Z" fill="url(#paint0_linear_1030_40891)"/>
<path d="M12.6 7.8H18L10.2 0V5.4C10.2 6.72548 11.2745 7.8 12.6 7.8Z" fill="#DCE2EB"/>
<path d="M3.2002 0.400391H10.0342L17.5996 7.96582V20.7998C17.5996 22.3462 16.3462 23.5996 14.7998 23.5996H3.2002C1.6538 23.5996 0.400391 22.3462 0.400391 20.7998V3.2002C0.400391 1.6538 1.6538 0.400391 3.2002 0.400391Z" stroke="black" stroke-opacity="0.06" stroke-width="0.8"/>
</g>
<path d="M7.5898 16.8469C7.55997 16.7432 7.51807 16.6516 7.46409 16.572C7.41011 16.491 7.34406 16.4229 7.26594 16.3675C7.18923 16.3107 7.10116 16.2673 7.00173 16.2375C6.90372 16.2077 6.79506 16.1928 6.67574 16.1928C6.45273 16.1928 6.2567 16.2482 6.08767 16.3589C5.92006 16.4697 5.78937 16.631 5.69562 16.8426C5.60187 17.0528 5.555 17.3099 5.555 17.6139C5.555 17.9179 5.60116 18.1764 5.69349 18.3895C5.78582 18.6026 5.9165 18.7652 6.08554 18.8774C6.25457 18.9882 6.45415 19.0436 6.68426 19.0436C6.89307 19.0436 7.07133 19.0067 7.21906 18.9328C7.36821 18.8575 7.48185 18.7517 7.55997 18.6153C7.63952 18.479 7.67929 18.3178 7.67929 18.1317L7.86679 18.1594H6.74179V17.4648H8.56778V18.0145C8.56778 18.398 8.48682 18.7276 8.32488 19.0031C8.16295 19.2773 7.93994 19.4889 7.65585 19.6381C7.37176 19.7858 7.04648 19.8597 6.68 19.8597C6.27091 19.8597 5.91153 19.7695 5.60187 19.5891C5.29221 19.4072 5.05074 19.1494 4.87744 18.8156C4.70557 18.4804 4.61963 18.0827 4.61963 17.6224C4.61963 17.2687 4.67077 16.9534 4.77304 16.6764C4.87673 16.398 5.02162 16.1622 5.2077 15.969C5.39378 15.7758 5.6104 15.6288 5.85756 15.528C6.10471 15.4271 6.37247 15.3767 6.66082 15.3767C6.90798 15.3767 7.13809 15.4129 7.35116 15.4854C7.56423 15.5564 7.75315 15.6572 7.91792 15.7879C8.08412 15.9186 8.21977 16.0741 8.32488 16.2545C8.43 16.4335 8.49747 16.631 8.5273 16.8469H7.5898Z" fill="#344054"/>
<path d="M10.0634 15.4364V19.8H9.14079V15.4364H10.0634Z" fill="#344054"/>
<path d="M10.7024 19.8V15.4364H13.5916V16.197H11.625V17.2368H13.3999V17.9974H11.625V19.8H10.7024Z" fill="#344054"/>
<defs>
<linearGradient id="paint0_linear_1030_40891" x1="9" y1="0" x2="9" y2="24" gradientUnits="userSpaceOnUse">
<stop stop-color="#F2F6FC"/>
<stop offset="1" stop-color="#EDF1F7"/>
</linearGradient>
<clipPath id="clip0_1030_40891">
<rect width="18" height="24" fill="white"/>
</clipPath>
</defs>
</svg>
