<svg width="18" height="24" viewBox="0 0 18 24" fill="none" xmlns="http://www.w3.org/2000/svg">
<g clip-path="url(#clip0_1030_41033)">
<path d="M0 3.2C0 1.43269 1.43269 0 3.2 0H10.2L18 7.8V20.8C18 22.5673 16.5673 24 14.8 24H3.2C1.43269 24 0 22.5673 0 20.8V3.2Z" fill="#0DB664"/>
<path d="M12.6 7.8H18L10.2 0V5.4C10.2 6.72548 11.2745 7.8 12.6 7.8Z" fill="white" fill-opacity="0.5"/>
</g>
<path d="M1.75781 19.35V15.4227H2.58814V17.0431H4.27372V15.4227H5.10213V19.35H4.27372V17.7277H2.58814V19.35H1.75781Z" fill="white"/>
<path d="M5.52915 16.1073V15.4227H8.75457V16.1073H7.55223V19.35H6.73149V16.1073H5.52915Z" fill="white"/>
<path d="M9.17775 15.4227H10.2018L11.2833 18.0614H11.3293L12.4108 15.4227H13.4349V19.35H12.6295V16.7938H12.5969L11.5805 19.3308H11.0321L10.0157 16.7842H9.98315V19.35H9.17775V15.4227Z" fill="white"/>
<path d="M14.011 19.35V15.4227H14.8413V18.6654H16.525V19.35H14.011Z" fill="white"/>
<defs>
<clipPath id="clip0_1030_41033">
<rect width="18" height="24" fill="white"/>
</clipPath>
</defs>
</svg>
