<svg width="21" height="24" viewBox="0 0 21 24" fill="none" xmlns="http://www.w3.org/2000/svg">
<g clip-path="url(#clip0_1030_40639)">
<path d="M6.2002 0.599609H13.252L20.4004 7.74805V20.7998C20.4004 22.2357 19.2357 23.4004 17.7998 23.4004H6.2002C4.76425 23.4004 3.59961 22.2357 3.59961 20.7998V3.2002C3.59961 1.76425 4.76426 0.599609 6.2002 0.599609Z" fill="white" stroke="#C8D2E1" stroke-width="1.2"/>
<path d="M13.2 0.6V5.4C13.2 6.72548 14.2745 7.8 15.6 7.8H20.4" stroke="#C8D2E1" stroke-width="1.2" stroke-linecap="round"/>
</g>
<rect y="11.1" width="14.25" height="9.9" rx="1.6" fill="#3873FF"/>
<path d="M3.06596 13.8682V18.2318H2.14337V13.8682H3.06596Z" fill="white"/>
<path d="M7.55515 15.3959H6.62192C6.60487 15.2751 6.57007 15.1679 6.51751 15.0741C6.46496 14.979 6.39748 14.898 6.3151 14.8312C6.23271 14.7645 6.13754 14.7134 6.02959 14.6778C5.92305 14.6423 5.80729 14.6246 5.68228 14.6246C5.45643 14.6246 5.2597 14.6807 5.09209 14.7929C4.92447 14.9037 4.7945 15.0656 4.70217 15.2787C4.60984 15.4903 4.56368 15.7474 4.56368 16.05C4.56368 16.3611 4.60984 16.6224 4.70217 16.8341C4.79592 17.0457 4.9266 17.2055 5.09422 17.3135C5.26183 17.4214 5.45572 17.4754 5.67589 17.4754C5.79947 17.4754 5.91382 17.4591 6.01893 17.4264C6.12547 17.3937 6.21993 17.3462 6.30231 17.2837C6.3847 17.2197 6.45288 17.1423 6.50686 17.0514C6.56226 16.9605 6.60061 16.8568 6.62192 16.7403L7.55515 16.7446C7.53101 16.9449 7.47064 17.1381 7.37405 17.3241C7.27888 17.5088 7.15032 17.6743 6.98839 17.8206C6.82788 17.9655 6.63612 18.0805 6.41311 18.1658C6.19152 18.2496 5.94081 18.2915 5.66098 18.2915C5.27177 18.2915 4.92376 18.2034 4.61694 18.0273C4.31155 17.8511 4.07007 17.5962 3.89251 17.2624C3.71638 16.9285 3.62831 16.5244 3.62831 16.05C3.62831 15.5741 3.7178 15.1693 3.89677 14.8355C4.07575 14.5017 4.31865 14.2474 4.62547 14.0727C4.93228 13.8966 5.27746 13.8085 5.66098 13.8085C5.91382 13.8085 6.14819 13.844 6.3641 13.9151C6.58143 13.9861 6.7739 14.0898 6.94152 14.2261C7.10913 14.3611 7.2455 14.5266 7.35061 14.7226C7.45714 14.9186 7.52532 15.143 7.55515 15.3959Z" fill="white"/>
<path d="M12.1067 16.05C12.1067 16.5259 12.0165 16.9307 11.8361 17.2645C11.6571 17.5983 11.4128 17.8533 11.1031 18.0294C10.7949 18.2041 10.4483 18.2915 10.0634 18.2915C9.67557 18.2915 9.32756 18.2034 9.01932 18.0273C8.71108 17.8511 8.46747 17.5962 8.28849 17.2624C8.10952 16.9285 8.02003 16.5244 8.02003 16.05C8.02003 15.5741 8.10952 15.1693 8.28849 14.8355C8.46747 14.5017 8.71108 14.2474 9.01932 14.0727C9.32756 13.8966 9.67557 13.8085 10.0634 13.8085C10.4483 13.8085 10.7949 13.8966 11.1031 14.0727C11.4128 14.2474 11.6571 14.5017 11.8361 14.8355C12.0165 15.1693 12.1067 15.5741 12.1067 16.05ZM11.1713 16.05C11.1713 15.7418 11.1251 15.4818 11.0328 15.2702C10.9419 15.0585 10.8134 14.898 10.6472 14.7886C10.481 14.6793 10.2864 14.6246 10.0634 14.6246C9.84034 14.6246 9.64574 14.6793 9.47954 14.7886C9.31335 14.898 9.18409 15.0585 9.09176 15.2702C9.00085 15.4818 8.9554 15.7418 8.9554 16.05C8.9554 16.3582 9.00085 16.6182 9.09176 16.8298C9.18409 17.0415 9.31335 17.202 9.47954 17.3114C9.64574 17.4207 9.84034 17.4754 10.0634 17.4754C10.2864 17.4754 10.481 17.4207 10.6472 17.3114C10.8134 17.202 10.9419 17.0415 11.0328 16.8298C11.1251 16.6182 11.1713 16.3582 11.1713 16.05Z" fill="white"/>
<defs>
<clipPath id="clip0_1030_40639">
<rect width="18" height="24" fill="white" transform="translate(3)"/>
</clipPath>
</defs>
</svg>
