<svg width="18" height="24" viewBox="0 0 18 24" fill="none" xmlns="http://www.w3.org/2000/svg">
<g clip-path="url(#clip0_1030_41073)">
<path d="M0 3.2C0 1.43269 1.43269 0 3.2 0H10.2L18 7.8V20.8C18 22.5673 16.5673 24 14.8 24H3.2C1.43269 24 0 22.5673 0 20.8V3.2Z" fill="#0DB664"/>
<path d="M12.6 7.8H18L10.2 0V5.4C10.2 6.72548 11.2745 7.8 12.6 7.8Z" fill="white" fill-opacity="0.5"/>
</g>
<path d="M4.20801 15.4227H5.02875V18.1611C5.02875 18.4142 4.97186 18.6341 4.85809 18.8207C4.74558 19.0074 4.58898 19.1512 4.38827 19.2522C4.18756 19.3532 3.95425 19.4037 3.68834 19.4037C3.45183 19.4037 3.23706 19.3621 3.04402 19.2791C2.85226 19.1947 2.70013 19.0668 2.58763 18.8955C2.47513 18.7229 2.41952 18.5063 2.4208 18.2455H3.24729C3.24985 18.349 3.27094 18.4379 3.31057 18.512C3.35148 18.5849 3.40709 18.6411 3.4774 18.6808C3.54899 18.7191 3.63337 18.7383 3.73053 18.7383C3.8328 18.7383 3.91909 18.7166 3.98941 18.6731C4.061 18.6283 4.11533 18.5631 4.1524 18.4775C4.18948 18.3918 4.20801 18.2864 4.20801 18.1611V15.4227Z" fill="white"/>
<path d="M6.28418 19.35H5.3944L6.75016 15.4227H7.82018L9.17402 19.35H8.28425L7.30051 16.3202H7.26983L6.28418 19.35ZM6.22857 17.8063H8.33027V18.4545H6.22857V17.8063Z" fill="white"/>
<path d="M9.7578 15.4227L10.707 18.4065H10.7435L11.6946 15.4227H12.615L11.2612 19.35H10.1912L8.83543 15.4227H9.7578Z" fill="white"/>
<path d="M13.1346 19.35H12.2448L13.6006 15.4227H14.6706L16.0244 19.35H15.1347L14.1509 16.3202H14.1202L13.1346 19.35ZM13.079 17.8063H15.1807V18.4545H13.079V17.8063Z" fill="white"/>
<defs>
<clipPath id="clip0_1030_41073">
<rect width="18" height="24" fill="white"/>
</clipPath>
</defs>
</svg>
