<svg width="21" height="24" viewBox="0 0 21 24" fill="none" xmlns="http://www.w3.org/2000/svg">
<g clip-path="url(#clip0_1030_40651)">
<path d="M6.2002 0.599609H13.252L20.4004 7.74805V20.7998C20.4004 22.2357 19.2357 23.4004 17.7998 23.4004H6.2002C4.76425 23.4004 3.59961 22.2357 3.59961 20.7998V3.2002C3.59961 1.76425 4.76426 0.599609 6.2002 0.599609Z" fill="white" stroke="#C8D2E1" stroke-width="1.2"/>
<path d="M13.2 0.6V5.4C13.2 6.72548 14.2745 7.8 15.6 7.8H20.4" stroke="#C8D2E1" stroke-width="1.2" stroke-linecap="round"/>
</g>
<rect y="11.1" width="15" height="9.9" rx="1.6" fill="#3873FF"/>
<path d="M3.89744 13.8682H4.80937V16.9108C4.80937 17.192 4.74616 17.4364 4.61974 17.6437C4.49474 17.8511 4.32074 18.0109 4.09772 18.1232C3.87471 18.2354 3.61548 18.2915 3.32003 18.2915C3.05724 18.2915 2.81861 18.2453 2.60412 18.153C2.39105 18.0592 2.22201 17.9172 2.09701 17.7268C1.97201 17.5351 1.91022 17.2943 1.91165 17.0045H2.82997C2.83281 17.1196 2.85625 17.2183 2.90028 17.3007C2.94574 17.3817 3.00753 17.4442 3.08565 17.4882C3.1652 17.5308 3.25895 17.5521 3.3669 17.5521C3.48054 17.5521 3.57642 17.528 3.65454 17.4797C3.73409 17.43 3.79446 17.3575 3.83565 17.2624C3.87684 17.1672 3.89744 17.05 3.89744 16.9108V13.8682Z" fill="white"/>
<path d="M5.45216 18.2318V13.8682H7.17375C7.50471 13.8682 7.78667 13.9314 8.01963 14.0578C8.25258 14.1828 8.43014 14.3568 8.5523 14.5798C8.67588 14.8014 8.73767 15.0571 8.73767 15.3469C8.73767 15.6366 8.67517 15.8923 8.55017 16.1139C8.42517 16.3355 8.24406 16.5081 8.00684 16.6317C7.77105 16.7553 7.48554 16.817 7.15031 16.817H6.05301V16.0777H7.00116C7.17872 16.0777 7.32503 16.0472 7.44008 15.9861C7.55656 15.9236 7.64321 15.8376 7.70003 15.7283C7.75826 15.6175 7.78738 15.4903 7.78738 15.3469C7.78738 15.202 7.75826 15.0756 7.70003 14.9676C7.64321 14.8582 7.55656 14.7737 7.44008 14.7141C7.32361 14.653 7.17588 14.6224 6.9969 14.6224H6.37474V18.2318H5.45216Z" fill="white"/>
<path d="M12.1104 15.2787C12.0806 15.175 12.0387 15.0834 11.9847 15.0038C11.9307 14.9229 11.8646 14.8547 11.7865 14.7993C11.7098 14.7425 11.6218 14.6991 11.5223 14.6693C11.4243 14.6395 11.3156 14.6246 11.1963 14.6246C10.9733 14.6246 10.7773 14.68 10.6083 14.7908C10.4406 14.9016 10.31 15.0628 10.2162 15.2744C10.1225 15.4847 10.0756 15.7418 10.0756 16.0457C10.0756 16.3497 10.1218 16.6082 10.2141 16.8213C10.3064 17.0344 10.4371 17.197 10.6061 17.3092C10.7752 17.42 10.9747 17.4754 11.2048 17.4754C11.4137 17.4754 11.5919 17.4385 11.7396 17.3646C11.8888 17.2893 12.0024 17.1835 12.0806 17.0472C12.1601 16.9108 12.1999 16.7496 12.1999 16.5635L12.3874 16.5912H11.2624V15.8966H13.0884V16.4463C13.0884 16.8298 13.0074 17.1594 12.8455 17.4349C12.6835 17.7091 12.4605 17.9207 12.1764 18.0699C11.8923 18.2176 11.5671 18.2915 11.2006 18.2915C10.7915 18.2915 10.4321 18.2013 10.1225 18.0209C9.8128 17.8391 9.57133 17.5812 9.39803 17.2474C9.22616 16.9122 9.14022 16.5145 9.14022 16.0543C9.14022 15.7006 9.19135 15.3852 9.29363 15.1082C9.39732 14.8298 9.54221 14.594 9.72829 14.4009C9.91436 14.2077 10.131 14.0607 10.3781 13.9598C10.6253 13.8589 10.8931 13.8085 11.1814 13.8085C11.4286 13.8085 11.6587 13.8447 11.8718 13.9172C12.0848 13.9882 12.2737 14.0891 12.4385 14.2197C12.6047 14.3504 12.7404 14.506 12.8455 14.6864C12.9506 14.8653 13.0181 15.0628 13.0479 15.2787H12.1104Z" fill="white"/>
<defs>
<clipPath id="clip0_1030_40651">
<rect width="18" height="24" fill="white" transform="translate(3)"/>
</clipPath>
</defs>
</svg>
