<svg width="18" height="24" viewBox="0 0 18 24" fill="none" xmlns="http://www.w3.org/2000/svg">
<g clip-path="url(#clip0_1030_40843)">
<path d="M0 3.2C0 1.43269 1.43269 0 3.2 0H10.2L18 7.8V20.8C18 22.5673 16.5673 24 14.8 24H3.2C1.43269 24 0 22.5673 0 20.8V3.2Z" fill="url(#paint0_linear_1030_40843)"/>
<path d="M12.6 7.8H18L10.2 0V5.4C10.2 6.72548 11.2745 7.8 12.6 7.8Z" fill="#DCE2EB"/>
<path d="M3.2002 0.400391H10.0342L17.5996 7.96582V20.7998C17.5996 22.3462 16.3462 23.5996 14.7998 23.5996H3.2002C1.6538 23.5996 0.400391 22.3462 0.400391 20.7998V3.2002C0.400391 1.6538 1.6538 0.400391 3.2002 0.400391Z" stroke="black" stroke-opacity="0.06" stroke-width="0.8"/>
</g>
<path d="M7.65965 15.4364H8.57158V18.479C8.57158 18.7602 8.50837 19.0045 8.38195 19.2119C8.25695 19.4193 8.08294 19.5791 7.85993 19.6913C7.63692 19.8035 7.37769 19.8597 7.08223 19.8597C6.81945 19.8597 6.58081 19.8135 6.36632 19.7212C6.15326 19.6274 5.98422 19.4854 5.85922 19.295C5.73422 19.1033 5.67243 18.8625 5.67385 18.5727H6.59218C6.59502 18.6878 6.61845 18.7865 6.66249 18.8689C6.70794 18.9499 6.76973 19.0124 6.84786 19.0564C6.9274 19.099 7.02115 19.1203 7.12911 19.1203C7.24274 19.1203 7.33862 19.0962 7.41675 19.0479C7.4963 18.9982 7.55666 18.9257 7.59786 18.8305C7.63905 18.7354 7.65965 18.6182 7.65965 18.479V15.4364Z" fill="#344054"/>
<path d="M11.5816 16.6913C11.5645 16.5195 11.4914 16.3859 11.3621 16.2908C11.2328 16.1956 11.0574 16.148 10.8358 16.148C10.6852 16.148 10.5581 16.1693 10.4544 16.2119C10.3507 16.2531 10.2712 16.3107 10.2158 16.3845C10.1618 16.4584 10.1348 16.5422 10.1348 16.6359C10.132 16.7141 10.1483 16.7822 10.1838 16.8405C10.2208 16.8987 10.2712 16.9491 10.3351 16.9918C10.399 17.033 10.4729 17.0692 10.5567 17.1004C10.6405 17.1303 10.73 17.1558 10.8252 17.1771L11.2172 17.2709C11.4075 17.3135 11.5823 17.3703 11.7414 17.4413C11.9004 17.5124 12.0382 17.5997 12.1547 17.7034C12.2712 17.8071 12.3614 17.9293 12.4253 18.0699C12.4906 18.2105 12.524 18.3717 12.5254 18.5535C12.524 18.8206 12.4558 19.0521 12.3209 19.2482C12.1874 19.4428 11.9942 19.594 11.7414 19.702C11.4899 19.8085 11.1867 19.8618 10.8316 19.8618C10.4793 19.8618 10.1725 19.8078 9.9111 19.6999C9.65115 19.5919 9.44803 19.4321 9.30172 19.2205C9.15684 19.0074 9.08084 18.7439 9.07374 18.43H9.96649C9.97644 18.5763 10.0183 18.6984 10.0922 18.7964C10.1675 18.893 10.2676 18.9662 10.3926 19.0159C10.5191 19.0642 10.6618 19.0883 10.8209 19.0883C10.9771 19.0883 11.1128 19.0656 11.2279 19.0202C11.3443 18.9747 11.4345 18.9115 11.4985 18.8305C11.5624 18.7496 11.5943 18.6565 11.5943 18.5514C11.5943 18.4534 11.5652 18.371 11.507 18.3043C11.4502 18.2375 11.3664 18.1807 11.2556 18.1338C11.1462 18.0869 11.0119 18.0443 10.8529 18.006L10.3777 17.8866C10.0098 17.7972 9.71934 17.6572 9.50627 17.4669C9.2932 17.2766 9.18738 17.0202 9.1888 16.6977C9.18738 16.4335 9.25769 16.2027 9.39973 16.0053C9.5432 15.8078 9.73993 15.6537 9.98993 15.5429C10.2399 15.4321 10.524 15.3767 10.8422 15.3767C11.1661 15.3767 11.4487 15.4321 11.6902 15.5429C11.9331 15.6537 12.122 15.8078 12.257 16.0053C12.3919 16.2027 12.4615 16.4314 12.4658 16.6913H11.5816Z" fill="#344054"/>
<defs>
<linearGradient id="paint0_linear_1030_40843" x1="9" y1="0" x2="9" y2="24" gradientUnits="userSpaceOnUse">
<stop stop-color="#F2F6FC"/>
<stop offset="1" stop-color="#EDF1F7"/>
</linearGradient>
<clipPath id="clip0_1030_40843">
<rect width="18" height="24" fill="white"/>
</clipPath>
</defs>
</svg>
