<svg width="18" height="24" viewBox="0 0 18 24" fill="none" xmlns="http://www.w3.org/2000/svg">
<g clip-path="url(#clip0_1030_40855)">
<path d="M0 3.2C0 1.43269 1.43269 0 3.2 0H10.2L18 7.8V20.8C18 22.5673 16.5673 24 14.8 24H3.2C1.43269 24 0 22.5673 0 20.8V3.2Z" fill="url(#paint0_linear_1030_40855)"/>
<path d="M12.6 7.8H18L10.2 0V5.4C10.2 6.72548 11.2745 7.8 12.6 7.8Z" fill="#DCE2EB"/>
<path d="M3.2002 0.400391H10.0342L17.5996 7.96582V20.7998C17.5996 22.3462 16.3462 23.5996 14.7998 23.5996H3.2002C1.6538 23.5996 0.400391 22.3462 0.400391 20.7998V3.2002C0.400391 1.6538 1.6538 0.400391 3.2002 0.400391Z" stroke="black" stroke-opacity="0.06" stroke-width="0.8"/>
</g>
<path d="M3.96924 15.4227H4.78998V18.1611C4.78998 18.4142 4.73309 18.6341 4.61932 18.8207C4.50682 19.0074 4.35021 19.1512 4.1495 19.2522C3.94879 19.3532 3.71548 19.4037 3.44957 19.4037C3.21307 19.4037 2.99829 19.3621 2.80525 19.279C2.61349 19.1947 2.46136 19.0668 2.34886 18.8955C2.23636 18.7229 2.18075 18.5062 2.18203 18.2455H3.00852C3.01108 18.349 3.03217 18.4379 3.0718 18.512C3.11271 18.5849 3.16832 18.6411 3.23863 18.6808C3.31022 18.7191 3.3946 18.7383 3.49176 18.7383C3.59403 18.7383 3.68032 18.7165 3.75064 18.6731C3.82223 18.6283 3.87656 18.5631 3.91363 18.4775C3.95071 18.3918 3.96924 18.2864 3.96924 18.1611V15.4227Z" fill="#344054"/>
<path d="M7.49896 16.5522C7.48362 16.3975 7.41778 16.2773 7.30144 16.1917C7.18511 16.106 7.02722 16.0632 6.82779 16.0632C6.69228 16.0632 6.57786 16.0824 6.48454 16.1207C6.39122 16.1578 6.31963 16.2096 6.26977 16.2761C6.22119 16.3425 6.1969 16.418 6.1969 16.5023C6.19434 16.5727 6.20904 16.634 6.241 16.6864C6.27424 16.7388 6.31963 16.7842 6.37715 16.8226C6.43468 16.8597 6.50116 16.8923 6.57659 16.9204C6.65201 16.9472 6.73255 16.9702 6.8182 16.9894L7.17105 17.0738C7.34235 17.1121 7.4996 17.1633 7.64278 17.2272C7.78596 17.2911 7.90997 17.3697 8.0148 17.4631C8.11963 17.5564 8.2008 17.6663 8.25833 17.7929C8.31714 17.9195 8.34718 18.0646 8.34846 18.2282C8.34718 18.4685 8.28582 18.6769 8.16437 18.8533C8.0442 19.0285 7.87034 19.1646 7.64278 19.2618C7.4165 19.3577 7.14356 19.4056 6.82396 19.4056C6.50691 19.4056 6.23078 19.357 5.99555 19.2599C5.7616 19.1627 5.57879 19.0189 5.44711 18.8284C5.31671 18.6366 5.24832 18.3995 5.24193 18.117H6.04541C6.05436 18.2487 6.09207 18.3586 6.15855 18.4468C6.2263 18.5337 6.31643 18.5996 6.42893 18.6443C6.54271 18.6878 6.67119 18.7095 6.81437 18.7095C6.95499 18.7095 7.07708 18.6891 7.18063 18.6482C7.28546 18.6072 7.36664 18.5504 7.42417 18.4775C7.4817 18.4046 7.51046 18.3209 7.51046 18.2263C7.51046 18.1381 7.48426 18.0639 7.43184 18.0038C7.3807 17.9437 7.30528 17.8926 7.20556 17.8504C7.10713 17.8082 6.98632 17.7699 6.84313 17.7354L6.41551 17.628C6.0844 17.5474 5.82296 17.4215 5.6312 17.2502C5.43944 17.0789 5.3442 16.8482 5.34548 16.558C5.3442 16.3202 5.40748 16.1124 5.53532 15.9347C5.66444 15.757 5.8415 15.6183 6.0665 15.5186C6.2915 15.4189 6.54718 15.369 6.83355 15.369C7.12502 15.369 7.37943 15.4189 7.59676 15.5186C7.81536 15.6183 7.98539 15.757 8.10684 15.9347C8.22829 16.1124 8.29093 16.3183 8.29477 16.5522H7.49896Z" fill="#344054"/>
<path d="M12.4079 17.3864C12.4079 17.8146 12.3267 18.179 12.1644 18.4794C12.0033 18.7798 11.7834 19.0093 11.5047 19.1678C11.2273 19.3251 10.9154 19.4037 10.5689 19.4037C10.2199 19.4037 9.90671 19.3244 9.62929 19.1659C9.35188 19.0074 9.13263 18.7779 8.97155 18.4775C8.81047 18.1771 8.72993 17.8134 8.72993 17.3864C8.72993 16.9581 8.81047 16.5938 8.97155 16.2933C9.13263 15.9929 9.35188 15.7641 9.62929 15.6068C9.90671 15.4483 10.2199 15.369 10.5689 15.369C10.9154 15.369 11.2273 15.4483 11.5047 15.6068C11.7834 15.7641 12.0033 15.9929 12.1644 16.2933C12.3267 16.5938 12.4079 16.9581 12.4079 17.3864ZM11.5661 17.3864C11.5661 17.1089 11.5245 16.875 11.4414 16.6845C11.3596 16.494 11.2439 16.3496 11.0943 16.2511C10.9448 16.1527 10.7696 16.1035 10.5689 16.1035C10.3682 16.1035 10.1931 16.1527 10.0435 16.2511C9.89392 16.3496 9.77759 16.494 9.69449 16.6845C9.61267 16.875 9.57176 17.1089 9.57176 17.3864C9.57176 17.6638 9.61267 17.8977 9.69449 18.0882C9.77759 18.2787 9.89392 18.4232 10.0435 18.5216C10.1931 18.62 10.3682 18.6692 10.5689 18.6692C10.7696 18.6692 10.9448 18.62 11.0943 18.5216C11.2439 18.4232 11.3596 18.2787 11.4414 18.0882C11.5245 17.8977 11.5661 17.6638 11.5661 17.3864Z" fill="#344054"/>
<path d="M16.1999 15.4227V19.35H15.4827L13.7741 16.8782H13.7453V19.35H12.915V15.4227H13.6437L15.3389 17.8926H15.3734V15.4227H16.1999Z" fill="#344054"/>
<defs>
<linearGradient id="paint0_linear_1030_40855" x1="9" y1="0" x2="9" y2="24" gradientUnits="userSpaceOnUse">
<stop stop-color="#F2F6FC"/>
<stop offset="1" stop-color="#EDF1F7"/>
</linearGradient>
<clipPath id="clip0_1030_40855">
<rect width="18" height="24" fill="white"/>
</clipPath>
</defs>
</svg>
