<svg width="28" height="32" viewBox="0 0 28 32" fill="none" xmlns="http://www.w3.org/2000/svg">
<g clip-path="url(#clip0_1030_40735)">
<path d="M7.2002 0.599609H17.752L27.4004 10.248V28.7998C27.4004 30.2357 26.2357 31.4004 24.7998 31.4004H7.2002C5.76425 31.4004 4.59961 30.2357 4.59961 28.7998V3.2002C4.59961 1.76425 5.76426 0.599609 7.2002 0.599609Z" fill="white" stroke="#C8D2E1" stroke-width="1.2"/>
<path d="M17.6 0.799999V8C17.6 9.32548 18.6745 10.4 20 10.4H27.2" stroke="#C8D2E1" stroke-width="1.2" stroke-linecap="round"/>
</g>
<rect y="11.1" width="16.5" height="9.9" rx="1.6" fill="#6E45F0"/>
<path d="M2.04932 13.8682H3.1871L4.38881 16.8H4.43994L5.64165 13.8682H6.77943V18.2318H5.88454V15.3916H5.84832L4.71906 18.2105H4.10969L2.98042 15.381H2.9442V18.2318H2.04932V13.8682Z" fill="white"/>
<path d="M7.41955 18.2318V13.8682H9.14114C9.47211 13.8682 9.75407 13.9314 9.98702 14.0578C10.22 14.1828 10.3975 14.3568 10.5197 14.5798C10.6433 14.8014 10.7051 15.0571 10.7051 15.3469C10.7051 15.6366 10.6426 15.8923 10.5176 16.1139C10.3926 16.3355 10.2115 16.5081 9.97424 16.6317C9.73844 16.7553 9.45293 16.817 9.1177 16.817H8.0204V16.0777H8.96856C9.14611 16.0777 9.29242 16.0472 9.40748 15.9861C9.52395 15.9236 9.6106 15.8376 9.66742 15.7283C9.72566 15.6175 9.75478 15.4903 9.75478 15.3469C9.75478 15.202 9.72566 15.0756 9.66742 14.9676C9.6106 14.8582 9.52395 14.7737 9.40748 14.7141C9.291 14.653 9.14327 14.6224 8.9643 14.6224H8.34214V18.2318H7.41955Z" fill="white"/>
<path d="M12.7717 18.2915C12.4535 18.2915 12.1701 18.2368 11.9215 18.1274C11.6744 18.0166 11.4791 17.8646 11.3356 17.6714C11.1936 17.4768 11.1204 17.2524 11.1161 16.9982H12.0451C12.0508 17.1047 12.0856 17.1984 12.1495 17.2794C12.2149 17.3589 12.3015 17.4207 12.4095 17.4648C12.5174 17.5088 12.6389 17.5308 12.7738 17.5308C12.9144 17.5308 13.0387 17.506 13.1467 17.4562C13.2546 17.4065 13.3391 17.3376 13.4002 17.2496C13.4613 17.1615 13.4918 17.0599 13.4918 16.9449C13.4918 16.8284 13.4592 16.7254 13.3938 16.6359C13.3299 16.545 13.2376 16.474 13.1168 16.4229C12.9975 16.3717 12.8555 16.3462 12.6907 16.3462H12.2837V15.6686H12.6907C12.8299 15.6686 12.9528 15.6445 13.0593 15.5962C13.1673 15.5479 13.2511 15.4811 13.3107 15.3959C13.3704 15.3092 13.4002 15.2084 13.4002 15.0933C13.4002 14.9839 13.3739 14.8881 13.3214 14.8057C13.2703 14.7219 13.1978 14.6565 13.1041 14.6097C13.0117 14.5628 12.9038 14.5393 12.7802 14.5393C12.6552 14.5393 12.5409 14.5621 12.4372 14.6075C12.3335 14.6516 12.2504 14.7148 12.1879 14.7972C12.1254 14.8795 12.092 14.9761 12.0877 15.0869H11.2035C11.2078 14.8355 11.2795 14.6139 11.4187 14.4222C11.5579 14.2304 11.7454 14.0805 11.9812 13.9726C12.2184 13.8632 12.4862 13.8085 12.7845 13.8085C13.0856 13.8085 13.3491 13.8632 13.5749 13.9726C13.8008 14.082 13.9762 14.2297 14.1012 14.4158C14.2276 14.6004 14.2901 14.8078 14.2887 15.0379C14.2901 15.2822 14.2141 15.4861 14.0607 15.6494C13.9087 15.8128 13.7106 15.9165 13.4663 15.9605V15.9946C13.7873 16.0358 14.0316 16.1473 14.1992 16.3291C14.3683 16.5095 14.4521 16.7354 14.4507 17.0067C14.4521 17.2553 14.3803 17.4761 14.2355 17.6693C14.092 17.8625 13.8938 18.0145 13.641 18.1253C13.3882 18.2361 13.0984 18.2915 12.7717 18.2915Z" fill="white"/>
<defs>
<clipPath id="clip0_1030_40735">
<rect width="24" height="32" fill="white" transform="translate(4)"/>
</clipPath>
</defs>
</svg>
