<svg width="21" height="24" viewBox="0 0 21 24" fill="none" xmlns="http://www.w3.org/2000/svg">
<g clip-path="url(#clip0_1030_40591)">
<path d="M6.2002 0.599609H13.252L20.4004 7.74805V20.7998C20.4004 22.2357 19.2357 23.4004 17.7998 23.4004H6.2002C4.76425 23.4004 3.59961 22.2357 3.59961 20.7998V3.2002C3.59961 1.76425 4.76426 0.599609 6.2002 0.599609Z" fill="white" stroke="#C8D2E1" stroke-width="1.2"/>
<path d="M13.2 0.6V5.4C13.2 6.72548 14.2745 7.8 15.6 7.8H20.4" stroke="#C8D2E1" stroke-width="1.2" stroke-linecap="round"/>
</g>
<rect y="11.1" width="16.5" height="9.9" rx="1.6" fill="#6E45F0"/>
<path d="M1.96942 13.8682H3.10721L4.30891 16.8H4.36005L5.56175 13.8682H6.69953V18.2318H5.80465V15.3916H5.76843L4.63917 18.2105H4.02979L2.90053 15.381H2.86431V18.2318H1.96942V13.8682Z" fill="white"/>
<path d="M7.33966 18.2318V13.8682H9.06125C9.39221 13.8682 9.67417 13.9314 9.90713 14.0578C10.1401 14.1828 10.3176 14.3568 10.4398 14.5798C10.5634 14.8014 10.6252 15.0571 10.6252 15.3469C10.6252 15.6366 10.5627 15.8923 10.4377 16.1139C10.3127 16.3355 10.1316 16.5081 9.89434 16.6317C9.65855 16.7553 9.37304 16.817 9.03781 16.817H7.94051V16.0777H8.88866C9.06622 16.0777 9.21253 16.0472 9.32758 15.9861C9.44406 15.9236 9.53071 15.8376 9.58753 15.7283C9.64576 15.6175 9.67488 15.4903 9.67488 15.3469C9.67488 15.202 9.64576 15.0756 9.58753 14.9676C9.53071 14.8582 9.44406 14.7737 9.32758 14.7141C9.2111 14.653 9.06338 14.6224 8.8844 14.6224H8.26224V18.2318H7.33966Z" fill="white"/>
<path d="M11.0128 17.4648V16.7382L12.8345 13.8682H13.461V14.8739H13.0902L11.9418 16.6913V16.7254H14.5306V17.4648H11.0128ZM13.1073 18.2318V17.2432L13.1243 16.9214V13.8682H13.9894V18.2318H13.1073Z" fill="white"/>
<defs>
<clipPath id="clip0_1030_40591">
<rect width="18" height="24" fill="white" transform="translate(3)"/>
</clipPath>
</defs>
</svg>
