<svg width="18" height="24" viewBox="0 0 18 24" fill="none" xmlns="http://www.w3.org/2000/svg">
<g clip-path="url(#clip0_1030_41028)">
<path d="M0 3.2C0 1.43269 1.43269 0 3.2 0H10.2L18 7.8V20.8C18 22.5673 16.5673 24 14.8 24H3.2C1.43269 24 0 22.5673 0 20.8V3.2Z" fill="#6E45F0"/>
<path d="M12.6 7.8H18L10.2 0V5.4C10.2 6.72548 11.2745 7.8 12.6 7.8Z" fill="white" fill-opacity="0.5"/>
</g>
<path d="M2.92856 15.4364H4.06634L5.26805 18.3682H5.31918L6.52089 15.4364H7.65867V19.8H6.76379V16.9598H6.72756L5.5983 19.7787H4.98893L3.85967 16.9492H3.82344V19.8H2.92856V15.4364Z" fill="white"/>
<path d="M8.29879 19.8V15.4364H10.0204C10.3513 15.4364 10.6333 15.4996 10.8663 15.626C11.0992 15.751 11.2768 15.925 11.3989 16.148C11.5225 16.3696 11.5843 16.6253 11.5843 16.9151C11.5843 17.2048 11.5218 17.4605 11.3968 17.6821C11.2718 17.9037 11.0907 18.0763 10.8535 18.1999C10.6177 18.3234 10.3322 18.3852 9.99695 18.3852H8.89965V17.6459H9.8478C10.0254 17.6459 10.1717 17.6153 10.2867 17.5543C10.4032 17.4918 10.4898 17.4058 10.5467 17.2965C10.6049 17.1857 10.634 17.0585 10.634 16.9151C10.634 16.7702 10.6049 16.6438 10.5467 16.5358C10.4898 16.4264 10.4032 16.3419 10.2867 16.2823C10.1702 16.2212 10.0225 16.1906 9.84354 16.1906H9.22138V19.8H8.29879Z" fill="white"/>
<path d="M11.9719 19.033V18.3064L13.7937 15.4364H14.4201V16.4421H14.0494L12.9009 18.2595V18.2936H15.4897V19.033H11.9719ZM14.0664 19.8V18.8114L14.0834 18.4896V15.4364H14.9485V19.8H14.0664Z" fill="white"/>
<defs>
<clipPath id="clip0_1030_41028">
<rect width="18" height="24" fill="white"/>
</clipPath>
</defs>
</svg>
