<svg width="18" height="24" viewBox="0 0 18 24" fill="none" xmlns="http://www.w3.org/2000/svg">
<g clip-path="url(#clip0_1030_41108)">
<path d="M0 3.2C0 1.43269 1.43269 0 3.2 0H10.2L18 7.8V20.8C18 22.5673 16.5673 24 14.8 24H3.2C1.43269 24 0 22.5673 0 20.8V3.2Z" fill="#6E45F0"/>
<path d="M12.6 7.8H18L10.2 0V5.4C10.2 6.72548 11.2745 7.8 12.6 7.8Z" fill="white" fill-opacity="0.5"/>
</g>
<path d="M2.75452 15.4364H3.8923L5.09401 18.3682H5.14514L6.34685 15.4364H7.48463V19.8H6.58974V16.9598H6.55352L5.42426 19.7787H4.81489L3.68562 16.9492H3.6494V19.8H2.75452V15.4364Z" fill="white"/>
<path d="M8.12475 19.8V15.4364H9.84634C10.1773 15.4364 10.4593 15.4996 10.6922 15.626C10.9252 15.751 11.1027 15.925 11.2249 16.148C11.3485 16.3696 11.4103 16.6253 11.4103 16.9151C11.4103 17.2048 11.3478 17.4605 11.2228 17.6821C11.0978 17.9037 10.9167 18.0763 10.6794 18.1999C10.4436 18.3234 10.1581 18.3852 9.8229 18.3852H8.7256V17.6459H9.67376C9.85131 17.6459 9.99762 17.6153 10.1127 17.5543C10.2292 17.4918 10.3158 17.4058 10.3726 17.2965C10.4309 17.1857 10.46 17.0585 10.46 16.9151C10.46 16.7702 10.4309 16.6438 10.3726 16.5358C10.3158 16.4264 10.2292 16.3419 10.1127 16.2822C9.9962 16.2212 9.84847 16.1906 9.6695 16.1906H9.04734V19.8H8.12475Z" fill="white"/>
<path d="M14.783 16.8469C14.7532 16.7432 14.7112 16.6516 14.6573 16.572C14.6033 16.4911 14.5372 16.4229 14.4591 16.3675C14.3824 16.3107 14.2943 16.2673 14.1949 16.2375C14.0969 16.2077 13.9882 16.1928 13.8689 16.1928C13.6459 16.1928 13.4499 16.2482 13.2809 16.359C13.1132 16.4697 12.9826 16.631 12.8888 16.8426C12.7951 17.0528 12.7482 17.3099 12.7482 17.6139C12.7482 17.9179 12.7943 18.1764 12.8867 18.3895C12.979 18.6026 13.1097 18.7652 13.2787 18.8774C13.4478 18.9882 13.6473 19.0436 13.8774 19.0436C14.0862 19.0436 14.2645 19.0067 14.4122 18.9328C14.5614 18.8575 14.675 18.7517 14.7532 18.6153C14.8327 18.479 14.8725 18.3178 14.8725 18.1317L15.06 18.1594H13.935V17.4648H15.761V18.0145C15.761 18.398 15.68 18.7276 15.5181 19.0031C15.3561 19.2773 15.1331 19.4889 14.849 19.6381C14.5649 19.7858 14.2397 19.8597 13.8732 19.8597C13.4641 19.8597 13.1047 19.7695 12.7951 19.5891C12.4854 19.4072 12.2439 19.1494 12.0706 18.8156C11.8987 18.4804 11.8128 18.0827 11.8128 17.6224C11.8128 17.2688 11.8639 16.9534 11.9662 16.6764C12.0699 16.398 12.2148 16.1622 12.4009 15.969C12.587 15.7759 12.8036 15.6288 13.0507 15.528C13.2979 15.4271 13.5657 15.3767 13.854 15.3767C14.1012 15.3767 14.3313 15.4129 14.5443 15.4854C14.7574 15.5564 14.9463 15.6572 15.1111 15.7879C15.2773 15.9186 15.413 16.0742 15.5181 16.2545C15.6232 16.4335 15.6907 16.631 15.7205 16.8469H14.783Z" fill="white"/>
<defs>
<clipPath id="clip0_1030_41108">
<rect width="18" height="24" fill="white"/>
</clipPath>
</defs>
</svg>
