<svg width="18" height="24" viewBox="0 0 18 24" fill="none" xmlns="http://www.w3.org/2000/svg">
<g clip-path="url(#clip0_1030_41003)">
<path d="M0 3.2C0 1.43269 1.43269 0 3.2 0H10.2L18 7.8V20.8C18 22.5673 16.5673 24 14.8 24H3.2C1.43269 24 0 22.5673 0 20.8V3.2Z" fill="#344054"/>
<path d="M12.6 7.8H18L10.2 0V5.4C10.2 6.72548 11.2745 7.8 12.6 7.8Z" fill="white" fill-opacity="0.5"/>
</g>
<path d="M3.69262 19.8V15.4364H5.41421C5.74376 15.4364 6.02501 15.4953 6.25796 15.6132C6.49234 15.7297 6.6706 15.8952 6.79276 16.1097C6.91634 16.3227 6.97813 16.5734 6.97813 16.8618C6.97813 17.1516 6.91563 17.4009 6.79063 17.6097C6.66563 17.8171 6.48452 17.9761 6.24731 18.0869C6.01151 18.1977 5.726 18.2531 5.39077 18.2531H4.23807V17.5117H5.24163C5.41776 17.5117 5.56407 17.4875 5.68055 17.4392C5.79702 17.3909 5.88367 17.3185 5.94049 17.2219C5.99873 17.1253 6.02785 17.0053 6.02785 16.8618C6.02785 16.7169 5.99873 16.5948 5.94049 16.4953C5.88367 16.3959 5.79631 16.3206 5.67842 16.2695C5.56194 16.2169 5.41492 16.1906 5.23736 16.1906H4.6152V19.8H3.69262ZM6.04915 17.8142L7.13367 19.8H6.1152L5.05413 17.8142H6.04915Z" fill="white"/>
<path d="M8.26225 19.8H7.27361L8.78001 15.4364H9.96893L11.4732 19.8H10.4846L9.39151 16.4335H9.35742L8.26225 19.8ZM8.20046 18.0848H10.5357V18.805H8.20046V18.0848Z" fill="white"/>
<path d="M11.8784 19.8V15.4364H13.6C13.9295 15.4364 14.2108 15.4953 14.4437 15.6132C14.6781 15.7297 14.8564 15.8952 14.9785 16.1097C15.1021 16.3227 15.1639 16.5734 15.1639 16.8618C15.1639 17.1516 15.1014 17.4009 14.9764 17.6097C14.8514 17.8171 14.6703 17.9761 14.4331 18.0869C14.1973 18.1977 13.9118 18.2531 13.5766 18.2531H12.4239V17.5117H13.4274C13.6035 17.5117 13.7499 17.4875 13.8663 17.4392C13.9828 17.3909 14.0695 17.3185 14.1263 17.2219C14.1845 17.1253 14.2136 17.0053 14.2136 16.8618C14.2136 16.7169 14.1845 16.5948 14.1263 16.4953C14.0695 16.3959 13.9821 16.3206 13.8642 16.2695C13.7477 16.2169 13.6007 16.1906 13.4231 16.1906H12.801V19.8H11.8784ZM14.2349 17.8142L15.3195 19.8H14.301L13.2399 17.8142H14.2349Z" fill="white"/>
<defs>
<clipPath id="clip0_1030_41003">
<rect width="18" height="24" fill="white"/>
</clipPath>
</defs>
</svg>
