<svg width="21" height="24" viewBox="0 0 21 24" fill="none" xmlns="http://www.w3.org/2000/svg">
<g clip-path="url(#clip0_1030_40561)">
<path d="M6.2002 0.599609H13.252L20.4004 7.74805V20.7998C20.4004 22.2357 19.2357 23.4004 17.7998 23.4004H6.2002C4.76425 23.4004 3.59961 22.2357 3.59961 20.7998V3.2002C3.59961 1.76425 4.76426 0.599609 6.2002 0.599609Z" fill="white" stroke="#C8D2E1" stroke-width="1.2"/>
<path d="M13.2 0.6V5.4C13.2 6.72548 14.2745 7.8 15.6 7.8H20.4" stroke="#C8D2E1" stroke-width="1.2" stroke-linecap="round"/>
</g>
<rect y="11.1" width="15.75" height="9.9" rx="1.6" fill="#344054"/>
<path d="M2.06158 18.2318V13.8682H3.78318C4.11272 13.8682 4.39397 13.9271 4.62693 14.045C4.8613 14.1615 5.03957 14.327 5.16173 14.5415C5.28531 14.7545 5.3471 15.0053 5.3471 15.2936C5.3471 15.5834 5.2846 15.8327 5.1596 16.0415C5.0346 16.2489 4.85349 16.408 4.61627 16.5187C4.38048 16.6295 4.09497 16.6849 3.75974 16.6849H2.60704V15.9435H3.61059C3.78673 15.9435 3.93303 15.9193 4.04951 15.871C4.16599 15.8227 4.25264 15.7503 4.30945 15.6537C4.36769 15.5571 4.39681 15.4371 4.39681 15.2936C4.39681 15.1487 4.36769 15.0266 4.30945 14.9271C4.25264 14.8277 4.16528 14.7524 4.04738 14.7013C3.9309 14.6487 3.78389 14.6224 3.60633 14.6224H2.98417V18.2318H2.06158ZM4.41812 16.246L5.50264 18.2318H4.48417L3.42309 16.246H4.41812Z" fill="white"/>
<path d="M6.63122 18.2318H5.64258L7.14897 13.8682H8.33789L9.84215 18.2318H8.85352L7.76048 14.8653H7.72639L6.63122 18.2318ZM6.56943 16.5166H8.90465V17.2368H6.56943V16.5166Z" fill="white"/>
<path d="M10.2474 18.2318V13.8682H11.969C12.2985 13.8682 12.5798 13.9271 12.8127 14.045C13.0471 14.1615 13.2254 14.327 13.3475 14.5415C13.4711 14.7545 13.5329 15.0053 13.5329 15.2936C13.5329 15.5834 13.4704 15.8327 13.3454 16.0415C13.2204 16.2489 13.0393 16.408 12.8021 16.5187C12.5663 16.6295 12.2807 16.6849 11.9455 16.6849H10.7928V15.9435H11.7964C11.9725 15.9435 12.1188 15.9193 12.2353 15.871C12.3518 15.8227 12.4384 15.7503 12.4952 15.6537C12.5535 15.5571 12.5826 15.4371 12.5826 15.2936C12.5826 15.1487 12.5535 15.0266 12.4952 14.9271C12.4384 14.8277 12.3511 14.7524 12.2332 14.7013C12.1167 14.6487 11.9697 14.6224 11.7921 14.6224H11.17V18.2318H10.2474ZM12.6039 16.246L13.6884 18.2318H12.67L11.6089 16.246H12.6039Z" fill="white"/>
<defs>
<clipPath id="clip0_1030_40561">
<rect width="18" height="24" fill="white" transform="translate(3)"/>
</clipPath>
</defs>
</svg>
