<svg width="18" height="24" viewBox="0 0 18 24" fill="none" xmlns="http://www.w3.org/2000/svg">
<g clip-path="url(#clip0_1030_41163)">
<path d="M0 3.2C0 1.43269 1.43269 0 3.2 0H10.2L18 7.8V20.8C18 22.5673 16.5673 24 14.8 24H3.2C1.43269 24 0 22.5673 0 20.8V3.2Z" fill="#FFBA35"/>
<path d="M12.6 7.8H18L10.2 0V5.4C10.2 6.72548 11.2745 7.8 12.6 7.8Z" fill="white" fill-opacity="0.5"/>
</g>
<path d="M3.71218 16.7131C3.69855 16.5756 3.64002 16.4687 3.53661 16.3926C3.43321 16.3165 3.29286 16.2784 3.11559 16.2784C2.99514 16.2784 2.89343 16.2955 2.81048 16.3295C2.72752 16.3625 2.66389 16.4085 2.61957 16.4676C2.57639 16.5267 2.5548 16.5937 2.5548 16.6687C2.55252 16.7312 2.56559 16.7858 2.594 16.8324C2.62355 16.879 2.66389 16.9193 2.71502 16.9534C2.76616 16.9864 2.82525 17.0153 2.8923 17.0403C2.95934 17.0642 3.03093 17.0847 3.10707 17.1017L3.42071 17.1767C3.57298 17.2108 3.71275 17.2562 3.84002 17.3131C3.9673 17.3699 4.07752 17.4398 4.17071 17.5227C4.26389 17.6057 4.33605 17.7034 4.38718 17.8159C4.43946 17.9284 4.46616 18.0574 4.4673 18.2028C4.46616 18.4165 4.41161 18.6017 4.30366 18.7585C4.19684 18.9142 4.0423 19.0352 3.84002 19.1216C3.63889 19.2068 3.39627 19.2494 3.11218 19.2494C2.83036 19.2494 2.58491 19.2062 2.37582 19.1199C2.16786 19.0335 2.00536 18.9057 1.88832 18.7364C1.77241 18.5659 1.71161 18.3551 1.70593 18.104H2.42014C2.42809 18.221 2.46161 18.3187 2.52071 18.3972C2.58093 18.4744 2.66105 18.533 2.76105 18.5727C2.86218 18.6114 2.97639 18.6307 3.10366 18.6307C3.22866 18.6307 3.33718 18.6125 3.42923 18.5761C3.52241 18.5398 3.59457 18.4892 3.64571 18.4244C3.69684 18.3597 3.72241 18.2852 3.72241 18.2011C3.72241 18.1227 3.69911 18.0568 3.65252 18.0034C3.60707 17.95 3.54002 17.9045 3.45139 17.867C3.36389 17.8295 3.2565 17.7955 3.12923 17.7648L2.74911 17.6693C2.4548 17.5977 2.22241 17.4858 2.05196 17.3335C1.8815 17.1812 1.79684 16.9761 1.79798 16.7182C1.79684 16.5068 1.85309 16.3222 1.96673 16.1642C2.0815 16.0062 2.23889 15.883 2.43889 15.7943C2.63889 15.7057 2.86616 15.6614 3.12071 15.6614C3.3798 15.6614 3.60593 15.7057 3.79911 15.7943C3.99343 15.883 4.14457 16.0062 4.25252 16.1642C4.36048 16.3222 4.41616 16.5051 4.41957 16.7131H3.71218Z" fill="white"/>
<path d="M5.51206 18.4466L5.51377 17.5756H5.61945L6.45809 16.5818H7.29161L6.1649 17.8977H5.99275L5.51206 18.4466ZM4.85411 19.2V15.7091H5.58025V19.2H4.85411ZM6.49047 19.2L5.72002 18.0597L6.20411 17.5466L7.34104 19.2H6.49047Z" fill="white"/>
<path d="M8.63723 19.2511C8.36791 19.2511 8.13609 19.1966 7.94177 19.0875C7.74859 18.9773 7.59973 18.8216 7.49518 18.6205C7.39064 18.4182 7.33836 18.179 7.33836 17.9028C7.33836 17.6335 7.39064 17.3972 7.49518 17.1937C7.59973 16.9903 7.74689 16.8318 7.93666 16.7182C8.12757 16.6045 8.35143 16.5477 8.60825 16.5477C8.78098 16.5477 8.94177 16.5756 9.09064 16.6312C9.24064 16.6858 9.37132 16.7682 9.48268 16.8784C9.59518 16.9886 9.68268 17.1273 9.74518 17.2943C9.80768 17.4602 9.83893 17.6545 9.83893 17.8773V18.0767H7.62814V17.6267H9.15541C9.15541 17.5222 9.13268 17.4295 9.08723 17.3489C9.04177 17.2682 8.97871 17.2051 8.89802 17.1597C8.81848 17.1131 8.72586 17.0898 8.62018 17.0898C8.50996 17.0898 8.41223 17.1153 8.327 17.1665C8.24291 17.2165 8.177 17.2841 8.12927 17.3693C8.08155 17.4534 8.05711 17.5472 8.05598 17.6506V18.0784C8.05598 18.208 8.07984 18.3199 8.12757 18.4142C8.17643 18.5085 8.24518 18.5812 8.33382 18.6324C8.42246 18.6835 8.52757 18.7091 8.64916 18.7091C8.72984 18.7091 8.80371 18.6977 8.87075 18.675C8.9378 18.6523 8.99518 18.6182 9.04291 18.5727C9.09064 18.5273 9.127 18.4716 9.152 18.4057L9.82359 18.45C9.7895 18.6114 9.71961 18.7523 9.61393 18.8727C9.50939 18.992 9.37416 19.0852 9.20825 19.1523C9.04348 19.2182 8.85314 19.2511 8.63723 19.2511Z" fill="white"/>
<path d="M11.6094 16.5818V17.1273H10.0327V16.5818H11.6094ZM10.3907 15.9545H11.1168V18.3955C11.1168 18.4625 11.127 18.5148 11.1475 18.5523C11.1679 18.5886 11.1963 18.6142 11.2327 18.629C11.2702 18.6437 11.3134 18.6511 11.3623 18.6511C11.3963 18.6511 11.4304 18.6483 11.4645 18.6426C11.4986 18.6358 11.5248 18.6307 11.5429 18.6273L11.6571 19.1676C11.6208 19.179 11.5696 19.192 11.5037 19.2068C11.4378 19.2227 11.3577 19.2324 11.2634 19.2358C11.0884 19.2426 10.935 19.2193 10.8032 19.1659C10.6725 19.1125 10.5708 19.0295 10.498 18.917C10.4253 18.8045 10.3895 18.6625 10.3907 18.4909V15.9545Z" fill="white"/>
<path d="M13.1413 19.2511C12.8731 19.2511 12.6424 19.1943 12.4492 19.0807C12.2572 18.9659 12.1094 18.8068 12.006 18.6034C11.9038 18.4 11.8526 18.1659 11.8526 17.9011C11.8526 17.633 11.9043 17.3977 12.0077 17.1955C12.1123 16.992 12.2606 16.8335 12.4526 16.7199C12.6447 16.6051 12.8731 16.5477 13.1378 16.5477C13.3663 16.5477 13.5663 16.5892 13.7378 16.6722C13.9094 16.7551 14.0452 16.8716 14.1452 17.0216C14.2452 17.1716 14.3003 17.3477 14.3106 17.55H13.6253C13.606 17.4193 13.5549 17.3142 13.4719 17.2347C13.3901 17.154 13.2827 17.1136 13.1498 17.1136C13.0373 17.1136 12.939 17.1443 12.8549 17.2057C12.7719 17.2659 12.7072 17.354 12.6606 17.4699C12.614 17.5858 12.5907 17.7261 12.5907 17.8909C12.5907 18.058 12.6134 18.2 12.6589 18.317C12.7055 18.4341 12.7708 18.5233 12.8549 18.5847C12.939 18.646 13.0373 18.6767 13.1498 18.6767C13.2327 18.6767 13.3072 18.6597 13.3731 18.6256C13.4401 18.5915 13.4952 18.542 13.5384 18.4773C13.5827 18.4114 13.6117 18.3324 13.6253 18.2403H14.3106C14.2992 18.4403 14.2447 18.6165 14.1469 18.7687C14.0503 18.9199 13.9168 19.0381 13.7464 19.1233C13.5759 19.2085 13.3742 19.2511 13.1413 19.2511Z" fill="white"/>
<path d="M15.4056 17.6864V19.2H14.6795V15.7091H15.3852V17.0437H15.4158C15.4749 16.8892 15.5704 16.7682 15.7022 16.6807C15.834 16.592 15.9994 16.5477 16.1982 16.5477C16.3801 16.5477 16.5386 16.5875 16.6738 16.667C16.8102 16.7455 16.9158 16.8585 16.9908 17.0062C17.067 17.1528 17.1045 17.3284 17.1033 17.533V19.2H16.3772V17.6625C16.3783 17.5011 16.3374 17.3756 16.2545 17.2858C16.1727 17.196 16.0579 17.1511 15.9102 17.1511C15.8113 17.1511 15.7238 17.1722 15.6477 17.2142C15.5727 17.2562 15.5136 17.3176 15.4704 17.3983C15.4283 17.4778 15.4068 17.5739 15.4056 17.6864Z" fill="white"/>
<defs>
<clipPath id="clip0_1030_41163">
<rect width="18" height="24" fill="white"/>
</clipPath>
</defs>
</svg>
