<svg width="18" height="24" viewBox="0 0 18 24" fill="none" xmlns="http://www.w3.org/2000/svg">
<g clip-path="url(#clip0_1030_41058)">
<path d="M0 3.2C0 1.43269 1.43269 0 3.2 0H10.2L18 7.8V20.8C18 22.5673 16.5673 24 14.8 24H3.2C1.43269 24 0 22.5673 0 20.8V3.2Z" fill="#3873FF"/>
<path d="M12.6 7.8H18L10.2 0V5.4C10.2 6.72548 11.2745 7.8 12.6 7.8Z" fill="white" fill-opacity="0.5"/>
</g>
<path d="M5.57233 16.6913C5.55528 16.5195 5.48213 16.3859 5.35287 16.2908C5.2236 16.1956 5.04818 16.148 4.82659 16.148C4.67602 16.148 4.54889 16.1693 4.4452 16.2119C4.3415 16.2531 4.26196 16.3107 4.20656 16.3845C4.15258 16.4584 4.12559 16.5422 4.12559 16.6359C4.12275 16.7141 4.13909 16.7822 4.1746 16.8405C4.21153 16.8987 4.26196 16.9492 4.32588 16.9918C4.3898 17.033 4.46366 17.0692 4.54747 17.1004C4.63128 17.1303 4.72076 17.1558 4.81593 17.1771L5.20798 17.2709C5.39832 17.3135 5.57304 17.3703 5.73213 17.4413C5.89122 17.5124 6.029 17.5997 6.14548 17.7034C6.26196 17.8071 6.35216 17.9293 6.41608 18.0699C6.48142 18.2105 6.5148 18.3717 6.51622 18.5536C6.5148 18.8206 6.44662 19.0521 6.31167 19.2482C6.17815 19.4428 5.98497 19.594 5.73213 19.702C5.48071 19.8085 5.17744 19.8618 4.82233 19.8618C4.47005 19.8618 4.16324 19.8078 3.90187 19.6999C3.64193 19.5919 3.4388 19.4321 3.2925 19.2205C3.14761 19.0074 3.07162 18.7439 3.06451 18.43H3.95727C3.96721 18.5763 4.00912 18.6984 4.08298 18.7965C4.15826 18.893 4.25841 18.9662 4.38341 19.0159C4.50983 19.0642 4.65258 19.0884 4.81167 19.0884C4.96792 19.0884 5.10358 19.0656 5.21863 19.0202C5.33511 18.9747 5.42531 18.9115 5.48923 18.8305C5.55315 18.7496 5.58511 18.6565 5.58511 18.5514C5.58511 18.4534 5.55599 18.371 5.49775 18.3043C5.44093 18.2375 5.35713 18.1807 5.24633 18.1338C5.13696 18.0869 5.00272 18.0443 4.84363 18.006L4.36849 17.8867C4.00059 17.7972 3.71011 17.6572 3.49704 17.4669C3.28397 17.2766 3.17815 17.0202 3.17957 16.6977C3.17815 16.4335 3.24846 16.2027 3.39051 16.0053C3.53397 15.8078 3.73071 15.6537 3.98071 15.5429C4.23071 15.4321 4.5148 15.3767 4.83298 15.3767C5.15684 15.3767 5.43951 15.4321 5.68099 15.5429C5.92389 15.6537 6.11281 15.8078 6.24775 16.0053C6.3827 16.2027 6.4523 16.4314 6.45656 16.6913H5.57233Z" fill="white"/>
<path d="M7.80513 15.4364L8.85982 18.7517H8.9003L9.95712 15.4364H10.9798L9.47559 19.8H8.28667L6.78027 15.4364H7.80513Z" fill="white"/>
<path d="M14.0324 16.8469C14.0026 16.7432 13.9607 16.6516 13.9067 16.572C13.8527 16.4911 13.7867 16.4229 13.7086 16.3675C13.6319 16.3107 13.5438 16.2673 13.4444 16.2375C13.3464 16.2077 13.2377 16.1928 13.1184 16.1928C12.8954 16.1928 12.6993 16.2482 12.5303 16.359C12.3627 16.4697 12.232 16.631 12.1383 16.8426C12.0445 17.0528 11.9976 17.3099 11.9976 17.6139C11.9976 17.9179 12.0438 18.1764 12.1361 18.3895C12.2285 18.6026 12.3591 18.7652 12.5282 18.8774C12.6972 18.9882 12.8968 19.0436 13.1269 19.0436C13.3357 19.0436 13.514 19.0067 13.6617 18.9328C13.8108 18.8575 13.9245 18.7517 14.0026 18.6153C14.0821 18.479 14.1219 18.3178 14.1219 18.1317L14.3094 18.1594H13.1844V17.4648H15.0104V18.0145C15.0104 18.398 14.9295 18.7276 14.7675 19.0031C14.6056 19.2773 14.3826 19.4889 14.0985 19.6381C13.8144 19.7858 13.4891 19.8597 13.1226 19.8597C12.7135 19.8597 12.3542 19.7695 12.0445 19.5891C11.7348 19.4072 11.4934 19.1494 11.3201 18.8156C11.1482 18.4804 11.0623 18.0827 11.0623 17.6224C11.0623 17.2688 11.1134 16.9534 11.2157 16.6764C11.3194 16.398 11.4643 16.1622 11.6503 15.969C11.8364 15.7759 12.053 15.6288 12.3002 15.528C12.5473 15.4271 12.8151 15.3767 13.1035 15.3767C13.3506 15.3767 13.5807 15.4129 13.7938 15.4854C14.0069 15.5564 14.1958 15.6572 14.3606 15.7879C14.5268 15.9186 14.6624 16.0742 14.7675 16.2545C14.8726 16.4335 14.9401 16.631 14.9699 16.8469H14.0324Z" fill="white"/>
<defs>
<clipPath id="clip0_1030_41058">
<rect width="18" height="24" fill="white"/>
</clipPath>
</defs>
</svg>
