<svg width="18" height="24" viewBox="0 0 18 24" fill="none" xmlns="http://www.w3.org/2000/svg">
<g clip-path="url(#clip0_1030_41118)">
<path d="M0 3.2C0 1.43269 1.43269 0 3.2 0H10.2L18 7.8V20.8C18 22.5673 16.5673 24 14.8 24H3.2C1.43269 24 0 22.5673 0 20.8V3.2Z" fill="#344054"/>
<path d="M12.6 7.8H18L10.2 0V5.4C10.2 6.72548 11.2745 7.8 12.6 7.8Z" fill="white" fill-opacity="0.5"/>
</g>
<path d="M3.55566 16.197V15.4364H7.13947V16.197H5.80353V19.8H4.8916V16.197H3.55566Z" fill="white"/>
<path d="M8.47473 15.4364L9.3547 16.9236H9.38879L10.273 15.4364H11.3149L9.98325 17.6182L11.3448 19.8H10.2837L9.38879 18.3107H9.3547L8.45981 19.8H7.40299L8.76876 17.6182L7.42856 15.4364H8.47473Z" fill="white"/>
<path d="M11.6125 16.197V15.4364H15.1963V16.197H13.8604V19.8H12.9485V16.197H11.6125Z" fill="white"/>
<defs>
<clipPath id="clip0_1030_41118">
<rect width="18" height="24" fill="white"/>
</clipPath>
</defs>
</svg>
