<svg width="18" height="24" viewBox="0 0 18 24" fill="none" xmlns="http://www.w3.org/2000/svg">
<g clip-path="url(#clip0_1030_40921)">
<path d="M0 3.2C0 1.43269 1.43269 0 3.2 0H10.2L18 7.8V20.8C18 22.5673 16.5673 24 14.8 24H3.2C1.43269 24 0 22.5673 0 20.8V3.2Z" fill="url(#paint0_linear_1030_40921)"/>
<path d="M12.6 7.8H18L10.2 0V5.4C10.2 6.72548 11.2745 7.8 12.6 7.8Z" fill="#DCE2EB"/>
<path d="M3.2002 0.400391H10.0342L17.5996 7.96582V20.7998C17.5996 22.3462 16.3462 23.5996 14.7998 23.5996H3.2002C1.6538 23.5996 0.400391 22.3462 0.400391 20.7998V3.2002C0.400391 1.6538 1.6538 0.400391 3.2002 0.400391Z" stroke="black" stroke-opacity="0.06" stroke-width="0.8"/>
</g>
<path d="M3.55566 16.197V15.4364H7.13947V16.197H5.80353V19.8H4.8916V16.197H3.55566Z" fill="#344054"/>
<path d="M8.47473 15.4364L9.3547 16.9236H9.38879L10.273 15.4364H11.3149L9.98325 17.6182L11.3448 19.8H10.2837L9.38879 18.3107H9.3547L8.45981 19.8H7.40299L8.76876 17.6182L7.42856 15.4364H8.47473Z" fill="#344054"/>
<path d="M11.6125 16.197V15.4364H15.1963V16.197H13.8604V19.8H12.9485V16.197H11.6125Z" fill="#344054"/>
<defs>
<linearGradient id="paint0_linear_1030_40921" x1="9" y1="0" x2="9" y2="24" gradientUnits="userSpaceOnUse">
<stop stop-color="#F2F6FC"/>
<stop offset="1" stop-color="#EDF1F7"/>
</linearGradient>
<clipPath id="clip0_1030_40921">
<rect width="18" height="24" fill="white"/>
</clipPath>
</defs>
</svg>
