<svg width="18" height="24" viewBox="0 0 18 24" fill="none" xmlns="http://www.w3.org/2000/svg">
<g clip-path="url(#clip0_1030_41153)">
<path d="M0 3.2C0 1.43269 1.43269 0 3.2 0H10.2L18 7.8V20.8C18 22.5673 16.5673 24 14.8 24H3.2C1.43269 24 0 22.5673 0 20.8V3.2Z" fill="#6E45F0"/>
<path d="M12.6 7.8H18L10.2 0V5.4C10.2 6.72548 11.2745 7.8 12.6 7.8Z" fill="white" fill-opacity="0.5"/>
</g>
<path d="M3.60197 19.8L2.35339 15.4364H3.36121L4.08351 18.4683H4.11973L4.9166 15.4364H5.77953L6.57427 18.4747H6.61263L7.33493 15.4364H8.34274L7.09416 19.8H6.19501L5.36405 16.947H5.32996L4.50112 19.8H3.60197Z" fill="white"/>
<path d="M9.0292 19.8H8.04057L9.54696 15.4364H10.7359L12.2401 19.8H11.2515L10.1585 16.4335H10.1244L9.0292 19.8ZM8.96741 18.0848H11.3026V18.805H8.96741V18.0848Z" fill="white"/>
<path d="M12.8888 15.4364L13.9435 18.7517H13.984L15.0408 15.4364H16.0635L14.5592 19.8H13.3703L11.8639 15.4364H12.8888Z" fill="white"/>
<defs>
<clipPath id="clip0_1030_41153">
<rect width="18" height="24" fill="white"/>
</clipPath>
</defs>
</svg>
