<svg width="21" height="24" viewBox="0 0 21 24" fill="none" xmlns="http://www.w3.org/2000/svg">
<g clip-path="url(#clip0_1030_40741)">
<path d="M6.2002 0.599609H13.252L20.4004 7.74805V20.7998C20.4004 22.2357 19.2357 23.4004 17.7998 23.4004H6.2002C4.76425 23.4004 3.59961 22.2357 3.59961 20.7998V3.2002C3.59961 1.76425 4.76426 0.599609 6.2002 0.599609Z" fill="white" stroke="#C8D2E1" stroke-width="1.2"/>
<path d="M13.2 0.6V5.4C13.2 6.72548 14.2745 7.8 15.6 7.8H20.4" stroke="#C8D2E1" stroke-width="1.2" stroke-linecap="round"/>
</g>
<rect y="11.1" width="17.25" height="9.9" rx="1.6" fill="#6E45F0"/>
<path d="M3.01848 18.2318L1.7699 13.8682H2.77771L3.50001 16.9001H3.53623L4.33311 13.8682H5.19603L5.99078 16.9065H6.02913L6.75143 13.8682H7.75924L6.51066 18.2318H5.61152L4.78055 15.3788H4.74646L3.91762 18.2318H3.01848Z" fill="white"/>
<path d="M8.44571 18.2318H7.45707L8.96346 13.8682H10.1524L11.6566 18.2318H10.668L9.57497 14.8653H9.54088L8.44571 18.2318ZM8.38392 16.5166H10.7191V17.2368H8.38392V16.5166Z" fill="white"/>
<path d="M12.3053 13.8682L13.36 17.1835H13.4005L14.4573 13.8682H15.48L13.9757 18.2318H12.7868L11.2804 13.8682H12.3053Z" fill="white"/>
<defs>
<clipPath id="clip0_1030_40741">
<rect width="18" height="24" fill="white" transform="translate(3)"/>
</clipPath>
</defs>
</svg>
