<svg width="18" height="24" viewBox="0 0 18 24" fill="none" xmlns="http://www.w3.org/2000/svg">
<g clip-path="url(#clip0_1030_41038)">
<path d="M0 3.2C0 1.43269 1.43269 0 3.2 0H10.2L18 7.8V20.8C18 22.5673 16.5673 24 14.8 24H3.2C1.43269 24 0 22.5673 0 20.8V3.2Z" fill="#3873FF"/>
<path d="M12.6 7.8H18L10.2 0V5.4C10.2 6.72548 11.2745 7.8 12.6 7.8Z" fill="white" fill-opacity="0.5"/>
</g>
<path d="M2.76985 18.9L1.70856 15.1909H2.5652L3.17915 17.7681H3.20994L3.88729 15.1909H4.62077L5.29631 17.7735H5.32891L5.94286 15.1909H6.7995L5.73821 18.9H4.97393L4.26761 16.475H4.23864L3.53413 18.9H2.76985Z" fill="white"/>
<path d="M7.11722 18.9V15.1909H9.61651V15.8375H7.90142V16.7213H9.48792V17.3678H7.90142V18.2534H9.62375V18.9H7.11722Z" fill="white"/>
<path d="M10.138 18.9V15.1909H11.6231C11.8959 15.1909 12.1235 15.2314 12.3058 15.3122C12.4882 15.3931 12.6252 15.5054 12.717 15.6491C12.8087 15.7916 12.8546 15.9558 12.8546 16.1417C12.8546 16.2866 12.8256 16.414 12.7677 16.5239C12.7097 16.6325 12.63 16.7219 12.5286 16.7919C12.4284 16.8607 12.3137 16.9096 12.1845 16.9386V16.9748C12.3258 16.9809 12.458 17.0207 12.5811 17.0943C12.7055 17.168 12.8063 17.2712 12.8836 17.404C12.9608 17.5356 12.9995 17.6926 12.9995 17.8749C12.9995 18.0717 12.9506 18.2474 12.8528 18.4019C12.7562 18.5553 12.6131 18.6766 12.4236 18.766C12.234 18.8553 12.0004 18.9 11.7227 18.9H10.138ZM10.9222 18.2589H11.5615C11.78 18.2589 11.9394 18.2172 12.0396 18.1339C12.1398 18.0494 12.1899 17.9371 12.1899 17.797C12.1899 17.6944 12.1652 17.6039 12.1157 17.5254C12.0662 17.4469 11.9955 17.3853 11.9038 17.3407C11.8132 17.296 11.7052 17.2736 11.5796 17.2736H10.9222V18.2589ZM10.9222 16.743H11.5035C11.611 16.743 11.7064 16.7243 11.7897 16.6869C11.8742 16.6482 11.9406 16.5939 11.9889 16.5239C12.0384 16.4538 12.0632 16.3699 12.0632 16.2721C12.0632 16.1381 12.0155 16.03 11.9201 15.9479C11.8259 15.8658 11.6919 15.8248 11.518 15.8248H10.9222V16.743Z" fill="white"/>
<path d="M13.4078 18.9V15.1909H14.8711C15.1524 15.1909 15.3921 15.2446 15.5901 15.3521C15.7881 15.4583 15.939 15.6062 16.0429 15.7958C16.1479 15.9842 16.2004 16.2015 16.2004 16.4478C16.2004 16.6941 16.1473 16.9114 16.0411 17.0998C15.9348 17.2881 15.7809 17.4348 15.5792 17.5399C15.3788 17.6449 15.1361 17.6974 14.8512 17.6974H13.9185V17.069H14.7244C14.8753 17.069 14.9997 17.043 15.0975 16.9911C15.1965 16.938 15.2701 16.8649 15.3184 16.772C15.3679 16.6778 15.3927 16.5697 15.3927 16.4478C15.3927 16.3246 15.3679 16.2172 15.3184 16.1254C15.2701 16.0325 15.1965 15.9606 15.0975 15.9099C14.9985 15.858 14.8729 15.832 14.7208 15.832H14.1919V18.9H13.4078Z" fill="white"/>
<defs>
<clipPath id="clip0_1030_41038">
<rect width="18" height="24" fill="white"/>
</clipPath>
</defs>
</svg>
