<svg width="21" height="24" viewBox="0 0 21 24" fill="none" xmlns="http://www.w3.org/2000/svg">
<g clip-path="url(#clip0_1030_40603)">
<path d="M6.2002 0.599609H13.252L20.4004 7.74805V20.7998C20.4004 22.2357 19.2357 23.4004 17.7998 23.4004H6.2002C4.76425 23.4004 3.59961 22.2357 3.59961 20.7998V3.2002C3.59961 1.76425 4.76426 0.599609 6.2002 0.599609Z" fill="white" stroke="#C8D2E1" stroke-width="1.2"/>
<path d="M13.2 0.6V5.4C13.2 6.72548 14.2745 7.8 15.6 7.8H20.4" stroke="#C8D2E1" stroke-width="1.2" stroke-linecap="round"/>
</g>
<rect y="11.1" width="21" height="9.9" rx="1.6" fill="#3873FF"/>
<path d="M3.22395 18.2318L1.97537 13.8682H2.98318L3.70549 16.9001H3.74171L4.53858 13.8682H5.40151L6.19625 16.9065H6.23461L6.95691 13.8682H7.96472L6.71614 18.2318H5.81699L4.98603 15.3788H4.95194L4.1231 18.2318H3.22395Z" fill="white"/>
<path d="M8.3385 18.2318V13.8682H11.2788V14.6288H9.26109V15.6686H11.1276V16.4293H9.26109V17.4712H11.2874V18.2318H8.3385Z" fill="white"/>
<path d="M11.8923 18.2318V13.8682H13.6395C13.9605 13.8682 14.2283 13.9158 14.4428 14.0109C14.6572 14.1061 14.8185 14.2382 14.9264 14.4072C15.0344 14.5749 15.0884 14.768 15.0884 14.9868C15.0884 15.1572 15.0543 15.3071 14.9861 15.4364C14.9179 15.5642 14.8242 15.6693 14.7048 15.7517C14.5869 15.8327 14.452 15.8902 14.3 15.9243V15.9669C14.4662 15.974 14.6217 16.0209 14.7666 16.1075C14.9129 16.1942 15.0315 16.3156 15.1224 16.4719C15.2134 16.6267 15.2588 16.8114 15.2588 17.0258C15.2588 17.2574 15.2013 17.4641 15.0862 17.6459C14.9726 17.8263 14.8043 17.969 14.5813 18.0741C14.3582 18.1793 14.0834 18.2318 13.7567 18.2318H11.8923ZM12.8149 17.4776H13.567C13.8242 17.4776 14.0117 17.4285 14.1295 17.3305C14.2474 17.2311 14.3064 17.099 14.3064 16.9342C14.3064 16.8135 14.2773 16.707 14.219 16.6146C14.1608 16.5223 14.0777 16.4499 13.9697 16.3973C13.8632 16.3447 13.7361 16.3185 13.5884 16.3185H12.8149V17.4776ZM12.8149 15.6942H13.4989C13.6253 15.6942 13.7375 15.6722 13.8355 15.6281C13.9349 15.5827 14.0131 15.5187 14.0699 15.4364C14.1281 15.354 14.1572 15.2553 14.1572 15.1402C14.1572 14.9825 14.1011 14.8554 13.9889 14.7588C13.8781 14.6622 13.7205 14.6139 13.5159 14.6139H12.8149V15.6942Z" fill="white"/>
<path d="M15.7391 18.2318V13.8682H17.4607C17.7917 13.8682 18.0736 13.9314 18.3066 14.0578C18.5396 14.1828 18.7171 14.3568 18.8393 14.5798C18.9629 14.8014 19.0246 15.0571 19.0246 15.3469C19.0246 15.6366 18.9621 15.8923 18.8371 16.1139C18.7121 16.3355 18.531 16.5081 18.2938 16.6317C18.058 16.7553 17.7725 16.817 17.4373 16.817H16.34V16.0777H17.2881C17.4657 16.0777 17.612 16.0472 17.7271 15.9861C17.8435 15.9236 17.9302 15.8376 17.987 15.7283C18.0452 15.6175 18.0744 15.4903 18.0744 15.3469C18.0744 15.202 18.0452 15.0756 17.987 14.9676C17.9302 14.8582 17.8435 14.7737 17.7271 14.7141C17.6106 14.653 17.4629 14.6224 17.2839 14.6224H16.6617V18.2318H15.7391Z" fill="white"/>
<defs>
<clipPath id="clip0_1030_40603">
<rect width="18" height="24" fill="white" transform="translate(3)"/>
</clipPath>
</defs>
</svg>
