<svg width="21" height="24" viewBox="0 0 21 24" fill="none" xmlns="http://www.w3.org/2000/svg">
<g clip-path="url(#clip0_1030_40723)">
<path d="M6.2002 0.599609H13.252L20.4004 7.74805V20.7998C20.4004 22.2357 19.2357 23.4004 17.7998 23.4004H6.2002C4.76425 23.4004 3.59961 22.2357 3.59961 20.7998V3.2002C3.59961 1.76425 4.76426 0.599609 6.2002 0.599609Z" fill="white" stroke="#C8D2E1" stroke-width="1.2"/>
<path d="M13.2 0.6V5.4C13.2 6.72548 14.2745 7.8 15.6 7.8H20.4" stroke="#C8D2E1" stroke-width="1.2" stroke-linecap="round"/>
</g>
<rect y="11.1" width="15" height="9.9" rx="1.6" fill="#0DB664"/>
<path d="M3.08614 13.8671L3.96611 15.3543H4.0002L4.88443 13.8671H5.92634L4.59466 16.0489L5.95617 18.2308H4.89509L4.0002 16.7414H3.96611L3.07122 18.2308H2.0144L3.38017 16.0489L2.03997 13.8671H3.08614Z" fill="white"/>
<path d="M6.39014 18.2308V13.8671H7.31273V17.4701H9.18347V18.2308H6.39014Z" fill="white"/>
<path d="M12.0416 15.1221C12.0246 14.9502 11.9514 14.8167 11.8222 14.7215C11.6929 14.6263 11.5175 14.5788 11.2959 14.5788C11.1453 14.5788 11.0182 14.6001 10.9145 14.6427C10.8108 14.6839 10.7313 14.7414 10.6759 14.8153C10.6219 14.8891 10.5949 14.9729 10.5949 15.0667C10.5921 15.1448 10.6084 15.213 10.6439 15.2712C10.6808 15.3295 10.7313 15.3799 10.7952 15.4225C10.8591 15.4637 10.933 15.4999 11.0168 15.5312C11.1006 15.561 11.1901 15.5866 11.2852 15.6079L11.6773 15.7016C11.8676 15.7442 12.0423 15.8011 12.2014 15.8721C12.3605 15.9431 12.4983 16.0305 12.6148 16.1342C12.7313 16.2379 12.8215 16.36 12.8854 16.5006C12.9507 16.6413 12.9841 16.8025 12.9855 16.9843C12.9841 17.2513 12.9159 17.4829 12.781 17.6789C12.6475 17.8735 12.4543 18.0248 12.2014 18.1327C11.95 18.2393 11.6467 18.2925 11.2916 18.2925C10.9394 18.2925 10.6325 18.2386 10.3712 18.1306C10.1112 18.0227 9.9081 17.8629 9.7618 17.6512C9.61691 17.4381 9.54092 17.1746 9.53381 16.8607H10.4266C10.4365 17.007 10.4784 17.1292 10.5523 17.2272C10.6276 17.3238 10.7277 17.3969 10.8527 17.4467C10.9791 17.495 11.1219 17.5191 11.281 17.5191C11.4372 17.5191 11.5729 17.4964 11.6879 17.4509C11.8044 17.4055 11.8946 17.3423 11.9585 17.2613C12.0225 17.1803 12.0544 17.0873 12.0544 16.9822C12.0544 16.8842 12.0253 16.8018 11.9671 16.735C11.9102 16.6683 11.8264 16.6114 11.7156 16.5646C11.6063 16.5177 11.472 16.4751 11.3129 16.4367L10.8378 16.3174C10.4699 16.2279 10.1794 16.088 9.96634 15.8977C9.75328 15.7073 9.64745 15.4509 9.64887 15.1285C9.64745 14.8643 9.71776 14.6335 9.85981 14.436C10.0033 14.2386 10.2 14.0844 10.45 13.9737C10.7 13.8629 10.9841 13.8075 11.3023 13.8075C11.6261 13.8075 11.9088 13.8629 12.1503 13.9737C12.3932 14.0844 12.5821 14.2386 12.7171 14.436C12.852 14.6335 12.9216 14.8621 12.9259 15.1221H12.0416Z" fill="white"/>
<defs>
<clipPath id="clip0_1030_40723">
<rect width="18" height="24" fill="white" transform="translate(3)"/>
</clipPath>
</defs>
</svg>
