<svg width="148" height="148" viewBox="0 0 148 148" fill="none" xmlns="http://www.w3.org/2000/svg">
<path d="M100.702 21.5833H47.2983C45.0938 21.5833 43.0588 22.7581 41.958 24.6667L15.2563 70.9167C14.1556 72.8252 14.1556 75.1747 15.2563 77.0833L41.958 123.333C43.0588 125.242 45.0968 126.417 47.2983 126.417H100.702C102.906 126.417 104.941 125.242 106.042 123.333L132.744 77.0833C133.844 75.1747 133.844 72.8252 132.744 70.9167L106.042 24.6667C104.941 22.7581 102.906 21.5833 100.702 21.5833Z" fill="#2979FF"/>
<path d="M98.6667 107.917H49.3333C47.6313 107.917 46.25 106.535 46.25 104.833V43.1667C46.25 41.4647 47.6313 40.0833 49.3333 40.0833H89.4167L101.75 52.4167V104.833C101.75 106.535 100.369 107.917 98.6667 107.917Z" fill="white"/>
<path d="M89.4166 40.0833V49.3333C89.4166 51.0353 90.798 52.4167 92.5 52.4167H101.75L89.4166 40.0833Z" fill="#B1CFFF"/>
<path d="M68.6504 73.4789H64.5341V60.3717L60.4888 61.5526V58.4353L68.2711 55.7436H68.6473L68.6504 73.4789ZM88.4978 66.23C88.4978 67.5127 88.3467 68.6227 88.0476 69.5631C87.7486 70.4973 87.3261 71.2774 86.7804 71.8941C86.2377 72.5107 85.5871 72.9702 84.8317 73.2693C84.0763 73.5683 83.2438 73.7194 82.3342 73.7194C81.4154 73.7194 80.5767 73.5683 79.8182 73.2693C79.0597 72.9702 78.4091 72.5107 77.8665 71.8941C77.3238 71.2774 76.8952 70.4973 76.5931 69.5631C76.2878 68.6227 76.1398 67.5127 76.1398 66.23V62.9894C76.1398 61.716 76.2909 60.606 76.59 59.6656C76.8891 58.7252 77.3115 57.9451 77.8572 57.3284C78.3999 56.7118 79.0505 56.2523 79.8059 55.9532C80.5551 55.6511 81.3907 55.5 82.3096 55.5C83.2191 55.5 84.0516 55.6511 84.8101 55.9502C85.5686 56.2492 86.2223 56.7087 86.7681 57.3253C87.3107 57.942 87.7331 58.7221 88.0384 59.6625C88.3436 60.6029 88.4978 61.7129 88.4978 62.9863V66.23ZM84.3908 62.4683C84.3908 61.7623 84.3415 61.1702 84.2459 60.6831C84.1472 60.2052 84.0116 59.8105 83.8327 59.5083C83.6539 59.2092 83.435 58.9934 83.1791 58.8639C82.9231 58.7344 82.6364 58.6697 82.3096 58.6697C81.9858 58.6697 81.6929 58.7344 81.437 58.8639C81.1811 58.9934 80.9652 59.2092 80.7926 59.5083C80.6168 59.8074 80.4842 60.2021 80.3917 60.6831C80.2992 61.1702 80.253 61.7623 80.253 62.4683V66.7326C80.253 67.4541 80.2961 68.0615 80.3917 68.5487C80.4842 69.0358 80.623 69.4305 80.8018 69.7234C80.9806 70.0225 81.1996 70.2352 81.4586 70.3647C81.7176 70.4942 82.0105 70.559 82.3342 70.559C82.6518 70.559 82.9355 70.4942 83.1914 70.3647C83.4473 70.2352 83.6662 70.0225 83.8451 69.7234C84.0239 69.4305 84.1565 69.0358 84.2521 68.5487C84.3446 68.0615 84.3939 67.4572 84.3939 66.7326L84.3908 62.4683ZM71.8663 91.1772C71.8663 92.4599 71.7152 93.5699 71.4161 94.5103C71.1171 95.4446 70.6946 96.2247 70.1489 96.8413C69.6062 97.458 68.9556 97.9174 68.2002 98.2165C67.4448 98.5156 66.6123 98.6667 65.7027 98.6667C64.7839 98.6667 63.9452 98.5156 63.1867 98.2165C62.4282 97.9174 61.7776 97.458 61.235 96.8413C60.6923 96.2247 60.2637 95.4446 59.9616 94.5103C59.6563 93.5699 59.5083 92.4599 59.5083 91.1772V87.9367C59.5083 86.6632 59.6594 85.5532 59.9585 84.6128C60.2576 83.6724 60.68 82.8923 61.2257 82.2757C61.7684 81.659 62.419 81.1996 63.1744 80.9005C63.9298 80.6014 64.7654 80.4503 65.6842 80.4503C66.5938 80.4503 67.4263 80.6014 68.1848 80.9005C68.9433 81.1996 69.597 81.659 70.1427 82.2757C70.6854 82.8923 71.1078 83.6724 71.4131 84.6128C71.7183 85.5532 71.8725 86.6632 71.8725 87.9367V91.1772H71.8663ZM67.7624 87.4125C67.7624 86.7064 67.7131 86.1144 67.6175 85.6272C67.5188 85.1493 67.3831 84.7547 67.2043 84.4525C67.0255 84.1534 66.8066 83.9376 66.5506 83.8081C66.2947 83.6786 66.008 83.6138 65.6811 83.6138C65.3543 83.6138 65.0645 83.6786 64.8086 83.8081C64.5526 83.9376 64.3368 84.1534 64.1641 84.4525C63.9884 84.7516 63.8558 85.1462 63.7633 85.6272C63.6708 86.1144 63.6246 86.7064 63.6246 87.4125V91.6768C63.6246 92.3982 63.6677 93.0057 63.7633 93.4928C63.8558 93.98 63.9946 94.3747 64.1734 94.6676C64.3522 94.9667 64.5711 95.1794 64.8301 95.3089C65.0891 95.4384 65.3821 95.5032 65.7058 95.5032C66.0234 95.5032 66.3071 95.4384 66.563 95.3089C66.8189 95.1794 67.0378 94.9667 67.2166 94.6676C67.3955 94.3747 67.5281 93.98 67.6236 93.4928C67.7161 93.0057 67.7655 92.4013 67.7655 91.6768V87.4125H67.7624ZM85.2819 98.4231H81.1656V85.3158L77.1203 86.4967V83.3795L84.9026 80.6878H85.2788L85.2819 98.4231Z" fill="#03A9F4"/>
</svg>
