<svg width="160" height="160" viewBox="0 0 160 160" fill="none" xmlns="http://www.w3.org/2000/svg">
<g clip-path="url(#clip0_6363_28362)">
<path d="M153.6 34.667H145.511C143.883 34.5591 142.25 34.5591 140.622 34.667C139.586 34.6518 138.571 34.3704 137.675 33.8499C136.779 33.3294 136.032 32.5872 135.505 31.6947C134.978 30.8021 134.69 29.7891 134.668 28.753C134.645 27.7169 134.89 26.6925 135.378 25.7781L138.844 19.5559C137.482 18.4584 135.951 17.588 134.311 16.9781L126.044 31.7336C125.503 32.6715 124.726 33.4518 123.791 33.9974C122.856 34.543 121.794 34.8351 120.711 34.8448H113.333C112.34 34.8372 111.362 35.0819 110.489 35.5559L96.5334 44.4448C96.0721 44.6006 95.5724 44.6006 95.1111 44.4448H46.8445C46.4975 44.4668 46.1586 44.5588 45.8481 44.7152C45.5376 44.8717 45.2619 45.0893 45.0377 45.355C44.8135 45.6207 44.6454 45.9291 44.5434 46.2615C44.4415 46.5939 44.4078 46.9435 44.4445 47.2892V90.1336L28.8889 94.9336L30.0445 99.9114L44.4445 97.7781V123.556C44.4445 124.24 44.7161 124.895 45.1995 125.379C45.6829 125.862 46.3386 126.134 47.0222 126.134H130.311L140.533 139.378L144.889 136.623L138.844 126.134H153.778C154.124 126.146 154.468 126.088 154.792 125.964C155.115 125.839 155.409 125.651 155.658 125.411C155.907 125.17 156.105 124.882 156.24 124.563C156.375 124.245 156.445 123.902 156.444 123.556V37.3336C156.445 36.968 156.371 36.606 156.226 36.2704C156.081 35.9347 155.868 35.6324 155.602 35.3823C155.335 35.1322 155.02 34.9396 154.675 34.8166C154.331 34.6935 153.965 34.6426 153.6 34.667Z" fill="#005BA1"/>
<path d="M141.156 19.2888C146.507 19.2888 150.845 14.9509 150.845 9.5999C150.845 4.24887 146.507 -0.0889893 141.156 -0.0889893C135.805 -0.0889893 131.467 4.24887 131.467 9.5999C131.467 14.9509 135.805 19.2888 141.156 19.2888Z" fill="#50E5FF"/>
<path d="M147.378 160.089C154.349 160.089 160 154.438 160 147.467C160 140.496 154.349 134.845 147.378 134.845C140.407 134.845 134.756 140.496 134.756 147.467C134.756 154.438 140.407 160.089 147.378 160.089Z" fill="#50E5FF"/>
<path d="M15.7333 117.423C24.4226 117.423 31.4667 110.379 31.4667 101.689C31.4667 93 24.4226 85.9559 15.7333 85.9559C7.04405 85.9559 0 93 0 101.689C0 110.379 7.04405 117.423 15.7333 117.423Z" fill="#50E5FF"/>
<path d="M134.844 42.2225L73.4221 33.3336H72.1777C70.0074 33.3152 67.9053 34.0915 66.2679 35.516C64.6305 36.9406 63.5708 38.915 63.2888 41.067L60.9777 56.0892H142.222V52.4447C142.412 51.2887 142.372 50.1065 142.104 48.9661C141.836 47.8256 141.344 46.7495 140.659 45.7995C139.973 44.8495 139.107 44.0444 138.109 43.4306C137.111 42.8167 136.001 42.4061 134.844 42.2225Z" fill="#0078D4"/>
<path d="M134.222 46.0448L72.8882 37.1559H72.0882C70.8509 37.1655 69.6582 37.6197 68.728 38.4356C67.7979 39.2516 67.1921 40.3749 67.0215 41.6004L64.8882 56.0893H137.955L138.577 51.9115C138.678 51.2401 138.645 50.5554 138.48 49.8968C138.316 49.2381 138.023 48.6185 137.618 48.0734C137.213 47.5283 136.705 47.0684 136.122 46.7203C135.539 46.3722 134.893 46.1427 134.222 46.0448Z" fill="white"/>
<path d="M46.7556 44.4445H100.533C101.231 44.4804 101.893 44.764 102.4 45.2445L111.289 54.1333C111.53 54.3861 111.819 54.5874 112.14 54.7249C112.461 54.8624 112.806 54.9333 113.156 54.9333H154.044C154.737 54.933 155.402 55.2017 155.899 55.6827C156.397 56.1637 156.688 56.8194 156.711 57.5111V123.556C156.688 124.247 156.397 124.903 155.899 125.384C155.402 125.865 154.737 126.134 154.044 126.133H47.3778C47.0107 126.184 46.6369 126.156 46.2818 126.049C45.9268 125.943 45.5989 125.761 45.3205 125.517C45.0421 125.272 44.8197 124.97 44.6685 124.632C44.5173 124.293 44.4409 123.926 44.4444 123.556V47.2889C44.3932 46.6092 44.6041 45.9357 45.0339 45.4067C45.4637 44.8777 46.0798 44.5334 46.7556 44.4445Z" fill="url(#paint0_linear_6363_28362)"/>
</g>
<defs>
<linearGradient id="paint0_linear_6363_28362" x1="98.6667" y1="27.2889" x2="101.244" y2="130.133" gradientUnits="userSpaceOnUse">
<stop stop-color="#32D4F5"/>
<stop offset="0.23" stop-color="#31D0F1"/>
<stop offset="0.46" stop-color="#2CC3E6"/>
<stop offset="0.7" stop-color="#25AFD4"/>
<stop offset="0.94" stop-color="#1C92BA"/>
<stop offset="1" stop-color="#198AB3"/>
</linearGradient>
<clipPath id="clip0_6363_28362">
<rect width="160" height="160" fill="white"/>
</clipPath>
</defs>
</svg>
