<svg width="148" height="140" viewBox="0 0 148 140" fill="none" xmlns="http://www.w3.org/2000/svg">
<g clip-path="url(#clip0_6363_28201)">
<path fill-rule="evenodd" clip-rule="evenodd" d="M63.2863 115.375L146.075 67.7247L86.9395 33.6885L4.15125 81.3386L63.2863 115.375Z" fill="white" stroke="#0288D1" stroke-width="6.39996" stroke-linecap="round" stroke-linejoin="round"/>
<path fill-rule="evenodd" clip-rule="evenodd" d="M4.1499 81.3386V94.9531L63.2849 128.989L146.073 81.3393V67.7248" fill="white"/>
<path d="M4.1499 81.3386V94.9531L63.2849 128.989L146.073 81.3393V67.7248" stroke="#0288D1" stroke-width="6.39996" stroke-linecap="round" stroke-linejoin="round"/>
<path fill-rule="evenodd" clip-rule="evenodd" d="M63.2863 138.064L4.15123 104.027C4.15123 104.027 -0.666519 93.1934 4.15123 85.8751L63.2863 119.911L146.074 72.2612V90.4135L63.2863 138.064Z" fill="white" stroke="#0288D1" stroke-width="6.39996" stroke-linecap="round" stroke-linejoin="round"/>
<path fill-rule="evenodd" clip-rule="evenodd" d="M63.2862 83.6056L146.074 35.9548L86.9381 1.92114L4.1499 49.5693L63.2862 83.6056Z" fill="white" stroke="#0288D1" stroke-width="6.39996" stroke-linecap="round" stroke-linejoin="round"/>
<path fill-rule="evenodd" clip-rule="evenodd" d="M63.2862 83.6056L146.074 35.9555V54.1077L63.2862 101.758L4.15121 67.7216C4.15121 67.7216 0.251143 56.4304 4.15121 49.5693L63.2862 83.6056Z" fill="white" stroke="#0288D1" stroke-width="6.39996" stroke-linecap="round" stroke-linejoin="round"/>
<path fill-rule="evenodd" clip-rule="evenodd" d="M63.2863 119.915L4.15123 85.8789C4.15123 85.8789 -0.666519 75.045 4.15123 67.7267L63.2863 101.763L146.074 54.1128L146.074 72.2651L63.2863 119.915Z" fill="white" stroke="#0288D1" stroke-width="6.39996" stroke-linecap="round" stroke-linejoin="round"/>
<path fill-rule="evenodd" clip-rule="evenodd" d="M100.736 9.86316L65.2557 30.2849L79.0538 31.4194L81.025 39.3614L116.506 18.9397L100.736 9.86316Z" fill="white" stroke="#0288D1" stroke-width="6.39996" stroke-linejoin="round"/>
</g>
<defs>
<clipPath id="clip0_6363_28201">
<rect width="148" height="140" fill="white"/>
</clipPath>
</defs>
</svg>
