<svg width="148" height="79" viewBox="0 0 148 79" fill="none" xmlns="http://www.w3.org/2000/svg">
<path d="M143.307 68.9455C145.112 71.4591 144.751 74.6909 142.585 76.4864C140.059 78.2818 136.449 77.9227 134.644 75.7682L122.01 59.6091L109.737 75.4091C107.932 77.9227 104.322 77.9227 101.795 76.1273C99.2683 74.3318 98.9073 71.1 100.712 68.5864L115.151 49.9136L100.712 31.2409C98.9073 28.7273 99.6293 25.1364 101.795 23.3409C104.322 21.5455 107.932 22.2636 109.737 24.4182L122.01 40.5773L134.644 25.1364C136.449 22.6227 139.698 22.2636 142.585 24.0591C145.112 25.8545 145.112 29.4455 143.307 31.9591L129.229 50.2727L143.307 68.9455ZM77.6098 66.7909C68.2244 66.7909 60.6439 59.6091 60.6439 50.2727C60.6439 41.2955 68.2244 33.7545 77.6098 33.7545C86.9951 33.7545 94.5756 41.2955 94.5756 50.2727C94.2146 59.6091 86.6341 66.7909 77.6098 66.7909ZM27.7951 66.7909C18.4098 66.7909 10.8293 59.6091 10.8293 50.2727C10.8293 41.2955 18.4098 33.7545 27.7951 33.7545C37.1805 33.7545 44.761 41.2955 44.761 50.2727C44.761 59.6091 37.1805 66.7909 27.7951 66.7909ZM77.6098 22.9818C67.1415 22.9818 57.7561 28.7273 53.0634 37.3455C48.3707 28.7273 38.9854 22.9818 28.1561 22.9818C21.6585 22.9818 15.8829 25.1364 11.1902 28.3682V5.38636C11.1902 2.51364 8.66341 0 5.77561 0C2.52683 0 0 2.51364 0 5.38636V50.6318C0.360976 65.7136 12.6341 77.5636 27.7951 77.5636C38.6244 77.5636 48.0098 71.4591 52.7024 62.8409C57.3951 71.4591 66.7805 77.5636 77.2488 77.5636C92.7707 77.5636 105.405 65.3545 105.405 49.9136C105.766 35.1909 93.1317 22.9818 77.6098 22.9818Z" fill="#0071F7"/>
</svg>
