<svg width="148" height="148" viewBox="0 0 148 148" fill="none" xmlns="http://www.w3.org/2000/svg">
<g clip-path="url(#clip0_6363_28032)">
<path d="M112.948 35.0523L77.8954 31.1577L35.0531 35.0523L31.1577 74L35.0523 112.948L74 117.816L112.948 112.948L116.842 73.0269L112.948 35.0523Z" fill="white"/>
<path d="M51.0311 95.4793C48.12 93.5123 46.1042 90.6404 45.0038 86.8427L51.7615 84.0581C52.375 86.395 53.4458 88.2058 54.9746 89.4912C56.4938 90.7766 58.3438 91.4093 60.5054 91.4093C62.7157 91.4093 64.6146 90.7374 66.2011 89.3935C67.7877 88.0497 68.5869 86.3358 68.5869 84.2623C68.5869 82.14 67.7492 80.4062 66.0746 79.0631C64.4 77.72 62.2969 77.0473 59.7846 77.0473H55.8804V70.3585H59.385C61.5465 70.3585 63.3677 69.7746 64.8477 68.6062C66.3277 67.4377 67.0677 65.8408 67.0677 63.8058C67.0677 61.995 66.4054 60.5535 65.0815 59.4731C63.7577 58.3927 62.0823 57.8473 60.0473 57.8473C58.0611 57.8473 56.4835 58.3734 55.315 59.4346C54.1465 60.4958 53.2992 61.8004 52.7642 63.3388L46.0754 60.5542C46.9611 58.0419 48.5877 55.8219 50.9727 53.9038C53.3584 51.9858 56.4058 51.0215 60.1058 51.0215C62.8415 51.0215 65.305 51.5477 67.4865 52.6088C69.6673 53.67 71.3811 55.1404 72.6177 57.0096C73.8542 58.8885 74.4677 60.9923 74.4677 63.3285C74.4677 65.7142 73.8934 67.7293 72.7442 69.3846C71.595 71.04 70.1831 72.3054 68.5085 73.1919V73.5908C70.7188 74.5158 72.52 75.9277 73.9415 77.8266C75.3535 79.7254 76.0639 81.9942 76.0639 84.6427C76.0639 87.2912 75.3919 89.6569 74.0481 91.7312C72.7043 93.8054 70.8446 95.4408 68.4885 96.6285C66.1227 97.8162 63.4646 98.42 60.5142 98.42C57.0969 98.4296 53.9423 97.4462 51.0311 95.4793Z" fill="#1A73E8"/>
<path d="M92.4999 61.9462L85.1192 67.3112L81.4095 61.6835L94.7199 52.0828H99.8222V97.3685H92.4999V61.9462Z" fill="#1A73E8"/>
<path d="M112.948 148L148 112.948L130.474 105.158L112.948 112.948L105.158 130.474L112.948 148Z" fill="#EA4335"/>
<path d="M27.2631 130.474L35.0523 148H112.947V112.948H35.0523L27.2631 130.474Z" fill="#34A853"/>
<path d="M11.6839 0C5.22884 0 0 5.22884 0 11.6839V112.947L17.5262 120.736L35.0523 112.947V35.0523H112.947L120.736 17.5262L112.948 0H11.6839Z" fill="#4285F4"/>
<path d="M0 112.948V136.316C0 142.772 5.22884 148 11.6839 148H35.0523V112.948H0Z" fill="#188038"/>
<path d="M112.948 35.0524V112.947H148V35.0524L130.474 27.2631L112.948 35.0524Z" fill="#FBBC04"/>
<path d="M148 35.0523V11.6839C148 5.2281 142.771 0 136.316 0H112.948V35.0523H148Z" fill="#1967D2"/>
</g>
<defs>
<clipPath id="clip0_6363_28032">
<rect width="148" height="148" fill="white"/>
</clipPath>
</defs>
</svg>
