<svg width="148" height="146" viewBox="0 0 148 146" fill="none" xmlns="http://www.w3.org/2000/svg">
<path fill-rule="evenodd" clip-rule="evenodd" d="M74.0612 0C33.1073 0 0 33.4582 0 74.8505C0 107.938 21.213 135.945 50.641 145.858C54.3203 146.603 55.668 144.247 55.668 142.266C55.668 140.531 55.5467 134.583 55.5467 128.385C34.9446 132.847 30.6544 119.462 30.6544 119.462C27.3436 110.788 22.4379 108.558 22.4379 108.558C15.6948 103.973 22.9291 103.973 22.9291 103.973C30.4089 104.469 34.3337 111.656 34.3337 111.656C40.9539 123.056 51.6218 119.835 55.9135 117.852C56.526 113.019 58.4892 109.673 60.5736 107.814C44.142 106.079 26.8539 99.6355 26.8539 70.8842C26.8539 62.7052 29.7949 56.0136 34.455 50.8093C33.7197 48.9509 31.1441 41.2661 35.1917 30.9808C35.1917 30.9808 41.4451 28.9976 55.5452 38.664C61.5819 37.0255 67.8075 36.1921 74.0612 36.185C80.3146 36.185 86.6893 37.0534 92.5758 38.664C106.677 28.9976 112.931 30.9808 112.931 30.9808C116.978 41.2661 114.401 48.9509 113.666 50.8093C118.449 56.0136 121.269 62.7052 121.269 70.8842C121.269 99.6355 103.98 105.954 87.426 107.814C90.1245 110.169 92.453 114.629 92.453 121.694C92.453 131.731 92.3317 139.787 92.3317 142.264C92.3317 144.247 93.6809 146.603 97.3587 145.859C126.787 135.944 148 107.938 148 74.8505C148.121 33.4582 114.892 0 74.0612 0Z" fill="white"/>
</svg>
