<svg width="148" height="119" viewBox="0 0 148 119" fill="none" xmlns="http://www.w3.org/2000/svg">
<path d="M93.9125 32.7688H98.4266L111.291 19.9155L111.923 14.4585C104.554 7.95948 95.6471 3.44484 86.0453 1.34105C76.4435 -0.762738 66.4635 -0.386231 57.0478 2.43501C47.6322 5.25625 39.0918 10.4291 32.2335 17.4649C25.3752 24.5006 20.4254 33.1671 17.8516 42.6455C19.2848 42.0586 20.8724 41.9635 22.3656 42.375L48.0954 38.1356C48.0954 38.1356 49.4045 35.9708 50.0816 36.1061C55.5946 30.0568 63.2136 26.3417 71.3787 25.7213C79.5438 25.1008 87.6375 27.6221 94.0028 32.7688H93.9125Z" fill="#EA4335"/>
<path d="M129.619 42.6456C126.662 31.766 120.59 21.9854 112.149 14.5037L94.0934 32.5434C97.8564 35.6154 100.872 39.501 102.913 43.9072C104.954 48.3134 105.967 53.1251 105.875 57.9794V61.1814C107.985 61.1814 110.075 61.5967 112.025 62.4036C113.974 63.2104 115.746 64.3931 117.238 65.8839C118.73 67.3748 119.914 69.1447 120.722 71.0927C121.529 73.0406 121.945 75.1284 121.945 77.2368C121.945 79.3452 121.529 81.433 120.722 83.3809C119.914 85.3288 118.73 87.0987 117.238 88.5896C115.746 90.0805 113.974 91.2631 112.025 92.07C110.075 92.8768 107.985 93.2921 105.875 93.2921H73.7352L70.5303 96.5393V115.797L73.7352 118.999H105.875C114.85 119.069 123.609 116.25 130.856 110.961C138.104 105.672 143.455 98.1921 146.118 89.6289C148.781 81.0656 148.614 71.8733 145.643 63.4119C142.671 54.9506 137.053 47.6694 129.619 42.6456Z" fill="#4285F4"/>
<path d="M41.5503 118.818H73.69V93.1117H41.5503C39.2605 93.1112 36.9975 92.619 34.9147 91.6685L30.4007 93.0666L17.4455 105.92L16.317 110.43C23.582 115.911 32.4468 118.858 41.5503 118.818Z" fill="#34A853"/>
<path d="M41.55 35.4301C32.8417 35.482 24.367 38.2501 17.3098 43.3477C10.2525 48.4453 4.96498 55.6178 2.18578 63.8635C-0.593427 72.1091 -0.725548 81.0161 1.80787 89.3404C4.34128 97.6647 9.41372 104.991 16.3167 110.295L34.9595 91.6689C32.5904 90.5995 30.5164 88.9718 28.9153 86.9255C27.3142 84.8792 26.234 82.4753 25.7672 79.9202C25.3004 77.3651 25.4611 74.735 26.2354 72.2555C27.0097 69.776 28.3746 67.5213 30.2128 65.6847C32.0511 63.8481 34.3079 62.4845 36.7896 61.7109C39.2713 60.9373 41.9038 60.7767 44.4612 61.2431C47.0187 61.7094 49.4247 62.7887 51.4728 64.3883C53.521 65.988 55.1502 68.0602 56.2205 70.4271L74.8633 51.8011C70.9504 46.6903 65.9071 42.5531 60.128 39.713C54.3488 36.873 47.9904 35.4071 41.55 35.4301Z" fill="#FBBC05"/>
</svg>
