<svg width="148" height="133" viewBox="0 0 148 133" fill="none" xmlns="http://www.w3.org/2000/svg">
<path d="M11.1914 113.331L17.7079 124.598C19.0678 126.968 21.0133 128.838 23.3083 130.189L46.6166 89.8524H0C0 92.4779 0.679982 95.1034 2.0305 97.4739L11.1914 113.331Z" fill="#0066DA"/>
<path d="M73.9953 42.3764L50.687 2.03076C48.3637 3.37184 46.4371 5.29845 45.0866 7.62173L2.0305 82.212C0.708315 84.5353 0 87.1607 0 89.8335H46.6166L73.9953 42.3764Z" fill="#00AC47"/>
<path d="M124.692 130.189C127.015 128.847 128.942 126.921 130.283 124.598L132.993 119.942L145.96 97.4739C147.32 95.1128 148 92.4685 148 89.8524H101.374L111.291 109.345L124.692 130.189Z" fill="#EA4335"/>
<path d="M73.9953 42.3765L97.3036 2.03087C94.9898 0.680355 92.3549 -0.0185154 89.6727 0.000372948H58.318C55.6075 0.000372948 52.9726 0.755908 50.6871 2.03087L73.9953 42.3765Z" fill="#00832D"/>
<path d="M101.374 89.8524H46.626L23.3177 130.189C25.6032 131.549 28.2287 132.229 30.9392 132.229H117.051C119.771 132.229 122.397 131.473 124.682 130.189L101.374 89.8524Z" fill="#2684FC"/>
<path d="M124.437 44.9169L102.904 7.62173C101.563 5.3079 99.6363 3.37184 97.313 2.03076L74.0048 42.3764L101.383 89.8335H147.915C147.915 87.1607 147.207 84.5353 145.875 82.212L124.437 44.9169Z" fill="#FFBA00"/>
</svg>
