<svg width="148" height="111" viewBox="0 0 148 111" fill="none" xmlns="http://www.w3.org/2000/svg">
<g clip-path="url(#clip0_6363_27918)">
<path d="M10.0909 111H33.6364V53.8182L0 28.5909V100.909C0 106.493 4.52409 111 10.0909 111Z" fill="#4285F4"/>
<path d="M114.364 111H137.909C143.493 111 148 106.476 148 100.909V28.5909L114.364 53.8182" fill="#34A853"/>
<path d="M114.364 10.0908V53.8181L148 28.5908V15.1362C148 2.65715 133.755 -4.45694 123.782 3.02715" fill="#FBBC04"/>
<path d="M33.6364 53.8182V10.0909L74 40.3636L114.364 10.0909V53.8182L74 84.0909" fill="#EA4335"/>
<path d="M0 15.1362V28.5908L33.6364 53.8181V10.0908L24.2182 3.02715C14.2282 -4.45694 0 2.65715 0 15.1362Z" fill="#C5221F"/>
</g>
<defs>
<clipPath id="clip0_6363_27918">
<rect width="148" height="111" fill="white"/>
</clipPath>
</defs>
</svg>
