<svg width="108" height="148" viewBox="0 0 108 148" fill="none" xmlns="http://www.w3.org/2000/svg">
<mask id="mask0_6363_28257" style="mask-type:luminance" maskUnits="userSpaceOnUse" x="0" y="0" width="108" height="148">
<path d="M67.2727 0H10.0909C4.54091 0 0 4.54091 0 10.0909V137.909C0 143.459 4.54091 148 10.0909 148H97.5454C103.095 148 107.636 143.459 107.636 137.909V40.3636L67.2727 0Z" fill="white"/>
</mask>
<g mask="url(#mask0_6363_28257)">
<path d="M67.2727 0H10.0909C4.54091 0 0 4.54091 0 10.0909V137.909C0 143.459 4.54091 148 10.0909 148H97.5454C103.095 148 107.636 143.459 107.636 137.909V40.3636L84.0909 23.5455L67.2727 0Z" fill="#F4B400"/>
</g>
<mask id="mask1_6363_28257" style="mask-type:luminance" maskUnits="userSpaceOnUse" x="0" y="0" width="108" height="148">
<path d="M67.2727 0H10.0909C4.54091 0 0 4.54091 0 10.0909V137.909C0 143.459 4.54091 148 10.0909 148H97.5454C103.095 148 107.636 143.459 107.636 137.909V40.3636L67.2727 0Z" fill="white"/>
</mask>
<g mask="url(#mask1_6363_28257)">
<path d="M75.6822 67.2731H31.9549C29.1799 67.2731 26.9094 69.5435 26.9094 72.3185V116.046C26.9094 118.821 29.1799 121.091 31.9549 121.091H75.6822C78.4571 121.091 80.7276 118.821 80.7276 116.046V72.3185C80.7276 69.5435 78.4571 67.2731 75.6822 67.2731ZM74.0003 105.955H33.6367V82.4094H74.0003V105.955Z" fill="#F1F1F1"/>
</g>
<mask id="mask2_6363_28257" style="mask-type:luminance" maskUnits="userSpaceOnUse" x="0" y="0" width="108" height="148">
<path d="M67.2727 0H10.0909C4.54091 0 0 4.54091 0 10.0909V137.909C0 143.459 4.54091 148 10.0909 148H97.5454C103.095 148 107.636 143.459 107.636 137.909V40.3636L67.2727 0Z" fill="white"/>
</mask>
<g mask="url(#mask2_6363_28257)">
<path d="M70.2244 37.4123L107.636 74.8159V40.3639L70.2244 37.4123Z" fill="url(#paint0_linear_6363_28257)"/>
</g>
<mask id="mask3_6363_28257" style="mask-type:luminance" maskUnits="userSpaceOnUse" x="0" y="0" width="108" height="148">
<path d="M67.2727 0H10.0909C4.54091 0 0 4.54091 0 10.0909V137.909C0 143.459 4.54091 148 10.0909 148H97.5454C103.095 148 107.636 143.459 107.636 137.909V40.3636L67.2727 0Z" fill="white"/>
</mask>
<g mask="url(#mask3_6363_28257)">
<path d="M67.2731 0V30.2727C67.2731 35.848 71.7888 40.3636 77.364 40.3636H107.637L67.2731 0Z" fill="#FADA80"/>
</g>
<mask id="mask4_6363_28257" style="mask-type:luminance" maskUnits="userSpaceOnUse" x="0" y="0" width="108" height="148">
<path d="M67.2727 0H10.0909C4.54091 0 0 4.54091 0 10.0909V137.909C0 143.459 4.54091 148 10.0909 148H97.5454C103.095 148 107.636 143.459 107.636 137.909V40.3636L67.2727 0Z" fill="white"/>
</mask>
<g mask="url(#mask4_6363_28257)">
<path d="M67.2731 0V0.840909L106.796 40.3636H107.637L67.2731 0Z" fill="white" fill-opacity="0.1"/>
</g>
<mask id="mask5_6363_28257" style="mask-type:luminance" maskUnits="userSpaceOnUse" x="0" y="0" width="108" height="148">
<path d="M67.2727 0H10.0909C4.54091 0 0 4.54091 0 10.0909V137.909C0 143.459 4.54091 148 10.0909 148H97.5454C103.095 148 107.636 143.459 107.636 137.909V40.3636L67.2727 0Z" fill="white"/>
</mask>
<g mask="url(#mask5_6363_28257)">
<path d="M10.0909 0C4.54091 0 0 4.54091 0 10.0909V10.9318C0 5.38182 4.54091 0.840909 10.0909 0.840909H67.2727V0H10.0909Z" fill="white" fill-opacity="0.2"/>
</g>
<mask id="mask6_6363_28257" style="mask-type:luminance" maskUnits="userSpaceOnUse" x="0" y="0" width="108" height="148">
<path d="M67.2727 0H10.0909C4.54091 0 0 4.54091 0 10.0909V137.909C0 143.459 4.54091 148 10.0909 148H97.5454C103.095 148 107.636 143.459 107.636 137.909V40.3636L67.2727 0Z" fill="white"/>
</mask>
<g mask="url(#mask6_6363_28257)">
<path d="M97.5454 147.159H10.0909C4.54091 147.159 0 142.618 0 137.068V137.909C0 143.459 4.54091 148 10.0909 148H97.5454C103.095 148 107.636 143.459 107.636 137.909V137.068C107.636 142.618 103.095 147.159 97.5454 147.159Z" fill="#BF360C" fill-opacity="0.2"/>
</g>
<mask id="mask7_6363_28257" style="mask-type:luminance" maskUnits="userSpaceOnUse" x="0" y="0" width="108" height="148">
<path d="M67.2727 0H10.0909C4.54091 0 0 4.54091 0 10.0909V137.909C0 143.459 4.54091 148 10.0909 148H97.5454C103.095 148 107.636 143.459 107.636 137.909V40.3636L67.2727 0Z" fill="white"/>
</mask>
<g mask="url(#mask7_6363_28257)">
<path d="M77.364 40.3636C71.7887 40.3636 67.2731 35.8479 67.2731 30.2727V31.1136C67.2731 36.6888 71.7887 41.2045 77.364 41.2045H107.637V40.3636H77.364Z" fill="#BF360C" fill-opacity="0.1"/>
</g>
<path d="M67.2727 0H10.0909C4.54091 0 0 4.54091 0 10.0909V137.909C0 143.459 4.54091 148 10.0909 148H97.5454C103.095 148 107.636 143.459 107.636 137.909V40.3636L67.2727 0Z" fill="url(#paint1_radial_6363_28257)"/>
<defs>
<linearGradient id="paint0_linear_6363_28257" x1="1941.03" y1="358.564" x2="1941.03" y2="3778.3" gradientUnits="userSpaceOnUse">
<stop stop-color="#BF360C" stop-opacity="0.2"/>
<stop offset="1" stop-color="#BF360C" stop-opacity="0.02"/>
</linearGradient>
<radialGradient id="paint1_radial_6363_28257" cx="0" cy="0" r="1" gradientUnits="userSpaceOnUse" gradientTransform="translate(340.997 292.513) scale(17356.2 17356.2)">
<stop stop-color="white" stop-opacity="0.1"/>
<stop offset="1" stop-color="white" stop-opacity="0"/>
</radialGradient>
</defs>
</svg>
