<svg width="107" height="148" viewBox="0 0 107 148" fill="none" xmlns="http://www.w3.org/2000/svg">
<g clip-path="url(#clip0_6363_27924)">
<mask id="mask0_6363_27924" style="mask-type:luminance" maskUnits="userSpaceOnUse" x="0" y="0" width="107" height="148">
<path d="M66.6 0H9.99C4.4955 0 0 4.54091 0 10.0909V137.909C0 143.459 4.4955 148 9.99 148H96.57C102.064 148 106.56 143.459 106.56 137.909V40.3636L66.6 0Z" fill="white"/>
</mask>
<g mask="url(#mask0_6363_27924)">
<path d="M66.6 0H9.99C4.4955 0 0 4.54091 0 10.0909V137.909C0 143.459 4.4955 148 9.99 148H96.57C102.064 148 106.56 143.459 106.56 137.909V40.3636L83.25 23.5455L66.6 0Z" fill="#4285F4"/>
</g>
<mask id="mask1_6363_27924" style="mask-type:luminance" maskUnits="userSpaceOnUse" x="0" y="0" width="107" height="148">
<path d="M66.6 0H9.99C4.4955 0 0 4.54091 0 10.0909V137.909C0 143.459 4.4955 148 9.99 148H96.57C102.064 148 106.56 143.459 106.56 137.909V40.3636L66.6 0Z" fill="white"/>
</mask>
<g mask="url(#mask1_6363_27924)">
<path d="M69.5219 37.4121L106.56 74.8157V40.3637L69.5219 37.4121Z" fill="url(#paint0_linear_6363_27924)"/>
</g>
<mask id="mask2_6363_27924" style="mask-type:luminance" maskUnits="userSpaceOnUse" x="0" y="0" width="107" height="148">
<path d="M66.6 0H9.99C4.4955 0 0 4.54091 0 10.0909V137.909C0 143.459 4.4955 148 9.99 148H96.57C102.064 148 106.56 143.459 106.56 137.909V40.3636L66.6 0Z" fill="white"/>
</mask>
<g mask="url(#mask2_6363_27924)">
<path d="M26.6398 107.636H79.9198V100.909H26.6398V107.636ZM26.6398 121.091H66.5998V114.364H26.6398V121.091ZM26.6398 74V80.7273H79.9198V74H26.6398ZM26.6398 94.1818H79.9198V87.4545H26.6398V94.1818Z" fill="#F1F1F1"/>
</g>
<mask id="mask3_6363_27924" style="mask-type:luminance" maskUnits="userSpaceOnUse" x="0" y="0" width="107" height="148">
<path d="M66.6 0H9.99C4.4955 0 0 4.54091 0 10.0909V137.909C0 143.459 4.4955 148 9.99 148H96.57C102.064 148 106.56 143.459 106.56 137.909V40.3636L66.6 0Z" fill="white"/>
</mask>
<g mask="url(#mask3_6363_27924)">
<path d="M66.5998 0V30.2727C66.5998 35.848 71.0703 40.3636 76.5898 40.3636H106.56L66.5998 0Z" fill="#A1C2FA"/>
</g>
<mask id="mask4_6363_27924" style="mask-type:luminance" maskUnits="userSpaceOnUse" x="0" y="0" width="107" height="148">
<path d="M66.6 0H9.99C4.4955 0 0 4.54091 0 10.0909V137.909C0 143.459 4.4955 148 9.99 148H96.57C102.064 148 106.56 143.459 106.56 137.909V40.3636L66.6 0Z" fill="white"/>
</mask>
<g mask="url(#mask4_6363_27924)">
<path d="M9.99 0C4.4955 0 0 4.54091 0 10.0909V10.9318C0 5.38182 4.4955 0.840909 9.99 0.840909H66.6V0H9.99Z" fill="white" fill-opacity="0.2"/>
</g>
<mask id="mask5_6363_27924" style="mask-type:luminance" maskUnits="userSpaceOnUse" x="0" y="0" width="107" height="148">
<path d="M66.6 0H9.99C4.4955 0 0 4.54091 0 10.0909V137.909C0 143.459 4.4955 148 9.99 148H96.57C102.064 148 106.56 143.459 106.56 137.909V40.3636L66.6 0Z" fill="white"/>
</mask>
<g mask="url(#mask5_6363_27924)">
<path d="M96.5698 147.159H9.98976C4.49526 147.159 -0.000244141 142.618 -0.000244141 137.068V137.909C-0.000244141 143.459 4.49526 148 9.98976 148H96.5698C102.064 148 106.56 143.459 106.56 137.909V137.068C106.56 142.618 102.064 147.159 96.5698 147.159Z" fill="#1A237E" fill-opacity="0.2"/>
</g>
<mask id="mask6_6363_27924" style="mask-type:luminance" maskUnits="userSpaceOnUse" x="0" y="0" width="107" height="148">
<path d="M66.6 0H9.99C4.4955 0 0 4.54091 0 10.0909V137.909C0 143.459 4.4955 148 9.99 148H96.57C102.064 148 106.56 143.459 106.56 137.909V40.3636L66.6 0Z" fill="white"/>
</mask>
<g mask="url(#mask6_6363_27924)">
<path d="M76.5898 40.3637C71.0703 40.3637 66.5998 35.848 66.5998 30.2728V31.1137C66.5998 36.6889 71.0703 41.2046 76.5898 41.2046H106.56V40.3637H76.5898Z" fill="#1A237E" fill-opacity="0.1"/>
</g>
<path d="M66.6 0H9.99C4.4955 0 0 4.54091 0 10.0909V137.909C0 143.459 4.4955 148 9.99 148H96.57C102.064 148 106.56 143.459 106.56 137.909V40.3636L66.6 0Z" fill="url(#paint1_radial_6363_27924)"/>
</g>
<defs>
<linearGradient id="paint0_linear_6363_27924" x1="1921.62" y1="358.564" x2="1921.62" y2="3778.3" gradientUnits="userSpaceOnUse">
<stop stop-color="#1A237E" stop-opacity="0.2"/>
<stop offset="1" stop-color="#1A237E" stop-opacity="0.02"/>
</linearGradient>
<radialGradient id="paint1_radial_6363_27924" cx="0" cy="0" r="1" gradientUnits="userSpaceOnUse" gradientTransform="translate(337.587 290.825) scale(17182.6 17256.1)">
<stop stop-color="white" stop-opacity="0.1"/>
<stop offset="1" stop-color="white" stop-opacity="0"/>
</radialGradient>
<clipPath id="clip0_6363_27924">
<rect width="106.56" height="148" fill="white"/>
</clipPath>
</defs>
</svg>
