<svg width="190" height="124" viewBox="0 0 190 124" fill="none" xmlns="http://www.w3.org/2000/svg">
<path d="M188.189 0.630439C187.674 0.203339 187.021 -0.0204152 186.352 0.00146559C184.528 0.00146559 182.17 1.25941 180.905 1.88839C180.685 2.00789 180.515 2.09595 180.396 2.14627C178.274 3.19081 175.959 3.78608 173.597 3.89481C171.169 3.97029 169.074 4.11495 166.364 4.39799C150.211 6.07735 143.047 18.4052 136.122 30.3557C132.349 36.8467 128.462 43.5642 123.122 48.7721C122.017 49.843 120.843 50.839 119.606 51.7534C114.083 55.8669 107.146 58.7791 101.724 60.8547C96.5286 62.8359 90.8552 64.6285 85.3706 66.3519C80.3388 67.9306 75.6152 69.4276 71.2564 71.044C69.2877 71.7737 67.6147 72.302 66.1429 72.824C62.174 74.1449 59.3059 75.1009 55.1295 77.9628C53.5005 79.076 51.8652 80.2837 50.7267 81.1957C47.4146 83.8464 44.4833 86.9407 42.0154 90.3913C39.899 93.5743 37.4535 96.5258 34.7193 99.1969C33.8388 100.059 32.2726 100.455 29.9266 100.455C27.178 100.455 23.8444 99.8888 20.3158 99.2912C16.6867 98.6623 12.9254 98.0333 9.70506 98.0333C7.08224 98.0333 5.08211 98.4547 3.57886 99.329C3.57886 99.329 1.06297 100.801 0 102.7L1.0441 103.172C2.66086 104.043 4.16128 105.114 5.50981 106.361C6.90733 107.655 8.46523 108.765 10.1453 109.663C10.6821 109.877 11.1684 110.2 11.5731 110.613C11.1328 111.242 10.485 112.091 9.81199 112.978C6.08847 117.846 3.91851 120.922 5.16387 122.595C5.74414 122.903 6.39393 123.057 7.05079 123.041C15.1646 123.041 19.5171 120.928 25.0332 118.261C26.6307 117.487 28.2787 116.689 30.1656 115.871C33.3859 114.475 36.8579 112.248 40.5311 109.883C45.3993 106.738 50.4311 103.524 55.3057 101.958C59.3219 100.734 63.5048 100.147 67.7027 100.216C72.8792 100.216 78.2883 100.908 83.5214 101.581C87.4273 102.078 91.4653 102.593 95.4279 102.839C96.9689 102.933 98.3966 102.977 99.7804 102.977C101.636 102.985 103.49 102.886 105.334 102.681L105.774 102.53C108.555 100.82 109.857 97.1527 111.121 93.6116C111.932 91.3284 112.611 89.278 113.668 87.9508C113.735 87.8866 113.806 87.8277 113.882 87.7747C113.933 87.7463 113.992 87.7364 114.049 87.7467C114.107 87.757 114.159 87.7869 114.196 87.8313C114.196 87.8313 114.196 87.8628 114.196 87.9257C113.53 101.801 107.97 110.6 102.321 118.425L98.5476 122.469C98.5476 122.469 103.825 122.469 106.825 121.312C117.782 118.035 126.059 110.814 132.078 99.2975C133.562 96.3421 134.889 93.3104 136.053 90.2152C136.154 89.9573 137.11 89.4793 137.016 90.8127C137.016 91.2089 136.959 91.6429 136.928 92.0706C136.928 92.3411 136.89 92.6178 136.877 92.8946C136.72 94.7815 136.248 98.9139 136.248 98.9139L139.632 97.1024C147.809 91.9323 154.099 81.5416 158.854 65.3581C160.841 58.6155 162.294 51.917 163.577 46.0109C165.112 38.9475 166.439 32.8465 167.98 30.4878C170.358 26.7832 173.987 24.2799 177.496 21.852L178.93 20.8582C183.333 17.7574 187.736 14.1785 188.705 7.51141V7.36046C189.459 2.48591 188.862 1.21538 188.189 0.630439Z" fill="white"/>
</svg>
