<svg width="148" height="122" viewBox="0 0 148 122" fill="none" xmlns="http://www.w3.org/2000/svg">
<g clip-path="url(#clip0_6363_27969)">
<path d="M83.7257 61L98.1536 77.5209L117.554 89.9411L120.937 61.1017L117.554 32.9061L97.7815 43.8184L83.7257 61Z" fill="#00832D"/>
<path d="M0 87.2639V111.833C0 117.45 4.54149 122 10.1486 122H34.6743L39.7486 103.429L34.6743 87.2639L17.8446 82.1805L0 87.2639Z" fill="#0066DA"/>
<path d="M34.6743 0L0 34.7361L17.8446 39.8194L34.6743 34.7361L39.664 18.7914L34.6743 0Z" fill="#E94235"/>
<path d="M34.6743 34.7361H0V87.2639H34.6743V34.7361Z" fill="#2684FC"/>
<path d="M139.712 14.7078L117.554 32.9061V89.9411L139.814 108.224C143.146 110.834 148.017 108.453 148.017 104.208V18.6389C148.017 14.3435 143.036 11.9882 139.712 14.7078ZM83.7257 61V87.2639H34.6743V122H107.406C113.013 122 117.554 117.45 117.554 111.833V89.9411L83.7257 61Z" fill="#00AC47"/>
<path d="M107.406 0H34.6743V34.7361H83.7257V61L117.554 32.9231V10.1667C117.554 4.54958 113.013 0 107.406 0Z" fill="#FFBA00"/>
</g>
<defs>
<clipPath id="clip0_6363_27969">
<rect width="148" height="122" fill="white"/>
</clipPath>
</defs>
</svg>
