<svg width="80" height="160" viewBox="0 0 80 160" fill="none" xmlns="http://www.w3.org/2000/svg">
<path d="M50.2101 159.646C50.0184 159.543 47.8703 157.462 45.4365 155.021L41.0114 150.584V121.727C41.0114 105.856 40.9711 92.8301 40.9221 92.7808C40.8316 92.6906 33.5782 96.3359 12.2427 107.194C5.81032 110.468 0.458919 113.112 0.350765 113.071C0.224493 113.022 0.18268 112.881 0.234109 112.677C0.278012 112.501 0.375992 111.773 0.451811 111.058C0.835647 107.436 3.69309 98.9286 6.72447 92.3819C14.9854 74.5416 28.3517 59.7563 45.3575 49.6475C48.1328 47.9978 50.4641 46.7912 50.7007 46.8819C50.881 46.9512 50.9069 48.829 50.9069 61.8089C50.9069 72.4413 50.9501 76.6565 51.059 76.6565C51.1426 76.6565 51.7801 76.3626 52.4757 76.0034C57.3542 73.4837 60.8952 68.7771 62.0786 63.2395C62.4787 61.3669 62.5148 57.9541 62.1534 56.1432C61.4896 52.8158 59.9575 49.6854 57.7977 47.2439C56.7312 46.0383 53.1904 42.3149 46.9341 35.82C37.4741 25.9994 35.742 24.1222 34.6337 22.4889C33.8205 21.2903 33.1187 19.825 32.6933 18.4384C32.3522 17.3263 32.317 17.0019 32.3095 14.9139C32.3004 12.3652 32.4452 11.572 33.283 9.58315C34.8997 5.74521 39.1119 2.16526 42.6142 1.65236C45.0709 1.29278 48.1749 1.36205 50.1942 1.82198C51.8402 2.1969 54.5067 3.80457 56.3346 5.52403C58.4804 7.54272 59.5607 9.15402 67.6294 22.3704C77.1507 37.9661 78.2861 39.8886 78.4487 40.6901C78.6097 41.4834 78.4932 41.8186 78.0599 41.8089C77.699 41.8008 77.8083 41.9127 60.666 23.9732C59.1644 22.4018 56.5493 19.6422 54.855 17.8408C50.4328 13.1396 48.5979 11.3682 47.766 10.9978C46.7011 10.5234 45.2236 10.5451 44.1946 11.0505C42.177 12.0413 41.222 14.3265 41.9831 16.3425C42.3605 17.3419 41.8348 16.7691 54.2303 29.6875C59.7835 35.475 64.7996 40.7747 65.3773 41.4646C74.6993 52.5984 73.9414 69.1419 63.6407 79.3733C61.2755 81.7225 58.9112 83.3319 54.5307 85.5745C53.0359 86.3396 51.6091 87.0913 51.3599 87.2447L50.9069 87.5235V123.473C50.9069 143.245 50.8689 159.521 50.8223 159.642C50.7244 159.898 50.6788 159.898 50.2101 159.646ZM25.4531 89.9051C37.655 83.6422 40.1733 82.3173 40.531 81.9731C40.7554 81.7573 40.8532 81.4462 40.9201 80.7386C41.0552 79.3082 41.0291 64.2798 40.8914 64.1947C40.5881 64.0072 35.4628 68.5624 32.0218 72.0777C26.073 78.1544 21.0998 85.0163 17.0112 92.7879C16.4766 93.8042 16.0836 94.6359 16.1378 94.6359C16.192 94.6359 20.3841 92.5071 25.4532 89.9051H25.4531Z" fill="#F8E6EA"/>
<path d="M45.7212 155.159L41.0112 150.454V92.5223L32.4049 96.873C27.6715 99.266 18.5805 103.881 12.2031 107.129C5.82561 110.376 0.503625 113.033 0.376098 113.033C0.194494 113.033 0.164668 112.953 0.238257 112.66C0.289826 112.454 0.386551 111.811 0.453311 111.231C0.738191 108.752 2.71284 102.248 4.65543 97.3892C13.0576 76.3761 28.1571 59.2447 47.9728 48.243C49.2337 47.5429 50.3716 46.9701 50.5015 46.9701C50.6314 46.9701 50.7756 47.0693 50.8222 47.1906C50.8687 47.3118 50.9068 54.0268 50.9068 62.1129V76.8149L51.2204 76.7179C51.6735 76.5778 52.4722 76.1618 53.5331 75.513C57.8187 72.8923 60.7637 68.8537 62.0215 63.8725C62.3708 62.4888 62.4008 62.1519 62.4029 59.5834C62.4052 56.6069 62.2887 55.7913 61.5368 53.5206C61.0554 52.0664 59.8236 49.7323 58.8561 48.4402C57.7351 46.9433 55.3653 44.4264 43.171 31.7812C39.2692 27.7352 36.1121 24.3255 35.3676 23.3535C31.9926 18.9472 31.3454 13.896 33.5574 9.22653C34.3496 7.55404 35.1309 6.47013 36.5015 5.14218C38.3648 3.33687 40.8095 1.98439 42.8068 1.65393C44.4338 1.38494 47.0907 1.35219 48.6301 1.58257C52.3178 2.13449 55.7497 4.43792 58.6617 8.31572C60.1708 10.3252 64.5467 17.3764 75.139 34.8659C78.3474 40.1635 78.8508 41.2064 78.4118 41.6454C78.029 42.0281 78.6822 42.6778 63.722 27.0331C60.5368 23.702 56.5156 19.4716 54.786 17.6319C50.0608 12.6058 48.6382 11.2608 47.6603 10.895C45.4136 10.0545 43.1584 10.9514 42.0352 13.1323C41.5045 14.1627 41.4978 15.4889 42.0176 16.6161C42.4571 17.5694 41.7972 16.856 54.3043 29.8968C59.8182 35.6459 64.7336 40.8202 65.2277 41.3951C68.6329 45.3583 70.9161 50.5939 71.6096 56.0294C71.898 58.2892 71.8277 62.0387 71.4584 64.113C70.4153 69.9708 67.749 75.1358 63.6546 79.2302C61.1089 81.776 59.0143 83.1908 53.9033 85.8167L50.9764 87.3206L50.9061 123.557C50.8675 143.487 50.8204 159.809 50.8015 159.828C50.6329 160 49.828 159.26 45.7214 155.159H45.7212ZM25.924 89.7481C38.9438 83.0746 40.1885 82.4139 40.6281 81.9417L41.0114 81.5303V72.752C41.0114 67.9239 40.9698 63.9737 40.919 63.9737C40.8682 63.9737 40.3507 64.3625 39.7691 64.8378C32.7524 70.5715 26.8174 77.0662 21.9609 84.3256C19.2239 88.417 15.577 94.9351 16.1432 94.7238C16.2909 94.6687 20.6923 92.4296 25.924 89.7482V89.7481Z" fill="#F5DBE0"/>
<path d="M48.0865 157.528C46.785 156.244 44.6607 154.085 43.3659 152.729L41.0113 150.265V121.405C41.0113 105.532 40.9877 92.5454 40.959 92.5454C40.8881 92.5454 23.9326 101.134 11.0695 107.686C5.29494 110.627 0.474561 113.033 0.357487 113.033C0.199019 113.033 0.167242 112.943 0.233444 112.679C0.282504 112.484 0.379787 111.872 0.449892 111.319C0.519997 110.767 0.826201 109.343 1.13059 108.155C2.6952 102.047 4.78846 96.5288 7.97747 90.1063C9.99672 86.0398 11.733 83.0063 14.0406 79.5139C21.6431 68.0075 31.9555 58.0455 43.9381 50.6322C46.4566 49.074 50.2537 46.9701 50.5472 46.9701C50.7466 46.9701 50.7675 48.3792 50.7675 61.8178C50.7675 74.3833 50.7973 76.677 50.9617 76.7401C51.0685 76.7811 51.5898 76.5961 52.1199 76.3289C56.4684 74.1392 59.8815 70.2798 61.4824 65.7421C62.2286 63.6268 62.5123 61.9394 62.5183 59.5835C62.528 55.725 61.528 52.3612 59.4316 49.2001C58.3272 47.5346 57.1467 46.2533 47.3592 36.0962C36.9796 25.3244 35.7538 23.9871 34.5066 22.0735C32.9921 19.7503 32.329 17.542 32.3354 14.8445C32.3378 13.8552 32.4288 12.767 32.558 12.1803C33.5046 7.88414 36.3247 4.38795 40.3574 2.50989C42.1344 1.68257 43.5749 1.3949 45.9418 1.3949C49.3049 1.3949 51.6686 2.13678 54.3612 4.03729C57.4712 6.23242 58.6219 7.81195 66.4474 20.629C75.4285 35.3387 78.2663 40.1037 78.4366 40.7602C78.5371 41.1476 78.6088 41.4667 78.5959 41.4693C78.5831 41.472 78.4656 41.5557 78.3352 41.6554C78.1288 41.8129 78.0035 41.7488 77.3746 41.163C76.3799 40.2361 59.5884 22.7019 54.3648 17.1351C49.6744 12.1367 48.9691 11.4726 47.7658 10.9218C45.6359 9.9466 43.0972 10.8985 42.0296 13.0723C41.7052 13.733 41.639 14.0471 41.6414 14.9142C41.6439 15.7897 41.7111 16.092 42.0548 16.7759C42.471 17.6041 42.6209 17.7637 60.567 36.4757C62.852 38.8584 65.1416 41.332 65.6547 41.9726C72.4036 50.3982 73.7087 61.8919 69.0208 71.6189C67.5135 74.7466 65.75 77.1563 63.1314 79.6667C60.635 82.06 58.8765 83.227 53.9034 85.7912C52.2936 86.6211 50.9305 87.3671 50.8741 87.4489C50.8178 87.5307 50.7708 103.857 50.7696 123.73C50.768 150.492 50.7266 159.863 50.61 159.863C50.5234 159.863 49.3877 158.812 48.0865 157.528ZM18.0435 93.8153C19.0624 93.2872 23.6593 90.9253 28.2586 88.5665C39.1927 82.9588 40.4775 82.2752 40.7643 81.9106C40.9866 81.6281 41.0054 80.9277 41.0082 72.7891C41.0099 67.8868 40.9575 63.9737 40.8902 63.9737C40.8236 63.9737 39.8045 64.7825 38.6254 65.7708C30.9608 72.1964 24.6538 79.5656 19.5869 88.0157C18.3986 89.9975 15.924 94.5063 15.924 94.6898C15.924 94.8775 16.2652 94.7367 18.0435 93.8153Z" fill="#F3D5DA"/>
<path d="M45.8484 155.232C43.3344 152.681 41.2177 150.449 41.1445 150.272C41.0615 150.07 41.0114 139.156 41.0114 121.247C41.0114 105.461 40.971 92.5453 40.9219 92.5453C40.8195 92.5453 32.7595 96.623 13.7507 106.292C6.46122 110 0.417832 113.033 0.320968 113.033C0.205287 113.033 0.173092 112.92 0.227169 112.704C0.272605 112.524 0.375463 111.912 0.455742 111.346C0.976164 107.674 3.52336 99.8765 6.09592 94.0784C13.728 76.8776 25.6731 62.7359 41.3599 52.3297C45.2361 49.7582 50.3293 46.8551 50.6338 47.0432C50.718 47.0952 50.7676 52.6306 50.7676 61.961C50.7676 75.3927 50.7885 76.7961 50.9879 76.7961C51.329 76.7961 53.0798 75.8798 54.3913 75.015C55.8298 74.0666 58.2366 71.689 59.2258 70.2395C60.6903 68.0931 61.7777 65.4849 62.2875 62.8963C62.6146 61.2347 62.6159 57.7984 62.2898 56.1434C61.8096 53.7057 60.8616 51.3718 59.5126 49.306C58.3359 47.5039 57.7296 46.8439 46.8037 35.4717C36.5039 24.7514 36.3205 24.5547 35.1678 23C32.1098 18.8757 31.4981 14.203 33.415 9.61037C35.0943 5.5872 39.0909 2.34369 43.2827 1.60223C44.7338 1.3455 47.145 1.34271 48.6895 1.59595C50.911 1.96028 53.1255 3.02913 55.3126 4.79249C57.9601 6.92728 58.9519 8.36604 67.91 23.0675C77.2561 38.4058 78.3406 40.2404 78.4355 40.8734C78.5378 41.5557 78.4085 41.7511 77.9512 41.606C77.8023 41.5587 75.5895 39.344 73.0337 36.684C63.9342 27.2144 58.5883 21.6084 54.7285 17.4886C48.643 10.9931 48.0869 10.5485 46.0289 10.5322C45.1584 10.5252 44.8521 10.5884 44.1972 10.9099C43.3234 11.3392 42.452 12.203 41.9645 13.1231C41.7075 13.6084 41.6429 13.9519 41.6411 14.8444C41.6375 16.4572 42.0022 17.1186 44.1199 19.3398C45.0515 20.3168 50.0137 25.4966 55.1471 30.8507C60.2803 36.2044 64.8813 41.0651 65.3716 41.6521C70.0139 47.2112 72.3803 54.8721 71.67 62.0425C70.877 70.0487 66.9128 77.1223 60.5769 81.8368C58.8612 83.1135 57.7002 83.7953 53.8702 85.7761L50.8373 87.3446L50.8022 123.604C50.7743 152.468 50.7316 159.863 50.5931 159.866C50.4975 159.867 48.3623 157.782 45.8484 155.232ZM25.6803 89.9316C38.441 83.3852 40.365 82.3695 40.6978 82.0035L41.0114 81.6585V72.8161C41.0114 67.1174 40.9626 63.9737 40.8744 63.9737C40.6765 63.9737 37.3962 66.7386 35.0444 68.8877C29.1787 74.2477 23.3444 81.5306 19.087 88.807C17.6956 91.185 15.9241 94.5159 15.9241 94.7541C15.9241 94.947 15.3692 95.2213 25.6803 89.9316Z" fill="#F0CDD3"/>
<path d="M45.8303 155.178L41.1624 150.455L41.1565 121.578C41.1526 102.089 41.1046 92.6726 41.0085 92.6132C40.8636 92.5236 32.4232 96.7564 11.9255 107.198C5.62529 110.408 0.399747 113.033 0.313335 113.033C0.226923 113.033 0.190407 112.924 0.23208 112.789C0.273892 112.655 0.371872 112.092 0.449782 111.538C0.914036 108.233 2.98708 101.515 5.12814 96.3781C9.47856 85.9392 15.2775 76.6863 22.5542 68.5731C24.5497 66.3481 29.3194 61.6568 31.3947 59.8778C35.2281 56.5914 39.3348 53.5631 43.3808 51.0389C46.1691 49.2993 50.1053 47.0858 50.4591 47.0584C50.6829 47.0409 50.7024 47.9811 50.7676 61.9528C50.8369 76.7688 50.8391 76.8655 51.1161 76.8202C51.4956 76.7581 53.2471 75.8098 54.4495 75.0154C55.7954 74.1261 58.4896 71.4128 59.3931 70.0365C60.774 67.9329 61.7655 65.5255 62.2917 62.9981C62.6361 61.3446 62.6345 57.6687 62.2885 56.0294C61.6434 52.9721 60.1627 49.8108 58.3713 47.667C57.5096 46.6356 54.4351 43.3864 47.4252 36.099C36.6739 24.922 35.9185 24.1003 34.6589 22.216C33.7628 20.8749 33.1845 19.6433 32.7545 18.16C32.4823 17.2207 32.4411 16.7649 32.4486 14.7748C32.4564 12.6874 32.4918 12.3621 32.8327 11.2503C34.1215 7.04776 36.96 3.94363 41.0697 2.24229C42.3671 1.70529 44.1647 1.39992 46.0289 1.39978C50.0275 1.39964 53.2136 2.76286 56.3674 5.82309C58.686 8.07286 59.6983 9.60959 69.7584 26.152C78.1912 40.0183 78.3365 40.2646 78.4375 40.8625C78.5572 41.5707 78.3698 41.7989 77.8827 41.5382C77.4818 41.3235 63.694 26.9929 55.2135 17.9765C48.4772 10.8145 48.1135 10.5217 45.9592 10.5267C44.5688 10.5299 43.7552 10.9113 42.7177 12.0465C41.8191 13.0298 41.5086 13.8999 41.6006 15.1767C41.6947 16.4803 42.1688 17.3165 43.7686 18.9992C44.5111 19.7804 49.5322 25.0228 54.9265 30.649C60.3207 36.2754 65.1143 41.3556 65.5789 41.9383C66.9077 43.6051 68.0072 45.3552 68.9591 47.3186C74.7837 59.3322 71.2797 73.8073 60.6204 81.7656C58.8248 83.1064 57.9108 83.6475 54.0601 85.6496L50.8373 87.3254L50.7676 123.513C50.7293 143.416 50.6531 159.745 50.5981 159.8C50.5432 159.855 48.3977 157.775 45.8303 155.178ZM26.3075 89.6192C39.6506 82.779 40.4584 82.3484 40.7956 81.8969C41.0752 81.5226 41.082 81.333 41.1228 72.793C41.1474 67.6814 41.1121 64.0186 41.0378 63.9443C40.7761 63.6826 36.2275 67.6221 32.6465 71.2121C27.4482 76.4236 23.2973 81.7562 19.4018 88.2283C17.5468 91.31 15.6624 94.9907 16.0053 94.863C16.1523 94.8082 20.7883 92.4485 26.3075 89.6192Z" fill="#EEC3CB"/>
<path d="M49.7561 159.139C49.3363 158.732 47.2284 156.606 45.0717 154.413L41.1507 150.427V121.486C41.1507 95.7778 41.1272 92.5453 40.9404 92.5453C40.7438 92.5453 29.1624 98.3785 12.5791 106.83C2.87367 111.777 0.30013 113.067 0.252185 113.011C0.157829 112.901 0.528564 110.978 1.10794 108.573C3.37527 99.16 8.27663 88.2603 14.3008 79.2351C22.0029 67.6959 32.436 57.7214 44.5149 50.3489C46.886 48.9018 50.1993 47.1095 50.5038 47.1095C50.7608 47.1095 50.7675 47.4828 50.7675 61.9445C50.7675 71.8369 50.8146 76.8088 50.9091 76.8671C50.9869 76.9152 51.6531 76.6375 52.3896 76.2497C58.7244 72.9148 62.6094 66.5722 62.6135 59.5586C62.616 55.2066 61.2002 51.2095 58.4329 47.756C57.4626 46.545 56.3306 45.343 47.783 36.4474C36.8583 25.0778 36.5881 24.7893 35.4122 23.2448C34.3098 21.7967 33.3215 19.9056 32.8429 18.3288C32.5015 17.2036 32.4613 16.852 32.4527 14.9141C32.441 12.3138 32.698 11.1525 33.7639 8.99072C35.0508 6.37954 37.1366 4.24655 39.7182 2.90148C41.81 1.81157 43.5647 1.39443 46.0556 1.39526C51.0283 1.39694 55.2793 3.82929 58.8437 8.71197C60.3323 10.7513 65.9002 19.765 76.4522 37.2178C78.402 40.4429 78.8171 41.4227 78.3154 41.6152C77.9043 41.773 78.7938 42.6665 64.906 28.1451C60.9157 23.9726 56.2976 19.1162 54.6436 17.3531C48.6836 10.9998 48.0943 10.533 46.0288 10.5272C44.6278 10.5233 43.8875 10.8189 42.9038 11.7748C42.056 12.5988 41.6808 13.391 41.5991 14.529C41.5198 15.633 41.719 16.4575 42.2635 17.2801C42.4774 17.6033 45.8426 21.196 49.7415 25.2637C53.6403 29.3315 58.5794 34.484 60.7173 36.7137C62.8553 38.9437 64.9751 41.2215 65.4281 41.7759C68.2669 45.2495 70.2322 49.3966 71.1922 53.9388C71.4976 55.3838 71.573 56.174 71.6343 58.5722C71.6817 60.4263 71.6482 61.9512 71.5412 62.8232C70.7767 69.0486 68.0033 74.7501 63.5906 79.1679C61.0515 81.7101 59.0954 83.0147 53.2762 86.0476L50.8372 87.3188L50.7675 123.51C50.7292 143.414 50.6576 159.74 50.6085 159.79C50.5593 159.839 50.1757 159.546 49.7559 159.139H49.7561ZM24.6721 90.5001C37.4669 83.9353 40.0557 82.5731 40.5932 82.1218L41.081 81.7123L41.119 72.8879C41.1403 67.9228 41.1032 64.0098 41.0339 63.9406C40.8922 63.7988 39.5214 64.8597 37.0618 67.015C30.0658 73.145 24.1612 80.2256 19.3747 88.2247C18.3108 90.0024 15.7847 94.6418 15.7847 94.8175C15.7847 94.8709 15.8485 94.9147 15.9264 94.9147C16.0044 94.9147 19.94 92.9282 24.6721 90.5001Z" fill="#ECBBC4"/>
<path d="M45.8413 155.113L41.1508 150.346V121.469C41.1508 105.587 41.109 92.5502 41.0581 92.4992C40.9622 92.4034 32.3593 96.7241 12.0451 107.071C5.58063 110.363 0.269369 113.035 0.242191 113.008C0.142678 112.908 1.01599 108.862 1.57502 106.831C5.0354 94.2642 11.8116 81.406 20.3779 71.1514C26.1897 64.1946 33.5513 57.5916 41.0811 52.5817C44.9649 49.9977 50.1783 47.014 50.5563 47.1589C50.7433 47.2307 50.7676 48.9483 50.7676 62.0878C50.7676 73.9907 50.8027 76.9354 50.9444 76.9354C51.2293 76.9354 53.1267 75.9413 54.1833 75.2384C58.569 72.321 61.4846 67.8494 62.3952 62.6433C62.6776 61.0286 62.6782 58.0064 62.3964 56.3778C62.1006 54.6682 61.3508 52.4801 60.5094 50.8713C59.0857 48.1487 58.4943 47.485 45.5482 34.078C36.3336 24.5355 34.8604 22.841 33.6993 20.449C32.7543 18.502 32.4466 17.0744 32.4612 14.705C32.4756 12.3761 32.7391 11.2083 33.7021 9.20757C34.5254 7.49703 35.2877 6.4449 36.6391 5.1543C39.2349 2.67512 42.4251 1.3965 46.0176 1.39539C49.8168 1.39399 53.2353 2.84808 56.3187 5.77716C58.3676 7.72338 59.8818 10.02 69.0969 25.1581C78.5804 40.7373 78.7464 41.0279 78.4388 41.5254C78.2838 41.7762 78.1034 41.6966 77.4321 41.0815C76.5506 40.2737 59.4876 22.4584 54.2699 16.8982C49.7695 12.1024 48.7572 11.1674 47.5915 10.7304C45.3281 9.88172 42.9293 10.9283 41.8737 13.2249C41.135 14.8324 41.4913 16.5389 42.8974 18.1271C43.267 18.5446 48.3183 23.841 54.1224 29.8968C59.9265 35.9526 64.9877 41.2836 65.3696 41.7435C67.9482 44.8495 70.0197 49.0601 70.9828 53.1532C72.26 58.5809 71.778 64.7066 69.6622 69.9396C68.1926 73.574 66.4321 76.2054 63.5304 79.1042C60.7237 81.9083 59.0908 83.0194 53.7288 85.7737L50.7676 87.2948L50.7655 123.405C50.7644 143.265 50.7111 159.596 50.6476 159.697C50.5651 159.827 49.1878 158.514 45.8413 155.113V155.113ZM31.6733 86.9369C40.0044 82.6456 40.634 82.2967 40.9186 81.8149C41.1286 81.4595 41.1508 80.5842 41.1508 72.6281C41.1508 65.6424 41.1145 63.8341 40.9749 63.8341C40.8782 63.8341 39.7963 64.6735 38.5707 65.6992C30.7465 72.2484 24.3546 79.7672 19.143 88.5521C17.8537 90.7253 15.7847 94.6379 15.7847 94.9025C15.7847 95.0748 19.1566 93.3843 31.6733 86.9369Z" fill="#E7A8B4"/>
<path d="M45.8546 155.085L41.1507 150.27V121.338C41.1507 101.823 41.1046 92.4059 41.009 92.4059C40.8654 92.4059 29.0173 98.3915 10.7012 107.717C5.18393 110.526 0.58041 112.846 0.471141 112.873C0.207306 112.938 0.308073 112.215 0.94543 109.471C2.8982 101.064 6.91411 91.431 11.9539 83.0651C20.3705 69.0943 32.3742 57.3766 46.7053 49.1418C48.4663 48.1302 50.3996 47.1095 50.5551 47.1095C50.5954 47.1095 50.6283 53.7211 50.6283 61.802C50.6283 69.8829 50.6663 76.5937 50.7129 76.715C50.8368 77.0379 51.0803 76.9916 52.1997 76.4324C57.4304 73.82 61.1117 68.9847 62.3548 63.094C62.7765 61.0958 62.7765 57.9317 62.3548 55.9335C61.8141 53.3717 60.9945 51.3719 59.6232 49.2698C58.4286 47.4384 57.989 46.9596 47.1441 35.6808C35.0779 23.132 34.9684 23.007 33.6959 20.3206C32.7983 18.4261 32.4677 16.9224 32.4764 14.7747C32.4906 11.1806 33.819 8.01107 36.3848 5.44855C38.9575 2.87919 41.902 1.57911 45.4713 1.43695C49.0451 1.29451 52.1905 2.4148 55.3359 4.95056C57.8757 6.9981 58.8646 8.4423 68.0747 23.5553C76.166 36.8323 78.277 40.3719 78.4053 40.8775C78.8133 42.4839 78.1635 41.8882 68.52 31.8137C56.6987 19.4644 57.4274 20.2294 54.0163 16.5866C49.8752 12.1643 49.0391 11.3802 47.892 10.8423C46.0257 9.96732 44.187 10.33 42.7613 11.8542C41.8232 12.8571 41.505 13.6326 41.5056 14.9141C41.5063 16.439 41.9159 17.1897 43.8515 19.2145C44.7048 20.1072 49.6676 25.2852 54.8797 30.7212C60.092 36.1572 64.7547 41.0806 65.2412 41.662C69.565 46.8295 71.8916 53.6621 71.628 60.4197C71.3362 67.9032 68.303 74.6605 62.9839 79.6762C60.6543 81.8729 58.5418 83.2505 53.6248 85.7789C52.1684 86.5277 50.914 87.1995 50.8373 87.2716C50.7454 87.3578 50.6743 99.7562 50.6283 123.651L50.5586 159.9L45.8546 155.085ZM24.8136 90.4985C38.4577 83.4991 40.2098 82.5759 40.6978 82.1287L41.1507 81.7136V72.7738C41.1507 65.0465 41.1233 63.8342 40.9481 63.8342C40.671 63.8342 37.6452 66.3563 34.9675 68.8192C27.6125 75.5844 20.8257 84.6236 16.1878 93.8312C15.5935 95.0114 15.5795 95.0539 15.7892 95.0539C15.8682 95.0539 19.9293 93.0039 24.8136 90.4983V90.4985Z" fill="#E297A4"/>
<path d="M45.9242 155.122L41.29 150.412V121.474C41.29 96.1254 41.2645 92.5268 41.0848 92.4578C40.8777 92.3783 33.5581 96.0436 12.0435 107C5.65477 110.253 0.393545 112.881 0.351733 112.839C0.169571 112.657 1.38965 107.504 2.33544 104.462C6.16125 92.1544 12.8168 80.0792 21.1562 70.3152C23.386 67.7046 29.0169 62.0657 31.6034 59.8531C35.4778 56.5388 39.4164 53.6421 43.5198 51.0883C46.3936 49.2999 50.3503 47.0938 50.5087 47.1915C50.5742 47.2321 50.6279 53.906 50.6279 62.0225C50.6279 71.9445 50.6747 76.8086 50.7706 76.8679C51.0338 77.0304 51.7021 76.7862 52.9467 76.0729C57.8861 73.2418 61.1746 68.7669 62.3505 63.2768C62.6037 62.0947 62.6639 61.3716 62.6639 59.5137C62.6639 56.0734 62.138 53.9 60.5699 50.8617C59.194 48.1956 58.9944 47.9686 47.8427 36.3777C36.5275 24.6169 35.7082 23.7178 34.446 21.675C32.9928 19.3226 32.4328 17.1453 32.5489 14.2982C32.6359 12.1633 32.8747 11.1376 33.6918 9.3917C34.8507 6.91503 36.4029 5.09662 38.5559 3.69312C44.2217 -2.86102e-06 51.0364 0.819933 56.222 5.81871C57.6374 7.18318 58.9492 8.871 60.5239 11.3535C63.7621 16.4587 77.8457 39.6167 78.2429 40.4892C78.8603 41.8453 78.3081 41.8913 76.9821 40.5937C76.1542 39.7837 70.1255 33.4963 60.1767 23.0675C58.7141 21.5344 56.1938 18.8688 54.5761 17.1441C48.7161 10.8967 48.0896 10.4017 46.0287 10.3903C44.7649 10.3833 43.7237 10.8077 42.8421 11.6896C41.1113 13.4203 40.9896 15.8796 42.5393 17.8064C42.832 18.1703 45.6304 21.1337 48.7578 24.3915C51.8853 27.6494 56.7325 32.6982 59.5294 35.6111C62.3264 38.524 64.9904 41.3777 65.4495 41.9526C68.5791 45.872 70.5851 50.4363 71.3511 55.3807C71.7139 57.7225 71.6745 61.6852 71.2647 64.0434C69.8654 72.0993 65.2995 78.8762 58.3843 83.1616C57.6829 83.5964 55.8232 84.6099 54.2518 85.4143C52.6803 86.2185 51.2222 86.9959 51.0116 87.1418L50.6286 87.407L50.5935 123.62L50.5584 159.832L45.9242 155.122ZM25.8708 89.9888C38.3329 83.5989 40.3123 82.5549 40.7247 82.154C40.9717 81.9139 41.0928 81.6016 41.1658 81.0167C41.2878 80.0406 41.3209 64.452 41.2021 64.0085C41.1561 63.836 41.0652 63.6949 41.0004 63.6949C40.9357 63.6949 40.1432 64.3002 39.2397 65.04C30.9119 71.8581 23.8655 80.1815 18.5149 89.5209C17.2689 91.6964 15.6452 94.7951 15.6452 94.9983C15.6452 95.2074 16.7184 94.6818 25.8708 89.9888Z" fill="#E08E9D"/>
<path d="M45.9591 155.155L41.3598 150.516L41.2901 121.498C41.2274 95.398 41.1986 92.4752 41.0037 92.4377C40.7935 92.3973 32.433 96.5966 11.1156 107.45C5.44313 110.338 0.692299 112.743 0.558082 112.793C0.243097 112.912 0.246442 112.78 0.5985 111.185C3.26821 99.0924 8.9396 86.6839 16.6666 76.0295C23.0067 67.2877 31.6816 58.9715 40.8786 52.8196C44.2622 50.5562 49.9296 47.2488 50.4244 47.2488C50.6019 47.2488 50.6281 49.1578 50.6281 62.0772C50.6281 74.7247 50.6571 76.9168 50.8251 76.9811C51.0766 77.0777 52.7205 76.2914 54.0157 75.4551C59.6949 71.7882 63.0113 65.4124 62.7062 58.7472C62.5336 54.9763 61.3839 51.627 59.2293 48.618C58.2166 47.2041 56.7606 45.6209 50.2216 38.8242C47.5707 36.0689 44.4922 32.8682 43.3807 31.7116C36.4477 24.497 34.8612 22.6468 33.8762 20.6284C32.7842 18.3902 32.4344 16.6772 32.553 14.1475C32.7077 10.8472 33.9137 8.08576 36.2574 5.66567C37.5852 4.29465 38.6708 3.51221 40.3351 2.72669C42.4476 1.72961 43.6329 1.47345 46.0985 1.48125C47.956 1.4871 48.3289 1.52975 49.4434 1.86411C52.0205 2.6375 54.1805 3.89074 56.1515 5.7564C58.2417 7.73509 59.3572 9.3843 66.447 20.9769C72.3672 30.6568 78.1255 40.204 78.3103 40.6464C78.7387 41.6719 78.3493 41.8341 77.4342 41.0116C76.7426 40.3897 61.7964 24.7787 55.9961 18.6198C48.5572 10.7206 48.1427 10.3808 45.9591 10.3888C44.612 10.3936 43.7828 10.7407 42.8172 11.704C41.8258 12.6932 41.4984 13.4922 41.5025 14.9141C41.5053 15.936 41.5592 16.2011 41.8948 16.8437C42.3773 17.7678 41.9338 17.2906 54.092 29.9665C59.6431 35.754 64.609 40.9909 65.1272 41.6042C69.68 46.9913 72.1144 54.5045 71.5445 61.4098C70.8546 69.7712 67.0242 76.7864 60.4392 81.7493C58.9818 82.8478 57.3307 83.8181 53.9508 85.5625C52.2906 86.4194 50.8637 87.2027 50.7803 87.3033C50.672 87.4338 50.6186 97.8309 50.5936 123.64L50.5584 159.793L45.9591 155.155ZM23.9631 90.9893C37.8124 83.8874 40.0853 82.6899 40.6629 82.1915L41.2204 81.7104L41.263 73.0221C41.2866 68.2435 41.2697 64.19 41.2255 64.0144C41.1815 63.8386 41.0778 63.6948 40.9952 63.6948C40.794 63.6948 38.2983 65.7512 36.0636 67.7586C28.2581 74.7698 21.9854 82.844 16.8445 92.4972C15.7932 94.4715 15.4881 95.1934 15.7052 95.1934C15.7383 95.1934 19.4544 93.3015 23.9631 90.9893Z" fill="#DD8595"/>
<path d="M45.9242 155.085L41.29 150.334V121.378C41.29 102.119 41.243 92.3935 41.1499 92.3359C41.0235 92.2579 29.3051 98.1491 8.04936 108.977C3.8333 111.124 0.363594 112.824 0.338925 112.753C0.267426 112.548 1.24207 108.427 1.93545 106.003C5.43875 93.7531 12.155 81.1466 20.466 71.2211C27.4439 62.8875 35.9152 55.6633 45.2622 50.0751C47.6233 48.6634 50.2293 47.2488 50.4685 47.2488C50.5874 47.2488 50.6281 51.0384 50.6281 62.0964C50.6281 74.8547 50.6562 76.9551 50.8276 77.0207C50.9375 77.0629 51.533 76.8423 52.1511 76.5308C57.5123 73.8275 61.117 69.1677 62.4044 63.2768C62.748 61.7048 62.8293 58.3467 62.5632 56.7245C61.9792 53.1648 60.4809 49.897 58.2183 47.2488C57.3096 46.1852 53.9956 42.6915 47.8396 36.3079C35.7304 23.7508 35.0102 22.9328 33.7595 20.3162C33.0258 18.7815 32.6428 17.2462 32.551 15.4716C32.4582 13.6784 32.6502 12.3531 33.2632 10.557C33.9118 8.65674 34.8437 7.16711 36.3422 5.6347C38.1866 3.74897 39.9962 2.6652 42.6442 1.86059C43.7197 1.53376 44.1137 1.48749 45.8893 1.47968C47.6625 1.47188 48.0726 1.51592 49.2343 1.83843C51.806 2.55258 54.1166 3.8588 56.1245 5.73407C58.091 7.5706 59.4064 9.51779 66.3745 20.9071C71.2899 28.9415 78.1506 40.3191 78.3333 40.7396C78.7385 41.6716 78.3717 41.7923 77.5054 41.0118C76.7245 40.3082 59.8225 22.6574 54.5729 17.0632C49.9457 12.1323 49.0987 11.3221 48.0041 10.7791C46.36 9.96379 44.3784 10.2528 42.9773 11.5126C41.0432 13.2515 40.8922 15.9481 42.6161 17.9676C42.9619 18.3728 48.0361 23.7 53.8918 29.8057C59.7476 35.9117 64.8998 41.3463 65.341 41.8829C68.4788 45.6974 70.6287 50.6545 71.332 55.6957C71.6136 57.7132 71.5472 62.414 71.2122 64.1827C69.8933 71.1483 66.5408 76.8183 61.2009 81.1147C59.4203 82.5474 57.8926 83.4771 54.0427 85.4707C52.2796 86.3836 50.7903 87.1759 50.7331 87.2311C50.676 87.2864 50.6283 103.651 50.6275 123.597C50.6267 143.543 50.6108 159.857 50.5922 159.849C50.5736 159.842 48.4731 157.698 45.9242 155.085ZM25.1095 90.4338C35.0371 85.3427 39.6811 82.9306 40.4349 82.4736C41.3074 81.9446 41.29 82.1463 41.29 72.5454C41.29 64.8895 41.2642 63.8157 41.0791 63.7448C40.6985 63.5987 36.1602 67.4707 32.831 70.7818C26.293 77.2847 20.9636 84.5501 16.603 92.9054C15.6416 94.7477 15.4773 95.1935 15.7598 95.1935C15.7974 95.1935 20.0047 93.0516 25.1095 90.4339V90.4338Z" fill="#D97587"/>
<path d="M45.7725 154.86L41.2902 150.267V121.266C41.2902 96.726 41.2607 92.2666 41.0982 92.2666C40.9149 92.2666 32.926 96.2882 14.0426 105.886C9.28999 108.302 4.248 110.875 2.83809 111.605C0.516963 112.805 0.281422 112.899 0.345394 112.599C2.67921 101.628 6.81499 91.4677 12.9513 81.6309C19.9645 70.3886 29.7232 60.3649 41.0353 52.7839C44.511 50.4546 50.223 47.154 50.4912 47.3199C50.5796 47.3744 50.6283 52.6504 50.6283 62.1744C50.6283 75.8591 50.6454 76.9506 50.8617 77.0336C51.146 77.1427 52.9039 76.2618 54.4563 75.2324C55.8889 74.2825 57.9348 72.3237 59.0749 70.8108C60.7145 68.6348 62.0537 65.5012 62.5285 62.7295C62.8219 61.018 62.8219 58.0093 62.5285 56.2977C62.0481 53.4933 60.8073 50.6192 59.0894 48.3306C57.9529 46.8166 56.6229 45.3914 47.2841 35.6807C39.1376 27.2097 37.9419 25.949 36.602 24.4169C34.5805 22.1061 33.4284 20.0219 32.8312 17.5951C32.479 16.1641 32.5138 13.3714 32.9037 11.7952C33.8566 7.94262 36.4721 4.71082 40.1055 2.8966C40.9878 2.45617 41.471 2.28056 43.5202 1.65561C43.9263 1.53185 44.8105 1.46718 46.0289 1.4722C48.3222 1.48181 49.7259 1.83485 52.0917 2.99708C54.6833 4.27026 56.6594 5.99543 58.6409 8.71448C60.1145 10.7364 63.3896 16.0193 73.4587 32.6146C77.4853 39.2516 78.503 41.0206 78.503 41.3834C78.503 41.7797 77.8024 41.2828 76.4788 39.948C74.127 37.5763 59.5525 22.3285 55.1437 17.6273C50.4593 12.6321 49.0841 11.2955 48.0968 10.7783C47.4355 10.4318 47.2062 10.3884 46.0289 10.3865C44.4219 10.384 43.7439 10.6706 42.6702 11.8058C41.7207 12.8097 41.3768 13.6151 41.3724 14.8444C41.3671 16.3414 41.8828 17.3105 43.6867 19.1933C44.4796 20.0209 49.3676 25.1197 54.5488 30.524C59.7301 35.9282 64.3387 40.7776 64.7902 41.3004C68.0664 45.094 70.2705 49.7252 71.1366 54.6356C71.5 56.6964 71.6241 60.2287 71.4062 62.3154C70.7116 68.9701 67.5715 75.3039 62.7745 79.7264C60.3733 81.9401 58.7439 83.0003 53.7838 85.5766L50.6979 87.1794L50.6283 123.266C50.5784 149.111 50.5154 159.366 50.4067 159.402C50.3233 159.43 48.238 157.386 45.7725 154.86ZM17.9111 94.1636C19.0031 93.5972 23.6596 91.2038 28.2589 88.8451C39.0202 83.3261 40.4506 82.5671 40.8722 82.1509L41.2207 81.8073V72.7878C41.2207 64.4981 41.202 63.7648 40.9894 63.7239C40.8554 63.6981 39.8899 64.4041 38.6898 65.4056C30.8297 71.965 24.5475 79.2942 19.3071 88.019C17.9193 90.3298 15.5062 94.7828 15.5062 95.0333C15.5062 95.3424 15.943 95.1845 17.9111 94.1636Z" fill="#D5667A"/>
<path d="M45.8545 154.878L41.29 150.306V121.286C41.29 94.4691 41.2726 92.2666 41.0611 92.2666C40.9353 92.2666 37.5956 93.9059 33.6395 95.9094C20.2447 102.693 1.22254 112.368 0.749788 112.637L0.279541 112.905L0.355221 112.586C0.396754 112.41 0.620171 111.451 0.85167 110.454C3.74186 98.0046 9.62804 85.5412 17.6578 74.8685C25.7992 64.0474 37.1364 54.3333 48.9904 48.0219L50.4887 47.2242V61.9291C50.4887 70.0167 50.5267 76.7331 50.5733 76.8543C50.7083 77.2061 51.1769 77.1146 52.3609 76.5049C57.7415 73.7343 61.4167 68.8136 62.5526 62.8587C62.9191 60.9372 62.8931 57.8138 62.495 55.9335C61.9 53.1241 60.7142 50.4303 59.1446 48.3231C58.1342 46.9665 56.563 45.2806 48.3369 36.7261C36.9976 24.9344 36.1068 23.971 34.9047 22.1988C31.3312 16.9307 31.9331 10.2307 36.3899 5.66807C38.1441 3.8721 40.5212 2.46609 42.6837 1.94525C43.1053 1.84365 43.5244 1.70553 43.615 1.63821C43.8706 1.44839 46.7055 1.35236 47.5618 1.50455C50.8016 2.08058 53.7534 3.5861 56.145 5.88228C58.5105 8.15296 59.3949 9.51882 72.8108 31.6139C75.7114 36.3911 78.0847 40.3328 78.0847 40.3734C78.0847 40.4139 78.187 40.6626 78.3119 40.9261C78.8949 42.1544 77.8746 41.3988 75.2679 38.6711C74.0191 37.3646 69.6389 32.7862 65.5341 28.4968C61.429 24.2076 56.6529 19.1929 54.9205 17.3532C51.2119 13.4147 49.0778 11.3057 48.3866 10.8958C47.6286 10.4464 46.2408 10.1335 45.487 10.2422C43.9193 10.4684 42.4239 11.5966 41.7328 13.0749C41.2129 14.1869 41.2082 15.6319 41.7212 16.7279C42.1647 17.676 42.0464 17.5477 53.552 29.5484C64.3395 40.8 64.858 41.3505 65.7105 42.4594C69.6771 47.6183 71.7538 54.1017 71.4856 60.4893C71.0951 69.7854 66.5491 77.7346 58.7117 82.8265C58.0602 83.2498 56.0539 84.3592 54.2534 85.2917C52.4529 86.2242 50.8694 87.0872 50.7345 87.2093C50.5018 87.4198 50.4874 89.2727 50.4541 123.441L50.419 159.45L45.8545 154.878ZM25.1226 90.4979C39.125 83.3198 40.3367 82.6763 40.838 82.1514L41.2921 81.6761L41.2561 72.6624C41.2299 66.0665 41.1777 63.6345 41.0614 63.5957C40.974 63.5664 40.1293 64.1762 39.1843 64.9504C29.8315 72.614 22.245 81.9592 16.6033 92.7661C15.4796 94.9184 15.3019 95.4401 15.7498 95.2704C15.884 95.2195 20.1017 93.0719 25.1226 90.4979Z" fill="#D25B70"/>
<path d="M45.9242 154.948L41.4294 150.445V121.556C41.4294 101.43 41.3845 92.5825 41.2814 92.3898C41.1423 92.13 40.5763 92.3945 31.9782 96.7385C26.9428 99.2824 17.8543 103.895 11.7815 106.989C5.70847 110.084 0.680702 112.615 0.608228 112.615C0.535754 112.615 0.445161 112.694 0.406415 112.789C0.364742 112.893 0.33171 112.864 0.32516 112.718C0.319167 112.583 0.373383 112.363 0.445857 112.23C0.518332 112.097 0.744814 111.204 0.949276 110.246C2.19263 104.417 4.76296 97.2603 7.95699 90.7335C16.7462 72.7721 30.43 58.3983 48.1387 48.5256C49.2608 47.9001 50.2487 47.3882 50.3339 47.3882C50.4465 47.3882 50.4887 51.4185 50.4887 62.157C50.4887 79.2226 50.3125 77.5362 52.0103 76.7226C57.4849 74.0989 61.343 69.0511 62.5664 62.9108C62.933 61.0718 62.8995 57.6736 62.4966 55.7877C61.8087 52.569 60.2638 49.4579 58.1526 47.0398C57.1934 45.9412 53.986 42.5677 47.4858 35.8202C35.9819 23.8789 35.0625 22.8375 33.9056 20.435C33.0858 18.7325 32.7757 17.4778 32.6875 15.5049C32.5712 12.9032 32.9509 11.0851 34.0768 8.85122C34.9654 7.08842 36.7388 5.06903 38.4061 3.92198C39.3943 3.24212 41.4404 2.29493 42.4937 2.02998C43.0198 1.89758 43.5522 1.73618 43.677 1.67137C44.0608 1.47165 46.47 1.36782 47.3528 1.51291C50.6486 2.05465 53.643 3.53327 56.0723 5.81858C58.2089 7.82863 59.6957 10.0872 69.5828 26.3428C77.8771 39.9792 78.5028 41.0369 78.5028 41.4169C78.5028 41.577 78.0663 41.3901 77.6641 41.0578C77.1317 40.6181 61.2779 24.0796 55.2747 17.7016C48.7937 10.816 48.0888 10.2479 46.0258 10.2461C45.1213 10.2452 44.8499 10.308 44.0471 10.7032C43.0176 11.21 42.1932 12.0377 41.6799 13.0795C41.4213 13.6044 41.3602 13.9573 41.3617 14.9141C41.3634 15.9375 41.4165 16.1996 41.7515 16.8389C42.2467 17.7837 42.0138 17.5321 53.1335 29.1302C64.6276 41.1189 64.895 41.4038 65.8743 42.7051C73.5849 52.9501 73.3307 67.143 65.2597 77.0051C64.2736 78.2102 62.2882 80.1668 61.0811 81.1235C59.2442 82.5793 57.0017 83.909 52.7884 86.041C51.7919 86.5453 50.8824 87.0211 50.7675 87.0984C50.5828 87.2225 50.5503 91.4581 50.4887 123.345L50.419 159.45L45.9242 154.948ZM24.9914 90.5854C38.3271 83.7487 40.4567 82.6255 40.8744 82.2077C41.4015 81.6806 41.4273 81.206 41.4284 71.9795C41.4293 65.5596 41.3936 63.9779 41.2431 63.7722C41.1405 63.6319 40.9872 63.5415 40.9023 63.5712C40.4162 63.7415 35.7943 67.7982 33.2985 70.2455C29.1609 74.3027 26.269 77.6667 23.1149 82.0923C20.5776 85.6522 18.0733 89.7807 16.2896 93.3443C15.5386 94.8446 15.3739 95.3328 15.6185 95.3328C15.6804 95.3328 19.8981 93.1965 24.9914 90.5854Z" fill="#D0556B"/>
<path d="M45.8316 154.818L41.4294 150.331V121.45C41.4294 105.565 41.3913 92.469 41.3448 92.3477C41.2982 92.2265 41.2019 92.1273 41.1308 92.1273C41.0062 92.1273 31.7151 96.8204 10.5581 107.57C5.03886 110.375 0.477156 112.735 0.420709 112.816C0.359385 112.905 0.317573 112.869 0.316179 112.728C0.315064 112.598 0.369559 112.458 0.437434 112.416C0.50517 112.374 0.604961 112.041 0.659038 111.676C1.03145 109.164 3.07662 102.342 4.70199 98.19C9.59499 85.6915 16.8112 74.574 26.0982 65.2263C32.0258 59.2603 38.4274 54.2548 45.4712 50.0787C47.4054 48.932 50.2311 47.3883 50.3958 47.3883C50.4468 47.3883 50.4887 54.0287 50.4887 62.1449C50.4887 75.2756 50.5123 76.921 50.7037 77.0799C51.0184 77.3411 53.4679 76.087 55.2175 74.7691C63.8503 68.2659 65.4262 56.074 58.7169 47.6946C57.7739 46.5169 55.4194 44.0185 48.1179 36.4474C36.1284 24.0153 35.2303 23.0038 34.0108 20.5588C33.0522 18.6366 32.6477 16.9198 32.6506 14.784C32.6575 9.83761 35.5457 5.25807 40.1053 2.96342C40.992 2.51728 43.0795 1.81303 43.5155 1.81303C43.6585 1.81303 43.8004 1.73818 43.8309 1.64661C43.9052 1.42389 47.6612 1.4009 48.133 1.62041C48.3169 1.70599 48.9674 1.91421 49.5783 2.08313C52.9942 3.02739 56.1023 5.33835 58.6033 8.793C59.8189 10.4722 63.0133 15.5883 69.2567 25.855C77.4003 39.2465 78.1332 40.4713 78.1948 40.7936C78.2288 40.9712 78.3118 41.1164 78.3797 41.1164C78.4473 41.1164 78.4978 41.2263 78.4918 41.3603C78.4851 41.5075 78.4528 41.5348 78.4102 41.4292C78.3714 41.3329 78.2776 41.2923 78.2019 41.3393C78.1262 41.3863 77.9033 41.2766 77.7071 41.0962C77.0334 40.4767 59.0468 21.6737 54.8604 17.2124C50.0573 12.0938 49.1475 11.222 48.0245 10.6619C47.3254 10.3133 47.0497 10.2566 46.0287 10.2513C45.0099 10.246 44.7343 10.2991 44.06 10.6301C43.1749 11.0649 42.1662 12.0675 41.6979 12.978C41.4818 13.3985 41.3643 13.9174 41.323 14.6354C41.2496 15.9086 41.569 16.8835 42.3811 17.8654C42.6774 18.2236 47.7212 23.5234 53.5896 29.6425C59.4576 35.7616 64.6534 41.2384 65.1353 41.8133C69.5932 47.1307 71.9557 54.545 71.3974 61.465C70.8404 68.3668 67.9771 74.5674 63.2195 79.1743C60.6752 81.638 59.0561 82.7354 54.3911 85.1584C52.5897 86.094 50.9746 86.9487 50.8022 87.0575L50.4887 87.2556V123.28C50.4887 144.935 50.4379 159.305 50.3613 159.305C50.2913 159.305 48.253 157.286 45.8316 154.818ZM24.8166 90.7076C37.0847 84.4146 40.311 82.7247 40.7827 82.3449C41.0823 82.1038 41.2133 81.8442 41.2986 81.3252C41.4296 80.5259 41.4728 64.1098 41.3448 63.7761C41.2005 63.4002 40.8691 63.5266 39.842 64.3498C30.602 71.7536 22.8724 81.0465 17.1428 91.6394C15.3679 94.9211 15.2027 95.3328 15.661 95.3328C15.7373 95.3328 19.8574 93.2514 24.8166 90.7076Z" fill="#CE4B62"/>
<path d="M45.8545 154.784L41.4294 150.275V121.266C41.4294 95.8673 41.4039 92.2479 41.2245 92.1791C41.0202 92.1007 33.065 96.0829 12.0216 106.797C6.00409 109.861 0.961967 112.431 0.816739 112.507C0.56949 112.637 0.558619 112.602 0.645031 111.951C0.695763 111.569 0.958064 110.354 1.22803 109.253C4.7999 94.6708 12.5303 80.1648 22.8324 68.7124C24.6515 66.6904 28.8912 62.4858 30.9067 60.7054C34.0932 57.8902 38.2682 54.7143 41.9172 52.3295C44.5235 50.6259 50.0805 47.3882 50.3977 47.3882C50.447 47.3882 50.5034 54.0825 50.5229 62.2644C50.5636 79.275 50.3912 77.5471 51.9731 76.8067C55.6612 75.0808 59.4482 71.2797 61.1051 67.6406C62.4133 64.7675 62.8198 62.8403 62.8198 59.5138C62.8198 55.9105 62.3447 53.9033 60.7585 50.8048C59.4049 48.1609 58.9599 47.6543 47.8437 36.099C40.2775 28.2338 38.1344 25.9822 36.8994 24.6006C34.8791 22.3405 33.6575 20.2425 33.0443 17.9804C32.5998 16.3405 32.5995 13.2984 33.0436 11.6389C33.4561 10.0977 34.5841 7.87646 35.5879 6.62865C37.4408 4.32508 40.3569 2.49691 43.0728 1.93593C43.54 1.83949 43.8956 1.71767 43.863 1.66513C43.8307 1.61273 44.3104 1.52562 44.9292 1.47168C46.187 1.36185 48.1569 1.50011 48.0396 1.6898C47.9978 1.75754 48.1208 1.81301 48.313 1.81301C48.8684 1.81301 50.8799 2.48827 52.0405 3.06444C54.4305 4.25065 56.5943 6.14321 58.498 8.71201C59.724 10.3665 62.8703 15.4047 70.074 27.2487C77.0642 38.7419 78.2241 40.7085 78.2241 41.0669C78.2241 41.6908 79.0893 42.5575 64.5082 27.3264C61.6788 24.3707 57.6266 20.1023 55.5033 17.841C48.6568 10.5492 48.2734 10.244 45.9591 10.2465C44.8703 10.2475 44.611 10.297 43.9959 10.6205C43.108 11.0874 42.0892 12.1098 41.676 12.9484C41.414 13.4803 41.3602 13.8167 41.3618 14.9141C41.3636 16.0885 41.4075 16.3215 41.75 16.9749C42.1933 17.8209 41.7093 17.3016 54.1824 30.3149C59.399 35.7575 63.9504 40.5241 64.2968 40.9074C68.0151 45.0221 70.3411 50.0104 71.1856 55.681C71.4602 57.5249 71.4558 61.2968 71.1768 63.2975C70.1024 71.0004 65.8384 77.8969 59.4783 82.2185C57.9341 83.2679 55.9773 84.3688 53.1368 85.7866C52.102 86.3031 51.0829 86.8477 50.872 86.9969L50.4887 87.2681V123.287C50.4887 143.097 50.4418 159.303 50.3842 159.299C50.3268 159.296 48.2884 157.264 45.8545 154.784ZM22.6837 91.8366C31.2788 87.439 38.9218 83.4861 39.9822 82.89C40.4305 82.6378 40.9397 82.2205 41.1133 81.9625L41.4294 81.4936V72.7451C41.4294 67.9333 41.3914 63.8973 41.3448 63.7761C41.172 63.3259 40.6896 63.5971 38.6695 65.2794C30.3981 72.1678 23.6175 80.2205 18.3737 89.3827C17.0005 91.7823 15.3665 94.9384 15.3665 95.1915C15.3665 95.2693 15.4764 95.3325 15.6104 95.3318C15.7446 95.3313 18.9275 93.7585 22.6837 91.8368V91.8366ZM0.325168 112.673C0.331858 112.511 0.364889 112.478 0.40935 112.589C0.449629 112.69 0.444611 112.81 0.398339 112.856C0.352067 112.902 0.319175 112.82 0.325168 112.673ZM78.3745 41.3139C78.3812 41.1515 78.4142 41.1185 78.4587 41.2297C78.499 41.3302 78.4939 41.4505 78.4477 41.4968C78.4014 41.543 78.3685 41.4608 78.3745 41.3139Z" fill="#CB425B"/>
<path d="M45.8519 154.736L41.4295 150.306V92.1272H41.1459C40.8779 92.1272 33.2738 95.95 10.5867 107.49C5.15973 110.251 0.685554 112.476 0.64416 112.434C0.432312 112.222 1.91971 106.424 3.10034 102.859C6.41535 92.8508 11.4191 83.321 17.8094 74.8449C24.6914 65.7164 33.7146 57.4786 43.5898 51.3078C46.0885 49.7464 50.0314 47.5276 50.3072 47.5276C50.4534 47.5276 50.4943 50.3326 50.523 62.3361L50.5585 77.1445L50.8593 77.1873C51.0247 77.211 51.6833 76.9678 52.3227 76.647C57.7496 73.9244 61.6807 68.6385 62.6726 62.7297C62.9553 61.0453 62.9586 57.9787 62.6796 56.3613C62.107 53.0442 60.592 49.7818 58.4506 47.2546C57.5321 46.1705 53.9117 42.3489 47.5564 35.7544C35.7213 23.4741 35.248 22.9355 33.9571 20.28C33.009 18.3296 32.7493 17.161 32.7493 14.8445C32.7493 12.663 32.9751 11.546 33.8036 9.63006C35.3792 5.98544 38.879 3.03364 42.7999 2.04255C43.5023 1.86499 44.0438 1.68631 44.0029 1.64534C43.9621 1.60436 44.3727 1.52743 44.9153 1.47391C46.0756 1.35962 48.2368 1.51349 47.9575 1.69049C47.8258 1.77412 47.8707 1.80938 48.1106 1.81091C48.7023 1.81454 50.518 2.37872 51.6851 2.92172C54.199 4.09079 56.3991 5.95477 58.3476 8.56552C59.8458 10.5731 64.3841 17.9097 76.5869 38.0502C78.4241 41.0824 78.6917 41.8936 77.495 40.8028C77.2216 40.5538 74.031 37.2453 70.4048 33.4509C66.7786 29.6564 62.552 25.2348 61.0127 23.625C59.4733 22.0152 56.8264 19.2243 55.1307 17.4229C48.8537 10.7542 48.2869 10.2939 46.2379 10.2016C44.7299 10.1336 43.787 10.4846 42.7455 11.5013C41.4109 12.8044 40.909 14.424 41.358 15.9794C41.804 17.525 40.8331 16.4307 53.2737 29.409C58.4539 34.8132 63.1948 39.7716 63.8092 40.4276C67.7083 44.5911 70.0278 49.2507 71.0554 54.9841C71.3571 56.6673 71.4696 60.474 71.2713 62.2878C70.3403 70.8012 65.899 78.0152 58.7119 82.6877C58.0603 83.1113 55.9592 84.2746 54.0429 85.2729L50.5585 87.088L50.5234 123.127C50.5042 142.948 50.44 159.166 50.3812 159.166C50.3224 159.166 48.2839 157.172 45.8517 154.736H45.8519ZM24.4025 90.994C35.6802 85.2116 40.0001 82.9667 40.5451 82.6056C41.4734 81.9901 41.4294 82.4865 41.4294 72.6561C41.4294 63.8052 41.4109 63.4162 40.9888 63.4162C40.9304 63.4162 40.1434 64.0222 39.2397 64.7627C32.2012 70.5311 25.9866 77.4082 21.1866 84.7404C18.5319 88.7958 15.2323 94.7821 15.4045 95.2309C15.4554 95.3636 15.5356 95.4722 15.5828 95.4722C15.63 95.4722 19.5989 93.457 24.4025 90.994ZM0.325412 112.673C0.332102 112.511 0.365133 112.478 0.409594 112.589C0.449873 112.69 0.444855 112.81 0.398583 112.856C0.352311 112.902 0.319419 112.82 0.325412 112.673Z" fill="#C93953"/>
<path d="M45.9242 154.737L41.5688 150.276V121.49C41.5688 102.621 41.5207 92.5765 41.4294 92.336C41.3215 92.0525 41.2259 91.9893 41.0082 92.0585C40.6963 92.1574 27.0054 99.0804 11.061 107.201C5.35809 110.106 0.673742 112.464 0.650745 112.441C0.627888 112.418 0.755554 111.708 0.934371 110.864C3.20993 100.12 8.7184 87.8187 15.7897 77.6897C23.3805 66.8168 33.7035 57.2398 45.3319 50.2822C47.0313 49.2656 50.156 47.5276 50.2848 47.5276C50.3204 47.5276 50.3493 54.1078 50.3493 62.1504C50.3493 70.193 50.3874 76.8724 50.4339 76.9937C50.7852 77.9087 54.6712 75.6827 57.3374 73.0397C64.28 66.1567 64.9061 55.2358 58.7948 47.6144C57.8379 46.4209 55.6888 44.1412 47.2821 35.4021C38.7493 26.5316 37.5569 25.2692 36.3484 23.8255C33.8111 20.7944 32.7912 18.2336 32.7892 14.8883C32.7878 12.4838 33.2178 10.7454 34.331 8.65622C35.5767 6.31836 37.5789 4.40351 40.1054 3.13395C41.5203 2.42287 43.3329 1.83262 44.2044 1.79903L44.5653 1.78509L44.2169 1.68377C43.6484 1.51805 45.8371 1.35861 47.0212 1.47931C47.7878 1.55736 47.961 1.60962 47.7012 1.6846C47.3673 1.78105 47.3706 1.78579 47.7796 1.79903C48.5729 1.82495 50.4121 2.38607 51.706 2.99723C54.2786 4.21215 56.3671 5.97913 58.3253 8.59726C59.5176 10.1913 63.236 16.1446 70.236 27.6668C78.1985 40.7731 78.4779 41.2557 78.1059 41.2557C78.0305 41.2557 73.8108 36.9126 68.7288 31.6041C56.5831 18.9173 57.5056 19.8858 54.1584 16.3078C50.2476 12.1272 49.1343 11.0803 48.0725 10.5849C46.0077 9.62152 44.0201 10.0385 42.4275 11.769C41.6467 12.6174 41.2637 13.5009 41.1857 14.6331C41.1153 15.6531 41.4245 16.6853 42.0963 17.6731C42.3044 17.9792 47.31 23.2694 53.2197 29.4292C59.1296 35.5888 64.3223 41.0362 64.7589 41.5345C66.5164 43.5395 68.378 46.6285 69.4289 49.2837C73.562 59.7258 70.8866 71.8555 62.7694 79.476C60.4255 81.6762 58.4371 82.9726 53.5212 85.5043C51.9314 86.3231 50.5829 87.0664 50.5247 87.1559C50.4664 87.2453 50.3877 103.492 50.3493 123.259L50.2797 159.198L45.9242 154.737ZM23.4067 91.5549C34.3478 85.9446 39.8891 83.0705 40.4852 82.6972C41.5606 82.0236 41.4938 82.6328 41.5433 73.0253C41.5677 68.2998 41.5324 64.2204 41.4648 63.9599C41.3944 63.688 41.2399 63.4665 41.102 63.44C40.6133 63.3459 35.9954 67.3114 32.3689 70.9399C25.7716 77.5402 20.1965 85.2731 15.8581 93.8406C15.2184 95.1037 15.1545 95.4722 15.5752 95.4722C15.6808 95.4722 19.205 93.7094 23.4066 91.5549H23.4067ZM0.325028 112.673C0.331858 112.511 0.364889 112.478 0.40935 112.589C0.449629 112.69 0.444611 112.81 0.398339 112.856C0.352067 112.902 0.319175 112.82 0.325168 112.673H0.325028Z" fill="#C7324D"/>
<path d="M45.9247 154.636L41.5696 150.201L41.5344 121.129L41.4993 92.0575L41.2149 92.0168C40.9402 91.9775 33.0996 95.9072 11.0599 107.131C5.43336 109.996 0.797366 112.308 0.757923 112.269C0.718481 112.23 0.827192 111.554 0.999598 110.769C3.96268 97.2544 11.516 82.2188 20.9123 71.1309C28.8614 61.7509 38.3317 54.0621 49.2693 48.1083L50.3495 47.5203V77.2089L50.6985 77.2964C51.5997 77.5226 55.2861 75.2164 57.3927 73.1083C59.6087 70.8912 61.0569 68.5376 62.0601 65.5236C63.8919 60.0195 63.0711 53.7934 59.8775 48.9694C58.7532 47.2708 57.4669 45.8716 47.9178 35.9595C37.4913 25.1369 36.3782 23.9318 35.147 22.1343C34.2026 20.7559 33.6001 19.4933 33.1646 17.9803C32.7216 16.4417 32.73 13.224 33.1809 11.6388C34.0588 8.55221 36.1084 5.70717 38.6878 3.99525C40.3539 2.88932 43.0948 1.84861 44.4871 1.79314L44.9836 1.77335L44.4261 1.68136C43.4568 1.52136 46.088 1.35216 47.1439 1.50659C47.9383 1.62283 47.9811 1.64331 47.4923 1.67342C46.9843 1.7045 47.0091 1.71816 47.7711 1.82687C51.7004 2.38771 55.5395 4.91414 58.4254 8.83835C59.7436 10.631 71.4163 29.5684 77.2938 39.45C78.189 40.9552 78.3027 41.3733 77.6496 40.7591C76.8231 39.9818 59.029 21.3814 54.7849 16.8585C49.913 11.6662 49.3629 11.1451 48.1195 10.5439C47.3074 10.151 47.0837 10.106 45.9592 10.1085C44.4005 10.1119 43.6674 10.4272 42.5237 11.5858C41.4508 12.6732 41.1018 13.5941 41.1832 15.1231C41.2494 16.3655 41.5904 17.2004 42.4535 18.2335C42.7221 18.5551 47.2281 23.2864 52.4667 28.7478C57.7054 34.209 62.6452 39.3672 63.4438 40.2104C67.2894 44.2697 69.6716 48.7459 70.7846 54.0038C71.271 56.3018 71.4054 60.8696 71.0575 63.2768C70.3395 68.2442 68.2383 73.0545 65.1216 76.8657C63.9278 78.3257 61.4513 80.6474 59.9615 81.7034C58.1895 82.9593 57.4128 83.4096 53.6409 85.3675L50.4192 87.04L50.3495 123.056L50.2798 159.072L45.9247 154.636ZM23.5802 91.538C33.0315 86.6924 39.3273 83.4366 40.2647 82.9098C41.5949 82.1623 41.4938 82.9568 41.5393 72.8936C41.5613 68.0259 41.5444 63.9021 41.5018 63.7297C41.3639 63.1722 40.8088 63.3367 39.6415 64.2817C29.7627 72.2778 22.3146 81.4241 16.1552 93.123C15.0747 95.1751 14.963 95.7584 15.6953 95.5259C15.849 95.4771 19.3971 93.6826 23.5801 91.538H23.5802ZM0.325168 112.673C0.331858 112.511 0.364889 112.478 0.40935 112.589C0.449629 112.69 0.444611 112.81 0.398339 112.856C0.352067 112.902 0.319175 112.82 0.325168 112.673Z" fill="#C62B47"/>
</svg>
