<svg xmlns="http://www.w3.org/2000/svg" width="2600" height="446" fill="none"><path fill="#CF163D" d="M989.057 7.528H843.431v430.055h145.626zM666.915 13.47 371.317 193.998a13.15 13.15 0 0 1-13.701 0L62.018 13.47a40.54 40.54 0 0 0-21.123-5.942h-.365C18.145 7.528 0 25.673 0 48.058v389.037h145.533V251.923c0-11.369 12.45-18.347 22.15-12.414L333.335 340.85a51.9 51.9 0 0 0 53.34.497l174.812-102.532c9.701-5.692 21.919 1.305 21.919 12.554v185.729h145.533V48.058c0-22.385-18.145-40.53-40.53-40.53h-.365a40.53 40.53 0 0 0-21.129 5.942M1715.22 7.528h-147.68v195.746c0 10.983-11.7 18.01-21.4 12.845L1163.39 12.287a40.5 40.5 0 0 0-19.05-4.756h-.26c-22.38 0-40.53 18.145-40.53 40.53v389.062h146.51V241.599c0-10.972 11.68-17.999 21.37-12.859l384.26 203.802a40.54 40.54 0 0 0 18.99 4.723c22.39 0 40.53-18.145 40.53-40.53zM1829.71 437.586V7.528h67.02v430.055zM2291.09 445.256c-180.26 0-308.13-85.509-308.13-222.624C1982.96 86.28 2111.6 0 2291.09 0S2600 85.509 2600 222.632c0 137.124-126.34 222.624-308.91 222.624m0-388.252c-134.04 0-237.27 58.543-237.27 165.628 0 107.845 103.23 165.62 237.27 165.62s238.04-57.775 238.04-165.62c0-107.085-104-165.628-238.04-165.628"/></svg>