<svg width="212" height="97" viewBox="0 0 212 97" fill="none" xmlns="http://www.w3.org/2000/svg">
<path d="M105.934 0C84.0069 0 65.4216 14.8653 59.6614 35.0062C54.6552 24.3232 43.8065 16.8388 31.3108 16.8388C14.1262 16.8388 0 30.965 0 48.1496C0 65.3342 14.1262 79.4668 31.3108 79.4668C43.8065 79.4668 54.6552 71.9779 59.6614 61.293C65.4216 81.4354 84.0069 96.3056 105.934 96.3056C127.699 96.3056 146.19 81.6597 152.098 61.7445C157.196 72.1868 167.911 79.4668 180.229 79.4668C197.413 79.4668 211.546 65.3342 211.546 48.1496C211.546 30.965 197.413 16.8388 180.229 16.8388C167.911 16.8388 157.196 24.1143 152.098 34.5547C146.19 14.6411 127.699 0 105.934 0ZM105.934 18.3802C122.487 18.3802 135.71 31.5969 135.71 48.1496C135.71 64.7022 122.487 77.9255 105.934 77.9255C89.3816 77.9255 76.1649 64.7022 76.1649 48.1496C76.1649 31.5969 89.3816 18.3802 105.934 18.3802ZM31.3108 35.219C38.5629 35.219 44.2478 40.8975 44.2478 48.1496C44.2478 55.4017 38.5629 61.0866 31.3108 61.0866C24.0587 61.0866 18.3801 55.4017 18.3801 48.1496C18.3801 40.8975 24.0587 35.219 31.3108 35.219ZM180.229 35.219C187.481 35.219 193.166 40.8975 193.166 48.1496C193.166 55.4017 187.481 61.0866 180.229 61.0866C172.977 61.0866 167.298 55.4017 167.298 48.1496C167.298 40.8975 172.977 35.219 180.229 35.219Z" fill="#0082C9"/>
</svg>
