<svg width="148" height="99" viewBox="0 0 148 99" fill="none" xmlns="http://www.w3.org/2000/svg">
<path d="M40.9007 15.0482C18.2745 15.0491 1.36077 33.5705 0.0876465 54.2036C0.876322 58.6493 3.46628 67.4282 7.52386 66.9777C12.5949 66.4138 25.3672 66.9777 36.2614 47.2554C44.2196 32.8487 60.5899 15.0473 40.9007 15.0482Z" fill="url(#paint0_radial_6363_28260)"/>
<path d="M35.6691 22.7503C28.0633 34.7918 17.8248 52.0472 14.3695 57.477C10.2619 63.9318 -0.61537 61.1893 0.285719 51.9384C0.197394 52.6887 0.128697 53.4462 0.0814123 54.2081C-1.40583 78.2778 17.6776 98.2668 41.4253 98.2668C67.5979 98.2668 130.018 65.6563 123.701 32.9816C117.043 13.7759 98.3295 0 77.1209 0C55.9132 0 42.3211 12.2182 35.6691 22.7503Z" fill="url(#paint1_radial_6363_28260)"/>
<path d="M35.6691 22.7503C28.0633 34.7918 17.8248 52.0472 14.3695 57.477C10.2619 63.9318 -0.61537 61.1893 0.285719 51.9384C0.197394 52.6887 0.128697 53.4462 0.0814123 54.2081C-1.40583 78.2778 17.6776 98.2668 41.4253 98.2668C67.5979 98.2668 130.018 65.6563 123.701 32.9816C117.043 13.7759 98.3295 0 77.1209 0C55.9132 0 42.3211 12.2182 35.6691 22.7503Z" fill="url(#paint2_radial_6363_28260)"/>
<path d="M35.6691 22.7503C28.0633 34.7918 17.8248 52.0472 14.3695 57.477C10.2619 63.9318 -0.61537 61.1893 0.285719 51.9384C0.197394 52.6887 0.128697 53.4462 0.0814123 54.2081C-1.40583 78.2778 17.6776 98.2668 41.4253 98.2668C67.5979 98.2668 130.018 65.6563 123.701 32.9816C117.043 13.7759 98.3295 0 77.1209 0C55.9132 0 42.3211 12.2182 35.6691 22.7503Z" fill="url(#paint3_radial_6363_28260)"/>
<path d="M35.6691 22.7503C28.0633 34.7918 17.8248 52.0472 14.3695 57.477C10.2619 63.9318 -0.61537 61.1893 0.285719 51.9384C0.197394 52.6887 0.128697 53.4462 0.0814123 54.2081C-1.40583 78.2778 17.6776 98.2668 41.4253 98.2668C67.5979 98.2668 130.018 65.6563 123.701 32.9816C117.043 13.7759 98.3295 0 77.1209 0C55.9132 0 42.3211 12.2182 35.6691 22.7503Z" fill="url(#paint4_radial_6363_28260)"/>
<path d="M35.6691 22.7503C28.0633 34.7918 17.8248 52.0472 14.3695 57.477C10.2619 63.9318 -0.61537 61.1893 0.285719 51.9384C0.197394 52.6887 0.128697 53.4462 0.0814123 54.2081C-1.40583 78.2778 17.6776 98.2668 41.4253 98.2668C67.5979 98.2668 130.018 65.6563 123.701 32.9816C117.043 13.7759 98.3295 0 77.1209 0C55.9132 0 42.3211 12.2182 35.6691 22.7503Z" fill="url(#paint5_radial_6363_28260)"/>
<path d="M41.0426 98.2766C41.0426 98.2766 103.536 98.3997 114.137 98.3997C133.374 98.3997 148 82.6949 148 64.368C148 46.0411 133.079 30.4318 114.137 30.4318C95.1936 30.4318 84.2841 44.6029 76.0905 60.0731C66.4899 78.2002 54.2413 98.0598 41.0426 98.2766Z" fill="url(#paint6_linear_6363_28260)"/>
<path d="M41.0426 98.2766C41.0426 98.2766 103.536 98.3997 114.137 98.3997C133.374 98.3997 148 82.6949 148 64.368C148 46.0411 133.079 30.4318 114.137 30.4318C95.1936 30.4318 84.2841 44.6029 76.0905 60.0731C66.4899 78.2002 54.2413 98.0598 41.0426 98.2766Z" fill="url(#paint7_radial_6363_28260)"/>
<path d="M41.0426 98.2766C41.0426 98.2766 103.536 98.3997 114.137 98.3997C133.374 98.3997 148 82.6949 148 64.368C148 46.0411 133.079 30.4318 114.137 30.4318C95.1936 30.4318 84.2841 44.6029 76.0905 60.0731C66.4899 78.2002 54.2413 98.0598 41.0426 98.2766Z" fill="url(#paint8_radial_6363_28260)"/>
<defs>
<radialGradient id="paint0_radial_6363_28260" cx="0" cy="0" r="1" gradientUnits="userSpaceOnUse" gradientTransform="translate(2.89388 20.4558) rotate(50.1526) scale(46.647 77.3727)">
<stop stop-color="#4894FE"/>
<stop offset="0.695072" stop-color="#0934B3"/>
</radialGradient>
<radialGradient id="paint1_radial_6363_28260" cx="0" cy="0" r="1" gradientUnits="userSpaceOnUse" gradientTransform="translate(128.12 -33.2505) rotate(130.923) scale(200.587 148.636)">
<stop offset="0.165327" stop-color="#23C0FE"/>
<stop offset="0.534" stop-color="#1C91FF"/>
</radialGradient>
<radialGradient id="paint2_radial_6363_28260" cx="0" cy="0" r="1" gradientUnits="userSpaceOnUse" gradientTransform="translate(33.1624 23.1119) rotate(-139.986) scale(40.7811 93.3567)">
<stop stop-color="white" stop-opacity="0.4"/>
<stop offset="0.660528" stop-color="#ADC0FF" stop-opacity="0"/>
</radialGradient>
<radialGradient id="paint3_radial_6363_28260" cx="0" cy="0" r="1" gradientUnits="userSpaceOnUse" gradientTransform="translate(77.5069 71.3122) rotate(-139.764) scale(45.9663 69.8096)">
<stop stop-color="#033ACC"/>
<stop offset="1" stop-color="#368EFF" stop-opacity="0"/>
</radialGradient>
<radialGradient id="paint4_radial_6363_28260" cx="0" cy="0" r="1" gradientUnits="userSpaceOnUse" gradientTransform="translate(30.4632 -3.10933) rotate(66.5713) scale(100.86 108.885)">
<stop offset="0.592618" stop-color="#3464E3" stop-opacity="0"/>
<stop offset="1" stop-color="#033ACC" stop-opacity="0.6"/>
</radialGradient>
<radialGradient id="paint5_radial_6363_28260" cx="0" cy="0" r="1" gradientUnits="userSpaceOnUse" gradientTransform="translate(126.503 -22.7752) rotate(135) scale(148.363 232.435)">
<stop stop-color="#4BFDE8" stop-opacity="0.898039"/>
<stop offset="0.543937" stop-color="#4BFDE8" stop-opacity="0"/>
</radialGradient>
<linearGradient id="paint6_linear_6363_28260" x1="94.5546" y1="98.331" x2="94.5546" y2="31.2375" gradientUnits="userSpaceOnUse">
<stop stop-color="#0086FF"/>
<stop offset="0.49" stop-color="#00BBFF"/>
</linearGradient>
<radialGradient id="paint7_radial_6363_28260" cx="0" cy="0" r="1" gradientUnits="userSpaceOnUse" gradientTransform="translate(59.4944 38.4247) rotate(21.6324) scale(67.2289 127.309)">
<stop stop-color="white" stop-opacity="0.4"/>
<stop offset="0.785262" stop-color="white" stop-opacity="0"/>
</radialGradient>
<radialGradient id="paint8_radial_6363_28260" cx="0" cy="0" r="1" gradientUnits="userSpaceOnUse" gradientTransform="translate(145.909 25.1633) rotate(139.243) scale(92.1689 92.4814)">
<stop stop-color="#4BFDE8" stop-opacity="0.898039"/>
<stop offset="0.584724" stop-color="#4BFDE8" stop-opacity="0"/>
</radialGradient>
</defs>
</svg>
