<svg width="154" height="159" viewBox="0 0 154 159" fill="none" xmlns="http://www.w3.org/2000/svg">
<g clip-path="url(#clip0_6363_28298)">
<path d="M115.198 115.562C116.207 107.15 115.905 105.916 122.17 107.279L123.761 107.419C128.579 107.638 134.881 106.644 138.584 104.924C146.554 101.226 151.28 95.0509 143.421 96.6734C125.494 100.372 124.261 94.3014 124.261 94.3014C143.191 66.2142 151.105 30.5601 144.274 21.8327C125.644 -1.97239 93.3956 9.28452 92.856 9.57679L92.6842 9.60851C89.1421 8.87356 85.1779 8.43445 80.7248 8.36245C72.6122 8.22915 66.4565 10.4892 61.787 14.031C61.787 14.031 4.25745 -9.67041 6.93383 43.8379C7.50304 55.2207 23.2498 129.969 42.0308 107.392C48.8951 99.1359 55.5289 92.1553 55.5289 92.1553C58.8229 94.3438 62.7668 95.4601 66.9031 95.0591L67.2228 94.7865C67.1226 95.8115 67.1668 96.8142 67.3507 98.001C62.5133 103.407 63.9348 104.356 54.2618 106.347C44.4755 108.364 50.225 111.955 53.9777 112.893C58.5285 114.032 69.0562 115.644 76.1715 105.685L75.8881 106.821C77.7861 108.34 77.6578 117.735 77.9269 124.447C78.1963 131.16 78.6458 137.424 80.0141 141.118C81.3824 144.81 82.997 154.323 95.7095 151.598C106.334 149.322 114.457 146.045 115.198 115.562Z" fill="black" stroke="black" stroke-width="13.3285"/>
<path d="M143.423 96.6726C125.494 100.371 124.262 94.3006 124.262 94.3006C143.191 66.2116 151.105 30.5568 144.276 21.8305C125.646 -1.9732 93.3956 9.28442 92.8574 9.57669L92.6842 9.6077C89.1421 8.8724 85.1779 8.43435 80.7227 8.36164C72.6101 8.2287 66.4565 10.4884 61.787 14.0295C61.787 14.0295 4.2564 -9.67086 6.93207 43.8371C7.50128 55.2206 23.2477 129.969 42.0294 107.392C48.8941 99.1358 55.5268 92.1553 55.5268 92.1553C58.8212 94.3437 62.765 95.46 66.8995 95.059L67.2207 94.7864C67.1209 95.8114 67.1665 96.8141 67.3493 98.0009C62.5109 103.407 63.9326 104.356 54.2604 106.347C44.4734 108.364 50.2228 111.955 53.9767 112.893C58.5275 114.031 69.0559 115.644 76.1697 105.685L75.886 106.821C77.7818 108.34 79.1131 116.698 78.8899 124.275C78.6668 131.852 78.5178 137.054 80.0116 141.117C81.5054 145.181 82.9942 154.323 95.7092 151.598C106.334 149.322 111.839 143.421 112.605 133.579C113.149 126.583 114.379 127.617 114.457 121.361L115.443 118.4C116.581 108.915 115.624 105.855 122.17 107.278L123.76 107.418C128.578 107.637 134.884 106.643 138.584 104.923C146.553 101.225 151.279 95.0501 143.422 96.6726H143.423Z" fill="#336791"/>
<path d="M76.9396 102.109C76.446 119.758 77.0637 137.53 78.7905 141.849C80.5185 146.168 84.2164 154.569 96.9325 151.845C107.556 149.567 111.421 145.16 113.099 135.431C114.334 128.273 116.716 108.395 117.021 104.322" stroke="white" stroke-width="4.44285" stroke-linecap="round" stroke-linejoin="round"/>
<path d="M61.6983 13.6353C61.6983 13.6353 4.12848 -9.89427 6.80486 43.6137C7.37407 54.9971 23.1215 129.748 41.9029 107.17C48.7662 98.9127 54.9733 92.4369 54.9733 92.4369" stroke="white" stroke-width="4.44285" stroke-linecap="round" stroke-linejoin="round"/>
<path d="M92.7943 9.34083C90.8015 9.96564 124.818 -3.09441 144.15 21.6078C150.979 30.3345 143.066 65.9893 124.136 94.079" stroke="white" stroke-width="4.44285" stroke-linecap="round" stroke-linejoin="round"/>
<path d="M124.136 94.0789C124.136 94.0789 125.369 100.151 143.298 96.4502C151.154 94.8278 146.426 101.003 138.459 104.703C131.921 107.738 117.261 108.515 117.022 104.322C116.406 93.503 124.737 96.7899 124.136 94.0789ZM124.136 94.0789C123.592 91.6375 119.866 89.2412 117.402 83.2658C115.25 78.0503 87.8914 38.0539 124.989 43.994C126.348 43.7128 115.314 8.70747 80.5954 8.13826C45.8852 7.56905 47.024 50.8242 47.024 50.8242" stroke="white" stroke-width="4.44285" stroke-linecap="round" stroke-linejoin="bevel"/>
<path d="M67.2228 97.7789C62.3837 103.184 63.8069 104.134 54.1339 106.125C44.3469 108.143 50.0971 111.733 53.8498 112.671C58.4006 113.81 68.929 115.422 76.0429 105.461C78.2092 102.428 76.03 97.589 73.0543 96.3554C71.6165 95.7598 69.6939 95.0135 67.2228 97.7789Z" stroke="white" stroke-width="4.44285" stroke-linecap="round" stroke-linejoin="round"/>
<path d="M66.906 97.6845C66.4184 94.5063 67.9503 90.7243 69.592 86.2997C72.0591 79.6609 77.7516 73.0211 73.1979 51.9622C69.8037 36.2693 47.0379 48.6963 47.0236 50.8242C47.0097 52.9513 48.0533 61.6095 46.6433 71.692C44.8035 84.8487 55.015 95.9758 66.7737 94.8374" stroke="white" stroke-width="4.44285" stroke-linecap="round" stroke-linejoin="round"/>
<path d="M61.4891 50.5051C61.3864 51.2319 62.8196 53.1712 64.6883 53.4303C66.5538 53.6905 68.1506 52.175 68.2518 51.4489C68.3531 50.7222 66.9217 49.9217 65.0522 49.6615C63.1857 49.4009 61.5882 49.7802 61.4894 50.5051H61.4891Z" fill="white" stroke="white" stroke-width="1.48094"/>
<path d="M118.311 49.0234C118.413 49.7502 116.981 51.6895 115.112 51.9486C113.245 52.2088 111.648 50.6933 111.546 49.9672C111.447 49.2405 112.879 48.44 114.746 48.1798C116.614 47.9196 118.21 48.2985 118.311 49.0238V49.0234Z" fill="white" stroke="white" stroke-width="0.740469"/>
<path d="M124.989 43.994C125.297 49.6946 123.761 53.5775 123.568 59.646C123.281 68.4667 127.773 78.5628 121.005 88.6713" stroke="white" stroke-width="4.44285" stroke-linecap="round" stroke-linejoin="round"/>
</g>
<defs>
<clipPath id="clip0_6363_28298">
<rect width="154" height="158.745" fill="white"/>
</clipPath>
</defs>
</svg>
