<svg width="160" height="160" viewBox="0 0 160 160" fill="none" xmlns="http://www.w3.org/2000/svg">
<g clip-path="url(#clip0_6363_28261)">
<path d="M130 0H30C13.4315 0 0 13.4315 0 30V130C0 146.569 13.4315 160 30 160H130C146.569 160 160 146.569 160 130V30C160 13.4315 146.569 0 130 0Z" fill="#FE6500"/>
<path d="M40 140C51.0457 140 60 131.046 60 120C60 108.954 51.0457 100 40 100C28.9543 100 20 108.954 20 120C20 131.046 28.9543 140 40 140Z" fill="white"/>
<path d="M20 80C35.913 80 51.1742 86.3214 62.4264 97.5736C73.6786 108.826 80 124.087 80 140H100C100 118.783 91.5714 98.4344 76.5685 83.4315C61.5656 68.4285 41.2173 60 20 60V80Z" fill="white"/>
<path d="M20 40C33.1322 40 46.1358 42.5866 58.2683 47.612C70.4009 52.6375 81.4248 60.0035 90.7107 69.2893C99.9965 78.5752 107.362 89.5991 112.388 101.732C117.413 113.864 120 126.868 120 140H140C140 108.174 127.357 77.6516 104.853 55.1472C82.3484 32.6428 51.826 20 20 20V40Z" fill="white"/>
</g>
<defs>
<clipPath id="clip0_6363_28261">
<rect width="160" height="160" fill="white"/>
</clipPath>
</defs>
</svg>
