<svg width="148" height="148" viewBox="0 0 148 148" fill="none" xmlns="http://www.w3.org/2000/svg">
<g clip-path="url(#clip0_6363_28162)">
<path d="M4.72531 59.323L88.677 143.275C89.9022 144.5 89.3112 146.581 87.6078 146.899C84.7671 147.43 81.8693 147.799 78.9244 147.995C78.2956 148.037 77.6815 147.8 77.2358 147.354L0.645519 70.7642C0.199906 70.3185 -0.0371902 69.7044 0.00476038 69.0756C0.201233 66.1307 0.569795 63.2329 1.10048 60.3922C1.41869 58.6889 3.50004 58.0978 4.72531 59.323ZM2.3597 93.3147C1.79953 91.2253 4.26787 89.9074 5.79742 91.4369L56.5631 142.203C58.0927 143.732 56.7747 146.201 54.6853 145.64C29.2302 138.816 9.18451 118.77 2.3597 93.3147ZM9.71746 37.0951C10.4304 35.8603 12.1152 35.6711 13.1234 36.6793L111.321 134.877C112.329 135.885 112.14 137.57 110.905 138.283C108.827 139.482 106.686 140.583 104.488 141.581C103.66 141.956 102.69 141.767 102.048 141.124L6.87566 45.9524C6.23323 45.31 6.04401 44.3398 6.41929 43.5124C7.41653 41.3138 8.51803 39.1726 9.71746 37.0951ZM73.9191 0C114.833 0 148 33.1672 148 74.0809C148 95.8007 138.653 115.337 123.762 128.888C122.902 129.67 121.583 129.618 120.761 128.796L19.2037 27.2388C18.382 26.4169 18.3302 25.0981 19.1124 24.2385C32.6627 9.34724 52.1993 0 73.9191 0Z" fill="white"/>
</g>
<defs>
<clipPath id="clip0_6363_28162">
<rect width="148" height="148" fill="white"/>
</clipPath>
</defs>
</svg>
