<svg width="148" height="148" viewBox="0 0 148 148" fill="none" xmlns="http://www.w3.org/2000/svg">
<g clip-path="url(#clip0_6363_28189)">
<path d="M31.6977 93.2283C31.6977 101.735 24.8221 108.611 16.315 108.611C7.8079 108.611 0.932312 101.735 0.932312 93.2283C0.932312 84.7213 7.8079 77.8457 16.315 77.8457H31.6977V93.2283ZM39.389 93.2283C39.389 84.7213 46.2646 77.8457 54.7717 77.8457C63.2788 77.8457 70.1544 84.7213 70.1544 93.2283V131.685C70.1544 140.192 63.2788 147.068 54.7717 147.068C46.2646 147.068 39.389 140.192 39.389 131.685V93.2283Z" fill="#E01E5A"/>
<path d="M54.7716 31.4646C46.2646 31.4646 39.389 24.589 39.389 16.0819C39.389 7.5748 46.2646 0.699211 54.7716 0.699211C63.2787 0.699211 70.1543 7.5748 70.1543 16.0819V31.4646H54.7716ZM54.7716 39.2724C63.2787 39.2724 70.1543 46.148 70.1543 54.6551C70.1543 63.1622 63.2787 70.0378 54.7716 70.0378H16.1984C7.69133 70.0378 0.815735 63.1622 0.815735 54.6551C0.815735 46.148 7.69133 39.2724 16.1984 39.2724H54.7716Z" fill="#36C5F0"/>
<path d="M116.419 54.6551C116.419 46.148 123.294 39.2724 131.802 39.2724C140.309 39.2724 147.184 46.148 147.184 54.6551C147.184 63.1622 140.309 70.0378 131.802 70.0378H116.419V54.6551ZM108.728 54.6551C108.728 63.1622 101.852 70.0378 93.3449 70.0378C84.8378 70.0378 77.9622 63.1622 77.9622 54.6551V16.0819C77.9622 7.5748 84.8378 0.699211 93.3449 0.699211C101.852 0.699211 108.728 7.5748 108.728 16.0819V54.6551Z" fill="#2EB67D"/>
<path d="M93.3449 116.302C101.852 116.302 108.728 123.178 108.728 131.685C108.728 140.192 101.852 147.068 93.3449 147.068C84.8378 147.068 77.9622 140.192 77.9622 131.685V116.302H93.3449ZM93.3449 108.611C84.8378 108.611 77.9622 101.735 77.9622 93.2283C77.9622 84.7213 84.8378 77.8457 93.3449 77.8457H131.918C140.425 77.8457 147.301 84.7213 147.301 93.2283C147.301 101.735 140.425 108.611 131.918 108.611H93.3449Z" fill="#ECB22E"/>
</g>
<defs>
<clipPath id="clip0_6363_28189">
<rect width="148" height="148" fill="white"/>
</clipPath>
</defs>
</svg>
