<svg width="148" height="156" viewBox="0 0 148 156" fill="none" xmlns="http://www.w3.org/2000/svg">
<g clip-path="url(#clip0_6363_28128)">
<path d="M73.9996 65.6842H123.333C136.956 65.6842 148 76.7122 148 90.3158V131.368C148 144.972 136.956 156 123.333 156C109.71 156 98.6663 144.972 98.6663 131.368V90.3158C98.6663 76.7122 87.6226 65.6842 73.9996 65.6842Z" fill="url(#paint0_radial_6363_28128)"/>
<path d="M16.444 82.1053C16.444 68.5017 27.4877 57.4737 41.1107 57.4737H73.9996C87.6226 57.4737 98.6663 68.5017 98.6663 82.1053V131.368C98.6663 144.972 109.71 156 123.333 156L57.5548 156C34.8499 156 16.444 137.62 16.444 114.947V82.1053Z" fill="url(#paint1_radial_6363_28128)"/>
<path d="M16.444 82.1053C16.444 68.5017 27.4877 57.4737 41.1107 57.4737H73.9996C87.6226 57.4737 98.6663 68.5017 98.6663 82.1053V131.368C98.6663 144.972 109.71 156 123.333 156L57.5548 156C34.8499 156 16.444 137.62 16.444 114.947V82.1053Z" fill="url(#paint2_linear_6363_28128)" fill-opacity="0.7"/>
<path d="M16.444 82.1053C16.444 68.5017 27.4877 57.4737 41.1107 57.4737H73.9996C87.6226 57.4737 98.6663 68.5017 98.6663 82.1053V131.368C98.6663 144.972 109.71 156 123.333 156L57.5548 156C34.8499 156 16.444 137.62 16.444 114.947V82.1053Z" fill="url(#paint3_radial_6363_28128)" fill-opacity="0.7"/>
<path d="M119.222 57.4737C130.574 57.4737 139.777 48.2836 139.777 36.9474C139.777 25.6111 130.574 16.4211 119.222 16.4211C107.869 16.4211 98.6663 25.6111 98.6663 36.9474C98.6663 48.2836 107.869 57.4737 119.222 57.4737Z" fill="url(#paint4_radial_6363_28128)"/>
<path d="M119.222 57.4737C130.574 57.4737 139.777 48.2836 139.777 36.9474C139.777 25.6111 130.574 16.4211 119.222 16.4211C107.869 16.4211 98.6663 25.6111 98.6663 36.9474C98.6663 48.2836 107.869 57.4737 119.222 57.4737Z" fill="url(#paint5_radial_6363_28128)" fill-opacity="0.46"/>
<path d="M119.222 57.4737C130.574 57.4737 139.777 48.2836 139.777 36.9474C139.777 25.6111 130.574 16.4211 119.222 16.4211C107.869 16.4211 98.6663 25.6111 98.6663 36.9474C98.6663 48.2836 107.869 57.4737 119.222 57.4737Z" fill="url(#paint6_radial_6363_28128)" fill-opacity="0.4"/>
<path d="M57.5551 49.2632C71.1781 49.2632 82.2218 38.2352 82.2218 24.6316C82.2218 11.0279 71.1781 0 57.5551 0C43.9321 0 32.8884 11.0279 32.8884 24.6316C32.8884 38.2352 43.9321 49.2632 57.5551 49.2632Z" fill="url(#paint7_radial_6363_28128)"/>
<path d="M57.5551 49.2632C71.1781 49.2632 82.2218 38.2352 82.2218 24.6316C82.2218 11.0279 71.1781 0 57.5551 0C43.9321 0 32.8884 11.0279 32.8884 24.6316C32.8884 38.2352 43.9321 49.2632 57.5551 49.2632Z" fill="url(#paint8_radial_6363_28128)" fill-opacity="0.6"/>
<path d="M57.5551 49.2632C71.1781 49.2632 82.2218 38.2352 82.2218 24.6316C82.2218 11.0279 71.1781 0 57.5551 0C43.9321 0 32.8884 11.0279 32.8884 24.6316C32.8884 38.2352 43.9321 49.2632 57.5551 49.2632Z" fill="url(#paint9_radial_6363_28128)" fill-opacity="0.5"/>
<path d="M52.4167 78H13.3611C5.98197 78 0 83.9735 0 91.3421V130.342C0 137.711 5.98197 143.684 13.3611 143.684H52.4167C59.7958 143.684 65.7778 137.711 65.7778 130.342V91.3421C65.7778 83.9735 59.7958 78 52.4167 78Z" fill="url(#paint10_radial_6363_28128)"/>
<path d="M52.4167 78H13.3611C5.98197 78 0 83.9735 0 91.3421V130.342C0 137.711 5.98197 143.684 13.3611 143.684H52.4167C59.7958 143.684 65.7778 137.711 65.7778 130.342V91.3421C65.7778 83.9735 59.7958 78 52.4167 78Z" fill="url(#paint11_radial_6363_28128)" fill-opacity="0.7"/>
<path d="M47.1922 98.959H37.1319V129.609H28.6433V98.959H18.5828V92.0753H47.1922V98.959Z" fill="white"/>
</g>
<defs>
<radialGradient id="paint0_radial_6363_28128" cx="0" cy="0" r="1" gradientUnits="userSpaceOnUse" gradientTransform="translate(147.164 74.6086) scale(55.4112 136.58)">
<stop stop-color="#A98AFF"/>
<stop offset="0.14" stop-color="#8C75FF"/>
<stop offset="0.565" stop-color="#5F50E2"/>
<stop offset="0.9" stop-color="#3C2CB8"/>
</radialGradient>
<radialGradient id="paint1_radial_6363_28128" cx="0" cy="0" r="1" gradientTransform="matrix(50.1042 124.8 -126.394 50.5998 19.7842 50.9053)" gradientUnits="userSpaceOnUse">
<stop stop-color="#85C2FF"/>
<stop offset="0.69" stop-color="#7588FF"/>
<stop offset="1" stop-color="#6459FE"/>
</radialGradient>
<linearGradient id="paint2_linear_6363_28128" x1="68.2182" y1="57.4737" x2="68.2182" y2="156" gradientUnits="userSpaceOnUse">
<stop offset="0.801159" stop-color="#6864F6" stop-opacity="0"/>
<stop offset="1" stop-color="#5149DE"/>
</linearGradient>
<radialGradient id="paint3_radial_6363_28128" cx="0" cy="0" r="1" gradientTransform="matrix(-31.2849 72.4489 -58.2396 -25.0775 96.6107 54.1895)" gradientUnits="userSpaceOnUse">
<stop stop-color="#BD96FF"/>
<stop offset="0.686685" stop-color="#BD96FF" stop-opacity="0"/>
</radialGradient>
<radialGradient id="paint4_radial_6363_28128" cx="0" cy="0" r="1" gradientUnits="userSpaceOnUse" gradientTransform="translate(119.222 31.0826) rotate(-90) scale(41.0526 51.8888)">
<stop offset="0.268201" stop-color="#6868F7"/>
<stop offset="1" stop-color="#3923B1"/>
</radialGradient>
<radialGradient id="paint5_radial_6363_28128" cx="0" cy="0" r="1" gradientTransform="matrix(22.4888 18.8779 -27.3437 32.4812 102.233 26.8648)" gradientUnits="userSpaceOnUse">
<stop offset="0.270711" stop-color="#A1D3FF"/>
<stop offset="0.813393" stop-color="#A1D3FF" stop-opacity="0"/>
</radialGradient>
<radialGradient id="paint6_radial_6363_28128" cx="0" cy="0" r="1" gradientTransform="matrix(26.147 -23.2288 57.063 64.0493 135.593 26.1448)" gradientUnits="userSpaceOnUse">
<stop stop-color="#E3ACFD"/>
<stop offset="0.816041" stop-color="#9FA2FF" stop-opacity="0"/>
</radialGradient>
<radialGradient id="paint7_radial_6363_28128" cx="0" cy="0" r="1" gradientUnits="userSpaceOnUse" gradientTransform="translate(57.5551 17.594) rotate(-90) scale(49.2632 62.2669)">
<stop offset="0.268201" stop-color="#8282FF"/>
<stop offset="1" stop-color="#3923B1"/>
</radialGradient>
<radialGradient id="paint8_radial_6363_28128" cx="0" cy="0" r="1" gradientTransform="matrix(26.9865 22.6535 -32.8123 38.9772 37.1689 12.5327)" gradientUnits="userSpaceOnUse">
<stop offset="0.270711" stop-color="#A1D3FF"/>
<stop offset="0.813393" stop-color="#A1D3FF" stop-opacity="0"/>
</radialGradient>
<radialGradient id="paint9_radial_6363_28128" cx="0" cy="0" r="1" gradientTransform="matrix(31.3764 -27.8745 68.4757 76.8592 77.2009 11.6684)" gradientUnits="userSpaceOnUse">
<stop stop-color="#E3ACFD"/>
<stop offset="0.816041" stop-color="#9FA2FF" stop-opacity="0"/>
</radialGradient>
<radialGradient id="paint10_radial_6363_28128" cx="0" cy="0" r="1" gradientTransform="matrix(65.7777 65.6842 -65.7777 65.6842 0 78)" gradientUnits="userSpaceOnUse">
<stop offset="0.046875" stop-color="#688EFF"/>
<stop offset="0.946875" stop-color="#230F94"/>
</radialGradient>
<radialGradient id="paint11_radial_6363_28128" cx="0" cy="0" r="1" gradientUnits="userSpaceOnUse" gradientTransform="translate(32.8889 117.411) rotate(90) scale(45.9789 53.733)">
<stop offset="0.570647" stop-color="#6965F6" stop-opacity="0"/>
<stop offset="1" stop-color="#8F8FFF"/>
</radialGradient>
<clipPath id="clip0_6363_28128">
<rect width="148" height="156" fill="white"/>
</clipPath>
</defs>
</svg>
