<svg width="148" height="104" viewBox="0 0 148 104" fill="none" xmlns="http://www.w3.org/2000/svg">
<path d="M144.905 16.1791C143.2 9.80739 138.192 4.80013 131.821 3.0945C120.284 9.26299e-07 73.9997 0 73.9997 0C73.9997 0 27.7165 9.26299e-07 16.1791 3.0945C9.80739 4.80013 4.80013 9.80739 3.0945 16.1791C9.26299e-07 27.7165 0 51.8024 0 51.8024C0 51.8024 9.26299e-07 75.8885 3.0945 87.4259C4.80013 93.7976 9.80739 98.8048 16.1791 100.51C27.7165 103.605 73.9997 103.605 73.9997 103.605C73.9997 103.605 120.284 103.605 131.821 100.51C138.192 98.8048 143.2 93.7976 144.905 87.4259C148 75.8885 148 51.8024 148 51.8024C148 51.8024 147.988 27.7165 144.905 16.1791Z" fill="#FF0000"/>
<path d="M59.1858 74.0018L97.6356 51.8045L59.1858 29.6068V74.0018Z" fill="white"/>
</svg>
