<svg width="162" height="146" viewBox="0 0 162 146" fill="none" xmlns="http://www.w3.org/2000/svg">
<path d="M110.881 50.7015L149.107 38.9178L126.433 53.4045L110.881 50.7015Z" fill="#CC2417"/>
<path d="M134.14 79.3127L126.433 53.4045L149.107 38.9178L142.303 62.252L134.14 79.3127Z" fill="#E95085"/>
<path d="M160.274 31.8591L156.087 38.9429L142.303 62.252L149.107 38.9143L160.274 31.8591Z" fill="#CC2417"/>
<path d="M161.712 36.4622L151.076 47.4177L156.087 38.9429L161.712 36.4622Z" fill="#E64111"/>
<path d="M113.111 43.417L144.458 40.3483L122.697 47.0556L113.111 43.417Z" fill="#E64111"/>
<path d="M114.341 61.1301L126.433 53.4045L134.14 79.3164L130.158 87.5652L114.341 61.1301Z" fill="#CC2417"/>
<path d="M96.2801 92.0427L90.4905 21.3015L130.158 87.5651L96.2801 92.0427Z" fill="#B8E0F3"/>
<path d="M79.8647 110.05L96.2801 92.0428L130.158 87.5652L79.8647 110.05Z" fill="#E64111"/>
<path d="M0 145.63L79.8648 110.053L96.2801 92.0428L70.164 89.3577L0 145.63Z" fill="#FFCF35"/>
<path d="M2.98621 116.585L44.0299 110.319L56.8245 100.055L50.515 97.3197L2.98621 116.585Z" fill="#D7B32F"/>
<path d="M17.7811 83.1199L56.8245 100.059L70.1639 89.3576L17.7811 83.1199Z" fill="#FFDF86"/>
<path d="M87.515 46.9409L82.5965 47.7296L70.1676 89.3577L83.5788 80.8614L87.515 46.9409Z" fill="#00A0C7"/>
<path d="M94.7816 73.7632L83.5787 80.8613L90.4905 21.3015L94.7816 73.7632Z" fill="#5FB0CF"/>
<path d="M52.4617 52.58L87.515 46.9409L89.121 33.1211L52.4617 52.58Z" fill="#065A72"/>
<path d="M48.7227 20.0791L79.1622 38.4052L89.1211 33.121L89.3505 31.1242L48.7227 20.0791Z" fill="#5B8692"/>
<path d="M54.7202 0L82.3778 29.2278L89.3505 31.1242L90.4905 21.3016L54.7202 0Z" fill="#00A0C7"/>
<path d="M70.1639 89.3576L94.7816 73.7632L96.2801 92.0427L70.1639 89.3576Z" fill="#F49908"/>
</svg>
