<svg width="18" height="24" viewBox="0 0 18 24" fill="none" xmlns="http://www.w3.org/2000/svg">
<g clip-path="url(#clip0_1030_41018)">
<path d="M0 3.2C0 1.43269 1.43269 0 3.2 0H10.2L18 7.8V20.8C18 22.5673 16.5673 24 14.8 24H3.2C1.43269 24 0 22.5673 0 20.8V3.2Z" fill="#FF5C00"/>
<path d="M12.6 7.8H18L10.2 0V5.4C10.2 6.72548 11.2745 7.8 12.6 7.8Z" fill="white" fill-opacity="0.5"/>
</g>
<path d="M7.48143 19.8H6.4928L7.99919 15.4364H9.18811L10.6924 19.8H9.70374L8.6107 16.4335H8.5766L7.48143 19.8ZM7.41964 18.0848H9.75487V18.805H7.41964V18.0848Z" fill="white"/>
<path d="M12.0202 15.4364V19.8H11.0976V15.4364H12.0202Z" fill="white"/>
<defs>
<clipPath id="clip0_1030_41018">
<rect width="18" height="24" fill="white"/>
</clipPath>
</defs>
</svg>
