<svg width="23" height="24" viewBox="0 0 23 24" fill="none" xmlns="http://www.w3.org/2000/svg">
<g clip-path="url(#clip0_1030_40693)">
<path d="M6.2002 0.599609H13.252L20.4004 7.74805V20.7998C20.4004 22.2357 19.2357 23.4004 17.7998 23.4004H6.2002C4.76425 23.4004 3.59961 22.2357 3.59961 20.7998V3.2002C3.59961 1.76425 4.76426 0.599609 6.2002 0.599609Z" fill="white" stroke="#C8D2E1" stroke-width="1.2"/>
<path d="M13.2 0.6V5.4C13.2 6.72548 14.2745 7.8 15.6 7.8H20.4" stroke="#C8D2E1" stroke-width="1.2" stroke-linecap="round"/>
</g>
<rect y="11.1" width="22.5" height="9.9" rx="1.6" fill="#FF8A00"/>
<path d="M1.92053 18.2318V13.8682H3.66769C3.98871 13.8682 4.25647 13.9158 4.47096 14.0109C4.68545 14.1061 4.84667 14.2382 4.95462 14.4072C5.06258 14.5749 5.11656 14.768 5.11656 14.9868C5.11656 15.1572 5.08246 15.3071 5.01428 15.4364C4.9461 15.5642 4.85235 15.6693 4.73303 15.7517C4.61513 15.8327 4.48019 15.8902 4.3282 15.9243V15.9669C4.4944 15.974 4.64994 16.0209 4.79482 16.1075C4.94113 16.1942 5.05974 16.3156 5.15065 16.4719C5.24156 16.6267 5.28701 16.8114 5.28701 17.0258C5.28701 17.2574 5.22948 17.4641 5.11442 17.6459C5.00079 17.8263 4.83246 17.969 4.60945 18.0741C4.38644 18.1793 4.11158 18.2318 3.78488 18.2318H1.92053ZM2.84312 17.4776H3.59525C3.85235 17.4776 4.03985 17.4285 4.15775 17.3305C4.27565 17.2311 4.3346 17.099 4.3346 16.9342C4.3346 16.8135 4.30548 16.707 4.24724 16.6146C4.189 16.5223 4.1059 16.4499 3.99795 16.3973C3.89141 16.3447 3.76428 16.3185 3.61656 16.3185H2.84312V17.4776ZM2.84312 15.6942H3.52707C3.65349 15.6942 3.7657 15.6722 3.86371 15.6281C3.96315 15.5827 4.04127 15.5187 4.09809 15.4364C4.15633 15.354 4.18545 15.2553 4.18545 15.1402C4.18545 14.9825 4.12934 14.8554 4.01712 14.7588C3.90633 14.6622 3.74866 14.6139 3.54411 14.6139H2.84312V15.6942Z" fill="white"/>
<path d="M5.76733 18.2318V13.8682H6.68991V17.4712H8.56065V18.2318H5.76733Z" fill="white"/>
<path d="M9.05163 18.2318V13.8682H11.992V14.6288H9.97421V15.6686H11.8407V16.4293H9.97421V17.4712H12.0005V18.2318H9.05163Z" fill="white"/>
<path d="M16.2553 13.8682V18.2318H15.4584L13.56 15.4854H13.528V18.2318H12.6055V13.8682H13.4151L15.2986 16.6125H15.337V13.8682H16.2553Z" fill="white"/>
<path d="M18.4444 18.2318H16.8976V13.8682H18.4572C18.8961 13.8682 19.274 13.9555 19.5907 14.1303C19.9075 14.3035 20.1511 14.5528 20.3216 14.8781C20.4934 15.2034 20.5794 15.5926 20.5794 16.0457C20.5794 16.5003 20.4934 16.8909 20.3216 17.2176C20.1511 17.5443 19.9061 17.795 19.5865 17.9697C19.2683 18.1445 18.8876 18.2318 18.4444 18.2318ZM17.8202 17.4413H18.4061C18.6788 17.4413 18.9082 17.393 19.0943 17.2964C19.2818 17.1984 19.4224 17.0472 19.5162 16.8426C19.6113 16.6366 19.6589 16.371 19.6589 16.0457C19.6589 15.7233 19.6113 15.4598 19.5162 15.2553C19.4224 15.0507 19.2825 14.9001 19.0964 14.8035C18.9103 14.707 18.6809 14.6587 18.4082 14.6587H17.8202V17.4413Z" fill="white"/>
<defs>
<clipPath id="clip0_1030_40693">
<rect width="18" height="24" fill="white" transform="translate(3)"/>
</clipPath>
</defs>
</svg>
