<svg width="18" height="24" viewBox="0 0 18 24" fill="none" xmlns="http://www.w3.org/2000/svg">
<g clip-path="url(#clip0_1030_40915)">
<path d="M0 3.2C0 1.43269 1.43269 0 3.2 0H10.2L18 7.8V20.8C18 22.5673 16.5673 24 14.8 24H3.2C1.43269 24 0 22.5673 0 20.8V3.2Z" fill="url(#paint0_linear_1030_40915)"/>
<path d="M12.6 7.8H18L10.2 0V5.4C10.2 6.72548 11.2745 7.8 12.6 7.8Z" fill="#DCE2EB"/>
<path d="M3.2002 0.400391H10.0342L17.5996 7.96582V20.7998C17.5996 22.3462 16.3462 23.5996 14.7998 23.5996H3.2002C1.6538 23.5996 0.400391 22.3462 0.400391 20.7998V3.2002C0.400391 1.6538 1.6538 0.400391 3.2002 0.400391Z" stroke="black" stroke-opacity="0.06" stroke-width="0.8"/>
</g>
<path d="M1.64148 19.2V15.7091H3.03921C3.29603 15.7091 3.51023 15.7472 3.68182 15.8233C3.85341 15.8994 3.98239 16.0051 4.06875 16.1403C4.15512 16.2744 4.1983 16.429 4.1983 16.604C4.1983 16.7403 4.17103 16.8602 4.11648 16.9636C4.06193 17.0659 3.98693 17.15 3.89148 17.2159C3.79716 17.2807 3.68921 17.3267 3.56762 17.354V17.3881C3.70057 17.3938 3.825 17.4313 3.94091 17.5006C4.05796 17.5699 4.15284 17.667 4.22557 17.792C4.2983 17.9159 4.33466 18.0636 4.33466 18.2352C4.33466 18.4205 4.28864 18.5858 4.19659 18.7313C4.10568 18.8756 3.97102 18.9898 3.79262 19.0739C3.61421 19.158 3.39432 19.2 3.13296 19.2H1.64148ZM2.37955 18.5966H2.98125C3.18693 18.5966 3.33693 18.5574 3.43125 18.479C3.52557 18.3994 3.57273 18.2938 3.57273 18.1619C3.57273 18.0653 3.54943 17.9801 3.50284 17.9063C3.45625 17.8324 3.38978 17.7744 3.30341 17.7324C3.21818 17.6903 3.11648 17.6693 2.9983 17.6693H2.37955V18.5966ZM2.37955 17.1699H2.92671C3.02784 17.1699 3.11762 17.1523 3.19603 17.117C3.27557 17.0807 3.33807 17.0295 3.38353 16.9636C3.43012 16.8977 3.45341 16.8188 3.45341 16.7267C3.45341 16.6006 3.40853 16.4989 3.31875 16.4216C3.23012 16.3443 3.10398 16.3057 2.94034 16.3057H2.37955V17.1699Z" fill="#344054"/>
<path d="M4.71892 19.2V15.7091H5.45699V18.5915H6.95358V19.2H4.71892Z" fill="#344054"/>
<path d="M7.34635 19.2V15.7091H9.69863V16.3176H8.08442V17.1494H9.57761V17.758H8.08442V18.5915H9.70545V19.2H7.34635Z" fill="#344054"/>
<path d="M13.1093 15.7091V19.2H12.4718L10.9531 17.0028H10.9275V19.2H10.1894V15.7091H10.8371L12.344 17.9045H12.3746V15.7091H13.1093Z" fill="#344054"/>
<path d="M14.8606 19.2H13.6231V15.7091H14.8708C15.222 15.7091 15.5242 15.779 15.7777 15.9188C16.0311 16.0574 16.2259 16.2568 16.3623 16.517C16.4998 16.7773 16.5686 17.0886 16.5686 17.4511C16.5686 17.8148 16.4998 18.1273 16.3623 18.3886C16.2259 18.65 16.0299 18.8506 15.7742 18.9903C15.5197 19.1301 15.2152 19.2 14.8606 19.2ZM14.3612 18.5676H14.8299C15.0481 18.5676 15.2316 18.529 15.3805 18.4517C15.5305 18.3733 15.643 18.2523 15.718 18.0886C15.7941 17.9239 15.8322 17.7114 15.8322 17.4511C15.8322 17.1932 15.7941 16.9824 15.718 16.8188C15.643 16.6551 15.5311 16.5347 15.3822 16.4574C15.2333 16.3801 15.0498 16.3415 14.8316 16.3415H14.3612V18.5676Z" fill="#344054"/>
<defs>
<linearGradient id="paint0_linear_1030_40915" x1="9" y1="0" x2="9" y2="24" gradientUnits="userSpaceOnUse">
<stop stop-color="#F2F6FC"/>
<stop offset="1" stop-color="#EDF1F7"/>
</linearGradient>
<clipPath id="clip0_1030_40915">
<rect width="18" height="24" fill="white"/>
</clipPath>
</defs>
</svg>
