<svg width="21" height="24" viewBox="0 0 21 24" fill="none" xmlns="http://www.w3.org/2000/svg">
<g clip-path="url(#clip0_1030_40729)">
<path d="M6.2002 0.599609H13.252L20.4004 7.74805V20.7998C20.4004 22.2357 19.2357 23.4004 17.7998 23.4004H6.2002C4.76425 23.4004 3.59961 22.2357 3.59961 20.7998V3.2002C3.59961 1.76425 4.76426 0.599609 6.2002 0.599609Z" fill="white" stroke="#C8D2E1" stroke-width="1.2"/>
<path d="M13.2 0.6V5.4C13.2 6.72548 14.2745 7.8 15.6 7.8H20.4" stroke="#C8D2E1" stroke-width="1.2" stroke-linecap="round"/>
</g>
<rect y="11.1" width="15.75" height="9.9" rx="1.6" fill="#344054"/>
<path d="M5.75351 15.3959H4.82027C4.80322 15.2751 4.76842 15.1679 4.71586 15.0741C4.66331 14.979 4.59584 14.898 4.51345 14.8312C4.43106 14.7645 4.33589 14.7134 4.22794 14.6778C4.1214 14.6423 4.00564 14.6246 3.88064 14.6246C3.65479 14.6246 3.45805 14.6807 3.29044 14.7929C3.12283 14.9037 2.99285 15.0656 2.90052 15.2787C2.80819 15.4903 2.76203 15.7474 2.76203 16.05C2.76203 16.3611 2.80819 16.6224 2.90052 16.8341C2.99427 17.0457 3.12496 17.2055 3.29257 17.3135C3.46018 17.4214 3.65408 17.4754 3.87425 17.4754C3.99783 17.4754 4.11217 17.4591 4.21729 17.4264C4.32382 17.3937 4.41828 17.3462 4.50067 17.2837C4.58305 17.2197 4.65123 17.1423 4.70521 17.0514C4.76061 16.9605 4.79896 16.8568 4.82027 16.7403L5.75351 16.7446C5.72936 16.9449 5.66899 17.1381 5.5724 17.3241C5.47723 17.5088 5.34868 17.6743 5.18675 17.8206C5.02623 17.9655 4.83447 18.0805 4.61146 18.1658C4.38987 18.2496 4.13916 18.2915 3.85933 18.2915C3.47013 18.2915 3.12211 18.2034 2.8153 18.0273C2.5099 17.8511 2.26842 17.5962 2.09086 17.2624C1.91473 16.9285 1.82666 16.5244 1.82666 16.05C1.82666 15.5741 1.91615 15.1693 2.09513 14.8355C2.2741 14.5017 2.517 14.2474 2.82382 14.0727C3.13064 13.8966 3.47581 13.8085 3.85933 13.8085C4.11217 13.8085 4.34655 13.844 4.56246 13.9151C4.77979 13.9861 4.97226 14.0898 5.13987 14.2261C5.30748 14.3611 5.44385 14.5266 5.54896 14.7226C5.6555 14.9186 5.72368 15.143 5.75351 15.3959Z" fill="white"/>
<path d="M6.20346 17.4648V16.7382L8.0252 13.8682H8.65162V14.8739H8.28088L7.13244 16.6913V16.7254H9.72122V17.4648H6.20346ZM8.29792 18.2318V17.2432L8.31497 16.9214V13.8682H9.18003V18.2318H8.29792Z" fill="white"/>
<path d="M11.7884 18.2318H10.2415V13.8682H11.8011C12.2401 13.8682 12.6179 13.9555 12.9347 14.1303C13.2514 14.3035 13.495 14.5528 13.6655 14.8781C13.8374 15.2034 13.9233 15.5926 13.9233 16.0457C13.9233 16.5003 13.8374 16.8909 13.6655 17.2176C13.495 17.5443 13.25 17.795 12.9304 17.9697C12.6122 18.1445 12.2315 18.2318 11.7884 18.2318ZM11.1641 17.4413H11.75C12.0227 17.4413 12.2521 17.393 12.4382 17.2964C12.6257 17.1984 12.7663 17.0472 12.8601 16.8426C12.9553 16.6366 13.0029 16.371 13.0029 16.0457C13.0029 15.7233 12.9553 15.4598 12.8601 15.2553C12.7663 15.0507 12.6264 14.9001 12.4404 14.8035C12.2543 14.707 12.0249 14.6587 11.7521 14.6587H11.1641V17.4413Z" fill="white"/>
<defs>
<clipPath id="clip0_1030_40729">
<rect width="18" height="24" fill="white" transform="translate(3)"/>
</clipPath>
</defs>
</svg>
