<svg width="18" height="24" viewBox="0 0 18 24" fill="none" xmlns="http://www.w3.org/2000/svg">
<g clip-path="url(#clip0_1030_40987)">
<path d="M0 3.2C0 1.43269 1.43269 0 3.2 0H10.2L18 7.8V20.8C18 22.5673 16.5673 24 14.8 24H3.2C1.43269 24 0 22.5673 0 20.8V3.2Z" fill="url(#paint0_linear_1030_40987)"/>
<path d="M12.6 7.8H18L10.2 0V5.4C10.2 6.72548 11.2745 7.8 12.6 7.8Z" fill="#DCE2EB"/>
<path d="M3.2002 0.400391H10.0342L17.5996 7.96582V20.7998C17.5996 22.3462 16.3462 23.5996 14.7998 23.5996H3.2002C1.6538 23.5996 0.400391 22.3462 0.400391 20.7998V3.2002C0.400391 1.6538 1.6538 0.400391 3.2002 0.400391Z" stroke="black" stroke-opacity="0.06" stroke-width="0.8"/>
</g>
<path d="M6.95273 16.9641H6.01949C6.00244 16.8433 5.96764 16.7361 5.91508 16.6423C5.86253 16.5472 5.79506 16.4662 5.71267 16.3994C5.63028 16.3327 5.53511 16.2815 5.42716 16.246C5.32062 16.2105 5.20486 16.1928 5.07986 16.1928C4.854 16.1928 4.65727 16.2489 4.48966 16.3611C4.32204 16.4719 4.19207 16.6338 4.09974 16.8469C4.00741 17.0585 3.96125 17.3156 3.96125 17.6182C3.96125 17.9293 4.00741 18.1906 4.09974 18.4023C4.19349 18.6139 4.32417 18.7737 4.49179 18.8817C4.6594 18.9896 4.85329 19.0436 5.07346 19.0436C5.19704 19.0436 5.31139 19.0273 5.4165 18.9946C5.52304 18.9619 5.6175 18.9143 5.69988 18.8518C5.78227 18.7879 5.85045 18.7105 5.90443 18.6196C5.95983 18.5287 5.99818 18.425 6.01949 18.3085L6.95273 18.3128C6.92858 18.5131 6.86821 18.7062 6.77162 18.8923C6.67645 19.077 6.5479 19.2425 6.38596 19.3888C6.22545 19.5337 6.03369 19.6487 5.81068 19.7339C5.58909 19.8178 5.33838 19.8597 5.05855 19.8597C4.66934 19.8597 4.32133 19.7716 4.01452 19.5955C3.70912 19.4193 3.46764 19.1643 3.29008 18.8305C3.11395 18.4967 3.02588 18.0926 3.02588 17.6182C3.02588 17.1423 3.11537 16.7375 3.29434 16.4037C3.47332 16.0699 3.71622 15.8156 4.02304 15.6409C4.32986 15.4648 4.67503 15.3767 5.05855 15.3767C5.31139 15.3767 5.54577 15.4122 5.76167 15.4832C5.979 15.5543 6.17148 15.658 6.33909 15.7943C6.5067 15.9293 6.64307 16.0947 6.74818 16.2908C6.85471 16.4868 6.9229 16.7112 6.95273 16.9641Z" fill="#344054"/>
<path d="M7.40268 19.033V18.3064L9.22442 15.4364H9.85084V16.442H9.4801L8.33166 18.2595V18.2936H10.9204V19.033H7.40268ZM9.49714 19.8V18.8114L9.51419 18.4896V15.4364H10.3792V19.8H9.49714Z" fill="#344054"/>
<path d="M12.9876 19.8H11.4407V15.4364H13.0004C13.4393 15.4364 13.8171 15.5237 14.1339 15.6984C14.4507 15.8717 14.6943 16.121 14.8647 16.4463C15.0366 16.7716 15.1225 17.1608 15.1225 17.6139C15.1225 18.0685 15.0366 18.4591 14.8647 18.7858C14.6943 19.1125 14.4492 19.3632 14.1296 19.5379C13.8114 19.7126 13.4308 19.8 12.9876 19.8ZM12.3633 19.0095H12.9492C13.222 19.0095 13.4514 18.9612 13.6374 18.8646C13.8249 18.7666 13.9656 18.6153 14.0593 18.4108C14.1545 18.2048 14.2021 17.9392 14.2021 17.6139C14.2021 17.2915 14.1545 17.028 14.0593 16.8234C13.9656 16.6189 13.8257 16.4683 13.6396 16.3717C13.4535 16.2751 13.2241 16.2268 12.9514 16.2268H12.3633V19.0095Z" fill="#344054"/>
<defs>
<linearGradient id="paint0_linear_1030_40987" x1="9" y1="0" x2="9" y2="24" gradientUnits="userSpaceOnUse">
<stop stop-color="#F2F6FC"/>
<stop offset="1" stop-color="#EDF1F7"/>
</linearGradient>
<clipPath id="clip0_1030_40987">
<rect width="18" height="24" fill="white"/>
</clipPath>
</defs>
</svg>
