<svg width="21" height="24" viewBox="0 0 21 24" fill="none" xmlns="http://www.w3.org/2000/svg">
<g clip-path="url(#clip0_1030_40759)">
<path d="M6.2002 0.599609H13.252L20.4004 7.74805V20.7998C20.4004 22.2357 19.2357 23.4004 17.7998 23.4004H6.2002C4.76425 23.4004 3.59961 22.2357 3.59961 20.7998V3.2002C3.59961 1.76425 4.76426 0.599609 6.2002 0.599609Z" fill="white" stroke="#C8D2E1" stroke-width="1.2"/>
<path d="M13.2 0.6V5.4C13.2 6.72548 14.2745 7.8 15.6 7.8H20.4" stroke="#C8D2E1" stroke-width="1.2" stroke-linecap="round"/>
</g>
<rect y="11.1" width="15.75" height="9.9" rx="1.6" fill="#0DB664"/>
<path d="M5.72445 15.3959H4.79122C4.77417 15.2751 4.73937 15.1679 4.68681 15.0741C4.63426 14.979 4.56678 14.898 4.4844 14.8312C4.40201 14.7645 4.30684 14.7134 4.19889 14.6778C4.09235 14.6423 3.97658 14.6246 3.85158 14.6246C3.62573 14.6246 3.429 14.6807 3.26139 14.7929C3.09377 14.9037 2.9638 15.0656 2.87147 15.2787C2.77914 15.4903 2.73298 15.7474 2.73298 16.05C2.73298 16.3611 2.77914 16.6224 2.87147 16.8341C2.96522 17.0457 3.0959 17.2055 3.26352 17.3135C3.43113 17.4214 3.62502 17.4754 3.84519 17.4754C3.96877 17.4754 4.08312 17.4591 4.18823 17.4264C4.29477 17.3937 4.38923 17.3462 4.47161 17.2837C4.554 17.2197 4.62218 17.1423 4.67616 17.0514C4.73156 16.9605 4.76991 16.8568 4.79122 16.7403L5.72445 16.7446C5.70031 16.9449 5.63994 17.1381 5.54335 17.3241C5.44818 17.5088 5.31962 17.6743 5.15769 17.8206C4.99718 17.9655 4.80542 18.0805 4.58241 18.1658C4.36082 18.2496 4.11011 18.2915 3.83028 18.2915C3.44107 18.2915 3.09306 18.2034 2.78624 18.0273C2.48085 17.8511 2.23937 17.5962 2.06181 17.2624C1.88568 16.9285 1.79761 16.5244 1.79761 16.05C1.79761 15.5741 1.8871 15.1693 2.06607 14.8355C2.24505 14.5017 2.48795 14.2474 2.79477 14.0727C3.10158 13.8966 3.44676 13.8085 3.83028 13.8085C4.08312 13.8085 4.31749 13.844 4.5334 13.9151C4.75073 13.9861 4.9432 14.0898 5.11082 14.2261C5.27843 14.3611 5.41479 14.5266 5.51991 14.7226C5.62644 14.9186 5.69462 15.143 5.72445 15.3959Z" fill="white"/>
<path d="M7.81291 18.2318H6.26603V13.8682H7.82569C8.26461 13.8682 8.64245 13.9555 8.95921 14.1303C9.27597 14.3035 9.51958 14.5528 9.69004 14.8781C9.86191 15.2034 9.94785 15.5926 9.94785 16.0457C9.94785 16.5003 9.86191 16.8909 9.69004 17.2176C9.51958 17.5443 9.27455 17.795 8.95495 17.9697C8.63677 18.1445 8.25609 18.2318 7.81291 18.2318ZM7.18862 17.4413H7.77455C8.04728 17.4413 8.27668 17.393 8.46276 17.2964C8.65026 17.1984 8.79089 17.0472 8.88464 16.8426C8.97981 16.6366 9.02739 16.371 9.02739 16.0457C9.02739 15.7233 8.97981 15.4598 8.88464 15.2553C8.79089 15.0507 8.65097 14.9001 8.46489 14.8035C8.27882 14.707 8.04941 14.6587 7.77668 14.6587H7.18862V17.4413Z" fill="white"/>
<path d="M10.5113 18.2318V13.8682H12.2329C12.5624 13.8682 12.8437 13.9271 13.0766 14.045C13.311 14.1615 13.4892 14.327 13.6114 14.5415C13.735 14.7545 13.7968 15.0053 13.7968 15.2936C13.7968 15.5834 13.7343 15.8327 13.6093 16.0415C13.4843 16.2489 13.3032 16.408 13.066 16.5187C12.8302 16.6295 12.5446 16.6849 12.2094 16.6849H11.0567V15.9435H12.0603C12.2364 15.9435 12.3827 15.9193 12.4992 15.871C12.6157 15.8227 12.7023 15.7503 12.7591 15.6537C12.8174 15.5571 12.8465 15.4371 12.8465 15.2936C12.8465 15.1487 12.8174 15.0266 12.7591 14.9271C12.7023 14.8277 12.615 14.7524 12.4971 14.7013C12.3806 14.6487 12.2336 14.6224 12.056 14.6224H11.4339V18.2318H10.5113ZM12.8678 16.246L13.9523 18.2318H12.9339L11.8728 16.246H12.8678Z" fill="white"/>
<defs>
<clipPath id="clip0_1030_40759">
<rect width="18" height="24" fill="white" transform="translate(3)"/>
</clipPath>
</defs>
</svg>
