<svg width="18" height="24" viewBox="0 0 18 24" fill="none" xmlns="http://www.w3.org/2000/svg">
<g clip-path="url(#clip0_1030_40831)">
<path d="M0 3.2C0 1.43269 1.43269 0 3.2 0H10.2L18 7.8V20.8C18 22.5673 16.5673 24 14.8 24H3.2C1.43269 24 0 22.5673 0 20.8V3.2Z" fill="url(#paint0_linear_1030_40831)"/>
<path d="M12.6 7.8H18L10.2 0V5.4C10.2 6.72548 11.2745 7.8 12.6 7.8Z" fill="#DCE2EB"/>
<path d="M3.2002 0.400391H10.0342L17.5996 7.96582V20.7998C17.5996 22.3462 16.3462 23.5996 14.7998 23.5996H3.2002C1.6538 23.5996 0.400391 22.3462 0.400391 20.7998V3.2002C0.400391 1.6538 1.6538 0.400391 3.2002 0.400391Z" stroke="black" stroke-opacity="0.06" stroke-width="0.8"/>
</g>
<path d="M7.53689 16.9641H6.60365C6.58661 16.8433 6.55181 16.7361 6.49925 16.6423C6.44669 16.5472 6.37922 16.4662 6.29684 16.3994C6.21445 16.3327 6.11928 16.2815 6.01132 16.246C5.90479 16.2105 5.78902 16.1928 5.66402 16.1928C5.43817 16.1928 5.24144 16.2489 5.07382 16.3611C4.90621 16.4719 4.77624 16.6338 4.68391 16.8469C4.59158 17.0585 4.54542 17.3156 4.54542 17.6182C4.54542 17.9293 4.59158 18.1906 4.68391 18.4023C4.77766 18.6139 4.90834 18.7737 5.07596 18.8817C5.24357 18.9896 5.43746 19.0436 5.65763 19.0436C5.78121 19.0436 5.89556 19.0273 6.00067 18.9946C6.10721 18.9619 6.20167 18.9143 6.28405 18.8518C6.36644 18.7879 6.43462 18.7105 6.4886 18.6196C6.544 18.5287 6.58235 18.425 6.60365 18.3085L7.53689 18.3128C7.51275 18.5131 7.45238 18.7062 7.35579 18.8923C7.26061 19.077 7.13206 19.2425 6.97013 19.3888C6.80962 19.5337 6.61786 19.6487 6.39485 19.7339C6.17326 19.8178 5.92255 19.8597 5.64272 19.8597C5.25351 19.8597 4.9055 19.7716 4.59868 19.5955C4.29329 19.4193 4.05181 19.1643 3.87425 18.8305C3.69811 18.4967 3.61005 18.0926 3.61005 17.6182C3.61005 17.1423 3.69954 16.7375 3.87851 16.4037C4.05749 16.0699 4.30039 15.8156 4.60721 15.6409C4.91402 15.4648 5.25919 15.3767 5.64272 15.3767C5.89556 15.3767 6.12993 15.4122 6.34584 15.4832C6.56317 15.5543 6.75564 15.658 6.92326 15.7943C7.09087 15.9293 7.22723 16.0947 7.33235 16.2908C7.43888 16.4868 7.50706 16.7112 7.53689 16.9641Z" fill="#344054"/>
<path d="M10.4457 16.6913C10.4286 16.5195 10.3555 16.3859 10.2262 16.2908C10.0969 16.1956 9.92151 16.148 9.69992 16.148C9.54935 16.148 9.42222 16.1693 9.31853 16.2119C9.21483 16.2531 9.13529 16.3107 9.07989 16.3845C9.02591 16.4584 8.99892 16.5422 8.99892 16.6359C8.99608 16.7141 9.01242 16.7822 9.04793 16.8405C9.08486 16.8987 9.13529 16.9491 9.19921 16.9918C9.26313 17.033 9.33699 17.0692 9.4208 17.1004C9.50461 17.1303 9.59409 17.1558 9.68927 17.1771L10.0813 17.2709C10.2717 17.3135 10.4464 17.3703 10.6055 17.4413C10.7645 17.5124 10.9023 17.5997 11.0188 17.7034C11.1353 17.8071 11.2255 17.9293 11.2894 18.0699C11.3547 18.2105 11.3881 18.3717 11.3895 18.5535C11.3881 18.8206 11.3199 19.0521 11.185 19.2482C11.0515 19.4428 10.8583 19.594 10.6055 19.702C10.354 19.8085 10.0508 19.8618 9.69566 19.8618C9.34338 19.8618 9.03657 19.8078 8.7752 19.6999C8.51526 19.5919 8.31213 19.4321 8.16583 19.2205C8.02094 19.0074 7.94495 18.7439 7.93784 18.43H8.8306C8.84054 18.5763 8.88245 18.6984 8.95631 18.7964C9.0316 18.893 9.13174 18.9662 9.25674 19.0159C9.38316 19.0642 9.52591 19.0883 9.685 19.0883C9.84125 19.0883 9.97691 19.0656 10.092 19.0202C10.2084 18.9747 10.2986 18.9115 10.3626 18.8305C10.4265 18.7496 10.4584 18.6565 10.4584 18.5514C10.4584 18.4534 10.4293 18.371 10.3711 18.3043C10.3143 18.2375 10.2305 18.1807 10.1197 18.1338C10.0103 18.0869 9.87606 18.0443 9.71696 18.006L9.24182 17.8866C8.87392 17.7972 8.58344 17.6572 8.37037 17.4669C8.15731 17.2766 8.05148 17.0202 8.0529 16.6977C8.05148 16.4335 8.12179 16.2027 8.26384 16.0053C8.40731 15.8078 8.60404 15.6537 8.85404 15.5429C9.10404 15.4321 9.38813 15.3767 9.70631 15.3767C10.0302 15.3767 10.3128 15.4321 10.5543 15.5429C10.7972 15.6537 10.9861 15.8078 11.1211 16.0053C11.256 16.2027 11.3256 16.4314 11.3299 16.6913H10.4457Z" fill="#344054"/>
<path d="M14.2573 16.6913C14.2403 16.5195 14.1671 16.3859 14.0378 16.2908C13.9086 16.1956 13.7332 16.148 13.5116 16.148C13.361 16.148 13.2339 16.1693 13.1302 16.2119C13.0265 16.2531 12.9469 16.3107 12.8915 16.3845C12.8376 16.4584 12.8106 16.5422 12.8106 16.6359C12.8077 16.7141 12.8241 16.7822 12.8596 16.8405C12.8965 16.8987 12.9469 16.9491 13.0108 16.9918C13.0748 17.033 13.1486 17.0692 13.2324 17.1004C13.3162 17.1303 13.4057 17.1558 13.5009 17.1771L13.893 17.2709C14.0833 17.3135 14.258 17.3703 14.4171 17.4413C14.5762 17.5124 14.714 17.5997 14.8305 17.7034C14.9469 17.8071 15.0371 17.9293 15.101 18.0699C15.1664 18.2105 15.1998 18.3717 15.2012 18.5535C15.1998 18.8206 15.1316 19.0521 14.9966 19.2482C14.8631 19.4428 14.6699 19.594 14.4171 19.702C14.1657 19.8085 13.8624 19.8618 13.5073 19.8618C13.155 19.8618 12.8482 19.8078 12.5868 19.6999C12.3269 19.5919 12.1238 19.4321 11.9775 19.2205C11.8326 19.0074 11.7566 18.7439 11.7495 18.43H12.6422C12.6522 18.5763 12.6941 18.6984 12.768 18.7964C12.8432 18.893 12.9434 18.9662 13.0684 19.0159C13.1948 19.0642 13.3376 19.0883 13.4966 19.0883C13.6529 19.0883 13.7885 19.0656 13.9036 19.0202C14.0201 18.9747 14.1103 18.9115 14.1742 18.8305C14.2381 18.7496 14.2701 18.6565 14.2701 18.5514C14.2701 18.4534 14.241 18.371 14.1827 18.3043C14.1259 18.2375 14.0421 18.1807 13.9313 18.1338C13.8219 18.0869 13.6877 18.0443 13.5286 18.006L13.0535 17.8866C12.6856 17.7972 12.3951 17.6572 12.182 17.4669C11.9689 17.2766 11.8631 17.0202 11.8645 16.6977C11.8631 16.4335 11.9334 16.2027 12.0755 16.0053C12.2189 15.8078 12.4157 15.6537 12.6657 15.5429C12.9157 15.4321 13.1998 15.3767 13.518 15.3767C13.8418 15.3767 14.1245 15.4321 14.366 15.5429C14.6089 15.6537 14.7978 15.8078 14.9327 16.0053C15.0677 16.2027 15.1373 16.4314 15.1415 16.6913H14.2573Z" fill="#344054"/>
<defs>
<linearGradient id="paint0_linear_1030_40831" x1="9" y1="0" x2="9" y2="24" gradientUnits="userSpaceOnUse">
<stop stop-color="#F2F6FC"/>
<stop offset="1" stop-color="#EDF1F7"/>
</linearGradient>
<clipPath id="clip0_1030_40831">
<rect width="18" height="24" fill="white"/>
</clipPath>
</defs>
</svg>
