<svg width="21" height="24" viewBox="0 0 21 24" fill="none" xmlns="http://www.w3.org/2000/svg">
<g clip-path="url(#clip0_1030_40717)">
<path d="M6.2002 0.599609H13.252L20.4004 7.74805V20.7998C20.4004 22.2357 19.2357 23.4004 17.7998 23.4004H6.2002C4.76425 23.4004 3.59961 22.2357 3.59961 20.7998V3.2002C3.59961 1.76425 4.76426 0.599609 6.2002 0.599609Z" fill="white" stroke="#C8D2E1" stroke-width="1.2"/>
<path d="M13.2 0.6V5.4C13.2 6.72548 14.2745 7.8 15.6 7.8H20.4" stroke="#C8D2E1" stroke-width="1.2" stroke-linecap="round"/>
</g>
<rect y="11.1" width="15.75" height="9.9" rx="1.6" fill="#0DB664"/>
<path d="M5.68026 15.3948H4.74703C4.72998 15.2741 4.69518 15.1668 4.64262 15.0731C4.59007 14.9779 4.52259 14.8969 4.44021 14.8302C4.35782 14.7634 4.26265 14.7123 4.1547 14.6768C4.04816 14.6413 3.9324 14.6235 3.8074 14.6235C3.58154 14.6235 3.38481 14.6796 3.2172 14.7918C3.04958 14.9026 2.91961 15.0646 2.82728 15.2776C2.73495 15.4893 2.68879 15.7464 2.68879 16.0489C2.68879 16.36 2.73495 16.6214 2.82728 16.833C2.92103 17.0447 3.05171 17.2045 3.21933 17.3124C3.38694 17.4204 3.58083 17.4744 3.801 17.4744C3.92458 17.4744 4.03893 17.458 4.14404 17.4254C4.25058 17.3927 4.34504 17.3451 4.42742 17.2826C4.50981 17.2187 4.57799 17.1413 4.63197 17.0504C4.68737 16.9594 4.72572 16.8558 4.74703 16.7393L5.68026 16.7435C5.65612 16.9438 5.59575 17.137 5.49916 17.3231C5.40399 17.5077 5.27544 17.6732 5.1135 17.8195C4.95299 17.9644 4.76123 18.0795 4.53822 18.1647C4.31663 18.2485 4.06592 18.2904 3.78609 18.2904C3.39688 18.2904 3.04887 18.2023 2.74205 18.0262C2.43666 17.8501 2.19518 17.5951 2.01762 17.2613C1.84149 16.9275 1.75342 16.5234 1.75342 16.0489C1.75342 15.5731 1.84291 15.1683 2.02188 14.8344C2.20086 14.5006 2.44376 14.2464 2.75058 14.0717C3.0574 13.8955 3.40257 13.8075 3.78609 13.8075C4.03893 13.8075 4.2733 13.843 4.48921 13.914C4.70654 13.985 4.89901 14.0887 5.06663 14.2251C5.23424 14.36 5.37061 14.5255 5.47572 14.7215C5.58225 14.9175 5.65043 15.142 5.68026 15.3948Z" fill="white"/>
<path d="M8.58903 15.1221C8.57198 14.9502 8.49883 14.8167 8.36957 14.7215C8.24031 14.6263 8.06488 14.5788 7.84329 14.5788C7.69272 14.5788 7.56559 14.6001 7.4619 14.6427C7.35821 14.6839 7.27866 14.7414 7.22326 14.8153C7.16928 14.8891 7.1423 14.9729 7.1423 15.0667C7.13945 15.1448 7.15579 15.213 7.1913 15.2712C7.22823 15.3295 7.27866 15.3799 7.34258 15.4225C7.4065 15.4637 7.48036 15.4999 7.56417 15.5312C7.64798 15.561 7.73747 15.5866 7.83264 15.6079L8.22468 15.7016C8.41502 15.7442 8.58974 15.8011 8.74883 15.8721C8.90792 15.9431 9.0457 16.0305 9.16218 16.1342C9.27866 16.2379 9.36886 16.36 9.43278 16.5006C9.49812 16.6413 9.5315 16.8025 9.53292 16.9843C9.5315 17.2513 9.46332 17.4829 9.32838 17.6789C9.19485 17.8735 9.00167 18.0248 8.74883 18.1327C8.49741 18.2393 8.19414 18.2925 7.83903 18.2925C7.48676 18.2925 7.17994 18.2386 6.91857 18.1306C6.65863 18.0227 6.45551 17.8629 6.3092 17.6512C6.16431 17.4381 6.08832 17.1746 6.08122 16.8607H6.97397C6.98392 17.007 7.02582 17.1292 7.09968 17.2272C7.17497 17.3238 7.27511 17.3969 7.40011 17.4467C7.52653 17.495 7.66928 17.5191 7.82838 17.5191C7.98463 17.5191 8.12028 17.4964 8.23534 17.4509C8.35181 17.4055 8.44201 17.3423 8.50593 17.2613C8.56985 17.1803 8.60181 17.0873 8.60181 16.9822C8.60181 16.8842 8.57269 16.8018 8.51445 16.735C8.45764 16.6683 8.37383 16.6114 8.26303 16.5646C8.15366 16.5177 8.01943 16.4751 7.86034 16.4367L7.38519 16.3174C7.0173 16.2279 6.72681 16.088 6.51374 15.8977C6.30068 15.7073 6.19485 15.4509 6.19627 15.1285C6.19485 14.8643 6.26517 14.6335 6.40721 14.436C6.55068 14.2386 6.74741 14.0844 6.99741 13.9737C7.24741 13.8629 7.5315 13.8075 7.84968 13.8075C8.17355 13.8075 8.45622 13.8629 8.69769 13.9737C8.94059 14.0844 9.12951 14.2386 9.26445 14.436C9.3994 14.6335 9.469 14.8621 9.47326 15.1221H8.58903Z" fill="white"/>
<path d="M10.8218 13.8671L11.8765 17.1825H11.917L12.9738 13.8671H13.9966L12.4923 18.2308H11.3034L9.79698 13.8671H10.8218Z" fill="white"/>
<defs>
<clipPath id="clip0_1030_40717">
<rect width="18" height="24" fill="white" transform="translate(3)"/>
</clipPath>
</defs>
</svg>
