<svg width="18" height="24" viewBox="0 0 18 24" fill="none" xmlns="http://www.w3.org/2000/svg">
<g clip-path="url(#clip0_1030_41133)">
<path d="M0 3.2C0 1.43269 1.43269 0 3.2 0H10.2L18 7.8V20.8C18 22.5673 16.5673 24 14.8 24H3.2C1.43269 24 0 22.5673 0 20.8V3.2Z" fill="#0DB664"/>
<path d="M12.6 7.8H18L10.2 0V5.4C10.2 6.72548 11.2745 7.8 12.6 7.8Z" fill="white" fill-opacity="0.5"/>
</g>
<path d="M6.95858 16.9641H6.02535C6.0083 16.8433 5.9735 16.7361 5.92094 16.6423C5.86839 16.5472 5.80091 16.4662 5.71853 16.3994C5.63614 16.3327 5.54097 16.2815 5.43302 16.246C5.32648 16.2105 5.21072 16.1928 5.08572 16.1928C4.85986 16.1928 4.66313 16.2489 4.49552 16.3611C4.3279 16.4719 4.19793 16.6338 4.1056 16.8469C4.01327 17.0585 3.96711 17.3156 3.96711 17.6182C3.96711 17.9293 4.01327 18.1906 4.1056 18.4023C4.19935 18.6139 4.33003 18.7737 4.49765 18.8817C4.66526 18.9896 4.85915 19.0436 5.07932 19.0436C5.2029 19.0436 5.31725 19.0273 5.42236 18.9946C5.5289 18.9619 5.62336 18.9144 5.70574 18.8519C5.78813 18.7879 5.85631 18.7105 5.91029 18.6196C5.96569 18.5287 6.00404 18.425 6.02535 18.3085L6.95858 18.3128C6.93444 18.5131 6.87407 18.7063 6.77748 18.8923C6.68231 19.077 6.55376 19.2425 6.39182 19.3888C6.23131 19.5337 6.03955 19.6487 5.81654 19.734C5.59495 19.8178 5.34424 19.8597 5.06441 19.8597C4.6752 19.8597 4.32719 19.7716 4.02037 19.5955C3.71498 19.4193 3.4735 19.1644 3.29594 18.8305C3.11981 18.4967 3.03174 18.0926 3.03174 17.6182C3.03174 17.1423 3.12123 16.7375 3.3002 16.4037C3.47918 16.0699 3.72208 15.8156 4.0289 15.6409C4.33572 15.4648 4.68089 15.3767 5.06441 15.3767C5.31725 15.3767 5.55162 15.4122 5.76753 15.4832C5.98486 15.5543 6.17734 15.658 6.34495 15.7943C6.51256 15.9293 6.64893 16.0947 6.75404 16.2908C6.86057 16.4868 6.92876 16.7112 6.95858 16.9641Z" fill="white"/>
<path d="M9.86735 16.6913C9.8503 16.5195 9.77715 16.3859 9.64789 16.2908C9.51863 16.1956 9.3432 16.148 9.12161 16.148C8.97104 16.148 8.84391 16.1693 8.74022 16.2119C8.63653 16.2531 8.55698 16.3107 8.50158 16.3845C8.44761 16.4584 8.42062 16.5422 8.42062 16.6359C8.41778 16.7141 8.43411 16.7822 8.46962 16.8405C8.50655 16.8987 8.55698 16.9492 8.6209 16.9918C8.68482 17.033 8.75868 17.0692 8.84249 17.1004C8.9263 17.1303 9.01579 17.1558 9.11096 17.1771L9.503 17.2709C9.69334 17.3135 9.86806 17.3703 10.0272 17.4413C10.1862 17.5124 10.324 17.5997 10.4405 17.7034C10.557 17.8071 10.6472 17.9293 10.7111 18.0699C10.7764 18.2105 10.8098 18.3717 10.8112 18.5536C10.8098 18.8206 10.7416 19.0521 10.6067 19.2482C10.4732 19.4428 10.28 19.594 10.0272 19.702C9.77573 19.8085 9.47246 19.8618 9.11735 19.8618C8.76508 19.8618 8.45826 19.8078 8.19689 19.6999C7.93695 19.5919 7.73383 19.4321 7.58752 19.2205C7.44263 19.0074 7.36664 18.7439 7.35954 18.43H8.25229C8.26224 18.5763 8.30414 18.6984 8.378 18.7965C8.45329 18.893 8.55343 18.9662 8.67843 19.0159C8.80485 19.0642 8.9476 19.0884 9.1067 19.0884C9.26295 19.0884 9.3986 19.0656 9.51366 19.0202C9.63013 18.9747 9.72033 18.9115 9.78425 18.8305C9.84817 18.7496 9.88013 18.6565 9.88013 18.5514C9.88013 18.4534 9.85101 18.371 9.79278 18.3043C9.73596 18.2375 9.65215 18.1807 9.54136 18.1338C9.43198 18.0869 9.29775 18.0443 9.13866 18.006L8.66351 17.8867C8.29562 17.7972 8.00513 17.6572 7.79207 17.4669C7.579 17.2766 7.47317 17.0202 7.47459 16.6977C7.47317 16.4335 7.54349 16.2027 7.68553 16.0053C7.829 15.8078 8.02573 15.6537 8.27573 15.5429C8.52573 15.4321 8.80982 15.3767 9.128 15.3767C9.45187 15.3767 9.73454 15.4321 9.97601 15.5429C10.2189 15.6537 10.4078 15.8078 10.5428 16.0053C10.6777 16.2027 10.7473 16.4314 10.7516 16.6913H9.86735Z" fill="white"/>
<path d="M12.1002 15.4364L13.1548 18.7517H13.1953L14.2521 15.4364H15.2749L13.7706 19.8H12.5817L11.0753 15.4364H12.1002Z" fill="white"/>
<defs>
<clipPath id="clip0_1030_41133">
<rect width="18" height="24" fill="white"/>
</clipPath>
</defs>
</svg>
