<svg width="18" height="24" viewBox="0 0 18 24" fill="none" xmlns="http://www.w3.org/2000/svg">
<g clip-path="url(#clip0_1030_40807)">
<path d="M0 3.2C0 1.43269 1.43269 0 3.2 0H10.2L18 7.8V20.8C18 22.5673 16.5673 24 14.8 24H3.2C1.43269 24 0 22.5673 0 20.8V3.2Z" fill="url(#paint0_linear_1030_40807)"/>
<path d="M12.6 7.8H18L10.2 0V5.4C10.2 6.72548 11.2745 7.8 12.6 7.8Z" fill="#DCE2EB"/>
<path d="M3.2002 0.400391H10.0342L17.5996 7.96582V20.7998C17.5996 22.3462 16.3462 23.5996 14.7998 23.5996H3.2002C1.6538 23.5996 0.400391 22.3462 0.400391 20.7998V3.2002C0.400391 1.6538 1.6538 0.400391 3.2002 0.400391Z" stroke="black" stroke-opacity="0.06" stroke-width="0.8"/>
</g>
<path d="M3.76117 19.8H2.21429V15.4364H3.77395C4.21287 15.4364 4.59071 15.5237 4.90748 15.6984C5.22424 15.8717 5.46785 16.121 5.6383 16.4463C5.81018 16.7716 5.89611 17.1608 5.89611 17.6139C5.89611 18.0685 5.81018 18.4591 5.6383 18.7858C5.46785 19.1125 5.22282 19.3632 4.90321 19.5379C4.58503 19.7126 4.20435 19.8 3.76117 19.8ZM3.13688 19.0095H3.72282C3.99554 19.0095 4.22495 18.9612 4.41103 18.8646C4.59853 18.7666 4.73915 18.6153 4.8329 18.4108C4.92807 18.2048 4.97566 17.9392 4.97566 17.6139C4.97566 17.2915 4.92807 17.028 4.8329 16.8234C4.73915 16.6189 4.59924 16.4683 4.41316 16.3717C4.22708 16.2751 3.99768 16.2268 3.72495 16.2268H3.13688V19.0095Z" fill="#344054"/>
<path d="M6.45953 15.4364H7.59731L8.79902 18.3682H8.85015L10.0519 15.4364H11.1896V19.8H10.2948V16.9598H10.2585L9.12927 19.7787H8.5199L7.39064 16.9491H7.35442V19.8H6.45953V15.4364Z" fill="#344054"/>
<path d="M14.7232 16.8469C14.6934 16.7432 14.6515 16.6516 14.5975 16.572C14.5435 16.491 14.4775 16.4229 14.3994 16.3675C14.3227 16.3107 14.2346 16.2673 14.1352 16.2375C14.0372 16.2077 13.9285 16.1928 13.8092 16.1928C13.5862 16.1928 13.3901 16.2482 13.2211 16.3589C13.0535 16.4697 12.9228 16.631 12.8291 16.8426C12.7353 17.0528 12.6884 17.3099 12.6884 17.6139C12.6884 17.9179 12.7346 18.1764 12.8269 18.3895C12.9193 18.6026 13.0499 18.7652 13.219 18.8774C13.388 18.9882 13.5876 19.0436 13.8177 19.0436C14.0265 19.0436 14.2048 19.0067 14.3525 18.9328C14.5016 18.8575 14.6153 18.7517 14.6934 18.6153C14.7729 18.479 14.8127 18.3178 14.8127 18.1317L15.0002 18.1594H13.8752V17.4648H15.7012V18.0145C15.7012 18.398 15.6202 18.7276 15.4583 19.0031C15.2964 19.2773 15.0734 19.4889 14.7893 19.6381C14.5052 19.7858 14.1799 19.8597 13.8134 19.8597C13.4043 19.8597 13.045 19.7695 12.7353 19.5891C12.4256 19.4072 12.1842 19.1494 12.0109 18.8156C11.839 18.4804 11.7531 18.0827 11.7531 17.6224C11.7531 17.2687 11.8042 16.9534 11.9065 16.6764C12.0102 16.398 12.155 16.1622 12.3411 15.969C12.5272 15.7758 12.7438 15.6288 12.991 15.528C13.2381 15.4271 13.5059 15.3767 13.7943 15.3767C14.0414 15.3767 14.2715 15.4129 14.4846 15.4854C14.6977 15.5564 14.8866 15.6572 15.0514 15.7879C15.2175 15.9186 15.3532 16.0741 15.4583 16.2545C15.5634 16.4335 15.6309 16.631 15.6607 16.8469H14.7232Z" fill="#344054"/>
<defs>
<linearGradient id="paint0_linear_1030_40807" x1="9" y1="0" x2="9" y2="24" gradientUnits="userSpaceOnUse">
<stop stop-color="#F2F6FC"/>
<stop offset="1" stop-color="#EDF1F7"/>
</linearGradient>
<clipPath id="clip0_1030_40807">
<rect width="18" height="24" fill="white"/>
</clipPath>
</defs>
</svg>
