<svg width="21" height="24" viewBox="0 0 21 24" fill="none" xmlns="http://www.w3.org/2000/svg">
<g clip-path="url(#clip0_1030_40585)">
<path d="M6.2002 0.599609H13.252L20.4004 7.74805V20.7998C20.4004 22.2357 19.2357 23.4004 17.7998 23.4004H6.2002C4.76425 23.4004 3.59961 22.2357 3.59961 20.7998V3.2002C3.59961 1.76425 4.76426 0.599609 6.2002 0.599609Z" fill="white" stroke="#C8D2E1" stroke-width="1.2"/>
<path d="M13.2 0.6V5.4C13.2 6.72548 14.2745 7.8 15.6 7.8H20.4" stroke="#C8D2E1" stroke-width="1.2" stroke-linecap="round"/>
</g>
<rect y="11.1" width="17.25" height="9.9" rx="1.6" fill="#3873FF"/>
<path d="M3.42841 18.2318H1.88153V13.8682H3.44119C3.88011 13.8682 4.25795 13.9555 4.57471 14.1303C4.89147 14.3035 5.13508 14.5528 5.30554 14.8781C5.47741 15.2034 5.56335 15.5926 5.56335 16.0457C5.56335 16.5003 5.47741 16.8909 5.30554 17.2176C5.13508 17.5443 4.89005 17.795 4.57045 17.9697C4.25227 18.1445 3.87159 18.2318 3.42841 18.2318ZM2.80412 17.4413H3.39005C3.66278 17.4413 3.89218 17.393 4.07826 17.2964C4.26576 17.1984 4.40639 17.0472 4.50014 16.8426C4.59531 16.6366 4.64289 16.371 4.64289 16.0457C4.64289 15.7233 4.59531 15.4598 4.50014 15.2553C4.40639 15.0507 4.26647 14.9001 4.08039 14.8035C3.89432 14.707 3.66491 14.6587 3.39218 14.6587H2.80412V17.4413Z" fill="white"/>
<path d="M6.12677 13.8682H7.26455L8.46625 16.8H8.51739L9.7191 13.8682H10.8569V18.2318H9.96199V15.3916H9.92577L8.79651 18.2105H8.18713L7.05787 15.381H7.02165V18.2318H6.12677V13.8682Z" fill="white"/>
<path d="M14.3905 15.2787C14.3606 15.175 14.3187 15.0834 14.2648 15.0038C14.2108 14.9229 14.1447 14.8547 14.0666 14.7993C13.9899 14.7425 13.9018 14.6991 13.8024 14.6693C13.7044 14.6395 13.5957 14.6246 13.4764 14.6246C13.2534 14.6246 13.0574 14.68 12.8883 14.7908C12.7207 14.9016 12.59 15.0628 12.4963 15.2744C12.4025 15.4847 12.3557 15.7418 12.3557 16.0457C12.3557 16.3497 12.4018 16.6082 12.4942 16.8213C12.5865 17.0344 12.7172 17.197 12.8862 17.3092C13.0552 17.42 13.2548 17.4754 13.4849 17.4754C13.6937 17.4754 13.872 17.4385 14.0197 17.3646C14.1689 17.2893 14.2825 17.1835 14.3606 17.0472C14.4402 16.9108 14.48 16.7496 14.48 16.5635L14.6675 16.5912H13.5425V15.8966H15.3684V16.4463C15.3684 16.8298 15.2875 17.1594 15.1256 17.4349C14.9636 17.7091 14.7406 17.9207 14.4565 18.0699C14.1724 18.2176 13.8471 18.2915 13.4807 18.2915C13.0716 18.2915 12.7122 18.2013 12.4025 18.0209C12.0929 17.8391 11.8514 17.5812 11.6781 17.2474C11.5062 16.9122 11.4203 16.5145 11.4203 16.0543C11.4203 15.7006 11.4714 15.3852 11.5737 15.1082C11.6774 14.8298 11.8223 14.594 12.0084 14.4009C12.1944 14.2077 12.4111 14.0607 12.6582 13.9598C12.9054 13.8589 13.1731 13.8085 13.4615 13.8085C13.7086 13.8085 13.9388 13.8447 14.1518 13.9172C14.3649 13.9882 14.5538 14.0891 14.7186 14.2197C14.8848 14.3504 15.0204 14.506 15.1256 14.6864C15.2307 14.8653 15.2981 15.0628 15.328 15.2787H14.3905Z" fill="white"/>
<defs>
<clipPath id="clip0_1030_40585">
<rect width="18" height="24" fill="white" transform="translate(3)"/>
</clipPath>
</defs>
</svg>
