<svg width="18" height="24" viewBox="0 0 18 24" fill="none" xmlns="http://www.w3.org/2000/svg">
<g clip-path="url(#clip0_1030_40885)">
<path d="M0 3.2C0 1.43269 1.43269 0 3.2 0H10.2L18 7.8V20.8C18 22.5673 16.5673 24 14.8 24H3.2C1.43269 24 0 22.5673 0 20.8V3.2Z" fill="url(#paint0_linear_1030_40885)"/>
<path d="M12.6 7.8H18L10.2 0V5.4C10.2 6.72548 11.2745 7.8 12.6 7.8Z" fill="#DCE2EB"/>
<path d="M3.2002 0.400391H10.0342L17.5996 7.96582V20.7998C17.5996 22.3462 16.3462 23.5996 14.7998 23.5996H3.2002C1.6538 23.5996 0.400391 22.3462 0.400391 20.7998V3.2002C0.400391 1.6538 1.6538 0.400391 3.2002 0.400391Z" stroke="black" stroke-opacity="0.06" stroke-width="0.8"/>
</g>
<path d="M4.41095 19.8H2.86407V15.4364H4.42373C4.86265 15.4364 5.2405 15.5237 5.55726 15.6984C5.87402 15.8717 6.11763 16.121 6.28808 16.4463C6.45996 16.7716 6.54589 17.1608 6.54589 17.6139C6.54589 18.0685 6.45996 18.4591 6.28808 18.7858C6.11763 19.1125 5.8726 19.3632 5.553 19.5379C5.23481 19.7126 4.85413 19.8 4.41095 19.8ZM3.78666 19.0095H4.3726C4.64532 19.0095 4.87473 18.9612 5.06081 18.8646C5.24831 18.7666 5.38893 18.6153 5.48268 18.4108C5.57785 18.2048 5.62544 17.9392 5.62544 17.6139C5.62544 17.2915 5.57785 17.028 5.48268 16.8234C5.38893 16.6189 5.24902 16.4683 5.06294 16.3717C4.87686 16.2751 4.64746 16.2268 4.37473 16.2268H3.78666V19.0095Z" fill="#344054"/>
<path d="M11.1193 17.6182C11.1193 18.094 11.0291 18.4989 10.8487 18.8327C10.6697 19.1665 10.4254 19.4214 10.1157 19.5976C9.80746 19.7723 9.46087 19.8597 9.07593 19.8597C8.68814 19.8597 8.34013 19.7716 8.03189 19.5955C7.72366 19.4193 7.48005 19.1643 7.30107 18.8305C7.12209 18.4967 7.0326 18.0926 7.0326 17.6182C7.0326 17.1423 7.12209 16.7375 7.30107 16.4037C7.48005 16.0699 7.72366 15.8156 8.03189 15.6409C8.34013 15.4648 8.68814 15.3767 9.07593 15.3767C9.46087 15.3767 9.80746 15.4648 10.1157 15.6409C10.4254 15.8156 10.6697 16.0699 10.8487 16.4037C11.0291 16.7375 11.1193 17.1423 11.1193 17.6182ZM10.1839 17.6182C10.1839 17.3099 10.1377 17.05 10.0454 16.8383C9.95448 16.6267 9.82593 16.4662 9.65974 16.3568C9.49354 16.2474 9.29894 16.1928 9.07593 16.1928C8.85292 16.1928 8.65831 16.2474 8.49212 16.3568C8.32593 16.4662 8.19667 16.6267 8.10434 16.8383C8.01343 17.05 7.96797 17.3099 7.96797 17.6182C7.96797 17.9264 8.01343 18.1864 8.10434 18.398C8.19667 18.6097 8.32593 18.7702 8.49212 18.8795C8.65831 18.9889 8.85292 19.0436 9.07593 19.0436C9.29894 19.0436 9.49354 18.9889 9.65974 18.8795C9.82593 18.7702 9.95448 18.6097 10.0454 18.398C10.1377 18.1864 10.1839 17.9264 10.1839 17.6182Z" fill="#344054"/>
<path d="M15.5328 16.9641H14.5996C14.5825 16.8433 14.5477 16.7361 14.4952 16.6423C14.4426 16.5472 14.3751 16.4662 14.2928 16.3994C14.2104 16.3327 14.1152 16.2815 14.0072 16.246C13.9007 16.2105 13.7849 16.1928 13.6599 16.1928C13.4341 16.1928 13.2374 16.2489 13.0697 16.3611C12.9021 16.4719 12.7722 16.6338 12.6798 16.8469C12.5875 17.0585 12.5413 17.3156 12.5413 17.6182C12.5413 17.9293 12.5875 18.1906 12.6798 18.4023C12.7736 18.6139 12.9043 18.7737 13.0719 18.8817C13.2395 18.9896 13.4334 19.0436 13.6535 19.0436C13.7771 19.0436 13.8915 19.0273 13.9966 18.9946C14.1031 18.9619 14.1976 18.9143 14.28 18.8518C14.3624 18.7879 14.4305 18.7105 14.4845 18.6196C14.5399 18.5287 14.5783 18.425 14.5996 18.3085L15.5328 18.3128C15.5087 18.5131 15.4483 18.7062 15.3517 18.8923C15.2565 19.077 15.128 19.2425 14.9661 19.3888C14.8055 19.5337 14.6138 19.6487 14.3908 19.7339C14.1692 19.8178 13.9185 19.8597 13.6386 19.8597C13.2494 19.8597 12.9014 19.7716 12.5946 19.5955C12.2892 19.4193 12.0477 19.1643 11.8702 18.8305C11.694 18.4967 11.606 18.0926 11.606 17.6182C11.606 17.1423 11.6955 16.7375 11.8744 16.4037C12.0534 16.0699 12.2963 15.8156 12.6031 15.6409C12.9099 15.4648 13.2551 15.3767 13.6386 15.3767C13.8915 15.3767 14.1259 15.4122 14.3418 15.4832C14.5591 15.5543 14.7516 15.658 14.9192 15.7943C15.0868 15.9293 15.2232 16.0947 15.3283 16.2908C15.4348 16.4868 15.503 16.7112 15.5328 16.9641Z" fill="#344054"/>
<defs>
<linearGradient id="paint0_linear_1030_40885" x1="9" y1="0" x2="9" y2="24" gradientUnits="userSpaceOnUse">
<stop stop-color="#F2F6FC"/>
<stop offset="1" stop-color="#EDF1F7"/>
</linearGradient>
<clipPath id="clip0_1030_40885">
<rect width="18" height="24" fill="white"/>
</clipPath>
</defs>
</svg>
