<svg width="18" height="24" viewBox="0 0 18 24" fill="none" xmlns="http://www.w3.org/2000/svg">
<g clip-path="url(#clip0_1030_40795)">
<path d="M0 3.2C0 1.43269 1.43269 0 3.2 0H10.2L18 7.8V20.8C18 22.5673 16.5673 24 14.8 24H3.2C1.43269 24 0 22.5673 0 20.8V3.2Z" fill="url(#paint0_linear_1030_40795)"/>
<path d="M12.6 7.8H18L10.2 0V5.4C10.2 6.72548 11.2745 7.8 12.6 7.8Z" fill="#DCE2EB"/>
<path d="M3.2002 0.400391H10.0342L17.5996 7.96582V20.7998C17.5996 22.3462 16.3462 23.5996 14.7998 23.5996H3.2002C1.6538 23.5996 0.400391 22.3462 0.400391 20.7998V3.2002C0.400391 1.6538 1.6538 0.400391 3.2002 0.400391Z" stroke="black" stroke-opacity="0.06" stroke-width="0.8"/>
</g>
<path d="M3.9809 19.8V15.4364H6.92124V16.197H4.90348V17.2368H6.76996V17.9974H4.90348V19.0393H6.92976V19.8H3.9809Z" fill="#344054"/>
<path d="M8.39978 15.4364L9.27975 16.9236H9.31384L10.1981 15.4364H11.24L9.9083 17.6182L11.2698 19.8H10.2087L9.31384 18.3107H9.27975L8.38487 19.8H7.32805L8.69382 17.6182L7.35362 15.4364H8.39978Z" fill="#344054"/>
<path d="M11.7038 19.8V15.4364H14.6441V16.197H12.6264V17.2368H14.4929V17.9974H12.6264V19.0393H14.6527V19.8H11.7038Z" fill="#344054"/>
<defs>
<linearGradient id="paint0_linear_1030_40795" x1="9" y1="0" x2="9" y2="24" gradientUnits="userSpaceOnUse">
<stop stop-color="#F2F6FC"/>
<stop offset="1" stop-color="#EDF1F7"/>
</linearGradient>
<clipPath id="clip0_1030_40795">
<rect width="18" height="24" fill="white"/>
</clipPath>
</defs>
</svg>
