<svg width="21" height="24" viewBox="0 0 21 24" fill="none" xmlns="http://www.w3.org/2000/svg">
<g clip-path="url(#clip0_1030_40573)">
<path d="M6.2002 0.599609H13.252L20.4004 7.74805V20.7998C20.4004 22.2357 19.2357 23.4004 17.7998 23.4004H6.2002C4.76425 23.4004 3.59961 22.2357 3.59961 20.7998V3.2002C3.59961 1.76425 4.76426 0.599609 6.2002 0.599609Z" fill="white" stroke="#C8D2E1" stroke-width="1.2"/>
<path d="M13.2 0.6V5.4C13.2 6.72548 14.2745 7.8 15.6 7.8H20.4" stroke="#C8D2E1" stroke-width="1.2" stroke-linecap="round"/>
</g>
<rect y="11.1" width="15" height="9.9" rx="1.6" fill="#3873FF"/>
<path d="M2.16412 18.2318V13.8682H5.10446V14.6288H3.08671V15.6686H4.95319V16.4293H3.08671V17.4712H5.11299V18.2318H2.16412Z" fill="white"/>
<path d="M6.58301 13.8682L7.46298 15.3554H7.49707L8.38131 13.8682H9.42321L8.09153 16.05L9.45304 18.2318H8.39196L7.49707 16.7425H7.46298L6.56809 18.2318H5.51128L6.87704 16.05L5.53684 13.8682H6.58301Z" fill="white"/>
<path d="M9.88701 18.2318V13.8682H12.8274V14.6288H10.8096V15.6686H12.6761V16.4293H10.8096V17.4712H12.8359V18.2318H9.88701Z" fill="white"/>
<defs>
<clipPath id="clip0_1030_40573">
<rect width="18" height="24" fill="white" transform="translate(3)"/>
</clipPath>
</defs>
</svg>
