<svg width="18" height="24" viewBox="0 0 18 24" fill="none" xmlns="http://www.w3.org/2000/svg">
<g clip-path="url(#clip0_1030_41013)">
<path d="M0 3.2C0 1.43269 1.43269 0 3.2 0H10.2L18 7.8V20.8C18 22.5673 16.5673 24 14.8 24H3.2C1.43269 24 0 22.5673 0 20.8V3.2Z" fill="#3873FF"/>
<path d="M12.6 7.8H18L10.2 0V5.4C10.2 6.72548 11.2745 7.8 12.6 7.8Z" fill="white" fill-opacity="0.5"/>
</g>
<path d="M3.9809 19.8V15.4364H6.92124V16.197H4.90348V17.2368H6.76996V17.9975H4.90348V19.0394H6.92976V19.8H3.9809Z" fill="white"/>
<path d="M8.39978 15.4364L9.27975 16.9236H9.31384L10.1981 15.4364H11.24L9.9083 17.6182L11.2698 19.8H10.2087L9.31384 18.3107H9.27975L8.38487 19.8H7.32805L8.69382 17.6182L7.35362 15.4364H8.39978Z" fill="white"/>
<path d="M11.7038 19.8V15.4364H14.6441V16.197H12.6264V17.2368H14.4929V17.9975H12.6264V19.0394H14.6527V19.8H11.7038Z" fill="white"/>
<defs>
<clipPath id="clip0_1030_41013">
<rect width="18" height="24" fill="white"/>
</clipPath>
</defs>
</svg>
