<svg width="18" height="24" viewBox="0 0 18 24" fill="none" xmlns="http://www.w3.org/2000/svg">
<g clip-path="url(#clip0_1030_40998)">
<path d="M0 3.2C0 1.43269 1.43269 0 3.2 0H10.2L18 7.8V20.8C18 22.5673 16.5673 24 14.8 24H3.2C1.43269 24 0 22.5673 0 20.8V3.2Z" fill="#6E45F0"/>
<path d="M12.6 7.8H18L10.2 0V5.4C10.2 6.72548 11.2745 7.8 12.6 7.8Z" fill="white" fill-opacity="0.5"/>
</g>
<path d="M4.69633 19.8V15.4364H7.58554V16.197H5.61892V17.2368H7.39378V17.9974H5.61892V19.8H4.69633Z" fill="white"/>
<path d="M9.00869 15.4364V19.8H8.0861V15.4364H9.00869Z" fill="white"/>
<path d="M12.5412 16.8469C12.5114 16.7432 12.4695 16.6516 12.4155 16.572C12.3615 16.4911 12.2955 16.4229 12.2173 16.3675C12.1406 16.3107 12.0526 16.2673 11.9531 16.2375C11.8551 16.2077 11.7465 16.1928 11.6271 16.1928C11.4041 16.1928 11.2081 16.2482 11.0391 16.359C10.8715 16.4697 10.7408 16.631 10.647 16.8426C10.5533 17.0528 10.5064 17.3099 10.5064 17.6139C10.5064 17.9179 10.5526 18.1764 10.6449 18.3895C10.7372 18.6026 10.8679 18.7652 11.0369 18.8774C11.206 18.9882 11.4056 19.0436 11.6357 19.0436C11.8445 19.0436 12.0227 19.0067 12.1705 18.9328C12.3196 18.8575 12.4333 18.7517 12.5114 18.6153C12.5909 18.479 12.6307 18.3178 12.6307 18.1317L12.8182 18.1594H11.6932V17.4648H13.5192V18.0145C13.5192 18.398 13.4382 18.7276 13.2763 19.0031C13.1144 19.2773 12.8913 19.4889 12.6073 19.6381C12.3232 19.7858 11.9979 19.8597 11.6314 19.8597C11.2223 19.8597 10.8629 19.7695 10.5533 19.5891C10.2436 19.4072 10.0021 19.1494 9.82885 18.8156C9.65697 18.4804 9.57104 18.0827 9.57104 17.6224C9.57104 17.2688 9.62217 16.9534 9.72444 16.6764C9.82814 16.398 9.97302 16.1622 10.1591 15.969C10.3452 15.7759 10.5618 15.6288 10.809 15.528C11.0561 15.4271 11.3239 15.3767 11.6122 15.3767C11.8594 15.3767 12.0895 15.4129 12.3026 15.4854C12.5156 15.5564 12.7046 15.6572 12.8693 15.7879C13.0355 15.9186 13.1712 16.0742 13.2763 16.2545C13.3814 16.4335 13.4489 16.631 13.4787 16.8469H12.5412Z" fill="white"/>
<defs>
<clipPath id="clip0_1030_40998">
<rect width="18" height="24" fill="white"/>
</clipPath>
</defs>
</svg>
