<svg width="21" height="24" viewBox="0 0 21 24" fill="none" xmlns="http://www.w3.org/2000/svg">
<g clip-path="url(#clip0_1030_40555)">
<path d="M6.2002 0.599609H13.252L20.4004 7.74805V20.7998C20.4004 22.2357 19.2357 23.4004 17.7998 23.4004H6.2002C4.76425 23.4004 3.59961 22.2357 3.59961 20.7998V3.2002C3.59961 1.76425 4.76426 0.599609 6.2002 0.599609Z" fill="white" stroke="#C8D2E1" stroke-width="1.2"/>
<path d="M13.2 0.6V5.4C13.2 6.72548 14.2745 7.8 15.6 7.8H20.4" stroke="#C8D2E1" stroke-width="1.2" stroke-linecap="round"/>
</g>
<rect y="11.1" width="12.75" height="9.9" rx="1.6" fill="#6E45F0"/>
<path d="M1.96357 18.2318V13.8682H4.85277V14.6288H2.88615V15.6686H4.66101V16.4293H2.88615V18.2318H1.96357Z" fill="white"/>
<path d="M6.27592 13.8682V18.2318H5.35334V13.8682H6.27592Z" fill="white"/>
<path d="M9.80844 15.2787C9.77861 15.175 9.73671 15.0834 9.68273 15.0038C9.62875 14.9229 9.5627 14.8547 9.48458 14.7993C9.40787 14.7425 9.3198 14.6991 9.22037 14.6693C9.12236 14.6395 9.0137 14.6246 8.89438 14.6246C8.67137 14.6246 8.47534 14.68 8.30631 14.7908C8.1387 14.9016 8.00802 15.0628 7.91427 15.2744C7.82052 15.4847 7.77364 15.7418 7.77364 16.0457C7.77364 16.3497 7.8198 16.6082 7.91213 16.8213C8.00446 17.0344 8.13515 17.197 8.30418 17.3092C8.47321 17.42 8.67279 17.4754 8.9029 17.4754C9.11171 17.4754 9.28998 17.4385 9.4377 17.3646C9.58685 17.2893 9.70049 17.1835 9.77861 17.0472C9.85816 16.9108 9.89793 16.7496 9.89793 16.5635L10.0854 16.5912H8.96043V15.8966H10.7864V16.4463C10.7864 16.8298 10.7055 17.1594 10.5435 17.4349C10.3816 17.7091 10.1586 17.9207 9.87449 18.0699C9.5904 18.2176 9.26512 18.2915 8.89864 18.2915C8.48955 18.2915 8.13017 18.2013 7.82052 18.0209C7.51086 17.8391 7.26938 17.5812 7.09608 17.2474C6.92421 16.9122 6.83827 16.5145 6.83827 16.0543C6.83827 15.7006 6.88941 15.3852 6.99168 15.1082C7.09537 14.8298 7.24026 14.594 7.42634 14.4009C7.61242 14.2077 7.82904 14.0607 8.0762 13.9598C8.32336 13.8589 8.59111 13.8085 8.87946 13.8085C9.12662 13.8085 9.35674 13.8447 9.5698 13.9172C9.78287 13.9882 9.97179 14.0891 10.1366 14.2197C10.3028 14.3504 10.4384 14.506 10.5435 14.6864C10.6486 14.8653 10.7161 15.0628 10.7459 15.2787H9.80844Z" fill="white"/>
<defs>
<clipPath id="clip0_1030_40555">
<rect width="18" height="24" fill="white" transform="translate(3)"/>
</clipPath>
</defs>
</svg>
