<svg width="18" height="24" viewBox="0 0 18 24" fill="none" xmlns="http://www.w3.org/2000/svg">
<g clip-path="url(#clip0_1030_40819)">
<path d="M0 3.2C0 1.43269 1.43269 0 3.2 0H10.2L18 7.8V20.8C18 22.5673 16.5673 24 14.8 24H3.2C1.43269 24 0 22.5673 0 20.8V3.2Z" fill="url(#paint0_linear_1030_40819)"/>
<path d="M12.6 7.8H18L10.2 0V5.4C10.2 6.72548 11.2745 7.8 12.6 7.8Z" fill="#DCE2EB"/>
<path d="M3.2002 0.400391H10.0342L17.5996 7.96582V20.7998C17.5996 22.3462 16.3462 23.5996 14.7998 23.5996H3.2002C1.6538 23.5996 0.400391 22.3462 0.400391 20.7998V3.2002C0.400391 1.6538 1.6538 0.400391 3.2002 0.400391Z" stroke="black" stroke-opacity="0.06" stroke-width="0.8"/>
</g>
<path d="M1.75781 19.35V15.4227H2.58814V17.0431H4.27372V15.4227H5.10213V19.35H4.27372V17.7277H2.58814V19.35H1.75781Z" fill="#344054"/>
<path d="M5.52915 16.1073V15.4227H8.75457V16.1073H7.55223V19.35H6.73149V16.1073H5.52915Z" fill="#344054"/>
<path d="M9.17775 15.4227H10.2018L11.2833 18.0614H11.3293L12.4108 15.4227H13.4349V19.35H12.6295V16.7938H12.5969L11.5805 19.3308H11.0321L10.0157 16.7842H9.98315V19.35H9.17775V15.4227Z" fill="#344054"/>
<path d="M14.011 19.35V15.4227H14.8413V18.6654H16.525V19.35H14.011Z" fill="#344054"/>
<defs>
<linearGradient id="paint0_linear_1030_40819" x1="9" y1="0" x2="9" y2="24" gradientUnits="userSpaceOnUse">
<stop stop-color="#F2F6FC"/>
<stop offset="1" stop-color="#EDF1F7"/>
</linearGradient>
<clipPath id="clip0_1030_40819">
<rect width="18" height="24" fill="white"/>
</clipPath>
</defs>
</svg>
