<svg width="21" height="24" viewBox="0 0 21 24" fill="none" xmlns="http://www.w3.org/2000/svg">
<g clip-path="url(#clip0_1030_40597)">
<path d="M6.2002 0.599609H13.252L20.4004 7.74805V20.7998C20.4004 22.2357 19.2357 23.4004 17.7998 23.4004H6.2002C4.76425 23.4004 3.59961 22.2357 3.59961 20.7998V3.2002C3.59961 1.76425 4.76426 0.599609 6.2002 0.599609Z" fill="white" stroke="#C8D2E1" stroke-width="1.2"/>
<path d="M13.2 0.6V5.4C13.2 6.72548 14.2745 7.8 15.6 7.8H20.4" stroke="#C8D2E1" stroke-width="1.2" stroke-linecap="round"/>
</g>
<rect y="11.1" width="20.25" height="9.9" rx="1.6" fill="#0DB664"/>
<path d="M1.92102 18.2318V13.8682H2.84361V15.6686H4.71648V13.8682H5.63693V18.2318H4.71648V16.4293H2.84361V18.2318H1.92102Z" fill="white"/>
<path d="M6.11139 14.6288V13.8682H9.6952V14.6288H8.35926V18.2318H7.44733V14.6288H6.11139Z" fill="white"/>
<path d="M10.1654 13.8682H11.3032L12.5049 16.8H12.556L13.7577 13.8682H14.8955V18.2318H14.0006V15.3916H13.9644L12.8351 18.2105H12.2258L11.0965 15.381H11.0603V18.2318H10.1654V13.8682Z" fill="white"/>
<path d="M15.5356 18.2318V13.8682H16.4582V17.4712H18.329V18.2318H15.5356Z" fill="white"/>
<defs>
<clipPath id="clip0_1030_40597">
<rect width="18" height="24" fill="white" transform="translate(3)"/>
</clipPath>
</defs>
</svg>
