<svg width="18" height="24" viewBox="0 0 18 24" fill="none" xmlns="http://www.w3.org/2000/svg">
<g clip-path="url(#clip0_1030_41068)">
<path d="M0 3.2C0 1.43269 1.43269 0 3.2 0H10.2L18 7.8V20.8C18 22.5673 16.5673 24 14.8 24H3.2C1.43269 24 0 22.5673 0 20.8V3.2Z" fill="#3873FF"/>
<path d="M12.6 7.8H18L10.2 0V5.4C10.2 6.72548 11.2745 7.8 12.6 7.8Z" fill="white" fill-opacity="0.5"/>
</g>
<path d="M5.20347 15.4364V19.8H4.28088V15.4364H5.20347Z" fill="white"/>
<path d="M9.69267 16.9641H8.75943C8.74238 16.8433 8.70758 16.7361 8.65502 16.6423C8.60247 16.5472 8.535 16.4662 8.45261 16.3994C8.37022 16.3327 8.27505 16.2815 8.1671 16.246C8.06056 16.2105 7.9448 16.1928 7.8198 16.1928C7.59394 16.1928 7.39721 16.2489 7.2296 16.3611C7.06198 16.4719 6.93201 16.6338 6.83968 16.8469C6.74735 17.0585 6.70119 17.3156 6.70119 17.6182C6.70119 17.9293 6.74735 18.1906 6.83968 18.4023C6.93343 18.6139 7.06412 18.7737 7.23173 18.8817C7.39934 18.9896 7.59323 19.0436 7.81341 19.0436C7.93698 19.0436 8.05133 19.0273 8.15644 18.9946C8.26298 18.9619 8.35744 18.9144 8.43983 18.8519C8.52221 18.7879 8.59039 18.7105 8.64437 18.6196C8.69977 18.5287 8.73812 18.425 8.75943 18.3085L9.69267 18.3128C9.66852 18.5131 9.60815 18.7063 9.51156 18.8923C9.41639 19.077 9.28784 19.2425 9.12591 19.3888C8.96539 19.5337 8.77363 19.6487 8.55062 19.734C8.32903 19.8178 8.07832 19.8597 7.79849 19.8597C7.40929 19.8597 7.06127 19.7716 6.75446 19.5955C6.44906 19.4193 6.20758 19.1644 6.03002 18.8305C5.85389 18.4967 5.76582 18.0926 5.76582 17.6182C5.76582 17.1423 5.85531 16.7375 6.03429 16.4037C6.21326 16.0699 6.45616 15.8156 6.76298 15.6409C7.0698 15.4648 7.41497 15.3767 7.79849 15.3767C8.05133 15.3767 8.28571 15.4122 8.50162 15.4832C8.71895 15.5543 8.91142 15.658 9.07903 15.7943C9.24664 15.9293 9.38301 16.0947 9.48812 16.2908C9.59466 16.4868 9.66284 16.7112 9.69267 16.9641Z" fill="white"/>
<path d="M14.2442 17.6182C14.2442 18.094 14.154 18.4989 13.9736 18.8327C13.7946 19.1665 13.5503 19.4215 13.2406 19.5976C12.9324 19.7723 12.5858 19.8597 12.2009 19.8597C11.8131 19.8597 11.4651 19.7716 11.1568 19.5955C10.8486 19.4193 10.605 19.1644 10.426 18.8305C10.247 18.4967 10.1575 18.0926 10.1575 17.6182C10.1575 17.1423 10.247 16.7375 10.426 16.4037C10.605 16.0699 10.8486 15.8156 11.1568 15.6409C11.4651 15.4648 11.8131 15.3767 12.2009 15.3767C12.5858 15.3767 12.9324 15.4648 13.2406 15.6409C13.5503 15.8156 13.7946 16.0699 13.9736 16.4037C14.154 16.7375 14.2442 17.1423 14.2442 17.6182ZM13.3088 17.6182C13.3088 17.3099 13.2627 17.05 13.1703 16.8384C13.0794 16.6267 12.9509 16.4662 12.7847 16.3568C12.6185 16.2474 12.4239 16.1928 12.2009 16.1928C11.9779 16.1928 11.7832 16.2474 11.6171 16.3568C11.4509 16.4662 11.3216 16.6267 11.2293 16.8384C11.1384 17.05 11.0929 17.3099 11.0929 17.6182C11.0929 17.9264 11.1384 18.1864 11.2293 18.398C11.3216 18.6097 11.4509 18.7702 11.6171 18.8796C11.7832 18.9889 11.9779 19.0436 12.2009 19.0436C12.4239 19.0436 12.6185 18.9889 12.7847 18.8796C12.9509 18.7702 13.0794 18.6097 13.1703 18.398C13.2627 18.1864 13.3088 17.9264 13.3088 17.6182Z" fill="white"/>
<defs>
<clipPath id="clip0_1030_41068">
<rect width="18" height="24" fill="white"/>
</clipPath>
</defs>
</svg>
