<svg width="21" height="24" viewBox="0 0 21 24" fill="none" xmlns="http://www.w3.org/2000/svg">
<g clip-path="url(#clip0_1030_40645)">
<path d="M6.2002 0.599609H13.252L20.4004 7.74805V20.7998C20.4004 22.2357 19.2357 23.4004 17.7998 23.4004H6.2002C4.76425 23.4004 3.59961 22.2357 3.59961 20.7998V3.2002C3.59961 1.76425 4.76426 0.599609 6.2002 0.599609Z" fill="white" stroke="#C8D2E1" stroke-width="1.2"/>
<path d="M13.2 0.6V5.4C13.2 6.72548 14.2745 7.8 15.6 7.8H20.4" stroke="#C8D2E1" stroke-width="1.2" stroke-linecap="round"/>
</g>
<rect y="11.1" width="18.75" height="9.9" rx="1.6" fill="#0DB664"/>
<path d="M3.80326 13.8383H4.7152V16.881C4.7152 17.1622 4.65198 17.4065 4.52556 17.6139C4.40056 17.8213 4.22656 17.9811 4.00355 18.0933C3.78054 18.2055 3.5213 18.2616 3.22585 18.2616C2.96306 18.2616 2.72443 18.2155 2.50994 18.1231C2.29687 18.0294 2.12784 17.8874 2.00284 17.697C1.87784 17.5053 1.81605 17.2645 1.81747 16.9747H2.73579C2.73863 17.0898 2.76207 17.1885 2.8061 17.2709C2.85156 17.3518 2.91335 17.4143 2.99147 17.4584C3.07102 17.501 3.16477 17.5223 3.27272 17.5223C3.38636 17.5223 3.48224 17.4981 3.56037 17.4499C3.63991 17.4001 3.70028 17.3277 3.74147 17.2325C3.78267 17.1374 3.80326 17.0202 3.80326 16.881V13.8383Z" fill="white"/>
<path d="M6.11011 18.202H5.12147L6.62787 13.8383H7.81679L9.32105 18.202H8.33241L7.23937 14.8355H7.20528L6.11011 18.202ZM6.04832 16.4868H8.38355V17.207H6.04832V16.4868Z" fill="white"/>
<path d="M9.96969 13.8383L11.0244 17.1537H11.0649L12.1217 13.8383H13.1444L11.6401 18.202H10.4512L8.94483 13.8383H9.96969Z" fill="white"/>
<path d="M13.7217 18.202H12.733L14.2394 13.8383H15.4283L16.9326 18.202H15.944L14.8509 14.8355H14.8168L13.7217 18.202ZM13.6599 16.4868H15.9951V17.207H13.6599V16.4868Z" fill="white"/>
<defs>
<clipPath id="clip0_1030_40645">
<rect width="18" height="24" fill="white" transform="translate(3)"/>
</clipPath>
</defs>
</svg>
