<svg width="21" height="24" viewBox="0 0 21 24" fill="none" xmlns="http://www.w3.org/2000/svg">
<g clip-path="url(#clip0_1030_40699)">
<path d="M6.2002 0.599609H13.252L20.4004 7.74805V20.7998C20.4004 22.2357 19.2357 23.4004 17.7998 23.4004H6.2002C4.76425 23.4004 3.59961 22.2357 3.59961 20.7998V3.2002C3.59961 1.76425 4.76426 0.599609 6.2002 0.599609Z" fill="white" stroke="#C8D2E1" stroke-width="1.2"/>
<path d="M13.2 0.6V5.4C13.2 6.72548 14.2745 7.8 15.6 7.8H20.4" stroke="#C8D2E1" stroke-width="1.2" stroke-linecap="round"/>
</g>
<rect y="11.1" width="18.75" height="9.9" rx="1.6" fill="#3873FF"/>
<path d="M3.99558 13.8682H4.90752V16.9108C4.90752 17.192 4.84431 17.4364 4.71789 17.6437C4.59289 17.8511 4.41888 18.0109 4.19587 18.1232C3.97286 18.2354 3.71362 18.2915 3.41817 18.2915C3.15539 18.2915 2.91675 18.2453 2.70226 18.153C2.48919 18.0592 2.32016 17.9172 2.19516 17.7268C2.07016 17.5351 2.00837 17.2943 2.00979 17.0045H2.92811C2.93095 17.1196 2.95439 17.2183 2.99843 17.3007C3.04388 17.3817 3.10567 17.4442 3.1838 17.4882C3.26334 17.5308 3.35709 17.5521 3.46505 17.5521C3.57868 17.5521 3.67456 17.528 3.75269 17.4797C3.83223 17.43 3.8926 17.3575 3.9338 17.2624C3.97499 17.1672 3.99558 17.05 3.99558 16.9108V13.8682Z" fill="white"/>
<path d="M5.5503 18.2318V13.8682H7.27189C7.60286 13.8682 7.88482 13.9314 8.11777 14.0578C8.35073 14.1828 8.52828 14.3568 8.65044 14.5798C8.77402 14.8014 8.83581 15.0571 8.83581 15.3469C8.83581 15.6366 8.77331 15.8923 8.64831 16.1139C8.52331 16.3355 8.3422 16.5081 8.10499 16.6317C7.86919 16.7553 7.58368 16.817 7.24845 16.817H6.15115V16.0777H7.09931C7.27686 16.0777 7.42317 16.0472 7.53823 15.9861C7.6547 15.9236 7.74135 15.8376 7.79817 15.7283C7.85641 15.6175 7.88553 15.4903 7.88553 15.3469C7.88553 15.202 7.85641 15.0756 7.79817 14.9676C7.74135 14.8582 7.6547 14.7737 7.53823 14.7141C7.42175 14.653 7.27402 14.6224 7.09505 14.6224H6.47289V18.2318H5.5503Z" fill="white"/>
<path d="M9.31507 18.2318V13.8682H12.2554V14.6288H10.2377V15.6686H12.1041V16.4293H10.2377V17.4712H12.2639V18.2318H9.31507Z" fill="white"/>
<path d="M15.7624 15.2787C15.7325 15.175 15.6906 15.0834 15.6367 15.0038C15.5827 14.9229 15.5166 14.8547 15.4385 14.7993C15.3618 14.7425 15.2737 14.6991 15.1743 14.6693C15.0763 14.6395 14.9676 14.6246 14.8483 14.6246C14.6253 14.6246 14.4293 14.68 14.2602 14.7908C14.0926 14.9016 13.9619 15.0628 13.8682 15.2744C13.7744 15.4847 13.7276 15.7418 13.7276 16.0457C13.7276 16.3497 13.7737 16.6082 13.8661 16.8213C13.9584 17.0344 14.0891 17.197 14.2581 17.3092C14.4271 17.42 14.6267 17.4754 14.8568 17.4754C15.0656 17.4754 15.2439 17.4385 15.3916 17.3646C15.5408 17.2893 15.6544 17.1835 15.7325 17.0472C15.8121 16.9108 15.8518 16.7496 15.8518 16.5635L16.0393 16.5912H14.9143V15.8966H16.7403V16.4463C16.7403 16.8298 16.6594 17.1594 16.4974 17.4349C16.3355 17.7091 16.1125 17.9207 15.8284 18.0699C15.5443 18.2176 15.219 18.2915 14.8526 18.2915C14.4435 18.2915 14.0841 18.2013 13.7744 18.0209C13.4648 17.8391 13.2233 17.5812 13.05 17.2474C12.8781 16.9122 12.7922 16.5145 12.7922 16.0543C12.7922 15.7006 12.8433 15.3852 12.9456 15.1082C13.0493 14.8298 13.1942 14.594 13.3803 14.4009C13.5663 14.2077 13.783 14.0607 14.0301 13.9598C14.2773 13.8589 14.545 13.8085 14.8334 13.8085C15.0805 13.8085 15.3107 13.8447 15.5237 13.9172C15.7368 13.9882 15.9257 14.0891 16.0905 14.2197C16.2567 14.3504 16.3923 14.506 16.4974 14.6864C16.6026 14.8653 16.67 15.0628 16.6999 15.2787H15.7624Z" fill="white"/>
<defs>
<clipPath id="clip0_1030_40699">
<rect width="18" height="24" fill="white" transform="translate(3)"/>
</clipPath>
</defs>
</svg>
