<svg width="18" height="24" viewBox="0 0 18 24" fill="none" xmlns="http://www.w3.org/2000/svg">
<g clip-path="url(#clip0_1030_40879)">
<path d="M0 3.2C0 1.43269 1.43269 0 3.2 0H10.2L18 7.8V20.8C18 22.5673 16.5673 24 14.8 24H3.2C1.43269 24 0 22.5673 0 20.8V3.2Z" fill="url(#paint0_linear_1030_40879)"/>
<path d="M12.6 7.8H18L10.2 0V5.4C10.2 6.72548 11.2745 7.8 12.6 7.8Z" fill="#DCE2EB"/>
<path d="M3.2002 0.400391H10.0342L17.5996 7.96582V20.7998C17.5996 22.3462 16.3462 23.5996 14.7998 23.5996H3.2002C1.6538 23.5996 0.400391 22.3462 0.400391 20.7998V3.2002C0.400391 1.6538 1.6538 0.400391 3.2002 0.400391Z" stroke="black" stroke-opacity="0.06" stroke-width="0.8"/>
</g>
<path d="M3.90898 15.4364H4.82091V18.479C4.82091 18.7602 4.7577 19.0045 4.63128 19.2119C4.50628 19.4193 4.33227 19.5791 4.10926 19.6913C3.88625 19.8035 3.62702 19.8597 3.33156 19.8597C3.06878 19.8597 2.83014 19.8135 2.61565 19.7212C2.40258 19.6274 2.23355 19.4854 2.10855 19.295C1.98355 19.1033 1.92176 18.8625 1.92318 18.5727H2.8415C2.84435 18.6878 2.86778 18.7865 2.91182 18.8689C2.95727 18.9499 3.01906 19.0124 3.09719 19.0564C3.17673 19.099 3.27048 19.1203 3.37844 19.1203C3.49207 19.1203 3.58795 19.0962 3.66608 19.0479C3.74562 18.9982 3.80599 18.9257 3.84719 18.8305C3.88838 18.7354 3.90898 18.6182 3.90898 18.479V15.4364Z" fill="#344054"/>
<path d="M5.46369 19.8V15.4364H7.18528C7.51625 15.4364 7.79821 15.4996 8.03116 15.626C8.26412 15.751 8.44168 15.925 8.56383 16.148C8.68741 16.3696 8.7492 16.6253 8.7492 16.9151C8.7492 17.2048 8.6867 17.4605 8.5617 17.6821C8.4367 17.9037 8.2556 18.0763 8.01838 18.1999C7.78258 18.3234 7.49707 18.3852 7.16185 18.3852H6.06454V17.6459H7.0127C7.19025 17.6459 7.33656 17.6153 7.45162 17.5543C7.5681 17.4918 7.65474 17.4058 7.71156 17.2964C7.7698 17.1857 7.79892 17.0585 7.79892 16.9151C7.79892 16.7702 7.7698 16.6437 7.71156 16.5358C7.65474 16.4264 7.5681 16.3419 7.45162 16.2822C7.33514 16.2212 7.18741 16.1906 7.00844 16.1906H6.38628V19.8H5.46369Z" fill="#344054"/>
<path d="M9.22846 19.8V15.4364H12.1688V16.197H10.151V17.2368H12.0175V17.9974H10.151V19.0393H12.1773V19.8H9.22846Z" fill="#344054"/>
<path d="M15.6758 16.8469C15.6459 16.7432 15.604 16.6516 15.55 16.572C15.4961 16.491 15.43 16.4229 15.3519 16.3675C15.2752 16.3107 15.1871 16.2673 15.0877 16.2375C14.9897 16.2077 14.881 16.1928 14.7617 16.1928C14.5387 16.1928 14.3427 16.2482 14.1736 16.3589C14.006 16.4697 13.8753 16.631 13.7816 16.8426C13.6878 17.0528 13.641 17.3099 13.641 17.6139C13.641 17.9179 13.6871 18.1764 13.7794 18.3895C13.8718 18.6026 14.0025 18.7652 14.1715 18.8774C14.3405 18.9882 14.5401 19.0436 14.7702 19.0436C14.979 19.0436 15.1573 19.0067 15.305 18.9328C15.4542 18.8575 15.5678 18.7517 15.6459 18.6153C15.7255 18.479 15.7652 18.3178 15.7652 18.1317L15.9527 18.1594H14.8277V17.4648H16.6537V18.0145C16.6537 18.398 16.5728 18.7276 16.4108 19.0031C16.2489 19.2773 16.0259 19.4889 15.7418 19.6381C15.4577 19.7858 15.1324 19.8597 14.766 19.8597C14.3569 19.8597 13.9975 19.7695 13.6878 19.5891C13.3782 19.4072 13.1367 19.1494 12.9634 18.8156C12.7915 18.4804 12.7056 18.0827 12.7056 17.6224C12.7056 17.2687 12.7567 16.9534 12.859 16.6764C12.9627 16.398 13.1076 16.1622 13.2936 15.969C13.4797 15.7758 13.6963 15.6288 13.9435 15.528C14.1907 15.4271 14.4584 15.3767 14.7468 15.3767C14.9939 15.3767 15.224 15.4129 15.4371 15.4854C15.6502 15.5564 15.8391 15.6572 16.0039 15.7879C16.1701 15.9186 16.3057 16.0741 16.4108 16.2545C16.516 16.4335 16.5834 16.631 16.6133 16.8469H15.6758Z" fill="#344054"/>
<defs>
<linearGradient id="paint0_linear_1030_40879" x1="9" y1="0" x2="9" y2="24" gradientUnits="userSpaceOnUse">
<stop stop-color="#F2F6FC"/>
<stop offset="1" stop-color="#EDF1F7"/>
</linearGradient>
<clipPath id="clip0_1030_40879">
<rect width="18" height="24" fill="white"/>
</clipPath>
</defs>
</svg>
