<svg width="18" height="24" viewBox="0 0 18 24" fill="none" xmlns="http://www.w3.org/2000/svg">
<g clip-path="url(#clip0_1030_40873)">
<path d="M0 3.2C0 1.43269 1.43269 0 3.2 0H10.2L18 7.8V20.8C18 22.5673 16.5673 24 14.8 24H3.2C1.43269 24 0 22.5673 0 20.8V3.2Z" fill="url(#paint0_linear_1030_40873)"/>
<path d="M12.6 7.8H18L10.2 0V5.4C10.2 6.72548 11.2745 7.8 12.6 7.8Z" fill="#DCE2EB"/>
<path d="M3.2002 0.400391H10.0342L17.5996 7.96582V20.7998C17.5996 22.3462 16.3462 23.5996 14.7998 23.5996H3.2002C1.6538 23.5996 0.400391 22.3462 0.400391 20.7998V3.2002C0.400391 1.6538 1.6538 0.400391 3.2002 0.400391Z" stroke="black" stroke-opacity="0.06" stroke-width="0.8"/>
</g>
<path d="M5.61088 15.4364H6.52281V18.479C6.52281 18.7602 6.4596 19.0045 6.33318 19.2119C6.20818 19.4193 6.03418 19.5791 5.81116 19.6913C5.58815 19.8035 5.32892 19.8597 5.03347 19.8597C4.77068 19.8597 4.53205 19.8135 4.31756 19.7212C4.10449 19.6274 3.93545 19.4854 3.81045 19.295C3.68545 19.1033 3.62366 18.8625 3.62508 18.5727H4.54341C4.54625 18.6878 4.56969 18.7865 4.61372 18.8689C4.65918 18.9499 4.72097 19.0124 4.79909 19.0564C4.87864 19.099 4.97239 19.1203 5.08034 19.1203C5.19398 19.1203 5.28986 19.0962 5.36798 19.0479C5.44753 18.9982 5.5079 18.9257 5.54909 18.8305C5.59028 18.7354 5.61088 18.6182 5.61088 18.479V15.4364Z" fill="#344054"/>
<path d="M7.1656 19.8V15.4364H8.88719C9.21815 15.4364 9.50011 15.4996 9.73307 15.626C9.96602 15.751 10.1436 15.925 10.2657 16.148C10.3893 16.3696 10.4511 16.6253 10.4511 16.9151C10.4511 17.2048 10.3886 17.4605 10.2636 17.6821C10.1386 17.9037 9.9575 18.0763 9.72028 18.1999C9.48449 18.3234 9.19898 18.3852 8.86375 18.3852H7.76645V17.6459H8.7146C8.89216 17.6459 9.03847 17.6153 9.15352 17.5543C9.27 17.4918 9.35665 17.4058 9.41347 17.2964C9.4717 17.1857 9.50082 17.0585 9.50082 16.9151C9.50082 16.7702 9.4717 16.6437 9.41347 16.5358C9.35665 16.4264 9.27 16.3419 9.15352 16.2822C9.03705 16.2212 8.88932 16.1906 8.71034 16.1906H8.08818V19.8H7.1656Z" fill="#344054"/>
<path d="M13.8238 16.8469C13.794 16.7432 13.7521 16.6516 13.6981 16.572C13.6441 16.491 13.5781 16.4229 13.5 16.3675C13.4233 16.3107 13.3352 16.2673 13.2358 16.2375C13.1377 16.2077 13.0291 16.1928 12.9098 16.1928C12.6868 16.1928 12.4907 16.2482 12.3217 16.3589C12.1541 16.4697 12.0234 16.631 11.9297 16.8426C11.8359 17.0528 11.789 17.3099 11.789 17.6139C11.789 17.9179 11.8352 18.1764 11.9275 18.3895C12.0199 18.6026 12.1505 18.7652 12.3196 18.8774C12.4886 18.9882 12.6882 19.0436 12.9183 19.0436C13.1271 19.0436 13.3054 19.0067 13.4531 18.9328C13.6022 18.8575 13.7159 18.7517 13.794 18.6153C13.8735 18.479 13.9133 18.3178 13.9133 18.1317L14.1008 18.1594H12.9758V17.4648H14.8018V18.0145C14.8018 18.398 14.7208 18.7276 14.5589 19.0031C14.397 19.2773 14.174 19.4889 13.8899 19.6381C13.6058 19.7858 13.2805 19.8597 12.914 19.8597C12.5049 19.8597 12.1456 19.7695 11.8359 19.5891C11.5262 19.4072 11.2848 19.1494 11.1115 18.8156C10.9396 18.4804 10.8537 18.0827 10.8537 17.6224C10.8537 17.2687 10.9048 16.9534 11.0071 16.6764C11.1108 16.398 11.2556 16.1622 11.4417 15.969C11.6278 15.7758 11.8444 15.6288 12.0916 15.528C12.3387 15.4271 12.6065 15.3767 12.8949 15.3767C13.142 15.3767 13.3721 15.4129 13.5852 15.4854C13.7983 15.5564 13.9872 15.6572 14.152 15.7879C14.3181 15.9186 14.4538 16.0741 14.5589 16.2545C14.664 16.4335 14.7315 16.631 14.7613 16.8469H13.8238Z" fill="#344054"/>
<defs>
<linearGradient id="paint0_linear_1030_40873" x1="9" y1="0" x2="9" y2="24" gradientUnits="userSpaceOnUse">
<stop stop-color="#F2F6FC"/>
<stop offset="1" stop-color="#EDF1F7"/>
</linearGradient>
<clipPath id="clip0_1030_40873">
<rect width="18" height="24" fill="white"/>
</clipPath>
</defs>
</svg>
