<svg width="21" height="24" viewBox="0 0 21 24" fill="none" xmlns="http://www.w3.org/2000/svg">
<g clip-path="url(#clip0_1030_40621)">
<path d="M6.2002 0.599609H13.252L20.4004 7.74805V20.7998C20.4004 22.2357 19.2357 23.4004 17.7998 23.4004H6.2002C4.76425 23.4004 3.59961 22.2357 3.59961 20.7998V3.2002C3.59961 1.76425 4.76426 0.599609 6.2002 0.599609Z" fill="white" stroke="#C8D2E1" stroke-width="1.2"/>
<path d="M13.2 0.6V5.4C13.2 6.72548 14.2745 7.8 15.6 7.8H20.4" stroke="#C8D2E1" stroke-width="1.2" stroke-linecap="round"/>
</g>
<rect y="11.1" width="10.5" height="9.9" rx="1.6" fill="#0DB664"/>
<path d="M3.81004 13.8671H4.72197V16.9097C4.72197 17.191 4.65876 17.4353 4.53234 17.6427C4.40734 17.8501 4.23333 18.0099 4.01032 18.1221C3.78731 18.2343 3.52808 18.2904 3.23262 18.2904C2.96984 18.2904 2.7312 18.2442 2.51671 18.1519C2.30365 18.0582 2.13461 17.9161 2.00961 17.7258C1.88461 17.534 1.82282 17.2933 1.82424 17.0035H2.74257C2.74541 17.1185 2.76884 17.2173 2.81288 17.2996C2.85833 17.3806 2.92012 17.4431 2.99825 17.4871C3.07779 17.5298 3.17154 17.5511 3.2795 17.5511C3.39313 17.5511 3.48902 17.5269 3.56714 17.4786C3.64669 17.4289 3.70706 17.3565 3.74825 17.2613C3.78944 17.1661 3.81004 17.0489 3.81004 16.9097V13.8671Z" fill="white"/>
<path d="M7.73194 15.1221C7.7149 14.9502 7.64174 14.8167 7.51248 14.7215C7.38322 14.6263 7.20779 14.5788 6.9862 14.5788C6.83563 14.5788 6.7085 14.6001 6.60481 14.6427C6.50112 14.6839 6.42157 14.7414 6.36617 14.8153C6.3122 14.8891 6.28521 14.9729 6.28521 15.0667C6.28237 15.1448 6.2987 15.213 6.33421 15.2712C6.37115 15.3295 6.42157 15.3799 6.48549 15.4225C6.54941 15.4637 6.62328 15.4999 6.70708 15.5312C6.79089 15.561 6.88038 15.5866 6.97555 15.6079L7.3676 15.7016C7.55794 15.7442 7.73265 15.8011 7.89174 15.8721C8.05083 15.9431 8.18862 16.0305 8.3051 16.1342C8.42157 16.2379 8.51177 16.36 8.57569 16.5006C8.64103 16.6413 8.67441 16.8025 8.67583 16.9843C8.67441 17.2513 8.60623 17.4829 8.47129 17.6789C8.33777 17.8735 8.14458 18.0248 7.89174 18.1327C7.64032 18.2393 7.33706 18.2925 6.98194 18.2925C6.62967 18.2925 6.32285 18.2386 6.06149 18.1306C5.80154 18.0227 5.59842 17.8629 5.45211 17.6512C5.30723 17.4381 5.23123 17.1746 5.22413 16.8607H6.11688C6.12683 17.007 6.16873 17.1292 6.2426 17.2272C6.31788 17.3238 6.41802 17.3969 6.54302 17.4467C6.66944 17.495 6.8122 17.5191 6.97129 17.5191C7.12754 17.5191 7.26319 17.4964 7.37825 17.4509C7.49473 17.4055 7.58492 17.3423 7.64885 17.2613C7.71277 17.1803 7.74473 17.0873 7.74473 16.9822C7.74473 16.8842 7.71561 16.8018 7.65737 16.735C7.60055 16.6683 7.51674 16.6114 7.40595 16.5646C7.29657 16.5177 7.16234 16.4751 7.00325 16.4367L6.52811 16.3174C6.16021 16.2279 5.86973 16.088 5.65666 15.8977C5.44359 15.7073 5.33777 15.4509 5.33919 15.1285C5.33777 14.8643 5.40808 14.6335 5.55012 14.436C5.69359 14.2386 5.89032 14.0844 6.14032 13.9737C6.39032 13.8629 6.67441 13.8075 6.9926 13.8075C7.31646 13.8075 7.59913 13.8629 7.84061 13.9737C8.0835 14.0844 8.27242 14.2386 8.40737 14.436C8.54231 14.6335 8.61191 14.8621 8.61617 15.1221H7.73194Z" fill="white"/>
<defs>
<clipPath id="clip0_1030_40621">
<rect width="18" height="24" fill="white" transform="translate(3)"/>
</clipPath>
</defs>
</svg>
