<svg width="21" height="24" viewBox="0 0 21 24" fill="none" xmlns="http://www.w3.org/2000/svg">
<g clip-path="url(#clip0_1030_40633)">
<path d="M6.2002 0.599609H13.252L20.4004 7.74805V20.7998C20.4004 22.2357 19.2357 23.4004 17.7998 23.4004H6.2002C4.76425 23.4004 3.59961 22.2357 3.59961 20.7998V3.2002C3.59961 1.76425 4.76426 0.599609 6.2002 0.599609Z" fill="white" stroke="#C8D2E1" stroke-width="1.2"/>
<path d="M13.2 0.6V5.4C13.2 6.72548 14.2745 7.8 15.6 7.8H20.4" stroke="#C8D2E1" stroke-width="1.2" stroke-linecap="round"/>
</g>
<rect y="11.1" width="19.5" height="9.9" rx="1.6" fill="#0DB664"/>
<path d="M3.9481 13.8671H4.86003V16.9097C4.86003 17.191 4.79682 17.4353 4.6704 17.6427C4.5454 17.8501 4.3714 18.0099 4.14838 18.1221C3.92537 18.2343 3.66614 18.2904 3.37068 18.2904C3.1079 18.2904 2.86926 18.2442 2.65478 18.1519C2.44171 18.0582 2.27267 17.9161 2.14767 17.7258C2.02267 17.534 1.96088 17.2933 1.9623 17.0035H2.88063C2.88347 17.1185 2.90691 17.2173 2.95094 17.2996C2.9964 17.3806 3.05818 17.4431 3.13631 17.4871C3.21586 17.5298 3.30961 17.5511 3.41756 17.5511C3.5312 17.5511 3.62708 17.5269 3.7052 17.4786C3.78475 17.4289 3.84512 17.3565 3.88631 17.2613C3.9275 17.1661 3.9481 17.0489 3.9481 16.9097V13.8671Z" fill="white"/>
<path d="M7.87 15.1221C7.85296 14.9502 7.7798 14.8167 7.65054 14.7215C7.52128 14.6263 7.34586 14.5788 7.12426 14.5788C6.9737 14.5788 6.84657 14.6001 6.74287 14.6427C6.63918 14.6839 6.55963 14.7414 6.50424 14.8153C6.45026 14.8891 6.42327 14.9729 6.42327 15.0667C6.42043 15.1448 6.43676 15.213 6.47228 15.2712C6.50921 15.3295 6.55963 15.3799 6.62355 15.4225C6.68747 15.4637 6.76134 15.4999 6.84515 15.5312C6.92895 15.561 7.01844 15.5866 7.11361 15.6079L7.50566 15.7016C7.696 15.7442 7.87071 15.8011 8.0298 15.8721C8.18889 15.9431 8.32668 16.0305 8.44316 16.1342C8.55963 16.2379 8.64983 16.36 8.71375 16.5006C8.77909 16.6413 8.81248 16.8025 8.8139 16.9843C8.81248 17.2513 8.74429 17.4829 8.60935 17.6789C8.47583 17.8735 8.28265 18.0248 8.0298 18.1327C7.77838 18.2393 7.47512 18.2925 7.12 18.2925C6.76773 18.2925 6.46091 18.2386 6.19955 18.1306C5.93961 18.0227 5.73648 17.8629 5.59017 17.6512C5.44529 17.4381 5.36929 17.1746 5.36219 16.8607H6.25495C6.26489 17.007 6.30679 17.1292 6.38066 17.2272C6.45594 17.3238 6.55608 17.3969 6.68108 17.4467C6.8075 17.495 6.95026 17.5191 7.10935 17.5191C7.2656 17.5191 7.40125 17.4964 7.51631 17.4509C7.63279 17.4055 7.72299 17.3423 7.78691 17.2613C7.85083 17.1803 7.88279 17.0873 7.88279 16.9822C7.88279 16.8842 7.85367 16.8018 7.79543 16.735C7.73861 16.6683 7.6548 16.6114 7.54401 16.5646C7.43463 16.5177 7.3004 16.4751 7.14131 16.4367L6.66617 16.3174C6.29827 16.2279 6.00779 16.088 5.79472 15.8977C5.58165 15.7073 5.47583 15.4509 5.47725 15.1285C5.47583 14.8643 5.54614 14.6335 5.68819 14.436C5.83165 14.2386 6.02838 14.0844 6.27838 13.9737C6.52838 13.8629 6.81247 13.8075 7.13066 13.8075C7.45452 13.8075 7.73719 13.8629 7.97867 13.9737C8.22157 14.0844 8.41049 14.2386 8.54543 14.436C8.68037 14.6335 8.74997 14.8621 8.75424 15.1221H7.87Z" fill="white"/>
<path d="M13.3244 16.0489C13.3244 16.5248 13.2342 16.9296 13.0538 17.2634C12.8748 17.5972 12.6305 17.8522 12.3208 18.0283C12.0126 18.2031 11.666 18.2904 11.2811 18.2904C10.8933 18.2904 10.5453 18.2023 10.237 18.0262C9.9288 17.8501 9.68519 17.5951 9.50622 17.2613C9.32724 16.9275 9.23775 16.5234 9.23775 16.0489C9.23775 15.5731 9.32724 15.1683 9.50622 14.8344C9.68519 14.5006 9.9288 14.2464 10.237 14.0717C10.5453 13.8955 10.8933 13.8075 11.2811 13.8075C11.666 13.8075 12.0126 13.8955 12.3208 14.0717C12.6305 14.2464 12.8748 14.5006 13.0538 14.8344C13.2342 15.1683 13.3244 15.5731 13.3244 16.0489ZM12.389 16.0489C12.389 15.7407 12.3429 15.4808 12.2505 15.2691C12.1596 15.0575 12.0311 14.8969 11.8649 14.7876C11.6987 14.6782 11.5041 14.6235 11.2811 14.6235C11.0581 14.6235 10.8635 14.6782 10.6973 14.7876C10.5311 14.8969 10.4018 15.0575 10.3095 15.2691C10.2186 15.4808 10.1731 15.7407 10.1731 16.0489C10.1731 16.3572 10.2186 16.6171 10.3095 16.8288C10.4018 17.0404 10.5311 17.2009 10.6973 17.3103C10.8635 17.4197 11.0581 17.4744 11.2811 17.4744C11.5041 17.4744 11.6987 17.4197 11.8649 17.3103C12.0311 17.2009 12.1596 17.0404 12.2505 16.8288C12.3429 16.6171 12.389 16.3572 12.389 16.0489Z" fill="white"/>
<path d="M17.5377 13.8671V18.2308H16.7408L14.8424 15.4843H14.8104V18.2308H13.8878V13.8671H14.6975L16.581 16.6114H16.6193V13.8671H17.5377Z" fill="white"/>
<defs>
<clipPath id="clip0_1030_40633">
<rect width="18" height="24" fill="white" transform="translate(3)"/>
</clipPath>
</defs>
</svg>
