<svg width="21" height="24" viewBox="0 0 21 24" fill="none" xmlns="http://www.w3.org/2000/svg">
<g clip-path="url(#clip0_1030_40681)">
<path d="M6.2002 0.599609H13.252L20.4004 7.74805V20.7998C20.4004 22.2357 19.2357 23.4004 17.7998 23.4004H6.2002C4.76425 23.4004 3.59961 22.2357 3.59961 20.7998V3.2002C3.59961 1.76425 4.76426 0.599609 6.2002 0.599609Z" fill="white" stroke="#C8D2E1" stroke-width="1.2"/>
<path d="M13.2 0.6V5.4C13.2 6.72548 14.2745 7.8 15.6 7.8H20.4" stroke="#C8D2E1" stroke-width="1.2" stroke-linecap="round"/>
</g>
<rect y="11.1" width="17.25" height="9.9" rx="1.6" fill="#6E45F0"/>
<path d="M1.79468 13.8682H2.93246L4.13417 16.8H4.1853L5.38701 13.8682H6.52479V18.2318H5.62991V15.3916H5.59368L4.46442 18.2105H3.85505L2.72579 15.381H2.68956V18.2318H1.79468V13.8682Z" fill="white"/>
<path d="M11.1749 16.05C11.1749 16.5259 11.0847 16.9307 10.9043 17.2645C10.7253 17.5983 10.481 17.8533 10.1713 18.0294C9.86307 18.2041 9.51647 18.2915 9.13153 18.2915C8.74375 18.2915 8.39574 18.2034 8.0875 18.0273C7.77926 17.8511 7.53565 17.5962 7.35667 17.2624C7.1777 16.9285 7.08821 16.5244 7.08821 16.05C7.08821 15.5741 7.1777 15.1693 7.35667 14.8355C7.53565 14.5017 7.77926 14.2474 8.0875 14.0727C8.39574 13.8966 8.74375 13.8085 9.13153 13.8085C9.51647 13.8085 9.86307 13.8966 10.1713 14.0727C10.481 14.2474 10.7253 14.5017 10.9043 14.8355C11.0847 15.1693 11.1749 15.5741 11.1749 16.05ZM10.2395 16.05C10.2395 15.7418 10.1933 15.4818 10.101 15.2702C10.0101 15.0585 9.88153 14.898 9.71534 14.7886C9.54915 14.6793 9.35454 14.6246 9.13153 14.6246C8.90852 14.6246 8.71392 14.6793 8.54772 14.7886C8.38153 14.898 8.25227 15.0585 8.15994 15.2702C8.06903 15.4818 8.02358 15.7418 8.02358 16.05C8.02358 16.3582 8.06903 16.6182 8.15994 16.8298C8.25227 17.0415 8.38153 17.202 8.54772 17.3114C8.71392 17.4207 8.90852 17.4754 9.13153 17.4754C9.35454 17.4754 9.54915 17.4207 9.71534 17.3114C9.88153 17.202 10.0101 17.0415 10.101 16.8298C10.1933 16.6182 10.2395 16.3582 10.2395 16.05Z" fill="white"/>
<path d="M12.2805 13.8682L13.3352 17.1835H13.3757L14.4325 13.8682H15.4552L13.951 18.2318H12.7621L11.2557 13.8682H12.2805Z" fill="white"/>
<defs>
<clipPath id="clip0_1030_40681">
<rect width="18" height="24" fill="white" transform="translate(3)"/>
</clipPath>
</defs>
</svg>
