<svg width="18" height="24" viewBox="0 0 18 24" fill="none" xmlns="http://www.w3.org/2000/svg">
<g clip-path="url(#clip0_1030_41103)">
<path d="M0 3.2C0 1.43269 1.43269 0 3.2 0H10.2L18 7.8V20.8C18 22.5673 16.5673 24 14.8 24H3.2C1.43269 24 0 22.5673 0 20.8V3.2Z" fill="#6E45F0"/>
<path d="M12.6 7.8H18L10.2 0V5.4C10.2 6.72548 11.2745 7.8 12.6 7.8Z" fill="white" fill-opacity="0.5"/>
</g>
<path d="M2.21143 15.4364H3.34921L4.55091 18.3682H4.60205L5.80376 15.4364H6.94154V19.8H6.04665V16.9598H6.01043L4.88117 19.7787H4.2718L3.14253 16.9492H3.10631V19.8H2.21143V15.4364Z" fill="white"/>
<path d="M11.5916 17.6182C11.5916 18.094 11.5014 18.4989 11.321 18.8327C11.142 19.1665 10.8977 19.4215 10.5881 19.5976C10.2798 19.7723 9.93322 19.8597 9.54828 19.8597C9.1605 19.8597 8.81248 19.7716 8.50425 19.5955C8.19601 19.4193 7.9524 19.1644 7.77342 18.8305C7.59444 18.4967 7.50496 18.0926 7.50496 17.6182C7.50496 17.1423 7.59444 16.7375 7.77342 16.4037C7.9524 16.0699 8.19601 15.8156 8.50425 15.6409C8.81248 15.4648 9.1605 15.3767 9.54828 15.3767C9.93322 15.3767 10.2798 15.4648 10.5881 15.6409C10.8977 15.8156 11.142 16.0699 11.321 16.4037C11.5014 16.7375 11.5916 17.1423 11.5916 17.6182ZM10.6562 17.6182C10.6562 17.3099 10.6101 17.05 10.5177 16.8384C10.4268 16.6267 10.2983 16.4662 10.1321 16.3568C9.96589 16.2474 9.77129 16.1928 9.54828 16.1928C9.32527 16.1928 9.13067 16.2474 8.96447 16.3568C8.79828 16.4662 8.66902 16.6267 8.57669 16.8384C8.48578 17.05 8.44032 17.3099 8.44032 17.6182C8.44032 17.9264 8.48578 18.1864 8.57669 18.398C8.66902 18.6097 8.79828 18.7702 8.96447 18.8796C9.13067 18.9889 9.32527 19.0436 9.54828 19.0436C9.77129 19.0436 9.96589 18.9889 10.1321 18.8796C10.2983 18.7702 10.4268 18.6097 10.5177 18.398C10.6101 18.1864 10.6562 17.9264 10.6562 17.6182Z" fill="white"/>
<path d="M12.6973 15.4364L13.752 18.7517H13.7924L14.8493 15.4364H15.872L14.3677 19.8H13.1788L11.6724 15.4364H12.6973Z" fill="white"/>
<defs>
<clipPath id="clip0_1030_41103">
<rect width="18" height="24" fill="white"/>
</clipPath>
</defs>
</svg>
