<svg width="18" height="24" viewBox="0 0 18 24" fill="none" xmlns="http://www.w3.org/2000/svg">
<g clip-path="url(#clip0_1030_41148)">
<path d="M0 3.2C0 1.43269 1.43269 0 3.2 0H10.2L18 7.8V20.8C18 22.5673 16.5673 24 14.8 24H3.2C1.43269 24 0 22.5673 0 20.8V3.2Z" fill="#6E45F0"/>
<path d="M12.6 7.8H18L10.2 0V5.4C10.2 6.72548 11.2745 7.8 12.6 7.8Z" fill="white" fill-opacity="0.5"/>
</g>
<path d="M2.98425 15.4364H4.12204L5.32374 18.3682H5.37488L6.57658 15.4364H7.71437V19.8H6.81948V16.9598H6.78326L5.654 19.7787H5.04462L3.91536 16.9492H3.87914V19.8H2.98425V15.4364Z" fill="white"/>
<path d="M8.35449 19.8V15.4364H10.0761C10.407 15.4364 10.689 15.4996 10.922 15.626C11.1549 15.751 11.3325 15.925 11.4546 16.148C11.5782 16.3696 11.64 16.6253 11.64 16.9151C11.64 17.2048 11.5775 17.4605 11.4525 17.6821C11.3275 17.9037 11.1464 18.0763 10.9092 18.1999C10.6734 18.3234 10.3879 18.3852 10.0526 18.3852H8.95534V17.6459H9.90349C10.081 17.6459 10.2274 17.6153 10.3424 17.5543C10.4589 17.4918 10.5455 17.4058 10.6024 17.2965C10.6606 17.1857 10.6897 17.0585 10.6897 16.9151C10.6897 16.7702 10.6606 16.6438 10.6024 16.5358C10.5455 16.4264 10.4589 16.3419 10.3424 16.2822C10.2259 16.2212 10.0782 16.1906 9.89923 16.1906H9.27707V19.8H8.35449Z" fill="white"/>
<path d="M13.7066 19.8597C13.3884 19.8597 13.105 19.805 12.8565 19.6956C12.6093 19.5848 12.414 19.4328 12.2705 19.2396C12.1285 19.045 12.0553 18.8206 12.0511 18.5663H12.98C12.9857 18.6729 13.0205 18.7666 13.0845 18.8476C13.1498 18.9271 13.2364 18.9889 13.3444 19.033C13.4523 19.077 13.5738 19.099 13.7087 19.099C13.8494 19.099 13.9737 19.0742 14.0816 19.0244C14.1896 18.9747 14.2741 18.9058 14.3352 18.8178C14.3962 18.7297 14.4268 18.6281 14.4268 18.5131C14.4268 18.3966 14.3941 18.2936 14.3288 18.2041C14.2648 18.1132 14.1725 18.0422 14.0518 17.9911C13.9325 17.9399 13.7904 17.9144 13.6256 17.9144H13.2187V17.2368H13.6256C13.7648 17.2368 13.8877 17.2126 13.9943 17.1644C14.1022 17.1161 14.186 17.0493 14.2457 16.9641C14.3053 16.8774 14.3352 16.7766 14.3352 16.6615C14.3352 16.5521 14.3089 16.4563 14.2563 16.3739C14.2052 16.2901 14.1327 16.2247 14.039 16.1778C13.9467 16.131 13.8387 16.1075 13.7151 16.1075C13.5901 16.1075 13.4758 16.1303 13.3721 16.1757C13.2684 16.2197 13.1853 16.283 13.1228 16.3653C13.0603 16.4477 13.0269 16.5443 13.0227 16.6551H12.1384C12.1427 16.4037 12.2144 16.1821 12.3536 15.9903C12.4928 15.7986 12.6803 15.6487 12.9161 15.5408C13.1533 15.4314 13.4211 15.3767 13.7194 15.3767C14.0205 15.3767 14.284 15.4314 14.5099 15.5408C14.7357 15.6501 14.9112 15.7979 15.0362 15.984C15.1626 16.1686 15.2251 16.376 15.2237 16.6061C15.2251 16.8504 15.1491 17.0543 14.9957 17.2176C14.8437 17.381 14.6455 17.4847 14.4012 17.5287V17.5628C14.7222 17.604 14.9666 17.7155 15.1342 17.8973C15.3032 18.0777 15.387 18.3036 15.3856 18.5749C15.387 18.8234 15.3153 19.0443 15.1704 19.2375C15.0269 19.4307 14.8288 19.5827 14.5759 19.6935C14.3231 19.8043 14.0333 19.8597 13.7066 19.8597Z" fill="white"/>
<defs>
<clipPath id="clip0_1030_41148">
<rect width="18" height="24" fill="white"/>
</clipPath>
</defs>
</svg>
