<svg width="21" height="24" viewBox="0 0 21 24" fill="none" xmlns="http://www.w3.org/2000/svg">
<g clip-path="url(#clip0_1030_40687)">
<path d="M6.2002 0.599609H13.252L20.4004 7.74805V20.7998C20.4004 22.2357 19.2357 23.4004 17.7998 23.4004H6.2002C4.76425 23.4004 3.59961 22.2357 3.59961 20.7998V3.2002C3.59961 1.76425 4.76426 0.599609 6.2002 0.599609Z" fill="white" stroke="#C8D2E1" stroke-width="1.2"/>
<path d="M13.2 0.6V5.4C13.2 6.72548 14.2745 7.8 15.6 7.8H20.4" stroke="#C8D2E1" stroke-width="1.2" stroke-linecap="round"/>
</g>
<rect y="11.1" width="17.25" height="9.9" rx="1.6" fill="#6E45F0"/>
<path d="M2.12183 13.8682H3.25961L4.46131 16.8H4.51245L5.71416 13.8682H6.85194V18.2318H5.95705V15.3916H5.92083L4.79157 18.2105H4.1822L3.05293 15.381H3.01671V18.2318H2.12183V13.8682Z" fill="white"/>
<path d="M7.49206 18.2318V13.8682H9.21365C9.54462 13.8682 9.82658 13.9314 10.0595 14.0578C10.2925 14.1828 10.47 14.3568 10.5922 14.5798C10.7158 14.8014 10.7776 15.0571 10.7776 15.3469C10.7776 15.6366 10.7151 15.8923 10.5901 16.1139C10.4651 16.3355 10.284 16.5081 10.0467 16.6317C9.81095 16.7553 9.52544 16.817 9.19021 16.817H8.09291V16.0777H9.04107C9.21862 16.0777 9.36493 16.0472 9.47999 15.9861C9.59646 15.9236 9.68311 15.8376 9.73993 15.7283C9.79817 15.6175 9.82729 15.4903 9.82729 15.3469C9.82729 15.202 9.79817 15.0756 9.73993 14.9676C9.68311 14.8582 9.59646 14.7737 9.47999 14.7141C9.36351 14.653 9.21578 14.6224 9.03681 14.6224H8.41465V18.2318H7.49206Z" fill="white"/>
<path d="M14.1503 15.2787C14.1205 15.175 14.0786 15.0834 14.0246 15.0038C13.9706 14.9229 13.9046 14.8547 13.8264 14.7993C13.7497 14.7425 13.6617 14.6991 13.5622 14.6693C13.4642 14.6395 13.3555 14.6246 13.2362 14.6246C13.0132 14.6246 12.8172 14.68 12.6482 14.7908C12.4805 14.9016 12.3499 15.0628 12.2561 15.2744C12.1624 15.4847 12.1155 15.7418 12.1155 16.0457C12.1155 16.3497 12.1617 16.6082 12.254 16.8213C12.3463 17.0344 12.477 17.197 12.646 17.3092C12.8151 17.42 13.0146 17.4754 13.2448 17.4754C13.4536 17.4754 13.6318 17.4385 13.7796 17.3646C13.9287 17.2893 14.0423 17.1835 14.1205 17.0472C14.2 16.9108 14.2398 16.7496 14.2398 16.5635L14.4273 16.5912H13.3023V15.8966H15.1283V16.4463C15.1283 16.8298 15.0473 17.1594 14.8854 17.4349C14.7234 17.7091 14.5004 17.9207 14.2163 18.0699C13.9323 18.2176 13.607 18.2915 13.2405 18.2915C12.8314 18.2915 12.472 18.2013 12.1624 18.0209C11.8527 17.8391 11.6112 17.5812 11.4379 17.2474C11.2661 16.9122 11.1801 16.5145 11.1801 16.0543C11.1801 15.7006 11.2313 15.3852 11.3335 15.1082C11.4372 14.8298 11.5821 14.594 11.7682 14.4009C11.9543 14.2077 12.1709 14.0607 12.418 13.9598C12.6652 13.8589 12.933 13.8085 13.2213 13.8085C13.4685 13.8085 13.6986 13.8447 13.9117 13.9172C14.1247 13.9882 14.3136 14.0891 14.4784 14.2197C14.6446 14.3504 14.7803 14.506 14.8854 14.6864C14.9905 14.8653 15.058 15.0628 15.0878 15.2787H14.1503Z" fill="white"/>
<defs>
<clipPath id="clip0_1030_40687">
<rect width="18" height="24" fill="white" transform="translate(3)"/>
</clipPath>
</defs>
</svg>
