<svg width="21" height="24" viewBox="0 0 21 24" fill="none" xmlns="http://www.w3.org/2000/svg">
<g clip-path="url(#clip0_1030_40765)">
<path d="M6.2002 0.599609H13.252L20.4004 7.74805V20.7998C20.4004 22.2357 19.2357 23.4004 17.7998 23.4004H6.2002C4.76425 23.4004 3.59961 22.2357 3.59961 20.7998V3.2002C3.59961 1.76425 4.76426 0.599609 6.2002 0.599609Z" fill="white" stroke="#C8D2E1" stroke-width="1.2"/>
<path d="M13.2 0.6V5.4C13.2 6.72548 14.2745 7.8 15.6 7.8H20.4" stroke="#C8D2E1" stroke-width="1.2" stroke-linecap="round"/>
</g>
<rect y="11.1" width="15" height="9.9" rx="1.6" fill="#FF1607"/>
<path d="M2.05042 18.2318V13.8682H3.77201C4.10297 13.8682 4.38493 13.9314 4.61789 14.0578C4.85084 14.1828 5.0284 14.3568 5.15056 14.5798C5.27414 14.8014 5.33593 15.0571 5.33593 15.3469C5.33593 15.6366 5.27343 15.8923 5.14843 16.1139C5.02343 16.3355 4.84232 16.5081 4.6051 16.6317C4.36931 16.7553 4.0838 16.817 3.74857 16.817H2.65127V16.0777H3.59942C3.77698 16.0777 3.92328 16.0472 4.03834 15.9861C4.15482 15.9236 4.24147 15.8376 4.29828 15.7283C4.35652 15.6175 4.38564 15.4903 4.38564 15.3469C4.38564 15.202 4.35652 15.0756 4.29828 14.9676C4.24147 14.8582 4.15482 14.7737 4.03834 14.7141C3.92186 14.653 3.77414 14.6224 3.59516 14.6224H2.973V18.2318H2.05042Z" fill="white"/>
<path d="M7.36206 18.2318H5.81518V13.8682H7.37484C7.81376 13.8682 8.1916 13.9555 8.50836 14.1303C8.82512 14.3035 9.06873 14.5528 9.23919 14.8781C9.41106 15.2034 9.497 15.5926 9.497 16.0457C9.497 16.5003 9.41106 16.8909 9.23919 17.2176C9.06873 17.5443 8.8237 17.795 8.5041 17.9697C8.18592 18.1445 7.80524 18.2318 7.36206 18.2318ZM6.73777 17.4413H7.3237C7.59643 17.4413 7.82583 17.393 8.01191 17.2964C8.19941 17.1984 8.34004 17.0472 8.43379 16.8426C8.52896 16.6366 8.57654 16.371 8.57654 16.0457C8.57654 15.7233 8.52896 15.4598 8.43379 15.2553C8.34004 15.0507 8.20012 14.9001 8.01404 14.8035C7.82796 14.707 7.59856 14.6587 7.32583 14.6587H6.73777V17.4413Z" fill="white"/>
<path d="M10.0604 18.2318V13.8682H12.9496V14.6288H10.983V15.6686H12.7579V16.4293H10.983V18.2318H10.0604Z" fill="white"/>
<defs>
<clipPath id="clip0_1030_40765">
<rect width="18" height="24" fill="white" transform="translate(3)"/>
</clipPath>
</defs>
</svg>
