<svg width="18" height="24" viewBox="0 0 18 24" fill="none" xmlns="http://www.w3.org/2000/svg">
<g clip-path="url(#clip0_1030_40951)">
<path d="M0 3.2C0 1.43269 1.43269 0 3.2 0H10.2L18 7.8V20.8C18 22.5673 16.5673 24 14.8 24H3.2C1.43269 24 0 22.5673 0 20.8V3.2Z" fill="url(#paint0_linear_1030_40951)"/>
<path d="M12.6 7.8H18L10.2 0V5.4C10.2 6.72548 11.2745 7.8 12.6 7.8Z" fill="#DCE2EB"/>
<path d="M3.2002 0.400391H10.0342L17.5996 7.96582V20.7998C17.5996 22.3462 16.3462 23.5996 14.7998 23.5996H3.2002C1.6538 23.5996 0.400391 22.3462 0.400391 20.7998V3.2002C0.400391 1.6538 1.6538 0.400391 3.2002 0.400391Z" stroke="black" stroke-opacity="0.06" stroke-width="0.8"/>
</g>
<path d="M3.91943 19.8V15.4364H5.64102C5.97199 15.4364 6.25395 15.4996 6.48691 15.626C6.71986 15.751 6.89742 15.925 7.01958 16.148C7.14316 16.3696 7.20495 16.6253 7.20495 16.9151C7.20495 17.2048 7.14245 17.4605 7.01745 17.6821C6.89245 17.9037 6.71134 18.0763 6.47412 18.1999C6.23833 18.3234 5.95281 18.3852 5.61759 18.3852H4.52029V17.6459H5.46844C5.646 17.6459 5.7923 17.6153 5.90736 17.5543C6.02384 17.4918 6.11048 17.4058 6.1673 17.2964C6.22554 17.1857 6.25466 17.0585 6.25466 16.9151C6.25466 16.7702 6.22554 16.6437 6.1673 16.5358C6.11048 16.4264 6.02384 16.3419 5.90736 16.2822C5.79088 16.2212 5.64316 16.1906 5.46418 16.1906H4.84202V19.8H3.91943Z" fill="#344054"/>
<path d="M9.23107 19.8H7.6842V15.4364H9.24386C9.68278 15.4364 10.0606 15.5237 10.3774 15.6984C10.6941 15.8717 10.9378 16.121 11.1082 16.4463C11.2801 16.7716 11.366 17.1608 11.366 17.6139C11.366 18.0685 11.2801 18.4591 11.1082 18.7858C10.9378 19.1125 10.6927 19.3632 10.3731 19.5379C10.0549 19.7126 9.67426 19.8 9.23107 19.8ZM8.60678 19.0095H9.19272C9.46545 19.0095 9.69485 18.9612 9.88093 18.8646C10.0684 18.7666 10.2091 18.6153 10.3028 18.4108C10.398 18.2048 10.4456 17.9392 10.4456 17.6139C10.4456 17.2915 10.398 17.028 10.3028 16.8234C10.2091 16.6189 10.0691 16.4683 9.88306 16.3717C9.69698 16.2751 9.46758 16.2268 9.19485 16.2268H8.60678V19.0095Z" fill="#344054"/>
<path d="M11.9294 19.8V15.4364H14.8186V16.197H12.852V17.2368H14.6269V17.9974H12.852V19.8H11.9294Z" fill="#344054"/>
<defs>
<linearGradient id="paint0_linear_1030_40951" x1="9" y1="0" x2="9" y2="24" gradientUnits="userSpaceOnUse">
<stop stop-color="#F2F6FC"/>
<stop offset="1" stop-color="#EDF1F7"/>
</linearGradient>
<clipPath id="clip0_1030_40951">
<rect width="18" height="24" fill="white"/>
</clipPath>
</defs>
</svg>
