<svg width="18" height="24" viewBox="0 0 18 24" fill="none" xmlns="http://www.w3.org/2000/svg">
<g clip-path="url(#clip0_1030_41123)">
<path d="M0 3.2C0 1.43269 1.43269 0 3.2 0H10.2L18 7.8V20.8C18 22.5673 16.5673 24 14.8 24H3.2C1.43269 24 0 22.5673 0 20.8V3.2Z" fill="#3873FF"/>
<path d="M12.6 7.8H18L10.2 0V5.4C10.2 6.72548 11.2745 7.8 12.6 7.8Z" fill="white" fill-opacity="0.5"/>
</g>
<path d="M3.14355 19.8V15.4364H4.86515C5.19611 15.4364 5.47807 15.4996 5.71103 15.626C5.94398 15.751 6.12154 15.925 6.2437 16.148C6.36728 16.3696 6.42907 16.6253 6.42907 16.9151C6.42907 17.2048 6.36657 17.4605 6.24157 17.6821C6.11657 17.9037 5.93546 18.0763 5.69824 18.1999C5.46245 18.3234 5.17694 18.3852 4.84171 18.3852H3.74441V17.6459H4.69256C4.87012 17.6459 5.01642 17.6153 5.13148 17.5543C5.24796 17.4918 5.33461 17.4058 5.39142 17.2965C5.44966 17.1857 5.47878 17.0585 5.47878 16.9151C5.47878 16.7702 5.44966 16.6438 5.39142 16.5358C5.33461 16.4264 5.24796 16.3419 5.13148 16.2822C5.015 16.2212 4.86728 16.1906 4.6883 16.1906H4.06614V19.8H3.14355Z" fill="white"/>
<path d="M10.5582 15.4364V19.8H9.7613L7.86287 17.0536H7.8309V19.8H6.90832V15.4364H7.71798L9.6015 18.1807H9.63985V15.4364H10.5582Z" fill="white"/>
<path d="M14.0939 16.8469C14.0641 16.7432 14.0222 16.6516 13.9682 16.572C13.9142 16.4911 13.8482 16.4229 13.77 16.3675C13.6933 16.3107 13.6053 16.2673 13.5058 16.2375C13.4078 16.2077 13.2992 16.1928 13.1798 16.1928C12.9568 16.1928 12.7608 16.2482 12.5918 16.359C12.4242 16.4697 12.2935 16.631 12.1997 16.8426C12.106 17.0528 12.0591 17.3099 12.0591 17.6139C12.0591 17.9179 12.1053 18.1764 12.1976 18.3895C12.2899 18.6026 12.4206 18.7652 12.5896 18.8774C12.7587 18.9882 12.9582 19.0436 13.1884 19.0436C13.3972 19.0436 13.5754 19.0067 13.7232 18.9328C13.8723 18.8575 13.9859 18.7517 14.0641 18.6153C14.1436 18.479 14.1834 18.3178 14.1834 18.1317L14.3709 18.1594H13.2459V17.4648H15.0719V18.0145C15.0719 18.398 14.9909 18.7276 14.829 19.0031C14.667 19.2773 14.444 19.4889 14.1599 19.6381C13.8759 19.7858 13.5506 19.8597 13.1841 19.8597C12.775 19.8597 12.4156 19.7695 12.106 19.5891C11.7963 19.4072 11.5548 19.1494 11.3815 18.8156C11.2097 18.4804 11.1237 18.0827 11.1237 17.6224C11.1237 17.2688 11.1749 16.9534 11.2771 16.6764C11.3808 16.398 11.5257 16.1622 11.7118 15.969C11.8979 15.7759 12.1145 15.6288 12.3617 15.528C12.6088 15.4271 12.8766 15.3767 13.1649 15.3767C13.4121 15.3767 13.6422 15.4129 13.8553 15.4854C14.0683 15.5564 14.2572 15.6572 14.422 15.7879C14.5882 15.9186 14.7239 16.0742 14.829 16.2545C14.9341 16.4335 15.0016 16.631 15.0314 16.8469H14.0939Z" fill="white"/>
<defs>
<clipPath id="clip0_1030_41123">
<rect width="18" height="24" fill="white"/>
</clipPath>
</defs>
</svg>
