<svg width="21" height="24" viewBox="0 0 21 24" fill="none" xmlns="http://www.w3.org/2000/svg">
<g clip-path="url(#clip0_1030_40705)">
<path d="M6.2002 0.599609H13.252L20.4004 7.74805V20.7998C20.4004 22.2357 19.2357 23.4004 17.7998 23.4004H6.2002C4.76425 23.4004 3.59961 22.2357 3.59961 20.7998V3.2002C3.59961 1.76425 4.76426 0.599609 6.2002 0.599609Z" fill="white" stroke="#C8D2E1" stroke-width="1.2"/>
<path d="M13.2 0.6V5.4C13.2 6.72548 14.2745 7.8 15.6 7.8H20.4" stroke="#C8D2E1" stroke-width="1.2" stroke-linecap="round"/>
</g>
<rect y="11.1" width="15.75" height="9.9" rx="1.6" fill="#3873FF"/>
<path d="M1.91089 18.2318V13.8682H3.63248C3.96345 13.8682 4.24541 13.9314 4.47836 14.0578C4.71131 14.1828 4.88887 14.3568 5.01103 14.5798C5.13461 14.8014 5.1964 15.0571 5.1964 15.3469C5.1964 15.6366 5.1339 15.8923 5.0089 16.1139C4.8839 16.3355 4.70279 16.5081 4.46558 16.6317C4.22978 16.7553 3.94427 16.817 3.60904 16.817H2.51174V16.0777H3.45989C3.63745 16.0777 3.78376 16.0472 3.89881 15.9861C4.01529 15.9236 4.10194 15.8376 4.15876 15.7283C4.217 15.6175 4.24612 15.4903 4.24612 15.3469C4.24612 15.202 4.217 15.0756 4.15876 14.9676C4.10194 14.8582 4.01529 14.7737 3.89881 14.7141C3.78234 14.653 3.63461 14.6224 3.45563 14.6224H2.83347V18.2318H1.91089Z" fill="white"/>
<path d="M9.32551 13.8682V18.2318H8.52864L6.6302 15.4854H6.59824V18.2318H5.67565V13.8682H6.48531L8.36884 16.6125H8.40719V13.8682H9.32551Z" fill="white"/>
<path d="M12.8612 15.2787C12.8314 15.175 12.7895 15.0834 12.7355 15.0038C12.6815 14.9229 12.6155 14.8547 12.5374 14.7993C12.4607 14.7425 12.3726 14.6991 12.2732 14.6693C12.1751 14.6395 12.0665 14.6246 11.9472 14.6246C11.7242 14.6246 11.5281 14.68 11.3591 14.7908C11.1915 14.9016 11.0608 15.0628 10.9671 15.2744C10.8733 15.4847 10.8264 15.7418 10.8264 16.0457C10.8264 16.3497 10.8726 16.6082 10.9649 16.8213C11.0573 17.0344 11.1879 17.197 11.357 17.3092C11.526 17.42 11.7256 17.4754 11.9557 17.4754C12.1645 17.4754 12.3428 17.4385 12.4905 17.3646C12.6396 17.2893 12.7533 17.1835 12.8314 17.0472C12.9109 16.9108 12.9507 16.7496 12.9507 16.5635L13.1382 16.5912H12.0132V15.8966H13.8392V16.4463C13.8392 16.8298 13.7582 17.1594 13.5963 17.4349C13.4344 17.7091 13.2114 17.9207 12.9273 18.0699C12.6432 18.2176 12.3179 18.2915 11.9514 18.2915C11.5423 18.2915 11.183 18.2013 10.8733 18.0209C10.5636 17.8391 10.3222 17.5812 10.1489 17.2474C9.977 16.9122 9.89106 16.5145 9.89106 16.0543C9.89106 15.7006 9.94219 15.3852 10.0445 15.1082C10.1482 14.8298 10.293 14.594 10.4791 14.4009C10.6652 14.2077 10.8818 14.0607 11.129 13.9598C11.3761 13.8589 11.6439 13.8085 11.9323 13.8085C12.1794 13.8085 12.4095 13.8447 12.6226 13.9172C12.8357 13.9882 13.0246 14.0891 13.1894 14.2197C13.3555 14.3504 13.4912 14.506 13.5963 14.6864C13.7014 14.8653 13.7689 15.0628 13.7987 15.2787H12.8612Z" fill="white"/>
<defs>
<clipPath id="clip0_1030_40705">
<rect width="18" height="24" fill="white" transform="translate(3)"/>
</clipPath>
</defs>
</svg>
