<svg width="18" height="24" viewBox="0 0 18 24" fill="none" xmlns="http://www.w3.org/2000/svg">
<g clip-path="url(#clip0_1030_40933)">
<path d="M0 3.2C0 1.43269 1.43269 0 3.2 0H10.2L18 7.8V20.8C18 22.5673 16.5673 24 14.8 24H3.2C1.43269 24 0 22.5673 0 20.8V3.2Z" fill="url(#paint0_linear_1030_40933)"/>
<path d="M12.6 7.8H18L10.2 0V5.4C10.2 6.72548 11.2745 7.8 12.6 7.8Z" fill="#DCE2EB"/>
<path d="M3.2002 0.400391H10.0342L17.5996 7.96582V20.7998C17.5996 22.3462 16.3462 23.5996 14.7998 23.5996H3.2002C1.6538 23.5996 0.400391 22.3462 0.400391 20.7998V3.2002C0.400391 1.6538 1.6538 0.400391 3.2002 0.400391Z" stroke="black" stroke-opacity="0.06" stroke-width="0.8"/>
</g>
<path d="M3.91064 19.8V15.4364H5.63224C5.9632 15.4364 6.24516 15.4996 6.47812 15.626C6.71107 15.751 6.88863 15.925 7.01079 16.148C7.13437 16.3696 7.19616 16.6253 7.19616 16.9151C7.19616 17.2048 7.13366 17.4605 7.00866 17.6821C6.88366 17.9037 6.70255 18.0763 6.46533 18.1999C6.22954 18.3234 5.94403 18.3852 5.6088 18.3852H4.5115V17.6459H5.45965C5.63721 17.6459 5.78351 17.6153 5.89857 17.5543C6.01505 17.4918 6.1017 17.4058 6.15851 17.2964C6.21675 17.1857 6.24587 17.0585 6.24587 16.9151C6.24587 16.7702 6.21675 16.6437 6.15851 16.5358C6.1017 16.4264 6.01505 16.3419 5.89857 16.2822C5.78209 16.2212 5.63437 16.1906 5.45539 16.1906H4.83323V19.8H3.91064Z" fill="#344054"/>
<path d="M7.67541 19.8V15.4364H9.397C9.72797 15.4364 10.0099 15.4996 10.2429 15.626C10.4758 15.751 10.6534 15.925 10.7756 16.148C10.8991 16.3696 10.9609 16.6253 10.9609 16.9151C10.9609 17.2048 10.8984 17.4605 10.7734 17.6821C10.6484 17.9037 10.4673 18.0763 10.2301 18.1999C9.9943 18.3234 9.70879 18.3852 9.37356 18.3852H8.27626V17.6459H9.22442C9.40197 17.6459 9.54828 17.6153 9.66334 17.5543C9.77981 17.4918 9.86646 17.4058 9.92328 17.2964C9.98152 17.1857 10.0106 17.0585 10.0106 16.9151C10.0106 16.7702 9.98152 16.6437 9.92328 16.5358C9.86646 16.4264 9.77981 16.3419 9.66334 16.2822C9.54686 16.2212 9.39913 16.1906 9.22015 16.1906H8.598V19.8H7.67541Z" fill="#344054"/>
<path d="M11.274 16.197V15.4364H14.8578V16.197H13.5219V19.8H12.6099V16.197H11.274Z" fill="#344054"/>
<defs>
<linearGradient id="paint0_linear_1030_40933" x1="9" y1="0" x2="9" y2="24" gradientUnits="userSpaceOnUse">
<stop stop-color="#F2F6FC"/>
<stop offset="1" stop-color="#EDF1F7"/>
</linearGradient>
<clipPath id="clip0_1030_40933">
<rect width="18" height="24" fill="white"/>
</clipPath>
</defs>
</svg>
