<svg width="21" height="24" viewBox="0 0 21 24" fill="none" xmlns="http://www.w3.org/2000/svg">
<g clip-path="url(#clip0_1030_40567)">
<path d="M6.2002 0.599609H13.252L20.4004 7.74805V20.7998C20.4004 22.2357 19.2357 23.4004 17.7998 23.4004H6.2002C4.76425 23.4004 3.59961 22.2357 3.59961 20.7998V3.2002C3.59961 1.76425 4.76426 0.599609 6.2002 0.599609Z" fill="white" stroke="#C8D2E1" stroke-width="1.2"/>
<path d="M13.2 0.6V5.4C13.2 6.72548 14.2745 7.8 15.6 7.8H20.4" stroke="#C8D2E1" stroke-width="1.2" stroke-linecap="round"/>
</g>
<rect y="11.1" width="15" height="9.9" rx="1.6" fill="#3873FF"/>
<path d="M1.87088 18.2308V13.8671H3.59247C3.92344 13.8671 4.2054 13.9303 4.43835 14.0567C4.67131 14.1817 4.84886 14.3558 4.97102 14.5788C5.0946 14.8004 5.15639 15.056 5.15639 15.3458C5.15639 15.6356 5.09389 15.8913 4.96889 16.1129C4.84389 16.3344 4.66278 16.507 4.42557 16.6306C4.18977 16.7542 3.90426 16.816 3.56903 16.816H2.47173V16.0766H3.41989C3.59744 16.0766 3.74375 16.0461 3.85881 15.985C3.97528 15.9225 4.06193 15.8366 4.11875 15.7272C4.17699 15.6164 4.20611 15.4893 4.20611 15.3458C4.20611 15.2009 4.17699 15.0745 4.11875 14.9665C4.06193 14.8572 3.97528 14.7727 3.85881 14.713C3.74233 14.6519 3.5946 14.6214 3.41562 14.6214H2.79347V18.2308H1.87088Z" fill="white"/>
<path d="M8.00283 15.1221C7.98579 14.9502 7.91263 14.8167 7.78337 14.7215C7.65411 14.6263 7.47869 14.5788 7.25709 14.5788C7.10653 14.5788 6.9794 14.6001 6.8757 14.6427C6.77201 14.6839 6.69246 14.7414 6.63707 14.8153C6.58309 14.8891 6.5561 14.9729 6.5561 15.0667C6.55326 15.1448 6.56959 15.213 6.60511 15.2712C6.64204 15.3295 6.69246 15.3799 6.75638 15.4225C6.8203 15.4637 6.89417 15.4999 6.97798 15.5312C7.06178 15.561 7.15127 15.5866 7.24644 15.6079L7.63849 15.7016C7.82883 15.7442 8.00354 15.8011 8.16263 15.8721C8.32173 15.9431 8.45951 16.0305 8.57599 16.1342C8.69246 16.2379 8.78266 16.36 8.84658 16.5006C8.91192 16.6413 8.94531 16.8025 8.94673 16.9843C8.94531 17.2513 8.87712 17.4829 8.74218 17.6789C8.60866 17.8735 8.41548 18.0248 8.16263 18.1327C7.91121 18.2393 7.60795 18.2925 7.25283 18.2925C6.90056 18.2925 6.59374 18.2386 6.33238 18.1306C6.07244 18.0227 5.86931 17.8629 5.723 17.6512C5.57812 17.4381 5.50212 17.1746 5.49502 16.8607H6.38778C6.39772 17.007 6.43962 17.1292 6.51349 17.2272C6.58877 17.3238 6.68891 17.3969 6.81391 17.4467C6.94033 17.495 7.08309 17.5191 7.24218 17.5191C7.39843 17.5191 7.53408 17.4964 7.64914 17.4509C7.76562 17.4055 7.85582 17.3423 7.91974 17.2613C7.98366 17.1803 8.01562 17.0873 8.01562 16.9822C8.01562 16.8842 7.9865 16.8018 7.92826 16.735C7.87144 16.6683 7.78763 16.6114 7.67684 16.5646C7.56746 16.5177 7.43323 16.4751 7.27414 16.4367L6.799 16.3174C6.4311 16.2279 6.14062 16.088 5.92755 15.8977C5.71448 15.7073 5.60866 15.4509 5.61008 15.1285C5.60866 14.8643 5.67897 14.6335 5.82102 14.436C5.96448 14.2386 6.16121 14.0844 6.41121 13.9737C6.66121 13.8629 6.9453 13.8075 7.26349 13.8075C7.58735 13.8075 7.87002 13.8629 8.1115 13.9737C8.3544 14.0844 8.54332 14.2386 8.67826 14.436C8.8132 14.6335 8.8828 14.8621 8.88707 15.1221H8.00283Z" fill="white"/>
<path d="M10.9942 18.2308H9.44729V13.8671H11.0069C11.4459 13.8671 11.8237 13.9545 12.1405 14.1292C12.4572 14.3025 12.7008 14.5518 12.8713 14.8771C13.0432 15.2023 13.1291 15.5915 13.1291 16.0447C13.1291 16.4992 13.0432 16.8898 12.8713 17.2165C12.7008 17.5433 12.4558 17.794 12.1362 17.9687C11.818 18.1434 11.4373 18.2308 10.9942 18.2308ZM10.3699 17.4403H10.9558C11.2285 17.4403 11.4579 17.392 11.644 17.2954C11.8315 17.1974 11.9721 17.0461 12.0659 16.8415C12.1611 16.6356 12.2087 16.37 12.2087 16.0447C12.2087 15.7222 12.1611 15.4587 12.0659 15.2542C11.9721 15.0496 11.8322 14.8991 11.6462 14.8025C11.4601 14.7059 11.2307 14.6576 10.9579 14.6576H10.3699V17.4403Z" fill="white"/>
<defs>
<clipPath id="clip0_1030_40567">
<rect width="18" height="24" fill="white" transform="translate(3)"/>
</clipPath>
</defs>
</svg>
