<svg width="18" height="24" viewBox="0 0 18 24" fill="none" xmlns="http://www.w3.org/2000/svg">
<g clip-path="url(#clip0_1030_41008)">
<path d="M0 3.2C0 1.43269 1.43269 0 3.2 0H10.2L18 7.8V20.8C18 22.5673 16.5673 24 14.8 24H3.2C1.43269 24 0 22.5673 0 20.8V3.2Z" fill="#3873FF"/>
<path d="M12.6 7.8H18L10.2 0V5.4C10.2 6.72548 11.2745 7.8 12.6 7.8Z" fill="white" fill-opacity="0.5"/>
</g>
<path d="M3.40845 19.8V15.4364H5.13004C5.461 15.4364 5.74296 15.4996 5.97592 15.626C6.20887 15.751 6.38643 15.925 6.50859 16.148C6.63217 16.3696 6.69396 16.6253 6.69396 16.9151C6.69396 17.2048 6.63146 17.4605 6.50646 17.6821C6.38146 17.9037 6.20035 18.0763 5.96314 18.1999C5.72734 18.3234 5.44183 18.3852 5.1066 18.3852H4.0093V17.6459H4.95745C5.13501 17.6459 5.28132 17.6153 5.39637 17.5543C5.51285 17.4918 5.5995 17.4058 5.65632 17.2965C5.71456 17.1857 5.74367 17.0585 5.74367 16.9151C5.74367 16.7702 5.71456 16.6438 5.65632 16.5358C5.5995 16.4264 5.51285 16.3419 5.39637 16.2822C5.2799 16.2212 5.13217 16.1906 4.95319 16.1906H4.33103V19.8H3.40845Z" fill="white"/>
<path d="M9.5404 16.6913C9.52336 16.5195 9.4502 16.3859 9.32094 16.2908C9.19168 16.1956 9.01625 16.148 8.79466 16.148C8.64409 16.148 8.51696 16.1693 8.41327 16.2119C8.30958 16.2531 8.23003 16.3107 8.17463 16.3845C8.12066 16.4584 8.09367 16.5422 8.09367 16.6359C8.09083 16.7141 8.10716 16.7822 8.14267 16.8405C8.17961 16.8987 8.23003 16.9492 8.29395 16.9918C8.35787 17.033 8.43174 17.0692 8.51554 17.1004C8.59935 17.1303 8.68884 17.1558 8.78401 17.1771L9.17605 17.2709C9.36639 17.3135 9.54111 17.3703 9.7002 17.4413C9.85929 17.5124 9.99708 17.5997 10.1136 17.7034C10.23 17.8071 10.3202 17.9293 10.3842 18.0699C10.4495 18.2105 10.4829 18.3717 10.4843 18.5536C10.4829 18.8206 10.4147 19.0521 10.2797 19.2482C10.1462 19.4428 9.95304 19.594 9.7002 19.702C9.44878 19.8085 9.14551 19.8618 8.7904 19.8618C8.43813 19.8618 8.13131 19.8078 7.86995 19.6999C7.61 19.5919 7.40688 19.4321 7.26057 19.2205C7.11568 19.0074 7.03969 18.7439 7.03259 18.43H7.92534C7.93529 18.5763 7.97719 18.6984 8.05105 18.7965C8.12634 18.893 8.22648 18.9662 8.35148 19.0159C8.4779 19.0642 8.62066 19.0884 8.77975 19.0884C8.936 19.0884 9.07165 19.0656 9.18671 19.0202C9.30318 18.9747 9.39338 18.9115 9.4573 18.8305C9.52122 18.7496 9.55318 18.6565 9.55318 18.5514C9.55318 18.4534 9.52407 18.371 9.46583 18.3043C9.40901 18.2375 9.3252 18.1807 9.21441 18.1338C9.10503 18.0869 8.9708 18.0443 8.81171 18.006L8.33657 17.8867C7.96867 17.7972 7.67818 17.6572 7.46512 17.4669C7.25205 17.2766 7.14622 17.0202 7.14764 16.6977C7.14622 16.4335 7.21654 16.2027 7.35858 16.0053C7.50205 15.8078 7.69878 15.6537 7.94878 15.5429C8.19878 15.4321 8.48287 15.3767 8.80105 15.3767C9.12492 15.3767 9.40759 15.4321 9.64907 15.5429C9.89196 15.6537 10.0809 15.8078 10.2158 16.0053C10.3508 16.2027 10.4204 16.4314 10.4246 16.6913H9.5404Z" fill="white"/>
<path d="M12.5317 19.8H10.9849V15.4364H12.5445C12.9834 15.4364 13.3613 15.5237 13.678 15.6984C13.9948 15.8717 14.2384 16.121 14.4089 16.4463C14.5807 16.7716 14.6667 17.1608 14.6667 17.6139C14.6667 18.0685 14.5807 18.4591 14.4089 18.7858C14.2384 19.1125 13.9934 19.3632 13.6738 19.5379C13.3556 19.7126 12.9749 19.8 12.5317 19.8ZM11.9074 19.0095H12.4934C12.7661 19.0095 12.9955 18.9612 13.1816 18.8646C13.3691 18.7666 13.5097 18.6153 13.6035 18.4108C13.6986 18.2048 13.7462 17.9392 13.7462 17.6139C13.7462 17.2915 13.6986 17.028 13.6035 16.8234C13.5097 16.6189 13.3698 16.4683 13.1837 16.3717C12.9976 16.2751 12.7682 16.2269 12.4955 16.2269H11.9074V19.0095Z" fill="white"/>
<defs>
<clipPath id="clip0_1030_41008">
<rect width="18" height="24" fill="white"/>
</clipPath>
</defs>
</svg>
