<svg width="24" height="24" viewBox="0 0 24 24" fill="none" xmlns="http://www.w3.org/2000/svg">
<g clip-path="url(#clip0_1030_40753)">
<path d="M6.2002 0.599609H13.252L20.4004 7.74805V20.7998C20.4004 22.2357 19.2357 23.4004 17.7998 23.4004H6.2002C4.76425 23.4004 3.59961 22.2357 3.59961 20.7998V3.2002C3.59961 1.76425 4.76426 0.599609 6.2002 0.599609Z" fill="white" stroke="#C8D2E1" stroke-width="1.2"/>
<path d="M13.2 0.6V5.4C13.2 6.72548 14.2745 7.8 15.6 7.8H20.4" stroke="#C8D2E1" stroke-width="1.2" stroke-linecap="round"/>
</g>
<rect y="11.1" width="23.25" height="9.9" rx="1.6" fill="#FFBA35"/>
<path d="M4.5094 15.121C4.49235 14.9491 4.4192 14.8156 4.28994 14.7205C4.16068 14.6253 3.98525 14.5777 3.76366 14.5777C3.61309 14.5777 3.48596 14.599 3.38227 14.6416C3.27858 14.6828 3.19903 14.7403 3.14363 14.8142C3.08966 14.8881 3.06267 14.9719 3.06267 15.0656C3.05983 15.1437 3.07616 15.2119 3.11167 15.2702C3.1486 15.3284 3.19903 15.3788 3.26295 15.4214C3.32687 15.4626 3.40073 15.4989 3.48454 15.5301C3.56835 15.5599 3.65784 15.5855 3.75301 15.6068L4.14505 15.7006C4.33539 15.7432 4.51011 15.8 4.6692 15.871C4.82829 15.942 4.96608 16.0294 5.08255 16.1331C5.19903 16.2368 5.28923 16.3589 5.35315 16.4996C5.41849 16.6402 5.45187 16.8014 5.45329 16.9832C5.45187 17.2503 5.38369 17.4818 5.24875 17.6778C5.11522 17.8724 4.92204 18.0237 4.6692 18.1317C4.41778 18.2382 4.11451 18.2915 3.7594 18.2915C3.40713 18.2915 3.10031 18.2375 2.83894 18.1295C2.579 18.0216 2.37588 17.8618 2.22957 17.6501C2.08468 17.4371 2.00869 17.1736 2.00159 16.8597H2.89434C2.90429 17.006 2.94619 17.1281 3.02005 17.2261C3.09534 17.3227 3.19548 17.3959 3.32048 17.4456C3.4469 17.4939 3.58966 17.518 3.74875 17.518C3.905 17.518 4.04065 17.4953 4.15571 17.4499C4.27218 17.4044 4.36238 17.3412 4.4263 17.2602C4.49022 17.1793 4.52218 17.0862 4.52218 16.9811C4.52218 16.8831 4.49306 16.8007 4.43483 16.7339C4.37801 16.6672 4.2942 16.6104 4.18341 16.5635C4.07403 16.5166 3.9398 16.474 3.78071 16.4357L3.30556 16.3163C2.93767 16.2268 2.64718 16.0869 2.43412 15.8966C2.22105 15.7062 2.11522 15.4499 2.11664 15.1274C2.11522 14.8632 2.18554 14.6324 2.32758 14.4349C2.47105 14.2375 2.66778 14.0834 2.91778 13.9726C3.16778 13.8618 3.45187 13.8064 3.77005 13.8064C4.09392 13.8064 4.37659 13.8618 4.61806 13.9726C4.86096 14.0834 5.04988 14.2375 5.18483 14.4349C5.31977 14.6324 5.38937 14.8611 5.39363 15.121H4.5094Z" fill="white"/>
<path d="M6.75925 17.2879L6.76138 16.1991H6.89348L7.94178 14.957H8.98368L7.5753 16.6018H7.3601L6.75925 17.2879ZM5.93681 18.2297V13.866H6.84448V18.2297H5.93681ZM7.98226 18.2297L7.01919 16.8043L7.62431 16.1629L9.04547 18.2297H7.98226Z" fill="white"/>
<path d="M10.6657 18.2936C10.3291 18.2936 10.0393 18.2254 9.79639 18.0891C9.55491 17.9513 9.36883 17.7567 9.23815 17.5053C9.10747 17.2524 9.04213 16.9534 9.04213 16.6082C9.04213 16.2716 9.10747 15.9761 9.23815 15.7219C9.36883 15.4676 9.55278 15.2695 9.79 15.1274C10.0286 14.9854 10.3085 14.9143 10.6295 14.9143C10.8454 14.9143 11.0464 14.9491 11.2325 15.0187C11.42 15.0869 11.5833 15.1899 11.7225 15.3277C11.8631 15.4655 11.9725 15.6388 12.0506 15.8476C12.1288 16.055 12.1678 16.2979 12.1678 16.5763V16.8256H9.40434V16.2631H11.3134C11.3134 16.1324 11.285 16.0166 11.2282 15.9158C11.1714 15.8149 11.0926 15.7361 10.9917 15.6793C10.8923 15.621 10.7765 15.5919 10.6444 15.5919C10.5066 15.5919 10.3845 15.6239 10.2779 15.6878C10.1728 15.7503 10.0904 15.8348 10.0308 15.9413C9.9711 16.0464 9.94056 16.1636 9.93914 16.2929V16.8277C9.93914 16.9896 9.96897 17.1295 10.0286 17.2474C10.0897 17.3653 10.1756 17.4562 10.2864 17.5202C10.3972 17.5841 10.5286 17.616 10.6806 17.616C10.7815 17.616 10.8738 17.6018 10.9576 17.5734C11.0414 17.545 11.1131 17.5024 11.1728 17.4456C11.2325 17.3888 11.2779 17.3192 11.3092 17.2368L12.1487 17.2922C12.106 17.4939 12.0187 17.67 11.8866 17.8206C11.7559 17.9697 11.5869 18.0862 11.3795 18.17C11.1735 18.2524 10.9356 18.2936 10.6657 18.2936Z" fill="white"/>
<path d="M14.3809 14.957V15.6388H12.4101V14.957H14.3809ZM12.8575 14.1729H13.7652V17.224C13.7652 17.3078 13.778 17.3732 13.8035 17.42C13.8291 17.4655 13.8646 17.4974 13.9101 17.5159C13.9569 17.5344 14.0109 17.5436 14.072 17.5436C14.1146 17.5436 14.1572 17.5401 14.1998 17.533C14.2424 17.5244 14.2751 17.518 14.2978 17.5138L14.4406 18.1892C14.3951 18.2034 14.3312 18.2197 14.2488 18.2382C14.1664 18.2581 14.0663 18.2702 13.9484 18.2744C13.7297 18.283 13.5379 18.2538 13.3731 18.1871C13.2098 18.1203 13.0826 18.0166 12.9917 17.876C12.9008 17.7354 12.8561 17.5578 12.8575 17.3433V14.1729Z" fill="white"/>
<path d="M16.2957 18.2936C15.9605 18.2936 15.6722 18.2226 15.4307 18.0805C15.1906 17.9371 15.006 17.7382 14.8767 17.4839C14.7489 17.2297 14.6849 16.9371 14.6849 16.6061C14.6849 16.2709 14.7496 15.9768 14.8788 15.724C15.0095 15.4697 15.1949 15.2716 15.4349 15.1295C15.675 14.9861 15.9605 14.9143 16.2915 14.9143C16.577 14.9143 16.827 14.9662 17.0415 15.0699C17.256 15.1736 17.4257 15.3192 17.5507 15.5067C17.6757 15.6942 17.7446 15.9143 17.7574 16.1672H16.9008C16.8767 16.0038 16.8128 15.8724 16.7091 15.773C16.6068 15.6722 16.4726 15.6217 16.3064 15.6217C16.1658 15.6217 16.0429 15.6601 15.9378 15.7368C15.8341 15.8121 15.7531 15.9222 15.6949 16.067C15.6366 16.2119 15.6075 16.3874 15.6075 16.5933C15.6075 16.8021 15.6359 16.9797 15.6928 17.126C15.751 17.2723 15.8327 17.3838 15.9378 17.4605C16.0429 17.5372 16.1658 17.5756 16.3064 17.5756C16.4101 17.5756 16.5031 17.5543 16.5855 17.5116C16.6693 17.469 16.7382 17.4072 16.7922 17.3263C16.8476 17.2439 16.8838 17.1452 16.9008 17.0301H17.7574C17.7432 17.2801 17.675 17.5003 17.5528 17.6906C17.4321 17.8795 17.2652 18.0273 17.0521 18.1338C16.8391 18.2403 16.5869 18.2936 16.2957 18.2936Z" fill="white"/>
<path d="M19.1262 16.3376V18.2297H18.2185V13.866H19.1006V15.5344H19.139C19.2128 15.3412 19.3322 15.1899 19.4969 15.0805C19.6617 14.9697 19.8684 14.9143 20.117 14.9143C20.3442 14.9143 20.5424 14.9641 20.7114 15.0635C20.8819 15.1615 21.014 15.3028 21.1077 15.4875C21.2029 15.6707 21.2498 15.8902 21.2484 16.1459V18.2297H20.3407V16.3078C20.3421 16.1061 20.291 15.9491 20.1873 15.8369C20.085 15.7247 19.9415 15.6686 19.7569 15.6686C19.6333 15.6686 19.5239 15.6949 19.4288 15.7474C19.335 15.8 19.2611 15.8767 19.2072 15.9776C19.1546 16.077 19.1276 16.197 19.1262 16.3376Z" fill="white"/>
<defs>
<clipPath id="clip0_1030_40753">
<rect width="18" height="24" fill="white" transform="translate(3)"/>
</clipPath>
</defs>
</svg>
