<svg width="21" height="24" viewBox="0 0 21 24" fill="none" xmlns="http://www.w3.org/2000/svg">
<g clip-path="url(#clip0_1030_40627)">
<path d="M6.2002 0.599609H13.252L20.4004 7.74805V20.7998C20.4004 22.2357 19.2357 23.4004 17.7998 23.4004H6.2002C4.76425 23.4004 3.59961 22.2357 3.59961 20.7998V3.2002C3.59961 1.76425 4.76426 0.599609 6.2002 0.599609Z" fill="white" stroke="#C8D2E1" stroke-width="1.2"/>
<path d="M13.2 0.6V5.4C13.2 6.72548 14.2745 7.8 15.6 7.8H20.4" stroke="#C8D2E1" stroke-width="1.2" stroke-linecap="round"/>
</g>
<rect y="11.1" width="15.75" height="9.9" rx="1.6" fill="#3873FF"/>
<path d="M4.40985 15.1221C4.39281 14.9502 4.31965 14.8167 4.19039 14.7215C4.06113 14.6263 3.8857 14.5788 3.66411 14.5788C3.51354 14.5788 3.38641 14.6001 3.28272 14.6427C3.17903 14.6839 3.09948 14.7414 3.04408 14.8153C2.99011 14.8891 2.96312 14.9729 2.96312 15.0667C2.96028 15.1448 2.97661 15.213 3.01212 15.2712C3.04906 15.3295 3.09948 15.3799 3.1634 15.4225C3.22732 15.4637 3.30119 15.4999 3.38499 15.5312C3.4688 15.561 3.55829 15.5866 3.65346 15.6079L4.0455 15.7016C4.23585 15.7442 4.41056 15.8011 4.56965 15.8721C4.72874 15.9431 4.86653 16.0305 4.983 16.1342C5.09948 16.2379 5.18968 16.36 5.2536 16.5006C5.31894 16.6413 5.35232 16.8025 5.35374 16.9843C5.35232 17.2513 5.28414 17.4829 5.1492 17.6789C5.01567 17.8735 4.82249 18.0248 4.56965 18.1327C4.31823 18.2393 4.01496 18.2925 3.65985 18.2925C3.30758 18.2925 3.00076 18.2386 2.7394 18.1306C2.47945 18.0227 2.27633 17.8629 2.13002 17.6512C1.98514 17.4381 1.90914 17.1746 1.90204 16.8607H2.79479C2.80474 17.007 2.84664 17.1292 2.9205 17.2272C2.99579 17.3238 3.09593 17.3969 3.22093 17.4467C3.34735 17.495 3.49011 17.5191 3.6492 17.5191C3.80545 17.5191 3.9411 17.4964 4.05616 17.4509C4.17264 17.4055 4.26283 17.3423 4.32675 17.2613C4.39067 17.1803 4.42264 17.0873 4.42264 16.9822C4.42264 16.8842 4.39352 16.8018 4.33528 16.735C4.27846 16.6683 4.19465 16.6114 4.08386 16.5646C3.97448 16.5177 3.84025 16.4751 3.68116 16.4367L3.20602 16.3174C2.83812 16.2279 2.54764 16.088 2.33457 15.8977C2.1215 15.7073 2.01567 15.4509 2.0171 15.1285C2.01567 14.8643 2.08599 14.6335 2.22803 14.436C2.3715 14.2386 2.56823 14.0844 2.81823 13.9737C3.06823 13.8629 3.35232 13.8075 3.6705 13.8075C3.99437 13.8075 4.27704 13.8629 4.51852 13.9737C4.76141 14.0844 4.95033 14.2386 5.08528 14.436C5.22022 14.6335 5.28982 14.8621 5.29408 15.1221H4.40985Z" fill="white"/>
<path d="M6.64266 13.8671L7.69734 17.1825H7.73783L8.79464 13.8671H9.81737L8.31311 18.2308H7.12419L5.6178 13.8671H6.64266Z" fill="white"/>
<path d="M12.87 15.2776C12.8401 15.1739 12.7982 15.0823 12.7442 15.0028C12.6903 14.9218 12.6242 14.8536 12.5461 14.7982C12.4694 14.7414 12.3813 14.6981 12.2819 14.6683C12.1839 14.6384 12.0752 14.6235 11.9559 14.6235C11.7329 14.6235 11.5369 14.6789 11.3678 14.7897C11.2002 14.9005 11.0695 15.0617 10.9758 15.2734C10.882 15.4836 10.8352 15.7407 10.8352 16.0447C10.8352 16.3487 10.8813 16.6072 10.9737 16.8202C11.066 17.0333 11.1967 17.196 11.3657 17.3082C11.5347 17.419 11.7343 17.4744 11.9644 17.4744C12.1732 17.4744 12.3515 17.4374 12.4992 17.3636C12.6484 17.2883 12.762 17.1825 12.8401 17.0461C12.9197 16.9097 12.9594 16.7485 12.9594 16.5624L13.1469 16.5901H12.0219V15.8955H13.8479V16.4452C13.8479 16.8288 13.767 17.1583 13.605 17.4339C13.4431 17.708 13.2201 17.9197 12.936 18.0688C12.6519 18.2165 12.3266 18.2904 11.9602 18.2904C11.5511 18.2904 11.1917 18.2002 10.882 18.0198C10.5724 17.838 10.3309 17.5802 10.1576 17.2464C9.98572 16.9112 9.89979 16.5134 9.89979 16.0532C9.89979 15.6995 9.95092 15.3842 10.0532 15.1072C10.1569 14.8288 10.3018 14.593 10.4879 14.3998C10.6739 14.2066 10.8906 14.0596 11.1377 13.9587C11.3849 13.8579 11.6526 13.8075 11.941 13.8075C12.1881 13.8075 12.4183 13.8437 12.6313 13.9161C12.8444 13.9871 13.0333 14.088 13.1981 14.2187C13.3643 14.3494 13.4999 14.5049 13.605 14.6853C13.7102 14.8643 13.7776 15.0617 13.8075 15.2776H12.87Z" fill="white"/>
<defs>
<clipPath id="clip0_1030_40627">
<rect width="18" height="24" fill="white" transform="translate(3)"/>
</clipPath>
</defs>
</svg>
