<svg width="21" height="24" viewBox="0 0 21 24" fill="none" xmlns="http://www.w3.org/2000/svg">
<g clip-path="url(#clip0_1030_40615)">
<path d="M6.2002 0.599609H13.252L20.4004 7.74805V20.7998C20.4004 22.2357 19.2357 23.4004 17.7998 23.4004H6.2002C4.76425 23.4004 3.59961 22.2357 3.59961 20.7998V3.2002C3.59961 1.76425 4.76426 0.599609 6.2002 0.599609Z" fill="white" stroke="#C8D2E1" stroke-width="1.2"/>
<path d="M13.2 0.6V5.4C13.2 6.72548 14.2745 7.8 15.6 7.8H20.4" stroke="#C8D2E1" stroke-width="1.2" stroke-linecap="round"/>
</g>
<rect y="11.1" width="15.75" height="9.9" rx="1.6" fill="#3873FF"/>
<path d="M1.92767 14.6288V13.8682H5.51148V14.6288H4.17554V18.2318H3.26361V14.6288H1.92767Z" fill="white"/>
<path d="M6.90426 13.8682V18.2318H5.98168V13.8682H6.90426Z" fill="white"/>
<path d="M7.54332 18.2318V13.8682H10.4325V14.6288H8.4659V15.6686H10.2408V16.4293H8.4659V18.2318H7.54332Z" fill="white"/>
<path d="M10.9331 18.2318V13.8682H13.8223V14.6288H11.8557V15.6686H13.6305V16.4293H11.8557V18.2318H10.9331Z" fill="white"/>
<defs>
<clipPath id="clip0_1030_40615">
<rect width="18" height="24" fill="white" transform="translate(3)"/>
</clipPath>
</defs>
</svg>
