<svg width="18" height="24" viewBox="0 0 18 24" fill="none" xmlns="http://www.w3.org/2000/svg">
<g clip-path="url(#clip0_1030_41138)">
<path d="M0 3.2C0 1.43269 1.43269 0 3.2 0H10.2L18 7.8V20.8C18 22.5673 16.5673 24 14.8 24H3.2C1.43269 24 0 22.5673 0 20.8V3.2Z" fill="#0DB664"/>
<path d="M12.6 7.8H18L10.2 0V5.4C10.2 6.72548 11.2745 7.8 12.6 7.8Z" fill="white" fill-opacity="0.5"/>
</g>
<path d="M4.85176 15.4364L5.73173 16.9236H5.76582L6.65006 15.4364H7.69196L6.36029 17.6182L7.72179 19.8H6.66071L5.76582 18.3107H5.73173L4.83685 19.8H3.78003L5.1458 17.6182L3.8056 15.4364H4.85176Z" fill="white"/>
<path d="M8.15577 19.8V15.4364H9.07835V19.0394H10.9491V19.8H8.15577Z" fill="white"/>
<path d="M13.8073 16.6913C13.7902 16.5195 13.7171 16.3859 13.5878 16.2908C13.4585 16.1956 13.2831 16.148 13.0615 16.148C12.9109 16.148 12.7838 16.1693 12.6801 16.2119C12.5764 16.2531 12.4969 16.3107 12.4415 16.3845C12.3875 16.4584 12.3605 16.5422 12.3605 16.6359C12.3577 16.7141 12.374 16.7822 12.4095 16.8405C12.4465 16.8987 12.4969 16.9492 12.5608 16.9918C12.6247 17.033 12.6986 17.0692 12.7824 17.1004C12.8662 17.1303 12.9557 17.1558 13.0509 17.1771L13.4429 17.2709C13.6332 17.3135 13.808 17.3703 13.9671 17.4413C14.1261 17.5124 14.2639 17.5997 14.3804 17.7034C14.4969 17.8071 14.5871 17.9293 14.651 18.0699C14.7163 18.2105 14.7497 18.3717 14.7511 18.5536C14.7497 18.8206 14.6815 19.0521 14.5466 19.2482C14.4131 19.4428 14.2199 19.594 13.9671 19.702C13.7156 19.8085 13.4124 19.8618 13.0573 19.8618C12.705 19.8618 12.3982 19.8078 12.1368 19.6999C11.8769 19.5919 11.6737 19.4321 11.5274 19.2205C11.3825 19.0074 11.3065 18.7439 11.2994 18.43H12.1922C12.2021 18.5763 12.244 18.6984 12.3179 18.7965C12.3932 18.893 12.4933 18.9662 12.6183 19.0159C12.7448 19.0642 12.8875 19.0884 13.0466 19.0884C13.2028 19.0884 13.3385 19.0656 13.4536 19.0202C13.57 18.9747 13.6602 18.9115 13.7242 18.8305C13.7881 18.7496 13.82 18.6565 13.82 18.5514C13.82 18.4534 13.7909 18.371 13.7327 18.3043C13.6759 18.2375 13.5921 18.1807 13.4813 18.1338C13.3719 18.0869 13.2376 18.0443 13.0786 18.006L12.6034 17.8867C12.2355 17.7972 11.945 17.6572 11.732 17.4669C11.5189 17.2766 11.4131 17.0202 11.4145 16.6977C11.4131 16.4335 11.4834 16.2027 11.6254 16.0053C11.7689 15.8078 11.9656 15.6537 12.2156 15.5429C12.4656 15.4321 12.7497 15.3767 13.0679 15.3767C13.3918 15.3767 13.6744 15.4321 13.9159 15.5429C14.1588 15.6537 14.3477 15.8078 14.4827 16.0053C14.6176 16.2027 14.6872 16.4314 14.6915 16.6913H13.8073Z" fill="white"/>
<defs>
<clipPath id="clip0_1030_41138">
<rect width="18" height="24" fill="white"/>
</clipPath>
</defs>
</svg>
