<svg width="18" height="24" viewBox="0 0 18 24" fill="none" xmlns="http://www.w3.org/2000/svg">
<g clip-path="url(#clip0_1030_40771)">
<path d="M0 3.2C0 1.43269 1.43269 0 3.2 0H10.2L18 7.8V20.8C18 22.5673 16.5673 24 14.8 24H3.2C1.43269 24 0 22.5673 0 20.8V3.2Z" fill="url(#paint0_linear_1030_40771)"/>
<path d="M12.6 7.8H18L10.2 0V5.4C10.2 6.72548 11.2745 7.8 12.6 7.8Z" fill="#DCE2EB"/>
<path d="M3.2002 0.400391H10.0342L17.5996 7.96582V20.7998C17.5996 22.3462 16.3462 23.5996 14.7998 23.5996H3.2002C1.6538 23.5996 0.400391 22.3462 0.400391 20.7998V3.2002C0.400391 1.6538 1.6538 0.400391 3.2002 0.400391Z" stroke="black" stroke-opacity="0.06" stroke-width="0.8"/>
</g>
<path d="M4.74321 19.8V19.2524L6.92076 16.197H4.73895V15.4364H8.07985V15.9839L5.90017 19.0393H8.08412V19.8H4.74321Z" fill="#344054"/>
<path d="M9.59462 15.4364V19.8H8.67203V15.4364H9.59462Z" fill="#344054"/>
<path d="M10.2337 19.8V15.4364H11.9553C12.2862 15.4364 12.5682 15.4996 12.8011 15.626C13.0341 15.751 13.2117 15.925 13.3338 16.148C13.4574 16.3696 13.5192 16.6253 13.5192 16.9151C13.5192 17.2048 13.4567 17.4605 13.3317 17.6821C13.2067 17.9037 13.0256 18.0763 12.7884 18.1999C12.5526 18.3234 12.2671 18.3852 11.9318 18.3852H10.8345V17.6459H11.7827C11.9602 17.6459 12.1065 17.6153 12.2216 17.5543C12.3381 17.4918 12.4247 17.4058 12.4815 17.2964C12.5398 17.1857 12.5689 17.0585 12.5689 16.9151C12.5689 16.7702 12.5398 16.6437 12.4815 16.5358C12.4247 16.4264 12.3381 16.3419 12.2216 16.2822C12.1051 16.2212 11.9574 16.1906 11.7784 16.1906H11.1563V19.8H10.2337Z" fill="#344054"/>
<defs>
<linearGradient id="paint0_linear_1030_40771" x1="9" y1="0" x2="9" y2="24" gradientUnits="userSpaceOnUse">
<stop stop-color="#F2F6FC"/>
<stop offset="1" stop-color="#EDF1F7"/>
</linearGradient>
<clipPath id="clip0_1030_40771">
<rect width="18" height="24" fill="white"/>
</clipPath>
</defs>
</svg>
