<svg width="21" height="24" viewBox="0 0 21 24" fill="none" xmlns="http://www.w3.org/2000/svg">
<g clip-path="url(#clip0_1030_40549)">
<path d="M6.2002 0.599609H13.252L20.4004 7.74805V20.7998C20.4004 22.2357 19.2357 23.4004 17.7998 23.4004H6.2002C4.76425 23.4004 3.59961 22.2357 3.59961 20.7998V3.2002C3.59961 1.76425 4.76426 0.599609 6.2002 0.599609Z" fill="white" stroke="#C8D2E1" stroke-width="1.2"/>
<path d="M13.2 0.6V5.4C13.2 6.72548 14.2745 7.8 15.6 7.8H20.4" stroke="#C8D2E1" stroke-width="1.2" stroke-linecap="round"/>
</g>
<rect y="11.1" width="12.75" height="9.9" rx="1.6" fill="#344054"/>
<path d="M1.98914 18.2318V17.6842L4.1667 14.6288H1.98488V13.8682H5.32579V14.4158L3.1461 17.4712H5.33005V18.2318H1.98914Z" fill="white"/>
<path d="M6.84055 13.8682V18.2318H5.91797V13.8682H6.84055Z" fill="white"/>
<path d="M7.47961 18.2318V13.8682H9.2012C9.53217 13.8682 9.81413 13.9314 10.0471 14.0578C10.28 14.1828 10.4576 14.3568 10.5798 14.5798C10.7033 14.8014 10.7651 15.0571 10.7651 15.3469C10.7651 15.6366 10.7026 15.8923 10.5776 16.1139C10.4526 16.3355 10.2715 16.5081 10.0343 16.6317C9.7985 16.7553 9.51299 16.817 9.17776 16.817H8.08046V16.0777H9.02861C9.20617 16.0777 9.35248 16.0472 9.46754 15.9861C9.58401 15.9236 9.67066 15.8376 9.72748 15.7283C9.78572 15.6175 9.81484 15.4903 9.81484 15.3469C9.81484 15.202 9.78572 15.0756 9.72748 14.9676C9.67066 14.8582 9.58401 14.7737 9.46754 14.7141C9.35106 14.653 9.20333 14.6224 9.02435 14.6224H8.40219V18.2318H7.47961Z" fill="white"/>
<defs>
<clipPath id="clip0_1030_40549">
<rect width="18" height="24" fill="white" transform="translate(3)"/>
</clipPath>
</defs>
</svg>
