<svg fill="currentColor" fill-rule="evenodd" height="1em" style="flex:none;line-height:1" viewBox="0 0 24 24" width="1em" xmlns="http://www.w3.org/2000/svg"><title>Whisper</title><path d="M12 2.25a3.75 3.75 0 00-3.75 3.75v6a3.75 3.75 0 007.5 0V6A3.75 3.75 0 0012 2.25zm-2.25 3.75a2.25 2.25 0 014.5 0v6a2.25 2.25 0 01-4.5 0V6zM5.25 11.25a.75.75 0 00-1.5 0V12a8.251 8.251 0 007.5 8.217V22a.75.75 0 001.5 0v-1.783A8.251 8.251 0 0020.25 12v-.75a.75.75 0 00-1.5 0V12a6.75 6.75 0 11-13.5 0v-.75z"></path><path d="M2.47 4.47a.75.75 0 011.06 0L5.06 6a.75.75 0 01-1.06 1.06L2.47 5.53a.75.75 0 010-1.06zM21.53 4.47a.75.75 0 010 1.06L20 7.06A.75.75 0 0118.94 6l1.53-1.53a.75.75 0 011.06 0zM1.75 9.75a.75.75 0 01.75-.75h1.5a.75.75 0 010 1.5H2.5a.75.75 0 01-.75-.75zM19.25 9.75a.75.75 0 01.75-.75h1.5a.75.75 0 010 1.5H20a.75.75 0 01-.75-.75z"></path></svg>