<svg width="100" height="100" viewBox="0 0 100 100" fill="none" xmlns="http://www.w3.org/2000/svg">
<path d="M84.375 28.125H51.293L40.625 17.457C40.0465 16.8745 39.3581 16.4126 38.5997 16.0981C37.8413 15.7836 37.028 15.6228 36.207 15.625H15.625C13.9674 15.625 12.3777 16.2835 11.2056 17.4556C10.0335 18.6277 9.375 20.2174 9.375 21.875V78.3672C9.3781 79.9603 10.0126 81.4872 11.1395 82.6133C12.2663 83.7394 13.7936 84.3729 15.3867 84.375H84.7227C86.2874 84.3729 87.7875 83.7504 88.894 82.644C90.0004 81.5375 90.6229 80.0374 90.625 78.4727V34.375C90.625 32.7174 89.9665 31.1277 88.7944 29.9556C87.6223 28.7835 86.0326 28.125 84.375 28.125ZM15.625 21.875H36.207L42.457 28.125H15.625V21.875Z" fill="#10674C"/>
</svg>
