<svg width="16" height="16" viewBox="0 0 16 16" fill="none" xmlns="http://www.w3.org/2000/svg">
<rect width="16" height="16" fill="white" fill-opacity="0.01"/>
<path fill-rule="evenodd" clip-rule="evenodd" d="M4.47997 1.06665H4.45587C4.1273 1.06664 3.84389 1.06663 3.6118 1.0887C3.36611 1.11206 3.12343 1.16386 2.8973 1.30243C2.68202 1.43435 2.50101 1.61537 2.36908 1.83065C2.23051 2.05678 2.17871 2.29946 2.15535 2.54515C2.13328 2.77723 2.13329 3.06062 2.1333 3.38919V3.41332V12.5867V12.6108C2.13329 12.9394 2.13328 13.2227 2.15535 13.4548C2.17871 13.7005 2.23051 13.9431 2.36908 14.1693C2.50101 14.3846 2.68202 14.5656 2.8973 14.6976C3.12343 14.8361 3.36611 14.8879 3.6118 14.9112C3.84389 14.9333 4.1273 14.9333 4.45587 14.9333H4.47997H11.52H11.5441C11.8726 14.9333 12.156 14.9333 12.3881 14.9112C12.6338 14.8879 12.8764 14.8361 13.1026 14.6976C13.3179 14.5656 13.499 14.3846 13.6309 14.1693C13.7695 13.9431 13.8212 13.7005 13.8446 13.4548C13.8666 13.2227 13.8666 12.9393 13.8666 12.6108V12.5867V3.41332V3.38922C13.8666 3.06063 13.8666 2.77724 13.8446 2.54515C13.8212 2.29946 13.7695 2.05678 13.6309 1.83065C13.499 1.61537 13.3179 1.43435 13.1026 1.30243C12.8764 1.16386 12.6338 1.11206 12.3881 1.0887C12.156 1.06663 11.8726 1.06664 11.5441 1.06665H11.52H4.47997ZM3.45463 2.21191C3.485 2.1933 3.54516 2.16651 3.71277 2.15058C3.88831 2.13388 4.12048 2.13332 4.47997 2.13332H11.52C11.8794 2.13332 12.1116 2.13388 12.2872 2.15058C12.4548 2.16651 12.515 2.1933 12.5454 2.21191C12.617 2.25589 12.6774 2.31622 12.7214 2.38798C12.74 2.41835 12.7668 2.47851 12.7827 2.64612C12.7994 2.82166 12.8 3.05383 12.8 3.41332V12.5867C12.8 12.9461 12.7994 13.1783 12.7827 13.3539C12.7668 13.5215 12.74 13.5816 12.7214 13.612C12.6774 13.6837 12.617 13.7441 12.5454 13.788C12.515 13.8067 12.4548 13.8335 12.2872 13.8494C12.1116 13.8661 11.8794 13.8667 11.52 13.8667H4.47997C4.12048 13.8667 3.88831 13.8661 3.71277 13.8494C3.54516 13.8335 3.485 13.8067 3.45463 13.788C3.38287 13.7441 3.32254 13.6837 3.27856 13.612C3.25996 13.5816 3.23316 13.5215 3.21723 13.3539C3.20053 13.1783 3.19997 12.9461 3.19997 12.5867V3.41332C3.19997 3.05383 3.20053 2.82166 3.21723 2.64612C3.23316 2.47851 3.25996 2.41835 3.27856 2.38798C3.32254 2.31622 3.38287 2.25589 3.45463 2.21191ZM5.3333 10.6667C5.03875 10.6667 4.79997 10.9055 4.79997 11.2C4.79997 11.4945 5.03875 11.7333 5.3333 11.7333H8.5333C8.82785 11.7333 9.06664 11.4945 9.06664 11.2C9.06664 10.9055 8.82785 10.6667 8.5333 10.6667H5.3333ZM4.79997 7.99998C4.79997 7.70543 5.03875 7.46665 5.3333 7.46665H10.6666C10.9611 7.46665 11.2 7.70543 11.2 7.99998C11.2 8.29453 10.9611 8.53332 10.6666 8.53332H5.3333C5.03875 8.53332 4.79997 8.29453 4.79997 7.99998ZM5.3333 4.26665C5.03875 4.26665 4.79997 4.50543 4.79997 4.79998C4.79997 5.09453 5.03875 5.33332 5.3333 5.33332H10.6666C10.9611 5.33332 11.2 5.09453 11.2 4.79998C11.2 4.50543 10.9611 4.26665 10.6666 4.26665H5.3333Z" fill="#B0B4BA"/>
</svg>
