<svg xmlns="http://www.w3.org/2000/svg" viewBox="0 0 32 32">
  <path
    fill="#6924ff"
    d="M16 32c-1.056 0-2.028-.263-2.917-.791-.861-.5-1.555-1.18-2.083-2.041-.5-.889-.75-1.861-.75-2.917 0-1.333.306-2.444.917-3.333.611-.889 1.556-1.931 2.833-3.125.944-.861 1.417-1.681 1.417-2.458v-.75h-.75c-.861 0-2.042.861-3.542 2.583-1.472 1.722-3.264 2.583-5.375 2.583-1.056 0-2.028-.25-2.917-.75-.861-.528-1.555-1.222-2.083-2.083-.5-.889-.75-1.861-.75-2.917s.25-2.013.75-2.875c.528-.889 1.222-1.583 2.083-2.083.889-.528 1.861-.792 2.917-.792 2.083 0 3.861.847 5.333 2.542 1.472 1.694 2.667 2.542 3.583 2.542h.75v-.667c0-.778-.472-1.597-1.417-2.458l-.958-.875c-.694-.639-1.333-1.403-1.917-2.292-.583-.917-.875-2.014-.875-3.292 0-1.055.25-2.014.75-2.875.528-.889 1.222-1.583 2.083-2.083C13.972.263 14.944 0 16 0c1.056 0 2.014.264 2.875.792.889.527 1.583 1.222 2.083 2.083.528.861.792 1.819.792 2.875 0 2.083-.847 3.861-2.542 5.333C18.513 12.555 17.667 13.75 17.667 14.667v.666h.667c.944 0 2.139-.847 3.583-2.542 1.417-1.694 3.195-2.542 5.334-2.542 1.055 0 2.014.264 2.875.792.889.5 1.583 1.194 2.083 2.055.528.861.792 1.833.792 2.917 0 1.056-.264 2.028-.792 2.917-.5.861-1.194 1.556-2.083 2.084-.861.5-1.819.75-2.875.75-1.306 0-2.431-.319-3.375-.958-.917-.639-1.944-1.569-3.083-2.791-.861-.944-1.681-1.416-2.458-1.416h-.667v.75c0 1.028.847 2.222 2.542 3.583 1.695 1.361 2.542 3.139 2.542 5.333 0 1.056-.264 2.028-.792 2.917-.5.861-1.181 1.541-2.042 2.041-.861.528-1.833.792-2.917.792Z"
  />
</svg>
