<svg width="16" height="16" viewBox="0 0 16 16" fill="none" xmlns="http://www.w3.org/2000/svg">
<rect width="16" height="16" fill="white" fill-opacity="0.01"/>
<path fill-rule="evenodd" clip-rule="evenodd" d="M5.3333 4.94507C5.3333 4.01099 5.59164 3.31242 6.01941 2.8518C6.44193 2.39685 7.08884 2.11018 8.00146 2.11018C8.91458 2.11018 9.56056 2.39628 9.98208 2.85021C10.4089 3.30985 10.6666 4.00755 10.6666 4.94213V6.39999H5.3333V4.94507ZM4.26663 6.39999V4.94507C4.26663 3.82024 4.57958 2.83471 5.23782 2.12594C5.90132 1.41151 6.85517 1.04352 8.00146 1.04352C9.14752 1.04352 10.1008 1.41048 10.7637 2.12439C11.4214 2.8326 11.7333 3.81755 11.7333 4.94213V6.39999H12.8C13.3891 6.39999 13.8666 6.87755 13.8666 7.46665V13.8667C13.8666 14.4558 13.3891 14.9333 12.8 14.9333H3.19997C2.61087 14.9333 2.1333 14.4558 2.1333 13.8667V7.46665C2.1333 6.87755 2.61087 6.39999 3.19997 6.39999H4.26663ZM3.19997 7.46665H12.8V13.8667H3.19997V7.46665Z" fill="#B0B4BA"/>
</svg>
