<svg width="18" height="18" viewBox="0 0 18 18" fill="none" xmlns="http://www.w3.org/2000/svg">
<path d="M2.298 5.6325C2.92201 4.38993 3.87928 3.34538 5.06282 2.6156C6.24637 1.88582 7.60955 1.49956 9 1.5C11.0213 1.5 12.7193 2.2425 14.0175 3.45375L11.8673 5.60475C11.0895 4.8615 10.101 4.48275 9 4.48275C7.04625 4.48275 5.3925 5.80275 4.80375 7.575C4.65375 8.025 4.56825 8.505 4.56825 9C4.56825 9.495 4.65375 9.975 4.80375 10.425C5.39325 12.198 7.04625 13.5173 9 13.5173C10.0088 13.5173 10.8675 13.251 11.5395 12.801C11.9291 12.5445 12.2626 12.2117 12.5199 11.8226C12.7772 11.4336 12.9529 10.9964 13.0365 10.5375H9V7.6365H16.0635C16.152 8.127 16.2 8.6385 16.2 9.17025C16.2 11.4548 15.3825 13.3777 13.9635 14.6827C12.723 15.8287 11.025 16.5 9 16.5C8.01498 16.5004 7.03953 16.3067 6.12941 15.9299C5.21929 15.5531 4.39234 15.0007 3.69582 14.3042C2.9993 13.6077 2.44687 12.7807 2.0701 11.8706C1.69333 10.9605 1.49961 9.98503 1.5 9C1.5 7.7895 1.7895 6.645 2.298 5.6325Z" fill="white"/>
</svg>
